<svg width="40" height="40" viewBox="0 0 40 40" fill="none" xmlns="http://www.w3.org/2000/svg">
<g clip-path="url(#clip0_4969_149715)">
<path d="M26.3166 15.2151C26.3166 15.3601 26.259 15.4992 26.1565 15.6018C26.0539 15.7044 25.9148 15.762 25.7698 15.762H25.3356C25.1905 15.762 25.0514 15.7043 24.9488 15.6017C24.8462 15.4991 24.7886 15.36 24.7886 15.2149C24.7886 15.0698 24.8462 14.9307 24.9488 14.8281C25.0514 14.7255 25.1905 14.6678 25.3356 14.6678H25.7698C25.8416 14.6678 25.9128 14.682 25.9791 14.7095C26.0455 14.737 26.1058 14.7773 26.1566 14.8281C26.2074 14.879 26.2477 14.9393 26.2751 15.0057C26.3026 15.0721 26.3167 15.1432 26.3166 15.2151ZM30.9968 11.1292C31.1299 11.129 31.2583 11.0804 31.3581 10.9924C31.4579 10.9043 31.5221 10.783 31.5388 10.651L31.5941 10.2146C31.6032 10.1434 31.5981 10.071 31.5792 10.0017C31.5602 9.93239 31.5278 9.86749 31.4838 9.81071C31.4398 9.75392 31.385 9.70636 31.3227 9.67074C31.2603 9.63512 31.1915 9.61214 31.1202 9.60311C31.0489 9.59407 30.9766 9.59917 30.9073 9.61809C30.838 9.63702 30.7731 9.66942 30.7163 9.71343C30.6016 9.80231 30.5269 9.93311 30.5087 10.0771L30.4534 10.5133C30.4443 10.5846 30.4494 10.6569 30.4683 10.7262C30.4872 10.7955 30.5196 10.8604 30.5636 10.9172C30.6076 10.974 30.6624 11.0216 30.7248 11.0572C30.7872 11.0928 30.856 11.1158 30.9273 11.1248C30.9503 11.1277 30.9736 11.1291 30.9968 11.1292ZM32.3841 15.8052L30.9916 14.9365L31.3062 12.4604C31.3245 12.3165 31.2848 12.1712 31.196 12.0565C31.1072 11.9418 30.9764 11.8671 30.8325 11.8488C30.6886 11.8306 30.5433 11.8702 30.4286 11.959C30.3139 12.0479 30.2392 12.1786 30.2209 12.3225L29.8622 15.1462C29.849 15.2499 29.8658 15.3553 29.9107 15.4498C29.9555 15.5442 30.0265 15.6239 30.1152 15.6792L31.8047 16.7335C31.9278 16.8102 32.0763 16.835 32.2177 16.8022C32.359 16.7695 32.4816 16.6819 32.5584 16.5588C32.6351 16.4358 32.6599 16.2872 32.6271 16.1458C32.5944 16.0045 32.5068 15.882 32.3837 15.8052H32.3841ZM39.2854 9.28377L38.3853 10.0817C39.266 11.5958 39.615 13.3962 39.3741 15.2843C39.0651 17.7062 37.8263 19.9679 35.8858 21.6521C35.7762 21.7472 35.6333 21.7949 35.4886 21.7846C35.3439 21.7744 35.2092 21.7071 35.1141 21.5975C35.019 21.4879 34.9714 21.345 34.9816 21.2003C34.9919 21.0556 35.0592 20.9209 35.1688 20.8258C36.9058 19.318 38.0139 17.301 38.2889 15.1461C38.5164 13.3624 38.1438 11.6749 37.2351 10.304C37.2294 10.2962 37.2242 10.2884 37.2189 10.2806C37.0585 10.0406 36.8823 9.81145 36.6916 9.59471C35.4091 8.1376 33.5578 7.3358 31.4789 7.3358C29.6184 7.3358 27.8235 7.97924 26.3309 9.0551C26.3171 9.06619 26.303 9.0765 26.2885 9.08635C25.7816 9.45614 25.3117 9.87421 24.8855 10.3347C24.8752 10.3467 24.8644 10.3581 24.8529 10.3697C23.6128 11.7232 22.7572 13.431 22.5207 15.2849C22.4471 15.8471 22.4359 16.4156 22.4872 16.9803C22.4939 17.0518 22.4866 17.1239 22.4654 17.1926C22.4443 17.2612 22.4099 17.3251 22.3641 17.3804C22.3183 17.4358 22.2621 17.4815 22.1986 17.5152C22.1351 17.5488 22.0656 17.5695 21.9941 17.5763C21.9226 17.5831 21.8504 17.5757 21.7818 17.5546C21.7131 17.5334 21.6493 17.499 21.594 17.4532C21.5386 17.4074 21.4928 17.3512 21.4592 17.2877C21.4256 17.2242 21.4048 17.1547 21.398 17.0832C21.3392 16.4382 21.3517 15.7887 21.4355 15.1465C21.6911 13.2379 22.4918 11.4436 23.7415 9.97853L23.092 9.23525C22.9398 9.0495 22.8669 8.8112 22.8891 8.57205C22.9114 8.33289 23.027 8.11214 23.2109 7.95768L24.1573 7.11705C24.3456 6.94915 24.5928 6.86259 24.8448 6.87627C24.9582 6.88263 25.0692 6.91154 25.1714 6.96132C25.2735 7.0111 25.3646 7.08075 25.4395 7.16619L26.0796 7.90057C27.1539 7.18911 28.3545 6.68994 29.6165 6.43002L29.7188 5.63268H29.0648C28.9871 5.63271 28.9103 5.61618 28.8395 5.58419C28.7687 5.5522 28.7055 5.50549 28.6542 5.44716C28.6028 5.38884 28.5645 5.32024 28.5417 5.24594C28.519 5.17164 28.5123 5.09335 28.5222 5.01627L28.7282 3.404C28.745 3.27199 28.8094 3.15064 28.9093 3.0627C29.0092 2.97475 29.1377 2.92625 29.2708 2.92627H34.5328C34.6105 2.92624 34.6873 2.94277 34.7582 2.97476C34.829 3.00674 34.8922 3.05346 34.9435 3.11178C34.9949 3.17011 35.0332 3.2387 35.0559 3.313C35.0787 3.3873 35.0853 3.4656 35.0755 3.54268L34.8695 5.15479C34.8527 5.2868 34.7883 5.40814 34.6884 5.49607C34.5885 5.584 34.46 5.63249 34.3269 5.63244H33.5353L33.4303 6.45869C34.5447 6.71023 35.5897 7.20474 36.4909 7.90689L37.3809 7.11705C37.5696 6.9497 37.8165 6.86325 38.0684 6.87635C38.1818 6.88271 38.2928 6.91163 38.3949 6.96142C38.497 7.0112 38.5882 7.08084 38.663 7.16627L39.3987 8.01064C39.4789 8.10302 39.5385 8.21142 39.5735 8.32861C39.6085 8.4458 39.6182 8.56911 39.6019 8.69033C39.5718 8.91995 39.4593 9.13083 39.2854 9.28377ZM25.1941 8.54939L24.7566 8.0476L24.0534 8.6726L24.4915 9.17385C24.6061 9.06307 24.7233 8.95445 24.843 8.84799C24.9584 8.74554 25.0754 8.64596 25.1941 8.54939ZM33.8453 4.53838L33.9116 4.02018H29.7525L29.6863 4.53838H33.8453ZM32.4326 5.63213H30.8218L30.7398 6.27119C30.9855 6.25158 31.232 6.24104 31.4789 6.24104C31.7733 6.24104 32.0636 6.25507 32.3498 6.28314L32.4326 5.63213ZM38.438 8.5726L37.9803 8.04729L37.3058 8.64611C37.3761 8.71963 37.4452 8.79416 37.5127 8.8708C37.5991 8.96882 37.6826 9.06882 37.7631 9.1708L38.438 8.5726ZM35.4741 15.7619C35.6192 15.7619 35.7583 15.7043 35.8609 15.6017C35.9635 15.4991 36.0211 15.3599 36.0211 15.2148C36.0211 15.0697 35.9635 14.9306 35.8609 14.828C35.7583 14.7254 35.6192 14.6678 35.4741 14.6678H35.0378C34.8927 14.6678 34.7536 14.7254 34.651 14.828C34.5484 14.9306 34.4907 15.0697 34.4907 15.2148C34.4907 15.3599 34.5484 15.4991 34.651 15.6017C34.7536 15.7043 34.8927 15.7619 35.0378 15.7619H35.4741ZM37.5005 15.2842C37.7458 13.3663 37.2218 11.5614 36.0252 10.202C34.8404 8.85596 33.1409 8.11471 31.2397 8.11471C27.3614 8.11471 23.8027 11.2687 23.3067 15.146C23.2216 15.8011 23.2307 16.4651 23.3338 17.1177C23.3453 17.1886 23.3706 17.2566 23.4083 17.3177C23.446 17.3788 23.4954 17.4319 23.5536 17.474C23.6119 17.516 23.6778 17.5462 23.7477 17.5627C23.8176 17.5793 23.8901 17.5819 23.961 17.5705C24.0319 17.559 24.0999 17.5337 24.161 17.496C24.2222 17.4583 24.2753 17.4089 24.3173 17.3507C24.3594 17.2924 24.3895 17.2265 24.4061 17.1566C24.4226 17.0867 24.4253 17.0142 24.4138 16.9433C24.3275 16.394 24.3201 15.8353 24.392 15.2839C24.8205 11.9339 27.8924 9.20846 31.2397 9.20846C32.822 9.20846 34.2298 9.81783 35.2039 10.9245C36.1899 12.0446 36.6202 13.5435 36.4148 15.1453C36.2152 16.7112 35.4289 18.1992 34.2009 19.3353C34.1481 19.384 34.1055 19.4427 34.0755 19.508C34.0454 19.5732 34.0285 19.6438 34.0257 19.7155C34.0229 19.7873 34.0343 19.859 34.0592 19.9264C34.0841 19.9937 34.122 20.0556 34.1708 20.1083C34.2196 20.161 34.2783 20.2036 34.3435 20.2337C34.4088 20.2637 34.4793 20.2807 34.5511 20.2834C34.6229 20.2862 34.6945 20.2749 34.7619 20.25C34.8293 20.2251 34.8911 20.1872 34.9438 20.1384C36.3605 18.8288 37.2684 17.1047 37.5005 15.2846V15.2842ZM20.3304 14.1653H14.9776C14.8325 14.1653 14.6934 14.2229 14.5909 14.3255C14.4883 14.4281 14.4307 14.5672 14.4307 14.7122C14.4307 14.8572 14.4883 14.9963 14.5909 15.0989C14.6934 15.2015 14.8325 15.2591 14.9776 15.2591H20.3304C20.4754 15.2591 20.6145 15.2015 20.7171 15.0989C20.8196 14.9963 20.8773 14.8572 20.8773 14.7122C20.8773 14.5672 20.8196 14.4281 20.7171 14.3255C20.6145 14.2229 20.4754 14.1653 20.3304 14.1653ZM20.6273 11.8356H13.1172C12.9721 11.8356 12.833 11.8932 12.7305 11.9957C12.6279 12.0983 12.5703 12.2374 12.5703 12.3824C12.5703 12.5275 12.6279 12.6666 12.7305 12.7691C12.833 12.8717 12.9721 12.9293 13.1172 12.9293H20.627C20.772 12.9293 20.9111 12.8717 21.0137 12.7691C21.1162 12.6666 21.1738 12.5275 21.1738 12.3824C21.1738 12.2374 21.1162 12.0983 21.0137 11.9957C20.9111 11.8932 20.772 11.8356 20.627 11.8356H20.6273ZM20.9241 9.50799H15.5733C15.4282 9.50799 15.289 9.56563 15.1864 9.66822C15.0838 9.77082 15.0262 9.90997 15.0262 10.0551C15.0262 10.2002 15.0838 10.3393 15.1864 10.4419C15.289 10.5445 15.4282 10.6021 15.5733 10.6021H20.9239C21.069 10.6021 21.2081 10.5445 21.3107 10.4419C21.4133 10.3393 21.471 10.2002 21.471 10.0551C21.471 9.90997 21.4133 9.77082 21.3107 9.66822C21.2081 9.56563 21.069 9.50799 20.9239 9.50799H20.9241Z" fill="#323232"/>
<path d="M39.6527 32.7292C39.4677 32.5211 39.2245 32.3732 38.9546 32.3045L39.2228 30.2001C39.2263 30.1806 39.2288 30.161 39.2302 30.1413L39.4441 28.4634C39.4462 28.45 39.4481 28.4365 39.4492 28.4227L39.6398 26.9268C39.6559 26.8003 39.6273 26.6721 39.559 26.5644L38.5538 24.982C38.5475 24.9715 38.5412 24.9612 38.5342 24.9512L34.5916 18.7445C34.5422 18.6668 34.474 18.6027 34.3933 18.5584C34.3126 18.514 34.2219 18.4908 34.1298 18.4908H29.6429L29.8202 17.1002C29.8299 17.0231 29.8232 16.9449 29.8004 16.8707C29.7776 16.7965 29.7393 16.7279 29.6879 16.6697C29.6366 16.6114 29.5734 16.5648 29.5027 16.5328C29.4319 16.5009 29.3551 16.4844 29.2775 16.4844H8.26969C8.13659 16.4844 8.00806 16.5329 7.90818 16.6208C7.8083 16.7088 7.74392 16.8302 7.72711 16.9622L7.40867 19.4562H3.65867C3.51358 19.4562 3.37443 19.5139 3.27183 19.6165C3.16924 19.7191 3.1116 19.8582 3.1116 20.0033C3.1116 20.1484 3.16924 20.2876 3.27183 20.3902C3.37443 20.4928 3.51358 20.5504 3.65867 20.5504H7.26914L7.1118 21.7838H4.83898C4.69394 21.7838 4.55484 21.8414 4.45229 21.944C4.34973 22.0466 4.29211 22.1857 4.29211 22.3307C4.29211 22.4757 4.34973 22.6148 4.45229 22.7174C4.55484 22.82 4.69394 22.8776 4.83898 22.8776H6.97227L6.85086 23.8295L0.486797 25.0964C0.358753 25.1216 0.243953 25.1918 0.163131 25.2943C0.0823091 25.3968 0.0407949 25.5247 0.0460871 25.6551C0.0513792 25.7855 0.103129 25.9097 0.191988 26.0053C0.280848 26.1009 0.400958 26.1616 0.530625 26.1763L6.46531 26.8638L6.32695 27.9475H0.546875C0.401835 27.9475 0.262735 28.0051 0.160176 28.1077C0.057617 28.2102 0 28.3493 0 28.4944C0 28.6394 0.057617 28.7785 0.160176 28.8811C0.262735 28.9836 0.401835 29.0412 0.546875 29.0412H6.1875L6.03 30.2747H3.64062C3.49558 30.2747 3.35648 30.3323 3.25393 30.4349C3.15137 30.5374 3.09375 30.6765 3.09375 30.8216C3.09375 30.9666 3.15137 31.1057 3.25393 31.2083C3.35648 31.3108 3.49558 31.3684 3.64062 31.3684H5.88984L5.77414 32.2747C5.41396 32.3336 5.08205 32.5061 4.82688 32.767C4.57172 33.0279 4.40667 33.3636 4.35586 33.725C4.32656 33.9259 4.34124 34.1309 4.39886 34.3256C4.45649 34.5203 4.5557 34.7002 4.68964 34.8528C4.82357 35.0055 4.98905 35.1272 5.17463 35.2097C5.36021 35.2921 5.56148 35.3333 5.76453 35.3304H10.0919C10.2108 35.6094 10.3736 35.8675 10.574 36.0952C10.8542 36.4094 11.199 36.6595 11.5848 36.8283C11.9705 36.9972 12.3882 37.0807 12.8092 37.0734C14.0529 37.0734 15.2233 36.3644 15.8902 35.3304H29.6094C29.7283 35.6094 29.8911 35.8675 30.0915 36.0952C30.3718 36.4094 30.7165 36.6595 31.1023 36.8283C31.4881 36.9972 31.9058 37.0807 32.3268 37.0734C33.5712 37.0734 34.7427 36.3644 35.4097 35.3304H38.3284C38.7346 35.3247 39.1253 35.1736 39.4296 34.9045C39.7339 34.6354 39.9317 34.2661 39.9871 33.8637C40.0151 33.6617 39.9998 33.456 39.9422 33.2604C39.8845 33.0648 39.7858 32.8837 39.6527 32.7292ZM32.2241 19.5848H33.8293L37.0888 24.7161H31.5707L32.2241 19.5848ZM11.0492 24.1098C11.1617 24.0875 11.2643 24.0303 11.3426 23.9465C11.4208 23.8626 11.4707 23.7563 11.4852 23.6425L11.8427 20.8383H20.626L20.3536 22.9754H14.858C14.725 22.9753 14.5964 23.0238 14.4965 23.1118C14.3966 23.1997 14.3322 23.321 14.3154 23.453L13.9101 26.6241L7.14844 25.8412H7.14758H7.14625L4.115 25.4902L11.0492 24.1098ZM9.88164 33.7247C9.85993 33.8945 9.85139 34.0657 9.85609 34.2368H5.76477C5.71801 34.2388 5.67137 34.2307 5.62808 34.2129C5.58479 34.1951 5.54588 34.1681 5.51406 34.1338C5.48341 34.0967 5.46105 34.0534 5.4485 34.0069C5.43594 33.9603 5.43347 33.9117 5.44125 33.8641C5.46436 33.7255 5.53399 33.5989 5.63869 33.5052C5.74338 33.4115 5.87688 33.3562 6.01719 33.3485H9.95234C9.92169 33.4725 9.89809 33.5981 9.88164 33.7247ZM15.3496 33.7247C15.3146 33.9929 15.2354 34.2535 15.1152 34.4958C15.0994 34.5209 15.0857 34.5473 15.0742 34.5747C14.6332 35.3979 13.7509 35.9797 12.8091 35.9797C12.5437 35.9861 12.2799 35.9352 12.0359 35.8304C11.7919 35.7256 11.5733 35.5695 11.3951 35.3727C11.0454 34.9754 10.8933 34.4394 10.9667 33.8631C11.1255 32.6184 12.265 31.6059 13.5069 31.6059C13.7723 31.5995 14.036 31.6505 14.2799 31.7553C14.5238 31.8601 14.7423 32.0163 14.9204 32.2132C15.0968 32.4142 15.2253 32.6527 15.2961 32.9105C15.2998 32.929 15.3044 32.9473 15.31 32.9652C15.37 33.2138 15.3834 33.4713 15.3496 33.7247ZM15.7416 31.4903C15.4616 31.176 15.1169 30.9259 14.7313 30.7571C14.3457 30.5882 13.9282 30.5046 13.5073 30.5119C12.2642 30.5119 11.094 31.2208 10.4272 32.2548H6.88031L6.99336 31.369H7.75781C7.90285 31.369 8.04195 31.3114 8.14451 31.2088C8.24707 31.1062 8.30469 30.9672 8.30469 30.8221C8.30469 30.6771 8.24707 30.538 8.14451 30.4354C8.04195 30.3329 7.90285 30.2752 7.75781 30.2752H7.13281L7.29031 29.0418H8.05695C8.20199 29.0418 8.34109 28.9842 8.44365 28.8816C8.54621 28.7791 8.60383 28.64 8.60383 28.4949C8.60383 28.3499 8.54621 28.2108 8.44365 28.1082C8.34109 28.0057 8.20199 27.948 8.05695 27.948H7.42969L7.55195 26.9902L14.3212 27.7734C14.3423 27.7759 14.3635 27.7771 14.3848 27.7771C14.5177 27.777 14.6461 27.7284 14.7459 27.6405C14.8456 27.5525 14.9099 27.4313 14.9267 27.2994L15.3395 24.0698H20.8353C20.9684 24.0698 21.097 24.0213 21.1969 23.9333C21.2968 23.8454 21.3612 23.724 21.378 23.592L21.7898 20.3608C21.7997 20.2837 21.793 20.2055 21.7703 20.1312C21.7475 20.0569 21.7092 19.9883 21.6578 19.93C21.6065 19.8717 21.5433 19.825 21.4725 19.793C21.4017 19.761 21.325 19.7445 21.2473 19.7445H11.3611C11.228 19.7445 11.0994 19.793 10.9995 19.881C10.8996 19.9689 10.8352 20.0903 10.8184 20.2223L10.4497 23.1139L7.98242 23.6049L8.07516 22.8784H8.84305C8.98809 22.8784 9.12719 22.8207 9.22975 22.7182C9.3323 22.6156 9.38992 22.4765 9.38992 22.3315C9.38992 22.1864 9.3323 22.0473 9.22975 21.9448C9.12719 21.8422 8.98809 21.7846 8.84305 21.7846H8.21469L8.37203 20.5512H9.13984C9.28494 20.5512 9.42409 20.4935 9.52668 20.3909C9.62928 20.2883 9.68691 20.1492 9.68691 20.0041C9.68691 19.859 9.62928 19.7199 9.52668 19.6173C9.42409 19.5147 9.28494 19.457 9.13984 19.457H8.51156L8.75109 17.5781H28.6562L26.7849 32.2547H16.2238C16.1048 31.9758 15.942 31.7179 15.7416 31.4903ZM29.3993 33.7247C29.3776 33.8945 29.369 34.0657 29.3737 34.2368H16.3647C16.3952 34.1137 16.4186 33.9889 16.435 33.8631C16.4568 33.6926 16.4654 33.5206 16.4605 33.3488H29.47C29.4394 33.4726 29.4158 33.5981 29.3993 33.7247ZM34.8695 33.7247C34.8346 33.9932 34.7554 34.2541 34.6351 34.4967C34.6197 34.5213 34.6063 34.547 34.595 34.5737C34.1539 35.3974 33.2705 35.9799 32.3274 35.9799C32.0619 35.9863 31.7982 35.9354 31.5542 35.8306C31.3102 35.7259 31.0916 35.5698 30.9134 35.3729C30.7378 35.1729 30.6098 34.9357 30.5389 34.6792C30.535 34.6583 30.5297 34.6376 30.5233 34.6173C30.4645 34.3705 30.4516 34.1149 30.4852 33.8634C30.5205 33.5916 30.6012 33.3277 30.7238 33.0826C30.736 33.0625 30.7468 33.0416 30.7563 33.0201C31.1959 32.192 32.0808 31.606 33.0253 31.606C33.2911 31.5997 33.5551 31.6508 33.7994 31.7558C34.0437 31.8608 34.2624 32.0172 34.4408 32.2144C34.7905 32.6121 34.943 33.1484 34.8695 33.7247ZM35.2612 31.4913C34.9809 31.1767 34.6359 30.9263 34.2499 30.7573C33.8639 30.5882 33.446 30.5045 33.0247 30.5118C31.7816 30.5118 30.6114 31.2207 29.9446 32.2547H27.8879L29.5034 19.5848H31.1213L30.407 25.1942C30.3971 25.2713 30.4038 25.3495 30.4266 25.4238C30.4493 25.4981 30.4877 25.5666 30.539 25.6249C30.5903 25.6832 30.6535 25.7299 30.7243 25.7619C30.7951 25.7939 30.8719 25.8104 30.9495 25.8104H37.7838L38.5297 26.9844L38.4219 27.8298H36.526C36.3929 27.8298 36.2643 27.8783 36.1644 27.9663C36.0645 28.0543 36.0002 28.1757 35.9834 28.3078L35.7641 30.0308C35.7543 30.1078 35.761 30.1861 35.7838 30.2604C35.8066 30.3346 35.8449 30.4032 35.8962 30.4615C35.9476 30.5198 36.0107 30.5664 36.0815 30.5984C36.1523 30.6304 36.2291 30.6469 36.3068 30.6469H38.063L37.8581 32.2547H35.743C35.624 31.9762 35.4614 31.7185 35.2612 31.4913ZM38.2825 28.9239L38.2024 29.5528H36.9278L37.0079 28.9239H38.2825ZM38.9022 33.7255C38.8792 33.8633 38.8098 33.9892 38.7055 34.0822C38.6012 34.1752 38.4682 34.2297 38.3287 34.2368H35.8845C35.9149 34.1137 35.9384 33.9889 35.9548 33.8631C35.9766 33.6926 35.9851 33.5206 35.9803 33.3488H38.5813C38.628 33.3466 38.6745 33.3547 38.7177 33.3724C38.7609 33.3902 38.7997 33.4171 38.8313 33.4514C38.8621 33.4893 38.8844 33.5334 38.8966 33.5807C38.9088 33.628 38.9107 33.6774 38.9022 33.7255ZM13.2923 32.1948C12.8687 32.2016 12.4615 32.3596 12.1443 32.6404C11.8271 32.9211 11.6207 33.306 11.5625 33.7256C11.534 33.9354 11.5505 34.1489 11.6107 34.3519C11.671 34.5549 11.7737 34.7428 11.912 34.903C12.0513 35.0599 12.2228 35.1848 12.4148 35.2693C12.6067 35.3539 12.8146 35.396 13.0244 35.3929C13.4476 35.3868 13.8545 35.2291 14.1715 34.9486C14.4884 34.6681 14.6942 34.2833 14.7517 33.864C14.7834 33.6553 14.7693 33.4422 14.7101 33.2395C14.651 33.0369 14.5484 32.8496 14.4095 32.6906C14.2705 32.5317 14.0986 32.405 13.9057 32.3194C13.7127 32.2338 13.5033 32.1913 13.2923 32.1948ZM13.6664 33.7255C13.6408 33.88 13.5631 34.021 13.4463 34.1253C13.3296 34.2296 13.1806 34.2908 13.0243 34.2988C12.9699 34.3013 12.9156 34.2919 12.8652 34.2713C12.8148 34.2506 12.7695 34.2193 12.7324 34.1794C12.6966 34.1359 12.6705 34.0852 12.6559 34.0309C12.6413 33.9765 12.6385 33.9196 12.6477 33.864C12.6738 33.7092 12.7518 33.5678 12.869 33.4633C12.9862 33.3588 13.1355 33.2973 13.2923 33.289C13.3466 33.2865 13.4009 33.2959 13.4512 33.3166C13.5016 33.3372 13.5468 33.3686 13.5838 33.4085C13.6195 33.4523 13.6454 33.5033 13.6596 33.558C13.6739 33.6127 13.6762 33.6699 13.6664 33.7255ZM32.8125 32.1948C32.389 32.2006 31.9816 32.358 31.6643 32.6384C31.3469 32.9189 31.1406 33.3039 31.0829 33.7234C31.0513 33.9321 31.0655 34.1452 31.1247 34.3478C31.1838 34.5504 31.2865 34.7377 31.4254 34.8966C31.5643 35.0556 31.7362 35.1823 31.9291 35.268C32.122 35.3537 32.3312 35.3963 32.5423 35.3929C32.9658 35.387 33.3731 35.2295 33.6904 34.949C34.0078 34.6685 34.214 34.2836 34.2718 33.864C34.3035 33.6553 34.2893 33.4422 34.2302 33.2396C34.1711 33.0369 34.0685 32.8496 33.9296 32.6907C33.7907 32.5318 33.6187 32.4051 33.4258 32.3194C33.2329 32.2338 33.0236 32.1913 32.8125 32.1948ZM33.1866 33.7255C33.1607 33.8802 33.0826 34.0214 32.9654 34.1257C32.8482 34.23 32.6989 34.2911 32.5423 34.2988C32.4879 34.3012 32.4337 34.2918 32.3834 34.271C32.3331 34.2503 32.288 34.2189 32.2511 34.1789C32.2153 34.1352 32.1894 34.0842 32.1751 34.0295C32.1608 33.9748 32.1584 33.9177 32.1682 33.862C32.1941 33.7074 32.2722 33.5662 32.3894 33.462C32.5066 33.3578 32.6559 33.2968 32.8125 33.2891C32.8669 33.2866 32.9211 33.296 32.9715 33.3167C33.0218 33.3373 33.0671 33.3687 33.1041 33.4086C33.1397 33.4524 33.1654 33.5034 33.1796 33.5581C33.1938 33.6128 33.1961 33.6699 33.1862 33.7255H33.1866ZM31.7648 27.7236C31.7648 27.8686 31.7071 28.0077 31.6046 28.1103C31.502 28.2129 31.3629 28.2705 31.2179 28.2705H29.7734C29.6284 28.2705 29.4893 28.2129 29.3867 28.1103C29.2842 28.0077 29.2266 27.8686 29.2266 27.7236C29.2266 27.5786 29.2842 27.4395 29.3867 27.3369C29.4893 27.2343 29.6284 27.1767 29.7734 27.1767H31.2173C31.2892 27.1767 31.3603 27.1908 31.4267 27.2183C31.4931 27.2457 31.5534 27.286 31.6042 27.3368C31.6551 27.3876 31.6954 27.4479 31.7229 27.5142C31.7504 27.5806 31.7645 27.6518 31.7645 27.7236H31.7648Z" fill="#323232"/>
</g>
<defs>
<clipPath id="clip0_4969_149715">
<rect width="40" height="40" fill="white"/>
</clipPath>
</defs>
</svg>
