<svg width="40" height="40" viewBox="0 0 40 40" fill="none" xmlns="http://www.w3.org/2000/svg">
<g clip-path="url(#clip0_4969_149712)">
<path d="M29.5112 21.2536V21.2179C29.5112 21.2001 29.5022 21.1824 29.5022 21.1647C29.5022 21.1557 29.4935 21.138 29.4935 21.129C29.4935 21.1113 29.4845 21.1022 29.4845 21.0845C29.4845 21.0668 29.4758 21.0578 29.4668 21.0401C29.4647 21.0269 29.4585 21.0144 29.4491 21.0047C29.4401 20.9869 29.4401 20.9779 29.4314 20.9602C29.4224 20.9512 29.4224 20.9425 29.4133 20.9244C29.4067 20.9085 29.3977 20.8935 29.3869 20.88C29.3869 20.8713 29.3779 20.8713 29.3779 20.8623L27.5112 17.8401C27.3487 17.5797 27.063 17.4217 26.7557 17.4224H13.6178C13.338 17.4224 13.0744 17.554 12.9067 17.7779L10.6668 20.8001C10.6668 20.8092 10.6578 20.8092 10.6578 20.8179C10.6491 20.8356 10.6401 20.8446 10.6314 20.8623C10.6224 20.8713 10.6224 20.88 10.6133 20.8981C10.6046 20.9158 10.5956 20.9244 10.5869 20.9425C10.5779 20.9512 10.5779 20.9689 10.5689 20.9779C10.5602 20.9956 10.5602 21.0047 10.5512 21.0224C10.5425 21.0314 10.5425 21.0491 10.5335 21.0578C10.5335 21.0758 10.5244 21.0845 10.5244 21.1022C10.5244 21.1203 10.5158 21.129 10.5158 21.1467C10.5158 21.1557 10.5067 21.1734 10.5067 21.1824C10.5046 21.1974 10.5019 21.2123 10.498 21.2269V22.4623C10.4977 23.4175 11.0835 24.2751 11.9734 24.6224V32.3557C11.9748 32.846 12.372 33.2432 12.8623 33.2446H27.1557C27.646 33.2432 28.0432 32.846 28.0446 32.3557V24.6224C28.9328 24.2731 29.5178 23.4168 29.5203 22.4623V21.3158C29.5133 21.2956 29.5105 21.2744 29.5112 21.2536ZM27.1467 22.9689C27.105 22.9672 27.0633 22.9703 27.0224 22.9779C26.7939 22.9057 26.639 22.6932 26.6401 22.4536V22.2224H27.7335V22.4623C27.7362 22.713 27.5675 22.9331 27.3244 22.9956C27.2671 22.9776 27.2071 22.9685 27.1467 22.9689ZM12.8536 22.9689C12.7939 22.9706 12.7345 22.9765 12.6758 22.9869C12.4328 22.9244 12.264 22.7043 12.2668 22.4536V22.2224H13.3602V22.4623C13.3612 22.7019 13.2064 22.9147 12.9779 22.9869C12.9373 22.9758 12.8956 22.9699 12.8536 22.9689ZM17.8224 19.2001L17.4314 20.4446H15.8668L16.6578 19.2001H17.8224ZM20.3112 19.2001L20.7022 20.4446H19.298L19.689 19.2001H20.3112ZM23.6092 19.2001L24.2668 20.4446H22.5602L22.1689 19.2001H23.6092ZM16.1779 23.8047C15.6175 23.7949 15.1651 23.3429 15.1557 22.7824V22.2224H17.2001V22.7911C17.1932 23.3515 16.738 23.8026 16.1779 23.8047ZM18.9779 22.2224H21.0224V22.7911C21.0224 23.3557 20.5647 23.8133 20.0001 23.8133C19.4355 23.8133 18.9779 23.3557 18.9779 22.7911V22.2224ZM16.3647 25.5824C17.0085 25.5408 17.6182 25.2769 18.089 24.8356C19.1675 25.8467 20.8463 25.8425 21.9203 24.8269C22.3876 25.2689 22.9939 25.5359 23.6355 25.5824V28.4536H16.3647V25.5824ZM24.8623 22.7911C24.8623 23.3557 24.4046 23.8133 23.8401 23.8133C23.2755 23.8133 22.8178 23.3557 22.8178 22.7911V22.2224H24.8623V22.7911ZM27.0314 20.4446H26.2845L25.6269 19.2001H26.2578L27.0314 20.4446ZM14.0623 19.2001H14.5602L13.7689 20.4446H13.1467L14.0623 19.2001ZM13.7425 31.4668V24.5956L13.9557 24.489C14.1345 24.721 14.3474 24.9248 14.5869 25.0935V29.3512C14.5883 29.8415 14.9852 30.2387 15.4758 30.2401H24.5244C25.0151 30.2387 25.4119 29.8415 25.4133 29.3512V25.1113C25.6578 24.9453 25.8737 24.7411 26.0536 24.5067C26.1189 24.5446 26.1873 24.5772 26.2578 24.6047V31.4668H13.7425Z" fill="#323232"/>
<path d="M35.5556 10.4534H32.1333V8.71106H35.4934C37.2851 8.71106 38.7378 7.25863 38.7378 5.46661C38.7378 3.6746 37.2851 2.22217 35.4934 2.22217H4.5066C2.71493 2.22217 1.26215 3.6746 1.26215 5.46661C1.26215 7.25863 2.71493 8.71106 4.5066 8.71106H7.86667V10.4534H4.44444C1.99028 10.4541 0.00104167 12.4433 0 14.8979V33.3423C0.00104167 35.7965 1.99028 37.7857 4.44444 37.7868H35.5556C38.0097 37.7857 39.999 35.7965 40 33.3423V14.8979C39.999 12.4433 38.0097 10.4541 35.5556 10.4534ZM25.6444 10.4534H14.3556V8.71106H25.6444V10.4534ZM27.4222 8.70203H30.3556V12.951C30.3556 13.7611 29.699 14.4177 28.8889 14.4177C28.0788 14.4177 27.4222 13.7611 27.4222 12.951V8.70203ZM3.03993 5.45758C3.04062 4.64786 3.69688 3.99196 4.5066 3.99092H35.4844C36.2944 3.99092 36.951 4.64786 36.951 5.45758C36.951 6.26765 36.2944 6.92425 35.4844 6.92425H4.5066C3.69688 6.92356 3.04062 6.26731 3.03993 5.45758ZM12.5778 8.70203V12.951C12.5778 13.7611 11.9212 14.4177 11.1111 14.4177C10.301 14.4177 9.64444 13.7611 9.64444 12.951V8.70203H12.5778ZM38.2222 33.3423C38.2181 34.8131 37.0264 36.0045 35.5556 36.009H4.44444C2.97361 36.0045 1.78194 34.8131 1.77778 33.3423V14.8979C1.78194 13.4267 2.97361 12.2354 4.44444 12.2312H7.86667V12.951C7.86667 14.743 9.3191 16.1954 11.1111 16.1954C12.9031 16.1954 14.3556 14.743 14.3556 12.951V12.2312H25.6444V12.951C25.6444 14.743 27.0969 16.1954 28.8889 16.1954C30.6809 16.1954 32.1333 14.743 32.1333 12.951V12.2312H35.5556C37.0264 12.2354 38.2181 13.4267 38.2222 14.8979V33.3423Z" fill="#323232"/>
</g>
<defs>
<clipPath id="clip0_4969_149712">
<rect width="40" height="40" fill="white"/>
</clipPath>
</defs>
</svg>
