<svg width="40" height="40" viewBox="0 0 40 40" fill="none" xmlns="http://www.w3.org/2000/svg">
<g clip-path="url(#clip0_4969_149718)">
<path d="M38.572 32.5515L33.5705 27.55C34.2455 27.3148 34.7759 26.8554 35.1103 26.2086C35.4814 25.4922 35.5275 24.7148 35.2447 23.9609L34.7751 22.7C34.5587 22.1218 34.6908 21.5179 35.1283 21.0836L36.6439 19.5797C37.215 19.0117 37.497 18.2867 37.4603 17.4804C37.4205 16.6742 37.072 15.9781 36.4525 15.4687L35.4142 14.6101C34.9384 14.2195 34.7501 13.6297 34.9119 13.0336L35.4728 10.9742C35.6822 10.1961 35.5634 9.42731 35.1306 8.75075C34.697 8.07028 34.0462 7.64059 33.2494 7.507L31.9244 7.2859C31.315 7.18278 30.8572 6.76559 30.6994 6.1695L30.1548 4.10934C29.9509 3.33043 29.4634 2.72262 28.747 2.35153C28.0314 1.97965 27.254 1.93278 26.5009 2.21637L25.2369 2.68668C24.6595 2.90309 24.0556 2.77106 23.6205 2.33278L22.1173 0.818716C22.1173 0.818716 22.1173 0.818716 22.1165 0.817935C21.547 0.245279 20.8205 -0.0359714 20.0197 0.00309109C19.2126 0.0398098 18.5158 0.388247 18.0048 1.00934L17.1478 2.0484C16.7564 2.5234 16.1665 2.7109 15.5697 2.54919L13.5134 1.99137C12.7376 1.77965 11.9681 1.89684 11.2869 2.332C10.6087 2.76715 10.1798 3.41715 10.047 4.2109L9.82358 5.53747C9.72045 6.14684 9.30326 6.60543 8.70717 6.76247L6.64701 7.307C5.86811 7.5109 5.26029 7.99762 4.88842 8.71637C4.51811 9.43434 4.47201 10.2109 4.75404 10.9609L5.22436 12.225C5.44076 12.8023 5.30873 13.4062 4.87045 13.8414L3.35873 15.3445C2.78686 15.9109 2.50404 16.6359 2.54076 17.4422C2.57748 18.2468 2.92514 18.9429 3.54701 19.4562L4.58608 20.3132C5.06264 20.7054 5.24936 21.2953 5.08686 21.8914L4.52904 23.9476C4.31733 24.7234 4.43451 25.4929 4.86967 26.1742C5.2767 26.8078 5.87045 27.2242 6.59467 27.3836L1.42592 32.5523C0.944669 33.0375 0.831388 33.7422 1.13529 34.3461C1.43451 34.9492 2.08217 35.2898 2.74389 35.1961L5.85326 34.7617C5.96029 34.7468 6.03842 34.7734 6.11576 34.8507C6.19076 34.9257 6.21733 35.0054 6.20248 35.1109L5.76811 38.2218C5.67592 38.8937 6.00873 39.525 6.61811 39.8312C6.84467 39.9437 7.08373 39.9984 7.31967 39.9984C7.72045 39.9984 8.11186 39.8398 8.41342 39.5359L15.7478 32.2015C15.9783 32.2742 16.1939 32.4039 16.3783 32.5898L17.8814 34.1015C18.415 34.6406 19.09 34.9226 19.84 34.9226C19.8861 34.9226 19.9322 34.9218 19.979 34.9195C20.7837 34.8828 21.4798 34.5351 21.9931 33.9132L22.8501 32.8742C23.24 32.4015 23.8259 32.214 24.4197 32.3711L31.5837 39.5351C31.8869 39.8382 32.2783 39.9968 32.679 39.9968C32.915 39.9968 33.154 39.9422 33.3806 39.8297C33.9915 39.5242 34.3244 38.8914 34.229 38.2195L33.7947 35.1093C33.7798 35.0054 33.8064 34.9257 33.8861 34.8476C33.9595 34.7734 34.0392 34.7461 34.1439 34.7609L37.2517 35.1945C37.9275 35.2906 38.5603 34.957 38.8642 34.3445C39.1697 33.7382 39.054 33.0328 38.572 32.5515ZM7.52904 38.6562C7.43139 38.7547 7.29858 38.7757 7.1767 38.7156C7.04858 38.6515 6.98608 38.5336 7.00561 38.3945L7.4392 35.2859C7.50873 34.7906 7.35248 34.3226 6.99858 33.9687C6.64389 33.614 6.17514 33.457 5.67982 33.5257L2.56889 33.9601C2.43295 33.9797 2.31498 33.9164 2.2517 33.7882C2.1892 33.664 2.21108 33.5343 2.31029 33.4343L8.10092 27.6437C8.69701 27.7547 9.14389 28.1672 9.29936 28.7547L9.84467 30.8172C10.0517 31.5961 10.5384 32.2039 11.2548 32.5742C11.9619 32.9375 12.7251 32.9875 13.4658 32.7203L7.52904 38.6562ZM21.8876 32.082L21.0314 33.1203C20.7408 33.4718 20.3783 33.6531 19.9228 33.6742C19.4681 33.6953 19.0892 33.5484 18.7689 33.2242L17.2658 31.7117C16.8244 31.2672 16.2705 30.9961 15.6853 30.914C15.6384 30.9031 15.59 30.8976 15.5423 30.8984C15.4658 30.8922 15.3884 30.8882 15.3103 30.8882C14.9822 30.8882 14.6494 30.9476 14.3251 31.0687L13.0642 31.5382C12.6384 31.6976 12.2337 31.6734 11.8275 31.464C11.4228 31.2547 11.1697 30.9382 11.0525 30.4968L10.508 28.4351C10.2259 27.3679 9.37279 26.5906 8.28295 26.407L6.95561 26.1828C6.50561 26.1078 6.16733 25.8843 5.92201 25.5023C5.67592 25.1164 5.61498 24.7156 5.73451 24.2765L6.29233 22.2203C6.58373 21.1531 6.23451 20.0539 5.38061 19.3507L4.34233 18.4937C3.99076 18.2031 3.80951 17.8406 3.7892 17.3851C3.76811 16.9289 3.91498 16.5515 4.2392 16.2312L5.7517 14.7281C6.53686 13.9484 6.78295 12.8218 6.39545 11.7882L5.92514 10.5242C5.76811 10.1062 5.79311 9.69059 5.99936 9.29059C6.20951 8.88434 6.52592 8.63043 6.96654 8.51559L9.02826 7.97106C10.0954 7.68903 10.8728 6.8359 11.0564 5.74606L11.2798 4.41872C11.3548 3.96872 11.5783 3.63044 11.9611 3.38512C12.347 3.13903 12.7478 3.07809 13.1869 3.19762L15.2447 3.75543C16.3126 4.0445 17.4119 3.6945 18.1126 2.84372L18.9705 1.80465C19.2587 1.45387 19.6212 1.2734 20.0806 1.25231C20.5275 1.23043 20.915 1.38122 21.233 1.69997L22.7345 3.21325C23.5142 3.9984 24.6408 4.2445 25.6744 3.857L26.9384 3.38668C27.365 3.22653 27.7681 3.25075 28.172 3.4609C28.5783 3.67106 28.8322 3.98747 28.947 4.42809L29.4915 6.49059C29.7744 7.55778 30.6275 8.33434 31.7173 8.51872L33.0439 8.73981C33.4947 8.81481 33.8322 9.03825 34.0783 9.42418C34.3236 9.80778 34.3853 10.2093 34.2673 10.6484L33.7072 12.707C33.4181 13.7757 33.7689 14.875 34.6205 15.575L35.658 16.4328C36.0087 16.7211 36.19 17.0843 36.2126 17.5406C36.2337 17.9953 36.0861 18.3726 35.7634 18.6945L34.2486 20.1984C33.4642 20.9773 33.2181 22.1039 33.6048 23.1382L34.0744 24.3992C34.2345 24.8265 34.2103 25.2312 34.0001 25.6359C33.7908 26.0406 33.4744 26.2937 33.033 26.4109L30.9705 26.9562C29.9033 27.239 29.1267 28.0914 28.9423 29.182L28.7212 30.5086C28.6462 30.957 28.422 31.2961 28.0369 31.5429C27.6525 31.789 27.2525 31.85 26.8119 31.7297L24.9314 31.2195C24.9165 31.2148 24.9009 31.2109 24.8853 31.207L24.754 31.1711C23.6884 30.8812 22.5892 31.2304 21.8876 32.082ZM37.7486 33.7914C37.6861 33.9164 37.5673 33.9797 37.4283 33.9601L34.3197 33.5265C33.8228 33.457 33.3533 33.6148 33.0048 33.9672C32.6478 34.3203 32.49 34.789 32.5595 35.2859L32.9939 38.3968C33.0134 38.5359 32.9517 38.6523 32.8251 38.7156C32.6986 38.7781 32.5689 38.757 32.4681 38.6562L26.8165 33.0047C27.4798 33.1062 28.129 32.9672 28.7119 32.5945C29.3915 32.1586 29.8212 31.5086 29.954 30.7148L30.1751 29.3898C30.2783 28.7804 30.6955 28.3226 31.2915 28.1648L32.1814 27.9297L37.6892 33.4375C37.7892 33.5351 37.8111 33.6656 37.7486 33.7914ZM31.0064 17.4625C31.0064 11.3945 26.0689 6.45856 20.0001 6.45856C13.9322 6.45856 8.99623 11.3953 8.99623 17.4625C8.99623 23.5304 13.933 28.4664 20.0001 28.4664C26.0689 28.4664 31.0064 23.5297 31.0064 17.4625ZM19.9994 27.2172C14.6205 27.2172 10.2439 22.8414 10.2439 17.4617C10.2439 12.0828 14.6197 7.70622 19.9994 7.70622C25.3798 7.70622 29.7564 12.082 29.7564 17.4617C29.7572 22.8414 25.3798 27.2172 19.9994 27.2172ZM19.9994 8.67262C15.1525 8.67262 11.2095 12.6156 11.2095 17.4625C11.2095 22.3093 15.1525 26.2523 19.9994 26.2523C24.8462 26.2523 28.7892 22.3093 28.7892 17.4625C28.7892 12.6156 24.8462 8.67262 19.9994 8.67262ZM19.9994 25.0031C15.8415 25.0031 12.4587 21.6203 12.4587 17.4625C12.4587 13.3047 15.8415 9.92184 19.9994 9.92184C24.1572 9.92184 27.54 13.3047 27.54 17.4625C27.54 21.6203 24.158 25.0031 19.9994 25.0031ZM25.6634 16.0812C25.5095 15.6054 25.0705 15.2859 24.5697 15.2859L21.9095 15.2922L21.0923 12.7617C20.9384 12.2859 20.4994 11.9664 20.0001 11.9664C19.5009 11.9664 19.0619 12.2859 18.9072 12.7625L18.09 15.2929L15.4306 15.2867C14.9298 15.2867 14.49 15.6062 14.3361 16.082C14.1822 16.5593 14.3517 17.0765 14.7572 17.3672L16.9095 18.925L16.0853 21.4492C15.9267 21.9234 16.0939 22.4414 16.5009 22.739C16.9048 23.032 17.447 23.032 17.8517 22.7382L20.0001 21.1711L22.1509 22.7406C22.3556 22.8875 22.59 22.9609 22.8244 22.9609C23.0587 22.9609 23.2931 22.8875 23.4978 22.7406L23.5048 22.7359C23.9048 22.4406 24.0712 21.9257 23.9181 21.4523L23.0908 18.925L25.2462 17.3664C25.6486 17.0726 25.8165 16.5562 25.6634 16.0812ZM22.297 17.9554C21.8939 18.2484 21.7259 18.7648 21.8798 19.2422L22.6337 21.5461L20.6775 20.1179C20.4744 19.9695 20.2361 19.8953 19.9986 19.8953C19.7611 19.8953 19.5244 19.9695 19.3236 20.1179L17.3673 21.5445L18.1181 19.2461C18.2775 18.7679 18.1095 18.2484 17.7017 17.9554L15.7392 16.5351L18.1611 16.5414C18.6619 16.5414 19.1017 16.2218 19.2556 15.7453L19.9986 13.4429L20.7415 15.7453C20.8955 16.2211 21.3353 16.5406 21.8376 16.5406L24.2603 16.5343L22.297 17.9554Z" fill="#323232"/>
</g>
<defs>
<clipPath id="clip0_4969_149718">
<rect width="40" height="40" fill="white"/>
</clipPath>
</defs>
</svg>
