<svg width="40" height="40" viewBox="0 0 40 40" fill="none" xmlns="http://www.w3.org/2000/svg">
<g clip-path="url(#clip0_4969_149705)">
<path d="M36.6436 18.1268L40 15.0966L37.6094 9.32517L33.0933 9.55581L30.4442 6.90674L30.6748 2.39064L24.9034 0L21.8732 3.35644H18.1267L15.0965 0L9.32509 2.39056L9.55573 6.90666L6.90666 9.55573L2.39056 9.32509L0 15.0965L3.35644 18.1267V21.8732L0 24.9034L2.39056 30.6748L6.90666 30.4442L9.55573 33.0933L9.32509 37.6094L15.0965 39.9999L18.1267 36.6435H21.8732L24.9034 39.9999L30.6748 37.6094L30.4442 33.0933L33.0933 30.4442L37.6094 30.6748L40 24.9034L36.6436 21.8732V18.1268ZM38.5978 25.2197L36.8416 29.4597L32.6319 29.2447L29.2448 32.632L29.4597 36.8416L25.2197 38.5978L22.3951 35.4691H17.6048L14.7802 38.5978L10.5403 36.8416L10.7552 32.6319L7.36803 29.2447L3.15836 29.4597L1.40213 25.2197L4.53082 22.3951V17.6048L1.40213 14.7802L3.15836 10.5403L7.36803 10.7552L10.7552 7.36803L10.5403 3.15836L14.7802 1.40213L17.6048 4.53082H22.3951L25.2197 1.40213L29.4597 3.15844L29.2447 7.36803L32.6319 10.7552L36.8416 10.5403L38.5978 14.7802L35.4692 17.6048V22.3951L38.5978 25.2197Z" fill="#323232"/>
<path d="M16.0508 19.8622L16.0111 19.8963C15.8906 20.0092 15.764 20.1229 15.6299 20.2432C14.7859 21.0007 13.7355 21.9435 13.7355 23.3307V23.9179H18.5996V22.7435H15.0287C15.2717 22.1427 15.8503 21.6234 16.4143 21.1173C16.5408 21.0038 16.6714 20.8866 16.7957 20.7705C18.1985 19.66 18.8897 17.9144 18.4399 16.6104C18.1174 15.6757 17.2768 15.1396 16.1335 15.1396C14.7869 15.1396 13.6914 16.2352 13.6914 17.5817H14.8658C14.8658 16.8827 15.4345 16.314 16.1335 16.314C16.7717 16.314 17.1742 16.5426 17.3297 16.9934C17.579 17.716 17.1688 18.9867 16.0508 19.8622Z" fill="#323232"/>
<path d="M25.091 23.8766V21.346H27.2387V20.1716H25.091V15.1797H23.9166V20.1716H21.481V15.1797H20.3066V21.346H23.9166V23.8766H25.091Z" fill="#323232"/>
<path d="M29.4956 21.4582L30.3261 22.2886L31.3814 21.2333C30.7639 27.0232 25.8504 31.5481 19.8993 31.5481C15.1599 31.5481 10.8292 28.5784 9.12288 24.1583L8.02734 24.5812C8.94234 26.9516 10.5315 28.9766 12.623 30.4374C14.7634 31.9323 17.2795 32.7225 19.8993 32.7225C26.5378 32.7225 32.0041 27.6113 32.5719 21.1177L33.7429 22.2886L34.5733 21.4583L32.0344 18.9194L29.4956 21.4582Z" fill="#323232"/>
<path d="M9.47267 18.3522L8.36446 19.4604C8.6474 13.3425 13.7129 8.45221 19.8995 8.45221C24.8517 8.45221 29.2478 11.6013 30.8385 16.2884L31.9506 15.9111C30.198 10.7472 25.3551 7.27783 19.8995 7.27783C13.1222 7.27783 7.56627 12.6046 7.1972 19.2913L6.2581 18.3522L5.42773 19.1826L7.8655 21.6203L10.3032 19.1826L9.47267 18.3522Z" fill="#323232"/>
</g>
<defs>
<clipPath id="clip0_4969_149705">
<rect width="40" height="40" fill="white"/>
</clipPath>
</defs>
</svg>
