<svg enable-background="new 0 0 520 520" height="512" viewBox="0 0 520 520" width="512" xmlns="http://www.w3.org/2000/svg"><g id="_x37_08_x2C__Clock_x2C__Document_x2C__File_x2C__Time_x2C_"><g><path d="m490 480h-50c0-408.396.052-390.16-.093-391.29-.314-2.455-1.565-4.725-3.399-6.303-75.581-64.778-70.434-60.629-72.396-61.515-1.282-.58-2.754-.892-4.112-.892h-270c-5.523 0-10 4.477-10 10v450h-50c-5.523 0-10 4.478-10 10s4.477 10 10 10h460c5.522 0 10-4.478 10-10s-4.478-10-10-10zm-120-428.258 32.968 28.258h-32.968zm-270 428.258v-340h170c5.522 0 10-4.477 10-10s-4.478-10-10-10h-170v-80h250v50c0 5.523 4.478 10 10 10h60v300h-220c-5.523 0-10 4.478-10 10s4.477 10 10 10h220v60z"/><path d="m360 270c0-55.14-44.859-100-100-100-55.14 0-100 44.86-100 100 0 55.141 44.86 100 100 100 55.141 0 100-44.859 100-100zm-180 0c0-44.112 35.888-80 80-80s80 35.888 80 80-35.888 80-80 80-80-35.888-80-80z"/><path d="m297.071 317.071c3.905-3.905 3.905-10.237 0-14.143l-27.071-27.071v-45.857c0-5.523-4.478-10-10-10-5.523 0-10 4.477-10 10v50c0 2.652 1.054 5.195 2.929 7.071l30 30c3.907 3.906 10.236 3.905 14.142 0z"/></g></g></svg>