<svg width="500" height="500" viewBox="0 0 500 500" fill="none" xmlns="http://www.w3.org/2000/svg">
<path d="M238.401 445.046H45.3022C42.1552 445.046 39.5942 442.486 39.5942 439.338V60.6592C39.5942 57.5122 42.1552 54.9512 45.3022 54.9512H238.401C241.547 54.9512 244.108 57.5122 244.108 60.6592V439.338C244.108 442.486 241.547 445.046 238.401 445.046ZM45.3022 55.2022C42.2922 55.2022 39.8442 57.6502 39.8442 60.6602V439.339C39.8442 442.349 42.2922 444.797 45.3022 444.797H238.401C241.41 444.797 243.858 442.349 243.858 439.339V60.6592C243.858 57.6502 241.41 55.2012 238.401 55.2012L45.3022 55.2022Z" fill="#EBEBEB"/>
<path d="M454.698 445.046H261.599C258.453 445.046 255.892 442.486 255.892 439.338V60.6592C255.892 57.5122 258.453 54.9512 261.599 54.9512H454.698C457.846 54.9512 460.406 57.5122 460.406 60.6592V439.338C460.406 442.486 457.845 445.046 454.698 445.046ZM261.599 55.2022C258.59 55.2022 256.142 57.6502 256.142 60.6602V439.339C256.142 442.349 258.59 444.797 261.599 444.797H454.698C457.708 444.797 460.156 442.349 460.156 439.339V60.6592C460.156 57.6502 457.708 55.2012 454.698 55.2012L261.599 55.2022Z" fill="#EBEBEB"/>
<path d="M113.054 168.246L114.671 171.522L118.286 172.048L115.67 174.598L116.288 178.199L113.054 176.499L109.82 178.199L110.438 174.598L107.821 172.048L111.437 171.522L113.054 168.246Z" fill="#EBEBEB"/>
<path d="M436.705 322.482L438.322 325.758L441.937 326.284L439.321 328.834L439.939 332.435L436.705 330.735L433.471 332.435L434.088 328.834L431.472 326.284L435.088 325.758L436.705 322.482Z" fill="#F5F5F5"/>
<path d="M372.599 417.565L374.216 420.841L377.832 421.366L375.215 423.917L375.833 427.518L372.599 425.818L369.365 427.518L369.983 423.917L367.366 421.366L370.982 420.841L372.599 417.565Z" fill="#F5F5F5"/>
<path d="M225.945 110.154L226.545 111.37L227.887 111.565C228.222 111.614 228.356 112.025 228.113 112.262L227.142 113.209L227.371 114.546C227.428 114.88 227.078 115.134 226.779 114.977L225.578 114.346L224.377 114.977C224.077 115.135 223.727 114.88 223.785 114.546L224.014 113.209L223.043 112.262C222.801 112.026 222.934 111.614 223.269 111.565L224.611 111.37L225.211 110.154C225.362 109.85 225.795 109.85 225.945 110.154Z" fill="#EBEBEB"/>
<path d="M60.7772 402.007L61.3772 403.223L62.7192 403.418C63.0542 403.467 63.1882 403.878 62.9452 404.115L61.9742 405.062L62.2032 406.399C62.2602 406.733 61.9102 406.987 61.6112 406.83L60.4102 406.199L59.2092 406.83C58.9092 406.987 58.5592 406.733 58.6172 406.399L58.8462 405.062L57.8752 404.115C57.6332 403.879 57.7662 403.467 58.1012 403.418L59.4432 403.223L60.0432 402.007C60.1942 401.703 60.6272 401.703 60.7772 402.007Z" fill="#F5F5F5"/>
<path d="M87.7552 97.3003L88.3552 98.5163L89.6972 98.7113C90.0322 98.7603 90.1662 99.1713 89.9232 99.4083L88.9522 100.355L89.1812 101.692C89.2382 102.026 88.8882 102.28 88.5882 102.122L87.3872 101.491L86.1872 102.122C85.8872 102.28 85.5372 102.025 85.5942 101.692L85.8232 100.355L84.8522 99.4083C84.6102 99.1723 84.7432 98.7603 85.0782 98.7113L86.4202 98.5163L87.0202 97.3003C87.1722 96.9963 87.6052 96.9963 87.7552 97.3003Z" fill="#EBEBEB"/>
<path d="M86.1311 338.318C86.1311 339.051 85.5371 339.645 84.8041 339.645C84.0711 339.645 83.4771 339.051 83.4771 338.318C83.4771 337.585 84.0711 336.991 84.8041 336.991C85.5361 336.991 86.1311 337.585 86.1311 338.318Z" fill="#EBEBEB"/>
<path d="M275.671 171.893C275.671 172.626 275.077 173.22 274.344 173.22C273.611 173.22 273.017 172.626 273.017 171.893C273.017 171.16 273.611 170.566 274.344 170.566C275.077 170.566 275.671 171.16 275.671 171.893Z" fill="#EBEBEB"/>
<path d="M206.707 98.3993C206.707 99.1323 206.113 99.7263 205.38 99.7263C204.647 99.7263 204.053 99.1323 204.053 98.3993C204.053 97.6663 204.647 97.0723 205.38 97.0723C206.113 97.0723 206.707 97.6673 206.707 98.3993Z" fill="#F5F5F5"/>
<path d="M208.841 422.496C212.79 421.564 215.236 417.606 214.303 413.657C213.371 409.707 209.413 407.262 205.464 408.194C201.514 409.127 199.069 413.084 200.001 417.034C200.934 420.983 204.891 423.429 208.841 422.496Z" fill="#F0F0F0"/>
<path d="M204.597 411.089C203.037 411.089 201.587 411.589 200.407 412.449C200.017 413.349 199.797 414.339 199.797 415.379C199.797 419.439 203.087 422.719 207.147 422.719C208.517 422.719 209.807 422.339 210.907 421.68C210.897 421.67 210.897 421.67 210.907 421.67C211.457 420.65 211.767 419.49 211.767 418.25C211.767 414.299 208.557 411.089 204.597 411.089Z" fill="#E6E6E6"/>
<path d="M147.68 287.644H86.8252V260.169L147.68 187.832H176.795V261.727H191.885V287.644H176.795V310.116H147.68V287.644ZM147.68 261.727V223.889L115.524 261.727H147.68Z" fill="#1750FB" fill-opacity="0.984314"/>
<path d="M202.302 249.507C202.302 226.653 206.415 210.661 214.645 201.529C222.874 192.398 235.407 187.832 252.249 187.832C260.34 187.832 266.984 188.831 272.178 190.826C277.372 192.822 281.61 195.419 284.89 198.617C288.17 201.816 290.754 205.178 292.64 208.705C294.527 212.231 296.044 216.346 297.192 221.049C299.433 230.016 300.554 239.366 300.554 249.098C300.554 270.913 296.863 286.88 289.482 296.994C282.1 307.11 269.388 312.166 251.345 312.166C241.229 312.166 233.055 310.552 226.823 307.327C220.589 304.102 215.476 299.372 211.486 293.139C208.586 288.711 206.331 282.655 204.72 274.973C203.107 267.291 202.302 258.803 202.302 249.507ZM235.436 249.589C235.436 264.899 236.789 275.356 239.495 280.961C242.202 286.565 246.125 289.367 251.264 289.367C254.654 289.367 257.593 288.178 260.081 285.799C262.569 283.421 264.4 279.663 265.577 274.523C266.752 269.384 267.34 261.373 267.34 250.492C267.34 234.528 265.987 223.797 263.281 218.302C260.574 212.806 256.515 210.059 251.101 210.059C245.578 210.059 241.587 212.862 239.126 218.466C236.666 224.07 235.436 234.445 235.436 249.589Z" fill="#1750FB" fill-opacity="0.984314"/>
<path d="M371.744 287.644H310.889V260.169L371.744 187.832H400.859V261.727H415.949V287.644H400.859V310.116H371.744V287.644ZM371.744 261.727V223.889L339.589 261.727H371.744Z" fill="#1750FB" fill-opacity="0.984314"/>
<g opacity="0.3">
<path d="M200.952 145.619C200.952 146.649 200.117 147.484 199.087 147.484C198.057 147.484 197.222 146.649 197.222 145.619C197.222 144.589 198.057 143.754 199.087 143.754C200.117 143.754 200.952 144.589 200.952 145.619Z" fill="#1750FB" fill-opacity="0.984314"/>
<path d="M72.9661 217.453C73.6967 217.453 74.2891 216.86 74.2891 216.13C74.2891 215.399 73.6967 214.807 72.9661 214.807C72.2354 214.807 71.6431 215.399 71.6431 216.13C71.6431 216.86 72.2354 217.453 72.9661 217.453Z" fill="#1750FB" fill-opacity="0.984314"/>
<path d="M291.054 410.226C292.1 410.226 292.947 409.379 292.947 408.333C292.947 407.288 292.1 406.44 291.054 406.44C290.009 406.44 289.161 407.288 289.161 408.333C289.161 409.379 290.009 410.226 291.054 410.226Z" fill="#1750FB" fill-opacity="0.984314"/>
<path d="M336.498 333.324C337.228 333.324 337.821 332.731 337.821 332.001C337.821 331.27 337.228 330.678 336.498 330.678C335.767 330.678 335.175 331.27 335.175 332.001C335.175 332.731 335.767 333.324 336.498 333.324Z" fill="#1750FB" fill-opacity="0.984314"/>
<path d="M424.173 95.6199C424.173 96.3509 423.581 96.9429 422.85 96.9429C422.119 96.9429 421.527 96.3509 421.527 95.6199C421.527 94.8889 422.119 94.2969 422.85 94.2969C423.581 94.2969 424.173 94.8889 424.173 95.6199Z" fill="#1750FB" fill-opacity="0.984314"/>
<path d="M172.754 68.9636C172.754 69.6946 172.162 70.2866 171.431 70.2866C170.7 70.2866 170.108 69.6946 170.108 68.9636C170.108 68.2326 170.7 67.6406 171.431 67.6406C172.162 67.6406 172.754 68.2326 172.754 68.9636Z" fill="#1750FB" fill-opacity="0.984314"/>
<path d="M277.695 138.267C278.426 138.267 279.018 137.675 279.018 136.944C279.018 136.213 278.426 135.621 277.695 135.621C276.964 135.621 276.372 136.213 276.372 136.944C276.372 137.675 276.964 138.267 277.695 138.267Z" fill="#1750FB" fill-opacity="0.984314"/>
</g>
<path d="M141.233 138.271C153.334 138.271 163.143 128.462 163.143 116.361C163.143 104.261 153.334 94.4512 141.233 94.4512C129.133 94.4512 119.323 104.261 119.323 116.361C119.323 128.462 129.133 138.271 141.233 138.271Z" fill="#1750FB" fill-opacity="0.984314"/>
<path opacity="0.7" d="M141.233 138.271C153.334 138.271 163.143 128.462 163.143 116.361C163.143 104.261 153.334 94.4512 141.233 94.4512C129.133 94.4512 119.323 104.261 119.323 116.361C119.323 128.462 129.133 138.271 141.233 138.271Z" fill="white"/>
<path opacity="0.2" d="M133.682 99.8301C130.611 99.8301 127.696 100.465 125.041 101.6C121.491 105.493 119.325 110.678 119.325 116.362C119.325 128.459 129.132 138.266 141.229 138.266C144.31 138.266 147.246 137.631 149.912 136.486C149.912 136.486 149.912 136.486 149.912 136.476C153.441 132.582 155.596 127.418 155.596 121.745C155.597 109.637 145.79 99.8301 133.682 99.8301Z" fill="#1750FB" fill-opacity="0.984314"/>
<path opacity="0.2" d="M131.504 105.624C131.504 106.73 130.607 107.627 129.501 107.627C128.395 107.627 127.498 106.73 127.498 105.624C127.498 104.518 128.395 103.621 129.501 103.621C130.607 103.621 131.504 104.518 131.504 105.624Z" fill="#1750FB" fill-opacity="0.984314"/>
<path opacity="0.2" d="M155.064 103.62C155.064 104.726 154.167 105.623 153.061 105.623C151.955 105.623 151.058 104.726 151.058 103.62C151.058 102.514 151.955 101.617 153.061 101.617C154.167 101.618 155.064 102.514 155.064 103.62Z" fill="#1750FB" fill-opacity="0.984314"/>
<path opacity="0.2" d="M151.058 117.901C151.058 119.711 149.591 121.179 147.78 121.179C145.97 121.179 144.502 119.711 144.502 117.901C144.502 116.091 145.969 114.623 147.78 114.623C149.59 114.623 151.058 116.091 151.058 117.901Z" fill="#1750FB" fill-opacity="0.984314"/>
<path opacity="0.2" d="M140.642 127.246C140.642 129.666 138.68 131.627 136.261 131.627C133.841 131.627 131.88 129.665 131.88 127.246C131.88 124.826 133.842 122.865 136.261 122.865C138.68 122.865 140.642 124.827 140.642 127.246Z" fill="#1750FB" fill-opacity="0.984314"/>
<path d="M400.907 380.705C403.347 370.371 396.948 360.016 386.614 357.576C376.281 355.136 365.926 361.535 363.486 371.868C361.045 382.202 367.444 392.557 377.778 394.997C388.112 397.437 398.467 391.038 400.907 380.705Z" fill="#1750FB" fill-opacity="0.984314"/>
<path opacity="0.3" d="M400.907 380.705C403.347 370.371 396.948 360.016 386.614 357.576C376.281 355.136 365.926 361.535 363.486 371.868C361.045 382.202 367.444 392.557 377.778 394.997C388.112 397.437 398.467 391.038 400.907 380.705Z" fill="white"/>
<path opacity="0.4" d="M394.333 361.339C392.584 360.808 390.721 360.527 388.795 360.527C378.176 360.527 369.566 369.137 369.566 379.755C369.566 385.773 372.325 391.134 376.656 394.663C378.405 395.194 380.268 395.475 382.195 395.475C392.814 395.475 401.423 386.865 401.423 376.247C401.423 370.23 398.664 364.858 394.333 361.339Z" fill="#1750FB" fill-opacity="0.984314"/>
<path d="M363.83 381.949C343.296 391.611 358.614 399.058 387.542 388.662C414.326 379.036 424.509 366.893 400.594 370.656C401.828 375.764 368.282 388.835 363.83 381.949Z" fill="#1750FB" fill-opacity="0.984314"/>
<path opacity="0.2" d="M394.097 187.83C367.207 206 332.397 229.96 322.787 287.64H320.737C330.087 230.66 363.627 206.07 390.527 187.83H394.097Z" fill="black"/>
<path d="M255.019 368.266C238.049 368.267 221.21 360.604 213.033 348.08C207.98 340.341 202.113 324.13 219.588 302.502L221.144 303.76C208.782 319.059 206.496 334.41 214.708 346.987C224.702 362.296 248.304 369.993 268.438 364.515C289.066 358.902 301.59 340.958 302.799 315.287C306.934 227.48 353.583 200.432 387.645 180.682C408.807 168.412 424.097 159.546 420.736 140.844C420.27 138.249 419.235 136.456 417.573 135.363C413.22 132.495 404.72 134.477 394.879 136.771C375.573 141.268 349.133 147.428 333.382 120.637L335.106 119.623C350.112 145.146 374.683 139.423 394.425 134.822C404.715 132.426 413.602 130.355 418.673 133.691C420.818 135.103 422.137 137.327 422.705 140.49C426.314 160.572 409.692 170.21 388.648 182.412C354.984 201.931 308.88 228.663 304.796 315.38C303.544 341.976 290.483 360.588 268.962 366.444C264.427 367.678 259.716 368.265 255.019 368.266Z" fill="#1750FB" fill-opacity="0.984314"/>
<path opacity="0.2" d="M255.019 368.266C238.049 368.267 221.21 360.604 213.033 348.08C207.98 340.341 202.113 324.13 219.588 302.502L221.144 303.76C208.782 319.059 206.496 334.41 214.708 346.987C224.702 362.296 248.304 369.993 268.438 364.515C289.066 358.902 301.59 340.958 302.799 315.287C306.934 227.48 353.583 200.432 387.645 180.682C408.807 168.412 424.097 159.546 420.736 140.844C420.27 138.249 419.235 136.456 417.573 135.363C413.22 132.495 404.72 134.477 394.879 136.771C375.573 141.268 349.133 147.428 333.382 120.637L335.106 119.623C350.112 145.146 374.683 139.423 394.425 134.822C404.715 132.426 413.602 130.355 418.673 133.691C420.818 135.103 422.137 137.327 422.705 140.49C426.314 160.572 409.692 170.21 388.648 182.412C354.984 201.931 308.88 228.663 304.796 315.38C303.544 341.976 290.483 360.588 268.962 366.444C264.427 367.678 259.716 368.265 255.019 368.266Z" fill="white"/>
<path d="M312.758 96.9484C319.613 96.8234 326.34 99.0824 326.34 99.0824C326.34 99.0824 337.305 117.853 338.642 122.149C338.181 126.389 331.027 133.34 331.027 133.34L312.758 96.9484Z" fill="#1750FB" fill-opacity="0.984314"/>
<path opacity="0.3" d="M312.758 96.9484C319.613 96.8234 326.34 99.0824 326.34 99.0824C326.34 99.0824 337.305 117.853 338.642 122.149C338.181 126.389 331.027 133.34 331.027 133.34L312.758 96.9484Z" fill="white"/>
<path d="M345.338 188.133C341.202 182.885 337.141 177.539 333.779 171.748C332.939 170.301 332.143 168.827 331.39 167.333C330.962 166.484 330.548 165.628 330.146 164.766C329.795 164.013 329.02 162.904 328.942 162.082C327.741 149.41 332.079 140.082 327.914 129.91L311.443 136.347C311.443 136.347 312.844 154.469 316.041 165.31C318.025 172.036 322.516 177.859 326.844 183.247C328.198 184.933 329.503 186.657 330.854 188.345C332.133 189.943 333.566 191.409 334.848 192.999C336.795 195.412 337.443 197.715 335.963 200.56C335.884 200.712 335.801 200.863 335.716 201.013C335.296 201.754 337.262 202.594 338.497 201.034C340.539 198.453 340.218 198.612 341.959 196.411C343.016 195.075 344.23 193.632 345.278 192.378C346.302 191.155 346.325 189.385 345.338 188.133Z" fill="#1750FB" fill-opacity="0.984314"/>
<path opacity="0.7" d="M345.338 188.133C341.202 182.885 337.141 177.539 333.779 171.748C332.939 170.301 332.143 168.827 331.39 167.333C330.962 166.484 330.548 165.628 330.146 164.766C329.795 164.013 329.02 162.904 328.942 162.082C327.741 149.41 332.079 140.082 327.914 129.91L311.443 136.347C311.443 136.347 312.844 154.469 316.041 165.31C318.025 172.036 322.516 177.859 326.844 183.247C328.198 184.933 329.503 186.657 330.854 188.345C332.133 189.943 333.566 191.409 334.848 192.999C336.795 195.412 337.443 197.715 335.963 200.56C335.884 200.712 335.801 200.863 335.716 201.013C335.296 201.754 337.262 202.594 338.497 201.034C340.539 198.453 340.218 198.612 341.959 196.411C343.016 195.075 344.23 193.632 345.278 192.378C346.302 191.155 346.325 189.385 345.338 188.133Z" fill="white"/>
<path opacity="0.3" d="M341.311 182.918C339.106 185.583 334.623 189.04 332.647 190.441C333.077 190.92 333.503 191.409 333.93 191.898C337.998 189.241 341.214 185.794 342.434 184.394C342.057 183.909 341.684 183.413 341.311 182.918Z" fill="#1750FB" fill-opacity="0.984314"/>
<path opacity="0.3" d="M345.334 188.135C345.296 188.083 345.256 188.041 345.218 187.99C344.524 188.713 344.035 189.866 343.953 191.16C343.887 192.054 344.037 192.872 344.33 193.511C344.663 193.125 344.974 192.743 345.279 192.38C346.307 191.156 346.321 189.387 345.334 188.135Z" fill="#1750FB" fill-opacity="0.984314"/>
<path d="M308.842 108.951C307.119 111.457 305.088 113.927 302.467 116.145C301.166 117.26 299.681 118.269 298.05 119.125C297.227 119.545 296.362 119.909 295.467 120.21L294.792 120.427L294.574 120.495C294.416 120.543 294.257 120.586 294.097 120.624C293.795 120.692 293.492 120.738 293.224 120.76C292.141 120.842 291.356 120.688 290.709 120.527C289.432 120.179 288.579 119.714 287.772 119.263C286.977 118.804 286.279 118.334 285.618 117.849C284.316 116.858 283.138 115.863 282.04 114.801C279.83 112.691 277.87 110.503 276.05 108.066C275.22 106.955 275.448 105.382 276.559 104.553C277.416 103.912 278.549 103.902 279.402 104.441L279.478 104.49C281.838 105.988 284.219 107.568 286.542 108.982C287.715 109.674 288.861 110.37 289.988 110.912C290.542 111.192 291.085 111.447 291.575 111.628C292.052 111.814 292.528 111.92 292.652 111.895C292.704 111.892 292.642 111.821 292.274 111.834C292.185 111.839 292.059 111.851 291.931 111.879C291.857 111.893 291.785 111.912 291.713 111.935C291.644 111.958 291.742 111.916 291.748 111.91L292.079 111.741C292.519 111.517 292.941 111.237 293.369 110.952C294.225 110.373 295.04 109.638 295.872 108.832C297.518 107.197 299.102 105.162 300.774 103.046L300.796 103.017C302.508 100.849 305.654 100.48 307.822 102.192C309.898 103.831 310.315 106.8 308.842 108.951Z" fill="#1750FB" fill-opacity="0.984314"/>
<path opacity="0.7" d="M308.842 108.951C307.119 111.457 305.088 113.927 302.467 116.145C301.166 117.26 299.681 118.269 298.05 119.125C297.227 119.545 296.362 119.909 295.467 120.21L294.792 120.427L294.574 120.495C294.416 120.543 294.257 120.586 294.097 120.624C293.795 120.692 293.492 120.738 293.224 120.76C292.141 120.842 291.356 120.688 290.709 120.527C289.432 120.179 288.579 119.714 287.772 119.263C286.977 118.804 286.279 118.334 285.618 117.849C284.316 116.858 283.138 115.863 282.04 114.801C279.83 112.691 277.87 110.503 276.05 108.066C275.22 106.955 275.448 105.382 276.559 104.553C277.416 103.912 278.549 103.902 279.402 104.441L279.478 104.49C281.838 105.988 284.219 107.568 286.542 108.982C287.715 109.674 288.861 110.37 289.988 110.912C290.542 111.192 291.085 111.447 291.575 111.628C292.052 111.814 292.528 111.92 292.652 111.895C292.704 111.892 292.642 111.821 292.274 111.834C292.185 111.839 292.059 111.851 291.931 111.879C291.857 111.893 291.785 111.912 291.713 111.935C291.644 111.958 291.742 111.916 291.748 111.91L292.079 111.741C292.519 111.517 292.941 111.237 293.369 110.952C294.225 110.373 295.04 109.638 295.872 108.832C297.518 107.197 299.102 105.162 300.774 103.046L300.796 103.017C302.508 100.849 305.654 100.48 307.822 102.192C309.898 103.831 310.315 106.8 308.842 108.951Z" fill="white"/>
<path d="M272.285 102.416L273.457 104.382C273.457 104.382 274.352 106.998 276.143 107.482L280.997 105.91L280.754 105.502C280.756 105.503 280.759 105.503 280.761 105.503C280.139 104.556 280.206 102.73 280.425 101.211C280.643 99.6922 279.855 99.6382 279.273 100.016C278.937 100.234 278.699 100.927 278.426 101.674C278.187 101.345 277.931 101.028 277.642 100.74L276.159 99.2632C275.519 98.6262 274.494 98.5972 273.819 99.1972L272.617 100.265C272.005 100.809 271.866 101.712 272.285 102.416Z" fill="#1750FB" fill-opacity="0.984314"/>
<path opacity="0.7" d="M272.285 102.416L273.457 104.382C273.457 104.382 274.352 106.998 276.143 107.482L280.997 105.91L280.754 105.502C280.756 105.503 280.759 105.503 280.761 105.503C280.139 104.556 280.206 102.73 280.425 101.211C280.643 99.6922 279.855 99.6382 279.273 100.016C278.937 100.234 278.699 100.927 278.426 101.674C278.187 101.345 277.931 101.028 277.642 100.74L276.159 99.2632C275.519 98.6262 274.494 98.5972 273.819 99.1972L272.617 100.265C272.005 100.809 271.866 101.712 272.285 102.416Z" fill="white"/>
<path d="M317.674 95.2245C313.025 96.3525 306.638 99.0055 302.325 101.693C300.796 102.645 300.033 104.453 300.393 106.218C302.317 115.658 306.707 128.303 311.446 136.347L333.557 127.2C333.709 123.3 328.341 110.68 322.873 98.4825C321.891 96.2885 320.01 94.6585 317.674 95.2245Z" fill="#1750FB" fill-opacity="0.984314"/>
<path opacity="0.8" d="M317.674 95.2245C313.025 96.3525 306.638 99.0055 302.325 101.693C300.796 102.645 300.033 104.453 300.393 106.218C302.317 115.658 306.707 128.303 311.446 136.347L333.557 127.2C333.709 123.3 328.341 110.68 322.873 98.4825C321.891 96.2885 320.01 94.6585 317.674 95.2245Z" fill="white"/>
<path opacity="0.3" d="M326.296 106.213L321.908 104.742C322.89 107.309 326.441 110.563 328.938 112.474C328.115 110.468 327.223 108.371 326.296 106.213Z" fill="#1750FB" fill-opacity="0.984314"/>
<path d="M316.217 85.3198C314.392 81.8388 310.442 80.0868 305.7 80.4828C301.702 80.8168 298.157 84.8988 298.578 87.1048C298.998 89.3108 302.362 90.2448 302.971 91.0108L300.199 93.0208C298.819 94.0218 298.549 95.9678 299.603 97.3078C300.77 98.7898 302.305 100.338 303.2 101.431C310.864 101.232 316.533 98.3078 318.575 95.4948C317.841 91.9158 318.032 88.7818 316.217 85.3198Z" fill="#1750FB" fill-opacity="0.984314"/>
<path opacity="0.8" d="M316.217 85.3198C314.392 81.8388 310.442 80.0868 305.7 80.4828C301.702 80.8168 298.157 84.8988 298.578 87.1048C298.998 89.3108 302.362 90.2448 302.971 91.0108L300.199 93.0208C298.819 94.0218 298.549 95.9678 299.603 97.3078C300.77 98.7898 302.305 100.338 303.2 101.431C310.864 101.232 316.533 98.3078 318.575 95.4948C317.841 91.9158 318.032 88.7818 316.217 85.3198Z" fill="white"/>
<path d="M312.46 87.4765C313.982 91.3725 312.059 95.7645 308.163 97.2865C304.267 98.8085 299.875 96.8855 298.353 92.9895C296.831 89.0945 298.754 84.7015 302.65 83.1795C306.545 81.6575 310.937 83.5815 312.46 87.4765Z" fill="#263238"/>
<path d="M377.387 177.595C377.276 174.306 377.134 174.635 377.038 171.831C376.98 170.128 376.973 168.242 376.962 166.608C376.951 165.013 375.824 163.648 374.261 163.331C372.936 163.062 371.607 162.806 370.284 162.524C368.558 162.156 366.852 161.76 365.157 161.268C363.843 160.886 362.54 160.465 361.252 160.001C359.872 159.504 358.511 158.959 357.163 158.381C355.587 157.705 354.03 156.985 352.485 156.243C350.76 155.415 349.048 154.559 347.342 153.692C340.761 142.797 340.619 135.618 333.556 127.197L318.396 134.055C318.396 134.055 329.535 153.82 337.121 162.2C341.488 167.023 348.339 169.197 354.449 170.775C358.857 171.913 363.327 172.784 367.802 173.606C369.542 173.925 371.433 174.049 372.93 175.088C374.109 175.906 374.719 177.183 375.067 178.54C375.138 178.817 375.198 179.097 375.252 179.379C375.412 180.216 377.455 179.584 377.387 177.595Z" fill="#1750FB" fill-opacity="0.984314"/>
<path opacity="0.8" d="M377.387 177.595C377.276 174.306 377.134 174.635 377.038 171.831C376.98 170.128 376.973 168.242 376.962 166.608C376.951 165.013 375.824 163.648 374.261 163.331C372.936 163.062 371.607 162.806 370.284 162.524C368.558 162.156 366.852 161.76 365.157 161.268C363.843 160.886 362.54 160.465 361.252 160.001C359.872 159.504 358.511 158.959 357.163 158.381C355.587 157.705 354.03 156.985 352.485 156.243C350.76 155.415 349.048 154.559 347.342 153.692C340.761 142.797 340.619 135.618 333.556 127.197L318.396 134.055C318.396 134.055 329.535 153.82 337.121 162.2C341.488 167.023 348.339 169.197 354.449 170.775C358.857 171.913 363.327 172.784 367.802 173.606C369.542 173.925 371.433 174.049 372.93 175.088C374.109 175.906 374.719 177.183 375.067 178.54C375.138 178.817 375.198 179.097 375.252 179.379C375.412 180.216 377.455 179.584 377.387 177.595Z" fill="white"/>
<path opacity="0.3" d="M369.7 162.4C369.103 162.269 368.497 162.135 367.894 161.992C367.941 165.445 366.322 171.409 365.727 173.216C366.358 173.335 366.998 173.457 367.629 173.577C369.384 168.832 369.66 163.809 369.7 162.4Z" fill="#1750FB" fill-opacity="0.984314"/>
<path opacity="0.3" d="M376.961 166.61C376.95 165.011 375.827 163.649 374.267 163.329C373.953 163.265 373.629 163.197 373.312 163.143C373.378 164.083 373.963 165.174 374.941 166.04C375.582 166.618 376.307 167.002 376.973 167.183C376.963 166.984 376.962 166.797 376.961 166.61Z" fill="#1750FB" fill-opacity="0.984314"/>
<path d="M311.046 87.5399C311.451 89.0559 309.754 90.6499 308.396 89.3389C307.294 88.2749 305.634 86.4929 304.279 85.6459C302.887 84.7749 304.743 83.2589 306.929 83.8469C308.97 84.3969 310.641 86.0229 311.046 87.5399Z" fill="white"/>
<path d="M311.161 135.859C310.456 136.119 311.744 137.315 311.744 137.315C311.744 137.315 325.714 132.528 334.239 127.599C334.311 126.568 333.561 126.021 333.561 126.021C333.561 126.021 323.189 131.425 311.161 135.859Z" fill="#1750FB" fill-opacity="0.984314"/>
<path opacity="0.5" d="M311.161 135.859C310.456 136.119 311.744 137.315 311.744 137.315C311.744 137.315 325.714 132.528 334.239 127.599C334.311 126.568 333.561 126.021 333.561 126.021C333.561 126.021 323.189 131.425 311.161 135.859Z" fill="white"/>
<path d="M321.46 94.5634C324.218 95.9564 326.814 97.4314 329.407 99.0644C330.698 99.8774 331.983 100.712 333.249 101.613C334.525 102.496 335.784 103.427 337.047 104.475L337.521 104.863L338.112 105.396C338.532 105.766 338.84 106.107 339.149 106.447C339.473 106.798 339.74 107.136 340.003 107.473C340.276 107.812 340.535 108.149 340.768 108.481C341.757 109.809 342.563 111.16 343.354 112.5C344.891 115.217 346.222 117.93 347.32 120.849C347.81 122.151 347.152 123.603 345.849 124.094C344.871 124.462 343.807 124.182 343.131 123.468L343.082 123.414C341.073 121.286 339.146 119.041 337.207 116.956C335.31 114.877 333.295 112.743 331.67 111.815C329.4 110.399 326.872 108.993 324.36 107.608L316.797 103.41L316.778 103.4C314.363 102.06 313.492 99.0164 314.832 96.6014C316.141 94.2464 319.077 93.3634 321.46 94.5634Z" fill="#1750FB" fill-opacity="0.984314"/>
<path opacity="0.8" d="M321.46 94.5634C324.218 95.9564 326.814 97.4314 329.407 99.0644C330.698 99.8774 331.983 100.712 333.249 101.613C334.525 102.496 335.784 103.427 337.047 104.475L337.521 104.863L338.112 105.396C338.532 105.766 338.84 106.107 339.149 106.447C339.473 106.798 339.74 107.136 340.003 107.473C340.276 107.812 340.535 108.149 340.768 108.481C341.757 109.809 342.563 111.16 343.354 112.5C344.891 115.217 346.222 117.93 347.32 120.849C347.81 122.151 347.152 123.603 345.849 124.094C344.871 124.462 343.807 124.182 343.131 123.468L343.082 123.414C341.073 121.286 339.146 119.041 337.207 116.956C335.31 114.877 333.295 112.743 331.67 111.815C329.4 110.399 326.872 108.993 324.36 107.608L316.797 103.41L316.778 103.4C314.363 102.06 313.492 99.0164 314.832 96.6014C316.141 94.2464 319.077 93.3634 321.46 94.5634Z" fill="white"/>
<path d="M349.733 125.739L348.884 123.614C348.884 123.614 348.41 120.89 346.717 120.131L341.677 120.923L341.853 121.364C341.851 121.363 341.849 121.362 341.846 121.362C342.312 122.394 341.959 124.188 341.505 125.653C341.051 127.119 341.821 127.296 342.455 127.014C342.821 126.851 343.165 126.204 343.551 125.509C343.736 125.872 343.939 126.225 344.179 126.554L345.412 128.245C345.944 128.974 346.952 129.164 347.713 128.677L349.067 127.81C349.758 127.369 350.038 126.5 349.733 125.739Z" fill="#1750FB" fill-opacity="0.984314"/>
<path opacity="0.8" d="M349.733 125.739L348.884 123.614C348.884 123.614 348.41 120.89 346.717 120.131L341.677 120.923L341.853 121.364C341.851 121.363 341.849 121.362 341.846 121.362C342.312 122.394 341.959 124.188 341.505 125.653C341.051 127.119 341.821 127.296 342.455 127.014C342.821 126.851 343.165 126.204 343.551 125.509C343.736 125.872 343.939 126.225 344.179 126.554L345.412 128.245C345.944 128.974 346.952 129.164 347.713 128.677L349.067 127.81C349.758 127.369 350.038 126.5 349.733 125.739Z" fill="white"/>
<path opacity="0.3" d="M317.235 106.057L316.016 106.156L308.531 124.24C308.971 124.27 309.375 124.233 309.749 124.141C309.749 124.141 319.509 120.504 322.463 119.171C320.475 115.051 317.235 106.057 317.235 106.057Z" fill="#1750FB" fill-opacity="0.984314"/>
<path d="M303.567 110.801C303.984 114.058 306.426 120.98 308.532 124.239C312.187 122.979 318.292 120.602 321.246 119.269C319.257 115.15 317.163 109.474 316.017 106.156C312.868 106.365 306.005 108.95 303.567 110.801Z" fill="white"/>
<path opacity="0.3" d="M310.999 114.712C310.591 116.077 309.153 116.852 307.789 116.443C306.425 116.034 305.649 114.597 306.058 113.233C306.467 111.868 307.904 111.093 309.268 111.502C310.632 111.91 311.407 113.347 310.999 114.712Z" fill="#1750FB" fill-opacity="0.984314"/>
<path opacity="0.6" d="M312.912 111.267C312.778 111.714 312.307 111.968 311.86 111.834C311.413 111.7 311.159 111.229 311.292 110.782C311.426 110.335 311.897 110.081 312.344 110.215C312.792 110.348 313.046 110.819 312.912 111.267Z" fill="#1750FB" fill-opacity="0.984314"/>
<path opacity="0.6" d="M315.145 110.398C315.011 110.845 314.54 111.099 314.093 110.965C313.646 110.831 313.392 110.36 313.526 109.913C313.66 109.466 314.131 109.212 314.578 109.346C315.025 109.48 315.279 109.951 315.145 110.398Z" fill="#1750FB" fill-opacity="0.984314"/>
<path opacity="0.5" d="M318.29 118.186L309.043 121.84L308.484 120.022L317.731 116.367L318.29 118.186Z" fill="#1750FB" fill-opacity="0.984314"/>
<path opacity="0.2" d="M267.257 257.171C267.057 264.711 266.497 270.501 265.577 274.521C264.397 279.661 262.567 283.421 260.077 285.801C257.597 288.181 254.657 289.371 251.267 289.371C246.127 289.371 242.197 286.571 239.497 280.961C239.057 280.051 238.657 279.011 238.287 277.851C232.577 282.761 227.257 288.121 222.367 293.881L217.057 300.141C219.927 303.051 223.187 305.441 226.827 307.331C233.057 310.551 241.227 312.171 251.347 312.171C253.127 312.171 254.847 312.121 256.517 312.021C262.637 302.961 267.707 293.221 271.617 283.001L286.467 244.281L267.257 257.171Z" fill="black"/>
<path d="M133.388 309.959C138.985 315.556 150.89 327.461 150.89 327.461L199.901 281.294C183.035 274.882 150.159 293.189 133.388 309.959Z" fill="#263238"/>
<path d="M194.422 370.992C188.825 365.395 176.92 353.49 176.92 353.49L223.087 304.48C229.499 321.345 211.193 354.221 194.422 370.992Z" fill="#263238"/>
<path d="M261.399 260.7L280.49 223.891L243.681 242.982C231.855 249.116 220.937 256.859 211.237 265.99L148.49 325.06L179.32 355.89L238.39 293.143C247.522 283.444 255.265 272.526 261.399 260.7Z" fill="#1750FB" fill-opacity="0.984314"/>
<path opacity="0.6" d="M261.399 260.7L280.49 223.891L243.681 242.982C231.855 249.116 220.937 256.859 211.237 265.99L148.49 325.06L179.32 355.89L238.39 293.143C247.522 283.444 255.265 272.526 261.399 260.7Z" fill="white"/>
<path d="M222.198 295.083C229.322 295.083 235.097 289.308 235.097 282.184C235.097 275.06 229.322 269.285 222.198 269.285C215.074 269.285 209.299 275.06 209.299 282.184C209.299 289.308 215.074 295.083 222.198 295.083Z" fill="white"/>
<path d="M222.197 290.468C226.773 290.468 230.482 286.759 230.482 282.183C230.482 277.608 226.773 273.898 222.197 273.898C217.621 273.898 213.912 277.608 213.912 282.183C213.912 286.759 217.621 290.468 222.197 290.468Z" fill="#1750FB" fill-opacity="0.984314"/>
<path opacity="0.3" d="M189.746 344.816L159.564 314.635L184.275 291.371L213.009 320.105L189.746 344.816Z" fill="#1750FB" fill-opacity="0.984314"/>
<path d="M140.22 337.616C117.615 339.455 110.127 353.922 107.573 373.155C106.271 382.964 105.693 392.888 97.456 398.63C95.17 400.224 96.305 403.777 99.091 403.69C129.43 402.743 143.581 387.886 145.358 381.665C144.746 385.598 143.854 388.7 142.866 391.14C141.85 393.647 144.603 395.967 146.895 394.531C155.412 389.195 166.094 379.376 166.804 363.453C160.507 354.603 140.22 337.616 140.22 337.616Z" fill="#1750FB" fill-opacity="0.984314"/>
<path opacity="0.2" d="M140.22 337.616C117.615 339.455 110.127 353.922 107.573 373.155C106.271 382.964 105.693 392.888 97.456 398.63C95.17 400.224 96.305 403.777 99.091 403.69C129.43 402.743 143.581 387.886 145.358 381.665C144.746 385.598 143.854 388.7 142.866 391.14C141.85 393.647 144.603 395.967 146.895 394.531C155.412 389.195 166.094 379.376 166.804 363.453C160.507 354.603 140.22 337.616 140.22 337.616Z" fill="white"/>
<path d="M170.276 370.301L134.08 334.105L153.363 329.934L174.448 351.018L170.276 370.301Z" fill="#1750FB" fill-opacity="0.984314"/>
</svg>
