<svg width="564" height="550" viewBox="0 0 564 550" fill="none" xmlns="http://www.w3.org/2000/svg">
<path d="M379.69 223.071C339.73 223.071 299.15 221.45 261.145 210.864C223.855 200.516 189.617 180.441 159.099 157.218C139.071 142.102 120.951 130.038 94.9629 131.85C69.5819 133.257 45.3249 142.786 25.7719 159.031C-7.27415 187.928 -2.26714 241.383 10.8939 278.959C30.7789 335.561 91.0998 374.901 142.457 400.508C201.73 430.12 266.82 447.192 332.148 457.206C389.37 465.932 462.853 472.227 512.445 434.889C558.032 400.556 570.525 322.114 559.367 269.183C556.644 253.541 548.299 239.432 535.906 229.509C503.909 206.096 456.177 221.736 420.222 222.499C406.871 223.071 393.328 223.071 379.69 223.071Z" fill="#F2F2F2"/>
<path d="M281.984 550C378.661 550 457.036 545.112 457.036 539.08C457.036 533.048 378.661 528.16 281.984 528.16C185.305 528.16 106.932 533.048 106.932 539.08C106.932 545.112 185.306 550 281.984 550Z" fill="#F2F2F2"/>
<path d="M371.679 9.346C374.259 9.346 376.352 7.254 376.352 4.673C376.352 2.092 374.259 0 371.679 0C369.099 0 367.006 2.092 367.006 4.673C367.006 7.254 369.099 9.346 371.679 9.346Z" fill="#CFCFCF"/>
<path d="M158.097 462.879C160.678 462.879 162.77 460.786 162.77 458.206C162.77 455.626 160.678 453.533 158.097 453.533C155.516 453.533 153.424 455.626 153.424 458.206C153.424 460.786 155.517 462.879 158.097 462.879Z" fill="#CFCFCF"/>
<path d="M426.754 486.77V507.275" stroke="#BABABA" stroke-width="4.7685" stroke-linecap="round" stroke-linejoin="round"/>
<path d="M416.455 497.022H437.007" stroke="#BABABA" stroke-width="4.7685" stroke-linecap="round" stroke-linejoin="round"/>
<path d="M274.449 26.9902C223.861 26.9902 175.346 47.0862 139.575 82.8562C103.804 118.627 83.709 167.142 83.709 217.73C83.709 357.733 274.449 488.82 274.449 488.82C274.449 488.82 465.189 359.736 465.189 217.73C465.189 167.142 445.095 118.627 409.321 82.8562C373.553 47.0862 325.037 26.9902 274.449 26.9902ZM274.449 289.258C259.594 289.258 245.071 284.855 232.717 276.606C220.363 268.356 210.73 256.631 205.036 242.91C199.342 229.189 197.843 214.088 200.728 199.516C203.612 184.943 210.751 171.552 221.242 161.034C231.733 150.517 245.106 143.344 259.671 140.423C274.236 137.502 289.341 138.963 303.076 144.622C316.812 150.281 328.562 159.884 336.842 172.217C345.123 184.551 349.562 199.062 349.6 213.917C349.588 233.845 341.666 252.952 327.575 267.043C313.484 281.134 294.376 289.055 274.449 289.068V289.258Z" fill="white" stroke="#BABABA" stroke-width="4.7685" stroke-linecap="round" stroke-linejoin="round"/>
<path d="M72.6465 62.3242V82.8292" stroke="#BABABA" stroke-width="4.7685" stroke-linecap="round" stroke-linejoin="round"/>
<path d="M62.3457 72.5771H82.8977" stroke="#BABABA" stroke-width="4.7685" stroke-linecap="round" stroke-linejoin="round"/>
<path d="M499.523 118.116V138.621" stroke="#BABABA" stroke-width="4.7685" stroke-linecap="round" stroke-linejoin="round"/>
<path d="M489.223 128.368H509.775" stroke="#BABABA" stroke-width="4.7685" stroke-linecap="round" stroke-linejoin="round"/>
<path d="M299.769 186.02L249.127 236.709" stroke="#BABABA" stroke-width="4.7685" stroke-linecap="round" stroke-linejoin="round"/>
<path d="M249.127 186.02L299.769 236.709" stroke="#BABABA" stroke-width="4.7685" stroke-linecap="round" stroke-linejoin="round"/>
</svg>
