<svg width="173" height="43" viewBox="0 0 173 43" fill="none" xmlns="http://www.w3.org/2000/svg">
<g clip-path="url(#clip0_4809_128504)">
<path d="M23.3518 32.2353L26.7135 30.8631C26.7135 30.8631 26.7285 30.8933 26.7585 30.9084C26.5784 31.1949 26.4133 31.4814 26.2333 31.7528C25.8581 32.3107 25.4829 32.8687 25.0777 33.4115C24.8225 33.7433 24.5374 34.0298 24.1322 34.1655C23.0817 34.5274 22.0311 34.9044 20.9806 35.2964C20.7705 35.3718 20.5904 35.5679 20.4103 35.7337C20.3503 35.794 20.3653 35.9298 20.3353 36.0806C21.4909 35.7488 22.5714 35.4321 23.727 35.1004C23.6219 35.2663 23.6219 35.3115 23.5169 35.3718C23.1117 35.6432 22.7365 36.0052 22.4964 36.4575C21.9411 37.4678 21.1907 37.875 20.2602 38.0258C19.4198 38.1615 18.5944 38.3726 17.769 38.5535C17.4688 38.6289 17.2437 38.9004 17.2587 39.2019C18.2792 39.0361 19.2998 38.8702 20.3053 38.7194C20.3203 38.7647 20.3203 38.7646 20.3353 38.7948C20.1102 38.9908 19.87 39.2019 19.6449 39.398C19.2847 39.7146 18.9396 40.0464 18.5644 40.363C18.1142 40.7551 17.5589 40.8607 17.0036 40.921C16.1332 41.0265 12.6064 41.9162 12.4713 41.8559C12.7264 41.69 12.9966 41.5241 13.2517 41.3583C14.7224 40.3932 16.1482 39.3527 17.3938 38.0559C18.2642 37.1663 19.1347 36.2615 19.9451 35.3115C21.6409 33.3512 23.0817 31.1798 24.3573 28.8878C24.9876 27.7719 25.6029 26.6259 26.1432 25.4497C27.3888 22.7204 28.5444 19.9609 29.5199 17.0958C30.5554 14.0951 31.3809 11.0189 32.1312 7.92767C32.4014 6.82688 32.5665 5.69594 32.7916 4.58008C32.9717 3.67533 33.1968 2.78566 33.3468 1.8809C33.5419 0.734883 35.7781 -0.169869 35.1478 0.523775C34.7426 0.976151 34.5174 1.47376 34.4124 2.07693C34.3974 2.19757 34.3674 2.33328 34.3374 2.54439C34.4574 2.48407 34.5775 2.46899 34.6375 2.3936C35.3579 1.56424 38.1493 1.69995 37.8641 2.55947C37.684 3.08724 37.3839 3.59993 37.0537 4.05231C36.2733 5.10785 35.4479 6.11816 34.6075 7.12847C34.2473 7.56577 33.8121 7.92767 33.4069 8.33481C33.0167 8.72687 32.5815 9.34511 32.7315 9.99352C33.587 9.34511 34.3223 8.59115 35.0427 7.82211C35.7631 7.05307 36.4384 6.23879 37.1738 5.40944C37.0387 5.90705 36.9187 6.37451 36.7836 6.82688C36.4234 7.98798 36.0932 9.16416 35.7331 10.3403C35.568 10.9133 35.2678 11.3657 34.9227 11.803C33.8721 13.0848 32.7466 14.2609 31.4409 15.226C31.0807 15.4824 30.8256 15.8593 30.7055 16.3268C30.6755 16.4323 30.6755 16.553 30.6605 16.7641C32.2363 15.6935 33.587 14.4419 34.8776 13.0848C34.6675 13.703 34.4574 14.3213 34.2173 14.9395C33.8721 15.8292 33.572 16.749 33.2418 17.6688C33.0917 18.1061 32.7916 18.4228 32.4764 18.6942C31.651 19.4331 30.8106 20.1418 29.9551 20.8505C29.625 21.122 29.2498 21.3482 28.8896 21.5894C28.5444 21.8307 28.3643 22.2982 28.4544 22.7656C29.745 21.8156 31.0057 20.8958 32.3263 19.9307C32.2663 20.1569 32.2663 20.2021 32.1763 20.3228C31.711 20.8505 31.3809 21.499 31.2308 22.2077C30.9606 23.5497 30.3003 24.4545 29.3398 25.0727C28.4244 25.6759 27.4939 26.2338 26.5484 26.7918C26.1732 27.0179 25.9781 27.3497 25.9181 27.8322C27.1937 27.2743 28.3493 26.4902 29.625 25.9021C29.2498 26.5806 28.8746 27.2743 28.4694 27.9529C28.3343 28.179 28.0492 28.7068 27.9291 28.9481C27.689 29.3703 27.3438 29.6417 26.9536 29.8679C26.0081 30.4409 25.0477 30.9989 23.9821 31.3155C23.5769 31.4362 23.2918 31.7377 23.1717 32.175C23.2167 32.2203 23.2317 32.2354 23.2768 32.2806" fill="#747170"/>
<path d="M10.5954 41.3583C10.7754 41.3583 9.54482 40.8908 8.67438 40.8908C8.67438 40.8607 8.65938 40.8305 8.64437 40.8003C8.8995 40.6345 9.15463 40.4384 9.42476 40.2876C9.92001 40.0011 10.4153 39.6392 10.9555 39.4583C11.4058 39.3075 11.916 39.3527 12.3963 39.2924C12.9215 39.2321 13.4618 39.1718 13.9871 39.0813C14.3172 39.0361 14.4523 38.9154 14.5874 38.5535C13.6119 38.644 12.6814 38.7194 11.7509 38.7948C11.7509 38.7646 11.7359 38.7496 11.7209 38.7194C12.0811 38.4027 12.4413 38.071 12.7865 37.7543C12.9065 37.6488 13.0416 37.5432 13.1617 37.4226C13.7169 36.8194 14.4823 36.8797 15.1577 36.6988C15.758 36.548 16.3883 36.4424 16.9886 36.2766C17.2587 36.2012 17.4688 36.0052 17.5889 35.6131C16.5384 35.8242 15.5479 36.0202 14.5574 36.2163L14.4973 36.1107C14.6774 35.9298 14.8725 35.779 15.0226 35.5679C15.848 34.4218 16.9135 33.7131 18.2192 33.4266C18.7445 33.306 19.2397 33.0949 19.75 32.8988C20.0351 32.7933 20.2302 32.5822 20.2602 32.1449C19.2247 32.4615 18.2342 32.7782 17.2287 33.0798L17.1837 33.0044C17.2437 32.9139 17.3037 32.8234 17.3638 32.733C17.754 32.16 18.1442 31.5869 18.5344 31.0139C18.9096 30.456 19.4949 30.3052 20.0201 30.0489C20.7555 29.6719 21.4909 29.3401 22.2262 28.9933C22.5714 28.8274 22.7065 28.5259 22.8415 28.0584C21.716 28.5409 20.6805 28.9933 19.6299 29.4306C19.6149 29.4005 19.5999 29.3854 19.5699 29.3552C19.6899 29.129 19.795 28.9028 19.9151 28.6917C20.2002 28.179 20.5004 27.6814 20.7555 27.1687C21.0106 26.6259 21.4308 26.2791 21.9111 26.0076C22.7665 25.51 23.6219 24.9822 24.4774 24.4696C24.9726 24.168 25.1077 23.9116 25.0176 23.3989C23.8921 24.0323 22.7815 24.6656 21.6709 25.2838C21.6559 25.2688 21.6409 25.2386 21.6109 25.2235C21.806 24.7862 21.9861 24.3489 22.1812 23.8965C22.4363 23.3235 22.6314 22.7053 22.9616 22.1926C23.2167 21.7855 23.6069 21.4839 23.9821 21.1823C24.8976 20.4585 25.8281 19.7648 26.7435 19.0712C27.0287 18.8601 27.0437 18.5283 27.1337 18.0911C26.8936 18.2117 26.6985 18.272 26.5484 18.3776C25.738 18.9656 24.9276 19.5688 24.1172 20.1569C23.9371 20.2775 23.772 20.4132 23.5619 20.5791C23.802 19.7799 24.0422 19.041 24.2673 18.3022C24.4023 17.8799 24.4924 17.4577 24.6725 17.0657C24.8225 16.749 25.0477 16.4323 25.3028 16.1911C25.9481 15.5427 26.6385 14.9395 27.2988 14.3212C27.689 13.9443 28.0792 13.5673 28.4694 13.1752C28.7545 12.8887 28.8746 12.5117 28.8146 12.0443C27.5389 12.949 26.4133 14.0347 25.2127 15.1808C25.3328 14.5927 25.4228 14.0951 25.5429 13.6125C25.708 12.8586 25.8581 12.0895 26.0832 11.3506C26.1882 10.9737 26.3833 10.5967 26.6235 10.3102C27.4038 9.34511 28.2293 8.4102 29.0397 7.46021C29.3849 7.05307 29.775 6.69117 30.1052 6.28403C30.3453 5.96737 30.4204 5.57531 30.3153 5.06262C30.1502 5.18325 30.0002 5.27372 29.8951 5.39436C28.8446 6.55546 27.794 7.71656 26.7435 8.87766C26.6835 8.93797 26.6235 8.99829 26.4884 9.134C26.5484 8.74194 26.5784 8.44036 26.6235 8.13878C26.7885 7.02291 26.9236 5.89197 27.1187 4.79119C27.1787 4.42929 27.3588 4.06739 27.5689 3.7658C28.3493 2.64994 29.1597 1.54916 29.9701 0.463458C30.3603 -0.0643146 32.1613 0.825359 32.0112 1.85074C31.8911 2.64994 31.741 3.44914 31.576 4.24834C31.2758 5.8015 31.0057 7.36973 30.6605 8.90781C30.2703 10.6118 29.8501 12.3157 29.3248 13.9744C28.5744 16.3569 27.749 18.7244 26.8936 21.0617C26.4584 22.2831 25.8731 23.4291 25.3778 24.6203C24.4323 26.8822 23.2467 29.0084 21.9261 31.029C21.1607 32.2052 20.3203 33.321 19.4798 34.4218C18.8795 35.2059 18.2192 35.9448 17.5439 36.6686C15.6979 38.6742 13.6419 40.363 11.3157 41.6749" fill="#747170"/>
<path d="M44.1373 3.72057C43.7171 4.91182 43.2969 6.07292 42.8917 7.21894C42.4715 8.44036 42.0513 9.66177 41.616 10.8832C41.571 11.0038 41.466 11.1245 41.3609 11.1697C40.5805 11.4562 39.7701 11.6975 38.9297 11.6221C38.1493 11.5467 37.3689 11.3356 36.5885 11.1697C36.4384 11.1395 36.3033 11.0641 36.3784 10.8229C36.6935 9.75225 37.0087 8.69671 37.3239 7.62608C37.594 6.69117 37.8791 5.74118 38.1343 4.80627C38.2243 4.48961 38.3594 4.44437 38.6445 4.50469C40.5055 4.89674 42.2914 4.62532 44.0022 3.73565C44.0323 3.73565 44.0623 3.73565 44.1373 3.73565" fill="#747170"/>
<path d="M40.9557 12.6173C40.7156 13.2355 40.4905 13.7935 40.2653 14.3514C39.7101 15.7085 39.1248 17.0355 38.5995 18.4077C38.3894 18.9656 38.0292 19.1315 37.534 19.1768C36.2583 19.2974 35.1027 18.9053 33.9922 18.3022C33.8121 18.2117 33.8121 18.076 33.8721 17.9252C34.2773 16.8093 34.6825 15.7085 35.0877 14.5927C35.3279 13.9443 35.568 13.3109 35.7931 12.6625C35.8681 12.4514 35.9432 12.3911 36.1533 12.4816C36.9637 12.8435 37.8191 13.0244 38.6896 13.0094C39.3199 13.0094 39.9652 12.8284 40.5955 12.7229C40.7006 12.7078 40.8056 12.6625 40.9557 12.6324" fill="#747170"/>
<path d="M21.0706 4.2031C21.8661 4.08247 22.6765 3.88644 23.4869 3.88644C24.2973 3.88644 25.1227 4.11263 25.9331 4.26342C26.0232 4.2785 26.1582 4.50469 26.1432 4.62532C26.0232 5.71102 25.8731 6.79672 25.738 7.88243C25.663 8.44036 25.5879 9.01337 25.5129 9.63162C23.9521 9.10384 22.3913 8.81734 20.7555 9.16416C20.8605 7.52053 20.9806 5.90705 21.0857 4.2031" fill="#747170"/>
<path d="M33.3168 19.4482C34.0522 19.7347 34.7426 20.0966 35.4629 20.2625C36.1833 20.4283 36.9337 20.3982 37.684 20.4434C37.4589 20.8958 37.2188 21.4085 36.9787 21.9212C36.5135 22.8561 36.0482 23.7759 35.583 24.6957C35.5079 24.8465 35.4329 24.9823 35.3579 25.118C34.9827 25.8418 34.8026 25.9172 34.0522 25.7965C33.0167 25.6457 32.1312 25.133 31.2758 24.5299C31.2008 24.4696 31.1257 24.2585 31.1557 24.1831C31.8761 22.5847 32.6115 20.9863 33.3168 19.4331" fill="#747170"/>
<path d="M24.2523 15.5728C22.8866 14.8792 21.5209 14.4268 19.9751 14.6078C20.0351 14.1855 20.0651 13.8086 20.1252 13.4316C20.2752 12.4213 20.4403 11.3959 20.6204 10.3856C20.6354 10.2951 20.7555 10.1745 20.8455 10.1594C21.9261 9.96336 22.9916 10.0388 24.0422 10.3403C24.3423 10.4308 24.6425 10.5514 24.9426 10.6268C25.1827 10.7022 25.2428 10.8681 25.1827 11.1094C24.8676 12.5721 24.5674 14.0347 24.2372 15.5728" fill="#747170"/>
<path d="M30.5855 25.4497C32.0462 26.3444 33.3068 26.842 34.3674 26.9425C34.2173 27.2291 34.0822 27.5005 33.9321 27.7719C33.2118 28.9632 32.4764 30.1695 31.741 31.3457C31.696 31.4211 31.5609 31.4663 31.4709 31.4663C30.2103 31.4361 29.2198 30.7425 28.3193 29.8679C28.2593 29.8076 28.2893 29.5513 28.3493 29.4457C28.6945 28.7973 29.0697 28.164 29.4299 27.5156C29.76 26.9124 30.0902 26.3092 30.4204 25.706C30.4654 25.6156 30.5404 25.5402 30.5855 25.4497Z" fill="#747170"/>
<path d="M22.6765 20.745C22.0161 20.4434 21.4308 20.0966 20.8005 19.8855C20.1702 19.6744 19.5249 19.599 18.8495 19.4482C18.9546 19.041 19.0596 18.5736 19.1797 18.1061C19.3748 17.3371 19.5849 16.5681 19.765 15.7839C19.81 15.603 19.87 15.5577 20.0201 15.5427C20.9956 15.3768 21.8961 15.6331 22.7965 15.995C23.0967 16.1157 23.3968 16.2514 23.682 16.4173C23.787 16.4927 23.9371 16.7038 23.9071 16.8093C23.5169 18.1212 23.0967 19.418 22.6915 20.745" fill="#747170"/>
<path d="M27.5989 30.6369C28.6045 31.4965 29.5649 32.4163 30.9606 32.4766C30.6305 32.9441 30.3153 33.3814 30.0002 33.8187C29.4299 34.5877 28.8446 35.3417 28.2593 36.0956C28.1692 36.2163 27.9291 36.3067 27.794 36.2615C26.7435 36.0202 25.9481 35.3417 25.2578 34.4671C25.1377 34.3163 25.1677 34.2107 25.2578 34.075C25.8731 33.1853 26.4884 32.2957 27.1037 31.3909C27.2688 31.1496 27.4189 30.9084 27.5839 30.6369" fill="#747170"/>
<path d="M20.7405 25.4799C19.6899 24.6505 18.6244 24.0323 17.3488 23.9116C17.6339 23.1275 17.904 22.3886 18.1592 21.6648C18.2792 21.3331 18.3693 20.9712 18.4893 20.6394C18.5194 20.549 18.6544 20.4283 18.7295 20.4283C19.9901 20.4283 21.1157 20.8807 22.1662 21.6196C22.3613 21.7553 22.2412 21.9061 22.1962 22.0267C21.9411 22.6751 21.686 23.3085 21.4158 23.9569C21.2057 24.4545 20.9956 24.9521 20.7555 25.4949" fill="#747170"/>
<path d="M24.4774 35.0552C25.2878 36.0202 26.1432 36.8496 27.3738 37.1059C26.8035 37.7393 26.2783 38.3273 25.738 38.9154C25.3478 39.3226 24.9426 39.6996 24.5524 40.0916C24.4023 40.2424 24.2823 40.2726 24.1022 40.1972C23.3218 39.8956 22.7365 39.3377 22.2112 38.6591C22.1812 38.6289 22.1662 38.5837 22.1362 38.5535C21.791 38.1012 21.821 38.0107 22.2112 37.6035C22.8716 36.925 23.4869 36.1861 24.1172 35.4774C24.2222 35.3567 24.3423 35.221 24.4924 35.0552" fill="#747170"/>
<path d="M18.6094 29.5663C17.7089 28.7068 16.7785 27.983 15.5929 27.8021C15.9531 27.0179 16.3132 26.2489 16.6734 25.4799C16.6884 25.4346 16.7034 25.4045 16.7335 25.3592C17.0636 24.6505 17.0636 24.6203 17.784 24.8013C18.6244 25.0124 19.3598 25.4949 20.0801 26.0227C20.3503 26.2187 20.3503 26.46 20.1552 26.837C19.75 27.5608 19.3448 28.2695 18.9396 28.9933C18.8345 29.1743 18.7445 29.3703 18.6244 29.5663" fill="#747170"/>
<path d="M13.7019 31.2401C14.0771 30.5012 14.4373 29.8076 14.7975 29.114C14.7975 29.0838 14.8425 29.0687 14.8575 29.0386C15.1877 28.4505 15.1877 28.4505 15.803 28.6616C16.6584 28.9481 17.3638 29.5211 18.0241 30.1393C18.0691 30.1846 18.0841 30.3354 18.0541 30.3806C17.4688 31.3004 16.8685 32.2052 16.2532 33.1552C15.5028 32.2655 14.7525 31.5417 13.7019 31.2401Z" fill="#747170"/>
<path d="M15.7279 33.7433C15.0376 34.5425 14.3623 35.3266 13.6719 36.1409C13.2817 35.6885 12.9666 35.2663 12.5764 34.9345C12.2012 34.6179 11.7659 34.3917 11.3457 34.1202C11.931 33.3814 12.5463 32.6123 13.1767 31.8131C14.1972 32.1147 15.0526 32.7631 15.743 33.7433" fill="#747170"/>
<path d="M21.1757 38.7646C21.821 39.6996 22.5114 40.5591 23.6219 40.9511C22.8866 41.4487 19.5549 41.298 18.8495 41.7654C18.7145 41.8559 18.5344 41.5694 18.4293 41.3884C18.3843 41.3281 18.4293 41.1321 18.4743 41.0868C19.3598 40.3178 20.2602 39.5488 21.1757 38.7496" fill="#747170"/>
<path d="M10.7905 38.6892C10.2802 37.7996 9.70991 37.0607 8.79444 36.6536C9.16963 36.2917 9.51481 35.975 9.84498 35.6583C10.1151 35.3869 10.3702 35.1155 10.6554 34.8591C10.7304 34.7988 10.8655 34.7385 10.9405 34.7687C11.811 35.1607 12.5463 35.7639 13.0866 36.6686C12.3212 37.3472 11.5708 38.0107 10.7905 38.6892Z" fill="#747170"/>
<path d="M7.75892 40.6646C7.38373 39.8503 6.88848 39.1869 6.09308 38.7043C6.30319 38.5535 6.48328 38.448 6.64836 38.3273C7.1286 37.9654 7.60885 37.6035 8.07408 37.2416C8.22416 37.121 8.34422 37.1059 8.5093 37.1964C9.18464 37.5885 9.67989 38.1766 10.1001 38.8702C10.2202 39.0813 10.1001 39.1265 9.98004 39.217C9.25968 39.6845 8.53932 40.167 7.75892 40.6646Z" fill="#747170"/>
<path d="M3.18161 40.6043C3.39171 40.4686 3.5568 40.3781 3.72188 40.2575C4.18712 39.9257 4.66736 39.6091 5.13259 39.2623C5.28267 39.1567 5.38772 39.1567 5.50778 39.2773C6.03305 39.79 6.45326 39.9408 6.69338 40.7551C6.76842 40.9964 6.66337 41.0416 6.5283 41.117C5.82294 41.5241 3.78191 41.2226 3.18161 40.6043Z" fill="#747170"/>
<path d="M19.4348 3.81127C19.4348 3.61524 19.2697 3.44937 19.0746 3.44937H12.4113C12.0211 3.44937 11.7059 3.11763 11.7059 2.71049C11.7059 2.13748 11.7059 1.57955 11.7059 1.00654C11.7059 -0.335512 3.73689 -0.335512 3.73689 1.00654C3.73689 1.59463 3.73689 2.18272 3.73689 2.78588C3.73689 3.17794 3.43674 3.50969 3.04654 3.52476C1.89096 3.57 0 3.67556 0 3.67556C0 3.67556 0.135068 39.7903 0.120061 40.9363C0.120061 41.1926 0.37519 41.3736 0.600303 41.2831C2.61132 40.4387 10.3252 36.5935 15.3528 25.5404C19.2397 16.3421 19.4498 4.77634 19.4348 3.82635M6.3332 3.22318L6.45326 2.72557H8.43426L8.3142 3.22318H6.3332Z" fill="#FDC500"/>
<path d="M57.8242 7.98798C57.8242 7.77687 57.8692 3.59993 57.8692 3.59993C57.8692 3.59993 57.314 3.52454 55.9933 3.52454C55.6932 3.52454 55.468 3.26819 55.468 2.96661C55.468 2.77058 55.468 2.57455 55.468 2.36344C55.468 1.79043 55.5131 1.47376 55.408 0.915834C55.2129 -0.169869 47.484 -0.169869 47.484 0.885675C47.484 1.48884 47.484 2.37852 47.484 2.99676C47.484 3.29835 47.2439 3.55469 46.9437 3.55469H46.2684C46.0283 3.55469 45.8182 3.72057 45.7431 3.94675C44.9027 6.91736 39.3799 25.6156 28.1392 38.6139C27.749 39.0511 27.3288 39.4734 26.9086 39.8956C26.7885 40.0162 26.6985 40.167 26.5634 40.2876C25.9331 40.9059 25.2878 41.5091 24.6274 42.1424C24.7325 42.1424 24.8075 42.1725 24.8676 42.1725H26.8336C35.0727 42.1725 32.3113 42.1725 40.5505 42.1575C47.2439 42.1575 57.5541 42.1725 57.5541 42.1725C57.5541 42.1725 57.8092 25.9322 57.8092 25.5251C57.8092 16.4927 57.8092 17.0657 57.8092 8.03322V7.98798H57.8242ZM50.7106 2.92137H51.6861V1.92614H51.9713V2.92137H52.9318V3.17771H51.9713V4.26342H51.6861V3.17771H50.7106V2.92137ZM52.3465 35.8393C51.2509 37.6488 49.6451 38.8702 47.559 39.4583H47.529C47.0788 39.5638 46.6136 39.6091 46.1483 39.6091C43.8972 39.6091 41.7211 38.4178 40.4604 36.5028C38.9447 34.1806 38.8997 31.0592 40.3404 27.7116C43.2218 21.0466 46.8387 11.7879 48.3995 7.06815C48.7897 5.87689 49.2099 5.09277 49.9753 5.09277C50.3504 5.09277 50.6206 5.31896 50.7556 5.53007L50.9508 5.83166L50.8457 6.17848C50.8157 6.25387 48.3094 14.472 48.0543 18.7395C47.8592 21.9513 49.9452 24.4545 51.3259 26.0981C51.7762 26.641 52.1364 27.0783 52.3615 27.4552C52.9318 28.4203 53.2919 29.4759 53.427 30.5766C53.6821 32.4615 53.322 34.2258 52.3615 35.8091" fill="#003F88"/>
<path d="M51.8512 28.2092C51.7912 28.1036 51.7311 27.983 51.6711 27.8775C51.6261 27.8021 51.5811 27.7267 51.521 27.6513C51.401 27.4854 51.2509 27.2894 51.0858 27.0783C50.4555 26.3092 49.525 25.2688 48.7446 23.987C47.8442 22.5243 47.1388 20.7601 47.2589 18.7093C47.514 14.2911 50.0803 5.95229 50.0803 5.95229C50.0803 5.95229 50.0653 5.95229 50.0503 5.93721H50.0203C50.0203 5.93721 49.9903 5.93721 49.9753 5.93721C49.9753 5.93721 49.9452 5.93721 49.9302 5.96737C49.9152 5.96737 49.9002 5.99753 49.8702 6.01261C49.8552 6.02769 49.8402 6.04277 49.8102 6.07292C49.8102 6.07292 49.8102 6.07292 49.8102 6.088C49.7952 6.11816 49.7651 6.14832 49.7351 6.17848C49.7351 6.17848 49.7351 6.19356 49.7351 6.20864C49.7201 6.23879 49.6901 6.28403 49.6751 6.32927C49.6751 6.32927 49.6751 6.32927 49.6751 6.34435C49.6451 6.38959 49.6151 6.4499 49.6001 6.51022C49.6001 6.51022 49.6001 6.54038 49.5851 6.55546C49.555 6.61577 49.525 6.67609 49.51 6.73641C49.51 6.73641 49.51 6.73641 49.51 6.75149C49.48 6.82688 49.45 6.90228 49.42 6.99275C49.42 7.00783 49.42 7.03799 49.405 7.05307C49.375 7.14355 49.3449 7.23402 49.2999 7.33958C48.0093 11.23 45.2779 18.3323 42.7416 24.4696C42.6666 24.6656 42.5765 24.8465 42.5015 25.0426C42.3514 25.4045 42.2013 25.7664 42.0513 26.1132C41.7661 26.7767 41.496 27.4251 41.2258 28.0584C41.1358 28.2846 41.0457 28.4957 40.9557 28.7219C40.9257 28.7973 40.9107 28.8727 40.8807 28.933C40.8356 29.0838 40.7756 29.2195 40.7306 29.3552C40.7006 29.4457 40.6856 29.5211 40.6555 29.6116C40.6255 29.7322 40.5805 29.8679 40.5505 29.9885C40.5355 30.079 40.5055 30.1544 40.4905 30.2449C40.4604 30.3655 40.4304 30.4862 40.4154 30.6068C40.4004 30.6973 40.3854 30.7727 40.3704 30.8631C40.3554 30.9838 40.3404 31.0893 40.3254 31.21C40.3254 31.2854 40.3104 31.3758 40.2954 31.4512C40.2954 31.5568 40.2804 31.6774 40.2653 31.783C40.2653 31.8584 40.2653 31.9338 40.2653 32.0092C40.2653 32.1147 40.2653 32.2353 40.2653 32.3409C40.2653 32.4163 40.2653 32.4766 40.2653 32.552C40.2653 32.6726 40.2654 32.7782 40.2804 32.8988C40.2804 32.9591 40.2804 33.0195 40.2804 33.0798C40.2804 33.2155 40.3104 33.3512 40.3254 33.502C40.3254 33.5322 40.3254 33.5623 40.3254 33.5925C40.3554 33.7583 40.3854 33.9242 40.4154 34.075C40.4154 34.1052 40.4304 34.1504 40.4454 34.1806C40.4755 34.3012 40.5055 34.4218 40.5355 34.5274C40.5505 34.5726 40.5655 34.6329 40.5805 34.6782C40.6105 34.7687 40.6405 34.8742 40.6856 34.9647C40.7006 35.025 40.7306 35.0702 40.7456 35.1306C40.7756 35.221 40.8206 35.2964 40.8506 35.3869C40.8807 35.4472 40.8957 35.4925 40.9257 35.5528C40.9707 35.6282 41.0007 35.7186 41.0457 35.794C41.0758 35.8393 41.1058 35.8996 41.1358 35.9448C41.1808 36.0202 41.2258 36.0956 41.2709 36.171C41.3009 36.2163 41.3309 36.2615 41.3609 36.3067C41.4059 36.3821 41.466 36.4424 41.511 36.5178C41.541 36.5631 41.571 36.6083 41.616 36.6385C41.6761 36.7139 41.7361 36.7742 41.7961 36.8496C41.8261 36.8797 41.8562 36.925 41.8862 36.9551C41.9612 37.0305 42.0362 37.1059 42.1113 37.1813C42.1413 37.2115 42.1563 37.2266 42.1863 37.2567C42.2914 37.3472 42.3964 37.4377 42.5015 37.5281C42.5015 37.5281 42.5165 37.5282 42.5315 37.5432C42.6365 37.6186 42.7266 37.694 42.8316 37.7694C42.8617 37.7996 42.9067 37.8147 42.9367 37.8448C43.0117 37.8901 43.0868 37.9504 43.1618 37.9956C43.2068 38.0258 43.2519 38.0408 43.2969 38.071C43.3719 38.1162 43.447 38.1615 43.522 38.1916C43.567 38.2218 43.612 38.2369 43.6571 38.267C43.7321 38.2972 43.8071 38.3424 43.8672 38.3726C43.9122 38.3877 43.9722 38.4178 44.0172 38.4329C44.0923 38.4631 44.1673 38.4932 44.2424 38.5234C44.2874 38.5385 44.3474 38.5535 44.3924 38.5837C44.4675 38.6138 44.5425 38.6289 44.6175 38.6591C44.6626 38.6742 44.7226 38.6892 44.7676 38.7043C44.8427 38.7194 44.9177 38.7496 45.0077 38.7646C45.0528 38.7646 45.0978 38.7948 45.1578 38.7948C45.2479 38.8099 45.3229 38.825 45.4129 38.84C45.458 38.84 45.503 38.84 45.533 38.8551C45.6531 38.8702 45.7731 38.8853 45.8932 38.8853C45.8932 38.8853 45.9082 38.8853 45.9232 38.8853C46.0433 38.8853 46.1633 38.8853 46.2834 38.8853C46.2834 38.8853 46.2834 38.8853 46.2984 38.8853C46.3284 38.8853 46.3434 38.8853 46.3734 38.8853C46.4785 38.8853 46.5685 38.8853 46.6586 38.8853C46.7036 38.8853 46.7336 38.8853 46.7786 38.8853C46.8687 38.8853 46.9437 38.8702 47.0338 38.8551C47.0638 38.8551 47.1088 38.8551 47.1388 38.84C47.2589 38.825 47.3789 38.7948 47.484 38.7797C47.5891 38.7496 47.7091 38.7194 47.8142 38.6742C47.8292 38.6742 47.8442 38.6742 47.8742 38.6591C47.9943 38.6139 48.0993 38.5837 48.2044 38.5385C48.5645 38.4027 48.9097 38.2369 49.2399 38.0408C49.375 37.9654 49.525 37.875 49.6601 37.7845C50.5005 37.2115 51.2359 36.4575 51.8212 35.5075C52.6916 34.075 53.0068 32.5068 52.7817 30.7877C52.6616 29.8981 52.3915 29.0536 51.9863 28.2846M41.7511 32.7179C41.7361 32.6274 41.7211 32.5369 41.7211 32.4615C41.7211 32.4465 41.7211 32.4163 41.7211 32.4012C41.7211 32.3258 41.7211 32.2353 41.7211 32.16C41.7211 32.16 41.7211 32.1449 41.7211 32.1298C41.7211 32.0544 41.7211 31.9941 41.7211 31.9338C41.7211 31.9338 41.7211 31.9036 41.7211 31.8885C41.7211 31.8131 41.7361 31.7528 41.7511 31.6925C41.7511 31.6925 41.7511 31.6774 41.7511 31.6623C41.7511 31.602 41.7811 31.5568 41.7961 31.5115C41.7961 31.5115 41.7961 31.4965 41.7961 31.4814C41.8111 31.4361 41.8261 31.3758 41.8562 31.3306C41.8562 31.3306 41.8562 31.3155 41.8562 31.3004C41.8712 31.2552 41.9012 31.225 41.9162 31.1949C41.9162 31.1949 41.9162 31.1949 41.9162 31.1798C41.9462 31.1496 41.9612 31.1195 41.9912 31.0893C41.9912 31.0893 41.9912 31.0893 42.0062 31.0742C42.0362 31.0592 42.0513 31.029 42.0813 31.0139C42.1113 31.0139 42.1413 30.9988 42.1563 30.9838C42.1563 30.9838 42.1563 30.9838 42.1713 30.9838C42.2013 30.9838 42.2163 30.9838 42.2463 30.9838C42.2764 30.9838 42.2914 31.0139 42.3214 31.029C42.3214 31.029 42.3214 31.029 42.3364 31.0441C42.3514 31.0592 42.3664 31.0893 42.3964 31.1044C42.3964 31.1044 42.3964 31.1044 42.4114 31.1195C42.4264 31.1496 42.4565 31.1949 42.4715 31.2401C42.4715 31.2401 42.4715 31.2552 42.4715 31.2703C42.4715 31.3155 42.5015 31.3457 42.5015 31.406C42.5015 31.4211 42.5015 31.4362 42.5015 31.4512C42.5015 31.5115 42.5165 31.5719 42.5315 31.6473C42.6365 32.8234 43.0267 33.879 43.6571 34.7837C43.8221 35.025 44.0172 35.2663 44.2123 35.4925C44.6025 35.9147 45.0528 36.2615 45.548 36.5631C45.7131 36.6686 45.8782 36.7591 46.0583 36.8496C43.9722 36.7591 42.0663 34.9194 41.6611 32.7028" fill="#FDC500"/>
</g>
<path d="M168.151 40.983C167.809 40.983 167.409 40.9601 166.953 40.9145C166.496 40.8802 166.04 40.8346 165.583 40.7775C165.138 40.709 164.744 40.652 164.402 40.6063L164.539 39.4764C164.87 39.5106 165.252 39.5506 165.686 39.5962C166.131 39.6419 166.565 39.6818 166.987 39.7161C167.421 39.7503 167.786 39.7674 168.083 39.7674C168.642 39.7674 169.104 39.6875 169.469 39.5278C169.835 39.3566 170.108 39.0998 170.291 38.7574C170.474 38.415 170.565 37.9755 170.565 37.4391C170.565 37.0054 170.479 36.663 170.308 36.4119C170.148 36.1494 169.874 35.944 169.486 35.7956C169.11 35.6358 168.602 35.4931 167.963 35.3676C167.346 35.2421 166.81 35.0994 166.353 34.9396C165.897 34.7798 165.515 34.5801 165.206 34.3404C164.898 34.0893 164.67 33.7754 164.522 33.3988C164.373 33.0222 164.299 32.5542 164.299 31.995C164.299 31.2303 164.453 30.6139 164.761 30.146C165.081 29.6781 165.526 29.3357 166.097 29.1188C166.679 28.9019 167.352 28.7935 168.117 28.7935C168.459 28.7935 168.847 28.8163 169.281 28.862C169.726 28.8962 170.16 28.9419 170.582 28.999C171.016 29.0446 171.387 29.096 171.695 29.153L171.575 30.3001C171.244 30.2544 170.862 30.2145 170.428 30.1802C169.994 30.1346 169.578 30.0946 169.178 30.0604C168.779 30.0262 168.459 30.009 168.22 30.009C167.672 30.009 167.209 30.0775 166.833 30.2145C166.456 30.3514 166.171 30.5626 165.977 30.8479C165.783 31.1218 165.686 31.4757 165.686 31.9094C165.686 32.4115 165.777 32.7939 165.96 33.0564C166.154 33.3189 166.462 33.5243 166.884 33.6727C167.306 33.8211 167.86 33.9752 168.545 34.135C169.138 34.2719 169.646 34.4203 170.069 34.5801C170.502 34.7399 170.856 34.9396 171.13 35.1793C171.415 35.4075 171.621 35.6986 171.746 36.0524C171.883 36.3948 171.952 36.8228 171.952 37.3364C171.952 38.2038 171.798 38.9057 171.489 39.4422C171.181 39.9786 170.742 40.3723 170.171 40.6234C169.601 40.8631 168.927 40.983 168.151 40.983Z" fill="#003F88"/>
<path d="M157.921 41C157.053 41 156.312 40.8744 155.695 40.6233C155.079 40.3722 154.605 39.9728 154.274 39.4249C153.955 38.8657 153.795 38.1295 153.795 37.2164V28.9988H155.165V37.2507C155.165 38.1523 155.404 38.8029 155.884 39.2024C156.374 39.5904 157.053 39.7844 157.921 39.7844C158.834 39.7844 159.536 39.5904 160.027 39.2024C160.517 38.8029 160.763 38.1523 160.763 37.2507V28.9988H162.132V37.2164C162.132 38.1181 161.967 38.8485 161.636 39.4078C161.316 39.9671 160.843 40.3722 160.215 40.6233C159.587 40.8744 158.822 41 157.921 41Z" fill="#003F88"/>
<path d="M145.839 40.8288V28.9988H147.209V39.5961H152.379V40.8288H145.839Z" fill="#003F88"/>
<path d="M135.708 40.8288V28.9988H140.039C140.906 28.9988 141.62 29.1415 142.179 29.4268C142.738 29.7008 143.155 30.1231 143.429 30.6937C143.703 31.253 143.84 31.9663 143.84 32.8337C143.84 33.6897 143.703 34.4202 143.429 35.0251C143.155 35.6186 142.738 36.0751 142.179 36.3947C141.62 36.7028 140.906 36.8569 140.039 36.8569H137.077V40.8288H135.708ZM137.077 35.6585H140.039C140.883 35.6585 141.494 35.4131 141.871 34.9224C142.247 34.4316 142.436 33.7354 142.436 32.8337C142.436 31.9207 142.247 31.253 141.871 30.8307C141.494 30.4084 140.883 30.1972 140.039 30.1972H137.077V35.6585Z" fill="#003F88"/>
<path d="M125.332 40.8288V30.2315H121.719V28.9988H130.279V30.2315H126.701V40.8288H125.332Z" fill="#003F88"/>
<path d="M112.661 40.8288L115.897 28.9988H118.859L122.077 40.8288H120.708L119.869 37.8328H114.87L114.031 40.8288H112.661ZM115.161 36.6172H119.578L117.814 30.163H116.924L115.161 36.6172Z" fill="#003F88"/>
<path d="M103.257 40.8288V28.9988H107.656C108.49 28.9988 109.186 29.1244 109.745 29.3755C110.316 29.6266 110.744 30.0203 111.029 30.5568C111.314 31.0818 111.457 31.7609 111.457 32.594C111.457 33.4615 111.28 34.1919 110.926 34.7854C110.584 35.3789 110.042 35.7955 109.3 36.0352L111.56 40.8288H110.036L107.947 36.3262H104.626V40.8288H103.257ZM104.626 35.1278H107.674C108.256 35.1278 108.718 35.0194 109.06 34.8025C109.414 34.5857 109.665 34.2889 109.814 33.9123C109.962 33.5242 110.036 33.0905 110.036 32.6112C110.036 31.8008 109.842 31.1959 109.454 30.7964C109.066 30.397 108.467 30.1972 107.656 30.1972H104.626V35.1278Z" fill="#003F88"/>
<path d="M92.0134 40.8288L95.2491 28.9988H98.2109L101.429 40.8288H100.06L99.221 37.8328H94.2219L93.383 40.8288H92.0134ZM94.5129 36.6172H98.9299L97.1665 30.163H96.2763L94.5129 36.6172Z" fill="#003F88"/>
<path d="M84.9829 40.8288V28.9988H92.0877V30.2144H86.3525V34.7683H91.1975V35.9838H86.3525V40.8288H84.9829Z" fill="#003F88"/>
<path d="M73.74 40.8288L76.9757 28.9988H79.9374L83.156 40.8288H81.7864L80.9475 37.8328H75.9485L75.1096 40.8288H73.74ZM76.2395 36.6172H80.6565L78.8931 30.163H78.0029L76.2395 36.6172Z" fill="#003F88"/>
<path d="M65.0205 40.8288V28.9988H66.3901V34.4772L68.3247 34.4088L71.3036 28.9988H72.8786L69.5402 34.9395L73.0669 40.8288H71.4405L68.3418 35.6243L66.3901 35.6928V40.8288H65.0205Z" fill="#003F88"/>
<path d="M166.394 8.56561C168.258 8.56561 169.67 8.9892 170.63 9.83637C171.59 10.6835 172.07 11.9049 172.07 13.5004C172.07 14.2487 171.936 15.0677 171.668 15.9572C171.4 16.8468 171.117 17.6021 170.821 18.2234H158.579C158.495 18.2234 158.438 18.1952 158.41 18.1387C158.382 18.0963 158.367 18.054 158.367 18.0116V15.8937C158.367 15.8513 158.382 15.809 158.41 15.7666C158.438 15.7101 158.495 15.6819 158.579 15.6819H168.703C168.971 14.9053 169.105 14.2487 169.105 13.7122C169.105 12.7803 168.83 12.1167 168.279 11.7213C167.729 11.3119 166.924 11.1071 165.865 11.1071H160.634L159.49 8.56561L165.441 2H169.063L162.54 8.56561H166.394Z" fill="#003F88"/>
<path d="M152.436 7.50663C153.439 7.50663 154.844 7.64783 156.651 7.93022V13.7122C156.651 14.1217 156.609 14.517 156.524 14.8982C156.948 15.4207 157.632 15.6819 158.578 15.6819C158.663 15.6819 158.72 15.7101 158.748 15.7666C158.776 15.809 158.79 15.8513 158.79 15.8937V18.0116C158.79 18.054 158.776 18.0963 158.748 18.1387C158.72 18.1952 158.663 18.2234 158.578 18.2234C158.112 18.2234 157.604 18.1104 157.054 17.8845C156.503 17.6586 156.009 17.3197 155.571 16.8679C154.808 17.7716 153.792 18.2234 152.521 18.2234H145.384C145.299 18.2234 145.242 18.1952 145.214 18.1387C145.186 18.0963 145.172 18.054 145.172 18.0116V15.8937C145.172 15.8513 145.186 15.809 145.214 15.7666C145.242 15.7101 145.299 15.6819 145.384 15.6819H148.01C147.106 14.9618 146.654 13.924 146.654 12.5685C146.654 11.6648 146.902 10.8247 147.396 10.0482C147.904 9.27158 148.596 8.65738 149.471 8.20555C150.361 7.7396 151.349 7.50663 152.436 7.50663ZM152.331 10.0482C150.608 10.0482 149.747 11.0153 149.747 12.9497C149.747 13.6981 149.973 14.3193 150.424 14.8135C150.876 15.2936 151.476 15.576 152.225 15.6607C152.676 15.4771 153.029 15.1736 153.284 14.75C153.552 14.3264 153.686 13.8251 153.686 13.2462V10.1964C153.192 10.0976 152.74 10.0482 152.331 10.0482ZM150.636 5.91818V3.24957H153.686V5.91818H150.636Z" fill="#003F88"/>
<path d="M145.394 15.6818C145.479 15.6818 145.535 15.7101 145.563 15.7666C145.592 15.823 145.606 15.8654 145.606 15.8936V18.0116C145.606 18.0539 145.592 18.0963 145.563 18.1386C145.535 18.1951 145.479 18.2234 145.394 18.2234C144.702 18.2234 143.989 18.0045 143.255 17.5668V17.588C143.255 19.4235 142.824 20.7719 141.963 21.6332C141.116 22.5087 140.014 23.024 138.659 23.1793L137.473 20.5319C138.165 20.4331 138.708 20.2989 139.104 20.1295C139.499 19.9601 139.796 19.6777 139.993 19.2823C140.191 18.9011 140.29 18.3646 140.29 17.6727V7.71838H143.255V14.7711C143.707 15.3783 144.42 15.6818 145.394 15.6818Z" fill="#003F88"/>
<path d="M133.554 18.2234V2H136.519V18.2234H133.554Z" fill="#003F88"/>
<path d="M118.034 18.2234C116.241 18.2234 114.928 17.7574 114.095 16.8255C113.261 15.8795 112.845 14.7005 112.845 13.2886V11.1071H115.81V12.8226C115.81 14.7288 116.848 15.6819 118.923 15.6819H127.438V7.71841H130.382V18.2234H118.034ZM117.864 7.71841V5.0498H120.914V7.71841H117.864ZM122.1 7.71841V5.0498H125.15V7.71841H122.1Z" fill="#003F88"/>
<path d="M100.378 18.2234C100.293 18.2234 100.236 18.1951 100.208 18.1386C100.18 18.0963 100.166 18.0539 100.166 18.0116V15.8936C100.166 15.8513 100.18 15.8089 100.208 15.7666C100.236 15.7101 100.293 15.6818 100.378 15.6818H102.496V7.71838H105.439V18.2234H100.378ZM102.305 22.7558V20.0871H105.355V22.7558H102.305Z" fill="#003F88"/>
<path d="M98.4574 13.7122C98.4574 14.1217 98.415 14.517 98.3303 14.8982C98.7539 15.4207 99.4387 15.6819 100.385 15.6819C100.469 15.6819 100.526 15.7101 100.554 15.7666C100.582 15.809 100.597 15.8513 100.597 15.8937V18.0116C100.597 18.054 100.582 18.0963 100.554 18.1387C100.526 18.1952 100.469 18.2234 100.385 18.2234C99.9188 18.2234 99.4105 18.1105 98.8598 17.8845C98.3091 17.6586 97.8149 17.3198 97.3772 16.8679C96.6148 17.7716 95.5982 18.2234 94.3274 18.2234H93.0143C92.9296 18.2234 92.8731 18.1952 92.8448 18.1387C92.8166 18.0963 92.8025 18.054 92.8025 18.0116V15.8937C92.8025 15.8513 92.8166 15.809 92.8448 15.7666C92.8731 15.7101 92.9296 15.6819 93.0143 15.6819H93.4379C94.0027 15.6819 94.4827 15.463 94.8781 15.0253C95.2875 14.5735 95.4923 13.9805 95.4923 13.2463V2H98.4574V13.7122Z" fill="#003F88"/>
<path d="M90.2471 13.7122C90.2471 13.9805 90.2047 14.3405 90.12 14.7924C90.4447 15.1312 90.8118 15.3642 91.2213 15.4913C91.6308 15.6184 92.2309 15.6819 93.0216 15.6819C93.1063 15.6819 93.1627 15.7101 93.191 15.7666C93.2192 15.809 93.2333 15.8513 93.2333 15.8937V18.0116C93.2333 18.054 93.2192 18.0964 93.191 18.1387C93.1627 18.1952 93.1063 18.2234 93.0216 18.2234C92.1179 18.2093 91.3907 18.0822 90.8401 17.8422C90.3035 17.6022 89.7882 17.1715 89.294 16.5503C88.8986 17.0727 88.3903 17.4822 87.7691 17.7787C87.1619 18.0752 86.4912 18.2234 85.757 18.2234C84.7969 18.2234 84.0274 18.1034 83.4485 17.8634C82.8837 17.6233 82.4036 17.2704 82.0083 16.8044C81.2176 17.7504 80.1868 18.2234 78.9161 18.2234H76.6922V21.9934H70.3596C68.5664 21.9934 67.2533 21.5274 66.4202 20.5955C65.5872 19.6636 65.1707 18.4917 65.1707 17.0797V12.9498H68.1358V16.6138C68.1358 18.5199 69.1736 19.473 71.2491 19.473H73.7271V7.71845H76.6922V15.6819H78.0265C78.5913 15.6819 79.0714 15.463 79.4667 15.0253C79.8762 14.5735 80.0809 13.9805 80.0809 13.2463V7.71845H83.0461V13.7334C83.0461 14.3688 83.279 14.8559 83.745 15.1948C84.225 15.5195 84.7545 15.6819 85.3334 15.6819C85.8982 15.6819 86.3642 15.4842 86.7313 15.0889C87.0984 14.6794 87.2819 14.0652 87.2819 13.2463V6.82892H90.2471V13.7122Z" fill="#003F88"/>
<defs>
<clipPath id="clip0_4809_128504">
<rect width="57.8692" height="42.1725" fill="white"/>
</clipPath>
</defs>
</svg>
