<svg width="512" height="512" viewBox="0 0 512 512" fill="none" xmlns="http://www.w3.org/2000/svg">
<g clip-path="url(#clip0_322_58)">
<path d="M236.2 278.2C187.9 278.2 143.8 253.7 118.2 212.7C104.4 190.7 97.1 165.2 97.1 139.1C97.1 101.8 111.7 66.8 138.1 40.5C164.4 14.4 199.2 0 236.2 0H237C274 0.2 308.8 14.9 335 41.4C361.2 68 375.5 103 375.3 140C375.1 165.8 367.8 190.9 354.2 212.7C328.6 253.7 284.5 278.2 236.2 278.2ZM236.2 28.3C206.7 28.3 179 39.7 158.1 60.5C137 81.4 125.4 109.3 125.4 139C125.4 159.8 131.2 180.1 142.2 197.6C162.6 230.3 197.7 249.8 236.2 249.8C274.7 249.8 309.8 230.3 330.2 197.6C341 180.3 346.8 160.3 347 139.8C347.2 110.3 335.8 82.5 314.9 61.3C294 40.2 266.3 28.5 236.9 28.3C236.6 28.3 236.4 28.3 236.2 28.3Z" fill="#D2D2D2"/>
<path d="M497.8 444.1H362C354.2 444.1 347.8 437.8 347.8 429.9C347.8 422.1 354.1 415.7 362 415.7H497.8C505.6 415.7 512 422 512 429.9C512 437.8 505.6 444.1 497.8 444.1Z" fill="#D2D2D2"/>
<path d="M429.9 512C422.1 512 415.7 505.7 415.7 497.8V362.1C415.7 354.3 422 347.9 429.9 347.9C437.8 347.9 444.1 354.2 444.1 362.1V497.9C444.1 505.7 437.8 512 429.9 512Z" fill="#D2D2D2"/>
<path d="M236.2 486.2C156.9 486.2 81.1 461.8 17 415.7C3.20002 405.8 -2.99998 388.1 1.40002 371.6C7.20002 350 16.1 329.4 27.6 310.2C63.4 250.7 135.6 223.9 203.3 244.9C213.9 248.2 224.9 249.9 236.1 249.9C247.3 249.9 258.3 248.2 268.9 245C326.7 227.1 389.4 244.2 428.6 288.5C432.1 292.5 433.1 298.2 431.1 303.1C429.1 308.1 424.5 311.5 419.2 312C358.7 317.3 311.3 369.2 311.3 430C311.3 441 312.8 451.8 315.7 462.3C316.8 466.1 316.2 470.3 314.1 473.6C312 477 308.6 479.3 304.6 480C282.3 484.1 259.2 486.2 236.2 486.2ZM156.9 266.2C114.4 266.2 74.3 287.6 51.9 324.9C41.7 341.8 33.9 360.1 28.8 379.1C27.4 384.3 29.3 389.8 33.6 392.8C92.9 435.4 163 458 236.3 458C252.7 458 269.1 456.8 285.2 454.6C283.8 446.5 283.2 438.3 283.2 430.1C283.2 393.2 297 357.9 322 330.7C340 311.1 362.8 297 387.8 289.5C356.7 267.2 315.8 260.3 277.5 272.2C264.2 276.3 250.3 278.4 236.3 278.4C222.2 278.4 208.4 276.3 195.1 272.2C182.3 268 169.5 266.2 156.9 266.2Z" fill="#D2D2D2"/>
</g>
<defs>
<clipPath id="clip0_322_58">
<rect width="512" height="512" fill="white"/>
</clipPath>
</defs>
</svg>
