<?xml version="1.0" encoding="UTF-8" standalone="no"?>
<!-- Created with Inkscape (http://www.inkscape.org/) -->

<svg
   version="1.1"
   id="svg1002"
   xml:space="preserve"
   width="682.66669"
   height="682.66669"
   viewBox="0 0 682.66669 682.66669"
   xmlns="http://www.w3.org/2000/svg"
   xmlns:svg="http://www.w3.org/2000/svg"><defs
     id="defs1006"><clipPath
       clipPathUnits="userSpaceOnUse"
       id="clipPath1016"><path
         d="M 0,512 H 512 V 0 H 0 Z"
         id="path1014" /></clipPath></defs><g
     id="g1008"
     transform="matrix(1.3333333,0,0,-1.3333333,0,682.66667)"><g
       id="g1010"><g
         id="g1012"
         clip-path="url(#clipPath1016)"><g
           id="g1018"
           transform="translate(327.5513,119.3809)"><path
             d="m 0,0 95.066,22.954 c 29.465,6.552 37.119,-28.744 13.237,-37.375 -16.417,-5.741 -90.276,-37.281 -141.125,-56.346 -36.575,-13.713 -47.636,-15.547 -86.154,-13.71 l -58.556,2.793 -10.553,-16.772 c -5.785,-9.193 -8.373,-10.925 -21.285,-10.924 -32.067,-0.001 -61.355,-0.001 -93.423,-0.001 -11.804,0 -18.666,13.301 -12.375,24.615 l 26.644,47.055 c 53.206,97.623 145.148,49.769 190.308,53.941 9.663,0.894 68.271,7.567 77.936,8.459 10.085,0.932 19.077,-6.841 19.981,-17.272 0.903,-10.433 -7.356,-16.619 -16.696,-20.663 -24.49,-10.603 -51.13,-19.851 -73.478,-25.098"
             style="fill:none;stroke:#000000;stroke-width:20;stroke-linecap:round;stroke-linejoin:round;stroke-miterlimit:2.613;stroke-dasharray:none;stroke-opacity:1"
             id="path1020" /></g><g
           id="g1022"
           transform="translate(389.999,319.7148)"><path
             d="m 0,0 v -183.156 m -320,-13.895 V 92.287 h 247.001"
             style="fill:none;stroke:#000000;stroke-width:20;stroke-linecap:round;stroke-linejoin:round;stroke-miterlimit:22.926;stroke-dasharray:none;stroke-opacity:1"
             id="path1024" /></g><g
           id="g1026"
           transform="translate(412.001,322.0015)"><path
             d="M 0,0 C 49.57,0 90,40.43 90,90 90,139.57 49.57,180 0,180 -49.571,180 -90,139.57 -90,90 -90,40.43 -49.571,0 0,0 Z"
             style="fill:none;stroke:#000000;stroke-width:20;stroke-linecap:round;stroke-linejoin:round;stroke-miterlimit:22.926;stroke-dasharray:none;stroke-opacity:1"
             id="path1028" /></g><g
           id="g1030"
           transform="translate(279.9995,407.0015)"><path
             d="M 0,0 V -115 L -50,-83.485 -100,-115 V 0"
             style="fill:none;stroke:#000000;stroke-width:20;stroke-linecap:round;stroke-linejoin:round;stroke-miterlimit:22.926;stroke-dasharray:none;stroke-opacity:1"
             id="path1032" /></g><g
           id="g1034"
           transform="translate(109.9995,223.1484)"><path
             d="M 0,0 H 35"
             style="fill:none;stroke:#000000;stroke-width:20;stroke-linecap:round;stroke-linejoin:round;stroke-miterlimit:22.926;stroke-dasharray:none;stroke-opacity:1"
             id="path1036" /></g><g
           id="g1038"
           transform="translate(109.9995,183.1484)"><path
             d="M 0,0 H 70"
             style="fill:none;stroke:#000000;stroke-width:20;stroke-linecap:round;stroke-linejoin:round;stroke-miterlimit:22.926;stroke-dasharray:none;stroke-opacity:1"
             id="path1040" /></g><g
           id="g1042"
           transform="translate(445.7505,434.5015)"><path
             d="m 0,0 -45,-45 -22.5,22.5"
             style="fill:none;stroke:#000000;stroke-width:20;stroke-linecap:round;stroke-linejoin:round;stroke-miterlimit:22.926;stroke-dasharray:none;stroke-opacity:1"
             id="path1044" /></g></g></g></g></svg>
