<svg id="Layer_1" height="512" viewBox="0 0 512 512" width="512" xmlns="http://www.w3.org/2000/svg" data-name="Layer 1"><path d="m344.383 181.793c0-48.734-39.648-88.383-88.383-88.383s-88.383 39.648-88.383 88.383 39.648 88.382 88.383 88.382 88.383-39.648 88.383-88.382zm-153.453 39.949 23.807-23.807c1.506-1.505 2.101-3.695 1.564-5.755-3.661-14.051.434-29.148 10.685-39.4 9.098-9.098 21.799-13.27 34.229-11.688l-24.016 24.017c-1.517 1.516-2.108 3.725-1.554 5.795l5.705 21.293c.555 2.071 2.172 3.688 4.243 4.243l21.294 5.706c2.074.557 4.279-.037 5.796-1.553l24.016-24.017c1.582 12.424-2.589 25.131-11.688 34.229-10.25 10.251-25.349 14.345-39.399 10.686-2.062-.537-4.25.059-5.755 1.563l-23.808 23.808c-10.208-6.29-18.83-14.912-25.121-25.12zm65.07 36.433c-10.142 0-19.82-2.004-28.683-5.609l18.692-18.692c17.151 3.265 35.07-2.165 47.49-14.583 14.803-14.804 19.514-37.001 12-56.551-.729-1.896-2.367-3.295-4.354-3.717-1.986-.421-4.053.19-5.488 1.626l-29.009 29.009-14.601-3.913-3.912-14.601 29.008-29.009c1.436-1.437 2.048-3.502 1.626-5.489s-1.82-3.625-3.717-4.354c-19.546-7.513-41.746-2.803-56.55 12.001-12.421 12.42-17.849 30.34-14.583 47.489l-18.692 18.693c-3.605-8.863-5.609-18.541-5.609-28.683 0-42.118 34.266-76.383 76.383-76.383s76.383 34.265 76.383 76.383-34.266 76.382-76.383 76.382zm20.276 56.745c1.805-.273 3.388-1.352 4.3-2.933l12.646-21.904c4.436-1.526 8.799-3.336 13.021-5.401l24.422 6.545c1.763.472 3.645.118 5.113-.965 10.964-8.079 20.617-17.732 28.691-28.692 1.081-1.469 1.437-3.35.965-5.111l-6.547-24.43c2.067-4.227 3.876-8.586 5.398-13.012l21.908-12.648c1.58-.913 2.66-2.495 2.933-4.3 1.009-6.677 1.521-13.499 1.521-20.276s-.512-13.605-1.521-20.277c-.273-1.805-1.353-3.387-2.933-4.299l-21.903-12.646c-1.525-4.435-3.336-8.797-5.401-13.021l6.544-24.422c.473-1.762.117-3.644-.965-5.112-8.077-10.964-17.73-20.618-28.691-28.692-1.469-1.082-3.351-1.437-5.111-.965l-24.43 6.546c-4.226-2.067-8.585-3.875-13.012-5.398l-12.648-21.908c-.913-1.581-2.495-2.66-4.3-2.933-13.354-2.018-27.211-2.017-40.553 0-1.805.273-3.388 1.352-4.3 2.933l-12.648 21.908c-4.434 1.524-8.795 3.333-13.017 5.397l-24.424-6.545c-1.764-.472-3.644-.117-5.112.965-10.965 8.078-20.618 17.731-28.692 28.692-1.083 1.469-1.438 3.35-.966 5.112l6.546 24.423c-2.064 4.221-3.874 8.584-5.4 13.02l-21.904 12.646c-1.58.913-2.66 2.495-2.933 4.3-1.009 6.678-1.521 13.5-1.521 20.276s.512 13.606 1.521 20.277c.273 1.804 1.353 3.386 2.933 4.299l21.904 12.646c1.525 4.435 3.335 8.798 5.4 13.021l-6.545 24.422c-.473 1.762-.118 3.644.965 5.113 8.078 10.964 17.731 20.617 28.692 28.692 1.469 1.083 3.351 1.437 5.111.965l24.43-6.546c4.226 2.066 8.586 3.875 13.012 5.398l12.648 21.908c.912 1.581 2.495 2.66 4.3 2.933 6.676 1.009 13.497 1.52 20.276 1.52s13.604-.511 20.276-1.52zm-48.248-32.815c-.745-1.291-1.944-2.258-3.363-2.713-5.302-1.701-10.518-3.864-15.504-6.431-1.325-.683-2.86-.846-4.299-.461l-23.806 6.378c-8.296-6.413-15.727-13.844-22.143-22.143l6.378-23.799c.386-1.441.221-2.974-.462-4.3-2.563-4.978-4.729-10.197-6.434-15.511-.455-1.419-1.422-2.618-2.713-3.363l-21.34-12.321c-.658-5.171-.991-10.422-.991-15.649s.333-10.474.991-15.649l21.341-12.322c1.291-.745 2.258-1.944 2.713-3.363 1.706-5.315 3.87-10.534 6.433-15.511.684-1.326.848-2.859.462-4.3l-6.378-23.798c6.413-8.296 13.845-15.727 22.143-22.143l23.801 6.377c1.441.385 2.974.222 4.299-.461 4.978-2.562 10.195-4.726 15.509-6.43 1.419-.456 2.618-1.422 3.363-2.713l12.322-21.344c10.341-1.315 20.948-1.316 31.299 0l12.322 21.344c.745 1.291 1.944 2.258 3.364 2.713 5.301 1.7 10.517 3.864 15.502 6.431 1.327.683 2.861.847 4.3.461l23.806-6.378c8.296 6.413 15.727 13.843 22.142 22.143l-6.377 23.798c-.386 1.441-.221 2.974.462 4.3 2.564 4.979 4.729 10.199 6.434 15.512.455 1.419 1.422 2.618 2.713 3.363l21.34 12.321c.658 5.171.991 10.422.991 15.649s-.333 10.474-.991 15.648l-21.344 12.324c-1.291.745-2.258 1.944-2.713 3.363-1.7 5.299-3.864 10.516-6.433 15.504-.683 1.326-.847 2.859-.461 4.299l6.379 23.805c-6.412 8.296-13.842 15.726-22.143 22.143l-23.798-6.377c-1.441-.386-2.974-.221-4.3.461-4.978 2.563-10.196 4.728-15.513 6.434-1.418.456-2.617 1.422-3.362 2.713l-12.32 21.34c-10.341 1.315-20.948 1.316-31.299 0zm201 159.296h-135.691l109.275-159.026c20.398-29.678 31.18-64.459 31.18-100.583 0-98.035-79.757-177.792-177.792-177.792s-177.792 79.758-177.792 177.793c0 36.124 10.781 70.905 31.179 100.582l109.276 159.027h-135.691c-18.36 0-33.298 14.938-33.298 33.299s14.938 33.299 33.298 33.299h346.056c18.36 0 33.298-14.938 33.298-33.299s-14.938-33.299-33.298-33.299zm-338.82-259.608c0-91.418 74.374-165.792 165.792-165.792s165.792 74.374 165.792 165.792c0 33.686-10.052 66.117-29.069 93.786l-130.428 189.81c-1.51 2.198-3.628 3.312-6.295 3.312s-4.785-1.114-6.295-3.312l-130.429-189.81c-19.017-27.669-29.068-60.1-29.068-93.786zm338.82 314.207h-346.056c-11.744 0-21.298-9.555-21.298-21.299s9.554-21.299 21.298-21.299h143.936l12.906 18.782c3.718 5.413 9.617 8.517 16.186 8.517s12.468-3.104 16.186-8.517l12.906-18.782h143.937c11.744 0 21.298 9.555 21.298 21.299s-9.554 21.299-21.298 21.299z"/></svg>