<svg id="Capa_1" enable-background="new 0 0 512 512" height="512" viewBox="0 0 512 512" width="512" xmlns="http://www.w3.org/2000/svg"><g><path d="m512 349.883-66.096-121.175h-102.344v-47.266h-89.289v-49.384h19.705c3.367 4.915 7.276 9.456 11.686 13.57 14.697 13.71 33.95 21.421 54.214 21.712.398.006.793.009 1.191.009 19.837-.001 38.839-7.136 53.622-20.162 7.714-6.797 13.99-14.859 18.655-23.965l8.613-16.811-57.09-14.273v-11.902l57.09-14.272-8.613-16.811c-4.666-9.106-10.942-17.17-18.655-23.966-15.08-13.288-34.52-20.453-54.813-20.152-20.264.291-39.517 8.002-54.214 21.712-4.409 4.114-8.319 8.656-11.687 13.57h-228.104c-25.292.001-45.869 20.578-45.871 45.871 0 25.293 20.578 45.871 45.871 45.871h7.066v49.384h-52.937v292.531h62.413c6.315 19.141 24.358 33 45.587 33s39.272-13.859 45.587-33h213.607c6.315 19.141 24.358 33 45.587 33s39.272-13.859 45.587-33h53.632zm-41.339-13.138h-65.854v-78.037h23.289zm-246.39-204.686v49.384h-141.333v-49.384zm-194.271-45.87c0-8.751 7.12-15.871 15.871-15.871h245.595l4.22-8.007c2.673-5.073 6.186-9.658 10.44-13.626 18.77-17.511 48.408-18.168 67.938-1.671l-39.197 9.799v58.75l39.196 9.799c-19.529 16.495-49.168 15.841-67.938-1.67-4.254-3.968-7.767-8.553-10.441-13.627l-4.22-8.006h-245.593c-8.751 0-15.871-7.12-15.871-15.87zm78 390.785c-9.925 0-18-8.075-18-18s8.075-18 18-18 18 8.075 18 18-8.075 18-18 18zm205.56-33h-159.973c-6.315-19.141-24.358-33-45.587-33s-39.272 13.859-45.587 33h-32.413v-232.531h283.56zm99.22 33c-9.925 0-18-8.075-18-18s8.075-18 18-18 18 8.075 18 18-8.075 18-18 18zm45.587-33c-6.315-19.141-24.358-33-45.587-33s-39.272 13.859-45.587 33h-23.633v-185.266h31.247v108.037h107.193v77.229z"/></g></svg>