<svg width="50" height="50" viewBox="0 0 50 50" fill="none" xmlns="http://www.w3.org/2000/svg">
<g clip-path="url(#clip0_2919_125321)">
<path d="M36.6318 17.4183L28.5548 12.7797C28.621 12.6693 28.6868 12.5584 28.7515 12.4464C30.0655 10.1704 30.9173 7.79706 31.1501 5.76337C31.4053 3.53349 30.8827 1.92245 29.6784 1.22714C28.474 0.53183 26.8178 0.884662 25.0142 2.22079C23.3693 3.43915 21.7398 5.36357 20.4258 7.63954C18.9855 10.134 18.1067 12.7398 17.9803 14.8633L13.3558 17.6132C13.0743 17.7807 12.9062 18.0762 12.9062 18.4037V48.2015C12.9062 48.448 13.0021 48.6795 13.1764 48.8531C13.3498 49.0261 13.5805 49.1213 13.8259 49.1213H13.8286L36.1761 49.0592C36.6819 49.0579 37.0935 48.6452 37.0935 48.1394V18.2159C37.0936 17.8825 36.921 17.5843 36.6318 17.4183ZM21.6098 8.32304C24.2064 3.82558 27.586 1.59755 28.9948 2.41103C30.4038 3.22451 30.1642 7.26513 27.5675 11.7627C27.5021 11.8758 27.4354 11.9871 27.3685 12.0982L25.4241 10.9816C25.4241 10.9816 25.424 10.9815 25.4239 10.9815C25.1321 10.8142 24.7852 10.8168 24.496 10.9888L19.4573 13.985C19.7427 12.2633 20.5047 10.2371 21.6098 8.32304ZM35.7264 47.6932L14.2735 47.7527V18.658L24.97 12.2976L26.6245 13.2477C26.1916 13.871 25.7375 14.4513 25.2717 14.9755C25.1823 14.9657 25.0918 14.9603 24.9999 14.9603C23.6291 14.9603 22.5139 16.0756 22.5139 17.4464C22.5139 18.8172 23.6291 19.9323 24.9999 19.9323C26.3707 19.9323 27.4858 18.8172 27.4858 17.4464C27.4858 16.6803 27.1373 15.9942 26.5908 15.5379C27.0128 15.0388 27.4229 14.5006 27.8145 13.9311L35.7264 18.4749V47.6932ZM26.1187 17.4464C26.1187 18.0633 25.6169 18.5651 25 18.5651C24.5735 18.5651 24.2022 18.3251 24.0136 17.9732C24.5662 17.5785 25.1216 17.0992 25.6663 16.5497C25.9402 16.7538 26.1187 17.0792 26.1187 17.4464ZM25 22.666C20.0647 22.666 16.0496 26.6811 16.0496 31.6164C16.0496 33.9364 16.9371 36.053 18.3901 37.6449L16.2218 41.4006C16.0874 41.6333 16.1019 41.9231 16.2587 42.1413C16.4155 42.3596 16.6856 42.4657 16.949 42.4124L19.708 41.8555L20.6053 44.5233C20.6909 44.778 20.9179 44.9589 21.1853 44.9856C21.208 44.9879 21.2308 44.9891 21.2534 44.9891C21.4958 44.9891 21.7224 44.8601 21.8452 44.6473L24.2208 40.5326C24.4776 40.5549 24.7374 40.5669 25 40.5669C25.2626 40.5669 25.5224 40.5549 25.7792 40.5326L28.1548 44.6473C28.2776 44.8601 28.5042 44.9891 28.7466 44.9891C28.7691 44.9891 28.7919 44.988 28.8147 44.9856C29.0821 44.959 29.3091 44.778 29.3947 44.5233L30.292 41.8555L33.051 42.4124C33.3146 42.4656 33.5846 42.3595 33.7413 42.1413C33.8981 41.9231 33.9126 41.6332 33.7782 41.4006L31.6099 37.6449C33.0629 36.053 33.9504 33.9365 33.9504 31.6165C33.9504 26.6811 29.9353 22.666 25 22.666ZM21.4184 42.6521L20.8117 40.8482C20.7019 40.5217 20.366 40.328 20.0285 40.3961L18.163 40.7727L19.4146 38.6048C20.3915 39.3871 21.5351 39.9696 22.7829 40.2889L21.4184 42.6521ZM17.4168 31.6164C17.4168 27.435 20.8186 24.0332 25 24.0332C29.1814 24.0332 32.5832 27.435 32.5832 31.6164C32.5832 35.7978 29.1814 39.1997 25 39.1997C20.8186 39.1997 17.4168 35.7978 17.4168 31.6164ZM29.9715 40.3961C29.6334 40.3281 29.298 40.5218 29.1883 40.8482L28.5816 42.6521L27.2171 40.2888C28.465 39.9695 29.6085 39.3871 30.5854 38.6047L31.837 40.7726L29.9715 40.3961ZM25 24.8715C21.2808 24.8715 18.255 27.8973 18.255 31.6165C18.255 35.3357 21.2808 38.3615 25 38.3615C28.7192 38.3615 31.745 35.3357 31.745 31.6165C31.745 27.8973 28.7192 24.8715 25 24.8715ZM25 36.9943C22.0347 36.9943 19.6222 34.5818 19.6222 31.6165C19.6222 28.6512 22.0347 26.2387 25 26.2387C27.9653 26.2387 30.3778 28.6512 30.3778 31.6165C30.3778 34.5818 27.9653 36.9943 25 36.9943ZM29.4988 30.5411C29.412 30.274 29.1707 30.0872 28.8904 30.07L26.51 29.9246L25.6361 27.7056C25.5332 27.4442 25.281 27.2725 25.0001 27.2725C24.7192 27.2725 24.467 27.4442 24.3641 27.7056L23.4902 29.9246L21.1098 30.07C20.8294 30.0871 20.5881 30.2739 20.5014 30.5411C20.4146 30.8082 20.5 31.1013 20.7167 31.2799L22.5571 32.7967L21.9598 35.1056C21.8895 35.3774 21.9925 35.6647 22.2197 35.8299C22.447 35.9949 22.752 36.0043 22.9889 35.8533L25 34.5717L27.0113 35.8533C27.1236 35.9249 27.2513 35.9604 27.3786 35.9604C27.5199 35.9604 27.661 35.9167 27.7805 35.8299C28.0077 35.6648 28.1107 35.3775 28.0404 35.1056L27.4431 32.7967L29.2835 31.2799C29.5003 31.1013 29.5856 30.8083 29.4988 30.5411ZM26.2374 32.0187C26.0323 32.1877 25.9438 32.4602 26.0104 32.7175L26.282 33.7675L25.3674 33.1847C25.2554 33.1133 25.1276 33.0775 25 33.0775C24.8724 33.0775 24.7447 33.1133 24.6326 33.1847L23.718 33.7675L23.9896 32.7175C24.0563 32.4602 23.9677 32.1877 23.7626 32.0187L22.9256 31.3289L24.0082 31.2628C24.2734 31.2466 24.5052 31.0782 24.6025 30.831L25 29.8218L25.3974 30.831C25.4947 31.0782 25.7266 31.2466 25.9917 31.2628L27.0743 31.3289L26.2374 32.0187ZM33.4367 8.74247C33.4367 8.36494 33.7428 8.05888 34.1203 8.05888H36.251C36.6285 8.05888 36.9346 8.36494 36.9346 8.74247C36.9346 9.12001 36.6285 9.42607 36.251 9.42607H34.1203C33.7428 9.42607 33.4367 9.12001 33.4367 8.74247ZM38.8617 10.6697V12.8004C38.8617 13.1779 38.5557 13.484 38.1781 13.484C37.8006 13.484 37.4945 13.1779 37.4945 12.8004V10.6697C37.4945 10.2922 37.8006 9.98613 38.1781 9.98613C38.5557 9.98613 38.8617 10.2922 38.8617 10.6697ZM38.8617 4.68466V6.81542C38.8617 7.19296 38.5557 7.49902 38.1781 7.49902C37.8006 7.49902 37.4945 7.19296 37.4945 6.81542V4.68466C37.4945 4.30712 37.8006 4.00107 38.1781 4.00107C38.5557 4.00107 38.8617 4.30712 38.8617 4.68466ZM49.1211 16.5296C49.1211 16.9071 48.815 17.2132 48.4375 17.2132H46.3067C45.9292 17.2132 45.6231 16.9071 45.6231 16.5296C45.6231 16.152 45.9292 15.846 46.3067 15.846H48.4375C48.815 15.846 49.1211 16.152 49.1211 16.5296ZM45.0633 18.4567V20.5874C45.0633 20.9649 44.7572 21.271 44.3797 21.271C44.0021 21.271 43.6961 20.9649 43.6961 20.5874V18.4567C43.6961 18.0792 44.0021 17.7731 44.3797 17.7731C44.7572 17.7731 45.0633 18.0793 45.0633 18.4567ZM45.0633 12.4718V14.6025C45.0633 14.9801 44.7572 15.2861 44.3797 15.2861C44.0021 15.2861 43.6961 14.9801 43.6961 14.6025V12.4718C43.6961 12.0942 44.0021 11.7882 44.3797 11.7882C44.7572 11.7882 45.0633 12.0942 45.0633 12.4718ZM43.136 16.5296C43.136 16.9071 42.83 17.2132 42.4524 17.2132H40.3218C39.9442 17.2132 39.6382 16.9071 39.6382 16.5296C39.6382 16.152 39.9442 15.846 40.3218 15.846H42.4524C42.83 15.846 43.136 16.152 43.136 16.5296ZM40.1053 9.42607C39.7277 9.42607 39.4217 9.12001 39.4217 8.74247C39.4217 8.36494 39.7277 8.05888 40.1053 8.05888H42.2359C42.6135 8.05888 42.9195 8.36494 42.9195 8.74247C42.9195 9.12001 42.6135 9.42607 42.2359 9.42607H40.1053ZM6.30391 18.2644V20.3951C6.30391 20.7726 5.99785 21.0787 5.62031 21.0787C5.24277 21.0787 4.93672 20.7726 4.93672 20.3951V18.2644C4.93672 17.8869 5.24277 17.5809 5.62031 17.5809C5.99785 17.5809 6.30391 17.887 6.30391 18.2644ZM13.0654 8.55029C13.0654 8.17275 13.3715 7.86669 13.749 7.86669H15.8797C16.2572 7.86669 16.5633 8.17275 16.5633 8.55029C16.5633 8.92783 16.2572 9.23388 15.8797 9.23388H13.749C13.3715 9.23388 13.0654 8.92773 13.0654 8.55029ZM4.37676 16.3373C4.37676 16.7148 4.0707 17.0209 3.69316 17.0209H1.5625C1.18496 17.0209 0.878906 16.7148 0.878906 16.3373C0.878906 15.9598 1.18496 15.6537 1.5625 15.6537H3.69316C4.0707 15.6537 4.37676 15.9599 4.37676 16.3373ZM6.30391 12.2795V14.4102C6.30391 14.7877 5.99785 15.0937 5.62031 15.0937C5.24277 15.0937 4.93672 14.7877 4.93672 14.4102V12.2795C4.93672 11.9019 5.24277 11.5959 5.62031 11.5959C5.99785 11.5959 6.30391 11.9019 6.30391 12.2795ZM12.5055 10.4774V12.6081C12.5055 12.9856 12.1994 13.2917 11.8219 13.2917C11.4443 13.2917 11.1383 12.9856 11.1383 12.6081V10.4774C11.1383 10.0999 11.4443 9.79384 11.8219 9.79384C12.1994 9.79384 12.5055 10.0999 12.5055 10.4774ZM12.5055 4.49238V6.62304C12.5055 7.00058 12.1994 7.30663 11.8219 7.30663C11.4443 7.30663 11.1383 7.00058 11.1383 6.62304V4.49238C11.1383 4.11484 11.4443 3.80878 11.8219 3.80878C12.1994 3.80878 12.5055 4.11494 12.5055 4.49238ZM10.5783 8.55029C10.5783 8.92783 10.2723 9.23388 9.89473 9.23388H7.76406C7.38652 9.23388 7.08047 8.92783 7.08047 8.55029C7.08047 8.17275 7.38652 7.86669 7.76406 7.86669H9.89473C10.2723 7.86669 10.5783 8.17275 10.5783 8.55029ZM10.3617 16.3373C10.3617 16.7148 10.0557 17.0209 9.67812 17.0209H7.54756C7.17002 17.0209 6.86397 16.7148 6.86397 16.3373C6.86397 15.9598 7.17002 15.6537 7.54756 15.6537H9.67822C10.0557 15.6537 10.3617 15.9599 10.3617 16.3373Z" fill="black"/>
</g>
<defs>
<clipPath id="clip0_2919_125321">
<rect width="50" height="50" fill="white"/>
</clipPath>
</defs>
</svg>
