<svg width="50" height="50" viewBox="0 0 50 50" fill="none" xmlns="http://www.w3.org/2000/svg">
<g clip-path="url(#clip0_2919_125291)">
<path d="M25 50H7.35293C6.54072 50 5.88232 49.3416 5.88232 48.5294C5.88232 47.7172 6.54072 47.0588 7.35293 47.0588H13.2248C11.675 46.2298 10.2227 45.2421 8.88965 44.1176H1.47061C0.658398 44.1177 0 43.4593 0 42.6471C0 41.8349 0.658398 41.1765 1.47061 41.1765H5.93838C2.23447 36.8164 0 31.1691 0 25C0 11.1929 11.1929 0 25 0C38.8071 0 50 11.1929 50 25C50 38.8071 38.8071 50 25 50ZM25 47.0588C37.1827 47.0588 47.0588 37.1827 47.0588 25C47.0588 12.8173 37.1827 2.94121 25 2.94121C12.8173 2.94121 2.94121 12.8173 2.94121 25C2.94121 37.1827 12.8173 47.0588 25 47.0588ZM25 42.6471C15.2538 42.6471 7.35293 34.7462 7.35293 25C7.35293 15.2538 15.2538 7.35293 25 7.35293C34.7462 7.35293 42.6471 15.2538 42.6471 25C42.6471 34.7462 34.7462 42.6471 25 42.6471ZM20.8552 39.1137C22.1698 39.4991 23.5607 39.7059 25 39.7059C26.4393 39.7059 27.8303 39.4991 29.1448 39.1137L25 34.7861L20.8552 39.1137ZM12.8593 33.301L15.6929 28.0241L10.3001 25.4212C10.3821 28.3403 11.3148 31.0466 12.8593 33.301ZM13.3544 16.0187L19.2479 17.0828L20.0575 11.1453C17.3796 12.1007 15.06 13.8104 13.3544 16.0187ZM29.9425 11.1453L30.7521 17.0828L36.6456 16.0187C34.94 13.8104 32.6204 12.1007 29.9425 11.1453ZM39.7 25.4212L34.3072 28.0241L37.1408 33.301C38.6852 31.0466 39.6179 28.3403 39.7 25.4212ZM22.162 17.4802C22.153 17.5429 22.153 17.5429 22.1422 17.6054C21.8535 19.2039 20.3237 20.2657 18.7252 19.9771L11.7054 18.7097C11.4398 19.2729 11.2089 19.8555 11.0139 20.4556C10.8188 21.0557 10.6633 21.6628 10.5471 22.2745L16.9713 25.3753C17.0281 25.4032 17.0281 25.4032 17.0842 25.4328C18.5152 26.2013 19.0524 27.9844 18.284 29.4154L14.9093 35.7C15.3628 36.1266 15.8456 36.5263 16.3561 36.8972C16.8665 37.2681 17.3959 37.6036 17.9417 37.9032L22.8759 32.7517C22.92 32.7062 22.92 32.7062 22.9655 32.662C24.1386 31.5385 26.0004 31.5785 27.124 32.7517L32.0582 37.9032C32.604 37.6037 33.1334 37.2681 33.6438 36.8972C34.1543 36.5263 34.6371 36.1266 35.0906 35.7L31.7159 29.4154C31.6863 29.3594 31.6863 29.3594 31.6584 29.3024C30.9523 27.8396 31.5658 26.0813 33.0287 25.3752L39.4529 22.2744C39.3367 21.6627 39.1812 21.0556 38.9861 20.4555C38.7911 19.8554 38.5602 19.2728 38.2946 18.7096L31.2748 19.9771C31.2123 19.9879 31.2123 19.9879 31.1496 19.9969C29.5401 20.2163 28.0575 19.0896 27.838 17.4801L26.8742 10.4121C26.2565 10.3336 25.6311 10.2939 25.0001 10.2939C24.3691 10.2939 23.7436 10.3336 23.126 10.4121L22.162 17.4802ZM25 30.1471C22.1573 30.1471 19.8529 27.8427 19.8529 25C19.8529 22.1573 22.1573 19.8529 25 19.8529C27.8427 19.8529 30.1471 22.1573 30.1471 25C30.1471 27.8427 27.8427 30.1471 25 30.1471ZM25 27.2059C26.2183 27.2059 27.2059 26.2183 27.2059 25C27.2059 23.7817 26.2183 22.7941 25 22.7941C23.7817 22.7941 22.7941 23.7817 22.7941 25C22.7941 26.2183 23.7817 27.2059 25 27.2059Z" fill="black"/>
</g>
<defs>
<clipPath id="clip0_2919_125291">
<rect width="50" height="50" fill="white"/>
</clipPath>
</defs>
</svg>
