<svg width="51" height="22" viewBox="0 0 51 22" fill="none" xmlns="http://www.w3.org/2000/svg">
<path d="M3.83548 3.4408C3.49338 3.48028 3.17759 3.53291 2.91443 3.54607C2.62932 3.53588 2.3592 3.41585 2.16056 3.21108C1.96192 3.00631 1.85016 2.73266 1.84864 2.44738C1.82031 2.19348 1.89155 1.93849 2.04738 1.73604C2.2032 1.53359 2.43147 1.39945 2.68417 1.36186L8.80259 0.230278C8.95702 0.173154 9.12276 0.153295 9.28632 0.172317C9.44988 0.191339 9.60664 0.248705 9.74384 0.339747C9.88105 0.430789 9.99482 0.552935 10.0759 0.696248C10.157 0.839561 10.2031 0.999991 10.2105 1.16449C10.2325 1.31922 10.2231 1.47682 10.1826 1.62779C10.1421 1.77876 10.0715 1.91997 9.97497 2.04292C9.87846 2.16586 9.75805 2.268 9.62101 2.34316C9.48397 2.41833 9.33313 2.46497 9.17759 2.48028L8.69732 2.57238V5.36186C9.06535 5.23553 9.41492 5.06075 9.73679 4.84212C14.2434 0.934224 19.2302 0.177646 24.5855 1.8487C26.9343 2.61475 29.1659 3.70179 31.2171 5.07896C31.7234 5.42211 32.3307 5.58437 32.9407 5.53949C36.1181 5.28397 39.3159 5.50573 42.4276 6.19738C43.5025 6.55672 44.5281 7.04961 45.4802 7.66449C46.3289 8.11186 47.1447 8.63817 47.9934 9.09212C48.7217 9.49411 49.2611 10.1683 49.4934 10.9671C49.9868 12.4934 50.4802 14.0263 50.9144 15.5724C51.3486 17.1184 50.2171 18.7369 48.796 18.8026C47.9013 18.8421 46.9999 18.8026 46.1052 18.8026C45.9473 18.7887 45.789 18.8243 45.6522 18.9045C45.5154 18.9846 45.407 19.1054 45.3421 19.25C43.3684 22.6316 39.0723 22.6382 37.0855 19.25C37.0233 19.1052 36.9178 18.9832 36.7836 18.9007C36.6493 18.8183 36.4927 18.7794 36.3355 18.7895C30.0197 18.7895 23.7039 18.7895 17.3881 18.7895C17.1907 18.7773 16.9942 18.8248 16.8241 18.9257C16.654 19.0266 16.5182 19.1762 16.4342 19.3553C14.4276 22.6447 10.2039 22.5921 8.24995 19.2632C8.18152 19.11 8.06641 18.9823 7.92109 18.8984C7.77576 18.8145 7.60764 18.7787 7.44074 18.7961C6.44732 18.7961 5.46706 18.7961 4.46048 18.7961C2.44732 18.7829 1.07232 17.25 0.999954 14.9474C0.999954 13.7171 0.947323 12.4869 0.999954 11.2632C1.0587 10.7103 1.22403 10.1741 1.4868 9.68422C1.85468 8.77411 2.36794 7.92978 3.00653 7.18422C3.33706 6.89001 3.58676 6.51608 3.73187 6.09805C3.87697 5.68001 3.91264 5.23179 3.83548 4.79607C3.80259 4.3487 3.83548 3.92107 3.83548 3.4408ZM36.0723 16.3619C36.4736 12.4145 38.2434 10.204 41.0131 10.0855C41.643 10.059 42.2717 10.1621 42.8602 10.3884C43.4486 10.6147 43.9844 10.9595 44.4342 11.4013C45.0913 12.0393 45.6031 12.8116 45.9346 13.6654C46.2661 14.5192 46.4096 15.4344 46.3552 16.3487H48.7302C48.2631 14.7632 47.8223 13.2369 47.3618 11.7434C47.2918 11.552 47.1567 11.3913 46.9802 11.2895C45.5065 10.4123 44.0263 9.56142 42.5394 8.73685C42.3376 8.6195 42.1135 8.54556 41.8815 8.51975C39.4342 8.30923 36.9868 8.0987 34.5394 7.90791C32.9086 7.69911 31.2607 8.13587 29.9473 9.12501C29.5765 9.38845 29.1567 9.57484 28.7125 9.67315C28.2684 9.77146 27.8091 9.7797 27.3618 9.69738C24.5131 9.34212 21.6644 8.9737 18.8092 8.7237C17.4645 8.67173 16.1909 8.1067 15.25 7.14475C14.8162 6.73565 14.3616 6.34917 13.8881 5.98685C13.1052 5.32896 13.1052 5.32896 12.3026 5.89475C11.9664 6.12835 11.6456 6.38326 11.3421 6.65791C10.6937 7.26064 9.88073 7.65683 9.00653 7.79606C7.78943 8.00001 6.5789 8.2237 5.36837 8.45396C5.05454 8.52643 4.76632 8.68286 4.53455 8.90652C4.30278 9.13018 4.13618 9.41265 4.05259 9.7237C4.8289 9.64475 5.51969 9.55922 6.21706 9.51317C6.91443 9.46712 7.26969 9.89475 7.28943 10.6711C7.30917 11.4474 7.00653 11.8355 6.32232 11.8947C5.28285 11.9934 4.2368 12.0592 3.15785 12.1447C3.15785 13.2434 3.11837 14.2895 3.15785 15.329C3.14997 15.5876 3.24074 15.8397 3.41177 16.0339C3.58281 16.2281 3.8213 16.3501 4.0789 16.375C5.12495 16.4342 6.17101 16.375 7.21048 16.375C7.65785 12.3684 9.34864 10.1908 12.046 10.0921C12.6759 10.0656 13.3046 10.1687 13.8931 10.395C14.4815 10.6213 15.0173 10.9661 15.4671 11.4079C16.1264 12.0501 16.6398 12.8267 16.9724 13.6849C17.305 14.5431 17.449 15.4628 17.3947 16.3816L36.0723 16.3619ZM9.35522 15.9145C9.35522 17.8026 10.7105 19.4013 12.3486 19.4013C13.9868 19.4013 15.3684 17.8553 15.3947 15.9605C15.421 14.0658 14.0789 12.5132 12.4473 12.4737C10.8157 12.4342 9.37495 13.9869 9.35522 15.9145ZM38.3026 15.9145C38.3026 17.8224 39.6184 19.3882 41.2697 19.4013C42.921 19.4145 44.3092 17.7237 44.3157 15.8553C44.3505 15.0125 44.0563 14.1893 43.4952 13.5595C42.9342 12.9297 42.1503 12.5427 41.3092 12.4803C39.6578 12.4737 38.3289 13.9869 38.3157 15.9145H38.3026ZM19.7697 3.54607V5.89475C19.7697 6.32238 19.921 6.41448 20.2434 6.45396C22.6864 6.73466 25.125 7.02633 27.5592 7.32896C27.9047 7.37641 28.2565 7.34738 28.5895 7.24393C28.9226 7.14048 29.2289 6.96513 29.4868 6.73028C26.4342 4.90133 23.3157 3.59212 19.7697 3.54607ZM15.375 4.11186L17.7302 6.13159V3.50001L15.375 4.11186ZM6.6118 2.79607C6.34206 3.05922 6.05916 3.20396 6.05259 3.37502C5.99995 4.16449 6.05259 4.96054 6.05259 5.81581L6.63811 5.65791L6.6118 2.79607Z" fill="black"/>
<path d="M21.8158 12.4737C21.3882 12.4737 20.954 12.4737 20.5 12.4737C19.4605 12.4211 18.7829 11.9803 18.7434 11.3421C18.704 10.704 19.3421 10.1513 20.4211 10.0987C21.3092 10.0592 22.2171 10.0987 23.1119 10.0987C24.204 10.1382 24.9474 10.6974 24.8947 11.3684C24.8421 12.0395 24.1447 12.4342 22.9868 12.4606C22.6053 12.4803 22.2105 12.4737 21.8158 12.4737Z" fill="black"/>
</svg>
