<svg width="137" height="44" viewBox="0 0 137 44" fill="none" xmlns="http://www.w3.org/2000/svg">
<g clip-path="url(#clip0_3212_12975)">
<path d="M115 0H22C9.84974 0 0 9.84974 0 22C0 34.1503 9.84974 44 22 44H115C127.15 44 137 34.1503 137 22C137 9.84974 127.15 0 115 0Z" fill="#57636C"/>
<mask id="mask0_3212_12975" style="mask-type:luminance" maskUnits="userSpaceOnUse" x="15" y="9" width="24" height="24">
<path d="M39 9H15V33H39V9Z" fill="white"/>
</mask>
<g mask="url(#mask0_3212_12975)">
<path d="M26.6236 16.2216C25.7476 16.2216 24.3916 15.2256 22.9636 15.2616C21.0796 15.2856 19.3516 16.3536 18.3796 18.0456C16.4236 21.4416 17.8756 26.4576 19.7836 29.2176C20.7196 30.5616 21.8236 32.0736 23.2876 32.0256C24.6916 31.9656 25.2196 31.1136 26.9236 31.1136C28.6156 31.1136 29.0956 32.0256 30.5836 31.9896C32.0956 31.9656 33.0556 30.6216 33.9796 29.2656C35.0476 27.7056 35.4916 26.1936 35.5156 26.1096C35.4796 26.0976 32.5756 24.9816 32.5396 21.6216C32.5156 18.8136 34.8316 17.4696 34.9396 17.4096C33.6196 15.4776 31.5916 15.2616 30.8836 15.2136C29.0356 15.0696 27.4876 16.2216 26.6236 16.2216ZM29.7436 13.3896C30.5236 12.4536 31.0396 11.1456 30.8956 9.84961C29.7796 9.89761 28.4356 10.5936 27.6316 11.5296C26.9116 12.3576 26.2876 13.6896 26.4556 14.9616C27.6916 15.0576 28.9636 14.3256 29.7436 13.3896Z" fill="white"/>
</g>
<path d="M45.9784 36.0007L46.9131 33.3061H50.8903L51.82 36.0007H53.4507L49.7866 25.8189H48.0118L44.3477 36.0007H45.9784ZM47.3605 32.0135L48.8619 27.6683H48.9415L50.4429 32.0135H47.3605ZM54.8017 38.8643H56.2882V34.8125H56.3777C56.6462 35.2997 57.1931 36.1498 58.5851 36.1498C60.4345 36.1498 61.7769 34.6683 61.7769 32.1974C61.7769 29.7216 60.4147 28.2649 58.5702 28.2649C57.1533 28.2649 56.6412 29.13 56.3777 29.6023H56.2534V28.3643H54.8017V38.8643ZM56.2584 32.1825C56.2584 30.5866 56.9544 29.5277 58.252 29.5277C59.5993 29.5277 60.2754 30.6662 60.2754 32.1825C60.2754 33.7138 59.5794 34.8821 58.252 34.8821C56.9743 34.8821 56.2584 33.7883 56.2584 32.1825ZM63.4423 38.8643H64.9289V34.8125H65.0183C65.2868 35.2997 65.8337 36.1498 67.2257 36.1498C69.0752 36.1498 70.4175 34.6683 70.4175 32.1974C70.4175 29.7216 69.0553 28.2649 67.2108 28.2649C65.7939 28.2649 65.2818 29.13 65.0183 29.6023H64.8941V28.3643H63.4423V38.8643ZM64.899 32.1825C64.899 30.5866 65.595 29.5277 66.8926 29.5277C68.2399 29.5277 68.9161 30.6662 68.9161 32.1825C68.9161 33.7138 68.22 34.8821 66.8926 34.8821C65.6149 34.8821 64.899 33.7883 64.899 32.1825ZM73.5695 25.8189H72.083V36.0007H73.5695V25.8189ZM78.8605 36.1548C80.526 36.1548 81.7042 35.3345 82.0423 34.0916L80.6354 33.8381C80.3669 34.5589 79.7206 34.9268 78.8754 34.9268C77.6027 34.9268 76.7476 34.1016 76.7078 32.63H82.1368V32.103C82.1368 29.3437 80.4862 28.2649 78.7561 28.2649C76.6283 28.2649 75.2263 29.8856 75.2263 32.2322C75.2263 34.6037 76.6084 36.1548 78.8605 36.1548ZM76.7128 31.5163C76.7724 30.4325 77.5579 29.4929 78.766 29.4929C79.9194 29.4929 80.6751 30.348 80.6801 31.5163H76.7128ZM93.1638 28.4936H94.6453C94.6006 26.8629 93.1588 25.6797 91.0906 25.6797C89.0473 25.6797 87.4812 26.848 87.4812 28.603C87.4812 30.0199 88.4954 30.8501 90.1311 31.2926L91.3342 31.6207C92.423 31.9091 93.2632 32.267 93.2632 33.1719C93.2632 34.1662 92.3136 34.8224 91.0061 34.8224C89.8229 34.8224 88.8385 34.2954 88.749 33.1868H87.2078C87.3072 35.0312 88.7341 36.1697 91.016 36.1697C93.4074 36.1697 94.7845 34.9119 94.7845 33.1868C94.7845 31.3523 93.1488 30.6413 91.8562 30.3231L90.8619 30.0646C90.0665 29.8608 89.0075 29.4879 89.0125 28.5135C89.0125 27.6484 89.803 27.0071 91.0558 27.0071C92.2241 27.0071 93.0544 27.554 93.1638 28.4936ZM100.066 28.3643H98.4995V26.5348H97.013V28.3643H95.8944V29.5575H97.013V34.0668C97.008 35.4538 98.067 36.125 99.2403 36.1001C99.7126 36.0952 100.031 36.0057 100.205 35.941L99.9363 34.7131C99.8369 34.7329 99.6529 34.7777 99.4143 34.7777C98.9321 34.7777 98.4995 34.6186 98.4995 33.7585V29.5575H100.066V28.3643ZM104.845 36.1548C106.998 36.1548 108.404 34.5788 108.404 32.2173C108.404 29.8409 106.998 28.2649 104.845 28.2649C102.692 28.2649 101.285 29.8409 101.285 32.2173C101.285 34.5788 102.692 36.1548 104.845 36.1548ZM104.85 34.9069C103.443 34.9069 102.787 33.679 102.787 32.2123C102.787 30.7507 103.443 29.5078 104.85 29.5078C106.247 29.5078 106.903 30.7507 106.903 32.2123C106.903 33.679 106.247 34.9069 104.85 34.9069ZM110.064 36.0007H111.55V31.3373C111.55 30.3381 112.321 29.6172 113.375 29.6172C113.683 29.6172 114.031 29.6719 114.15 29.7067V28.2848C114.001 28.2649 113.708 28.25 113.519 28.25C112.624 28.25 111.858 28.7571 111.58 29.5774H111.501V28.3643H110.064V36.0007ZM118.455 36.1548C120.12 36.1548 121.298 35.3345 121.636 34.0916L120.229 33.8381C119.961 34.5589 119.315 34.9268 118.469 34.9268C117.197 34.9268 116.342 34.1016 116.302 32.63H121.731V32.103C121.731 29.3437 120.08 28.2649 118.35 28.2649C116.222 28.2649 114.82 29.8856 114.82 32.2322C114.82 34.6037 116.202 36.1548 118.455 36.1548ZM116.307 31.5163C116.366 30.4325 117.152 29.4929 118.36 29.4929C119.513 29.4929 120.269 30.348 120.274 31.5163H116.307Z" fill="white"/>
<path d="M46.8463 17.1534C47.9883 17.1534 48.5849 16.5398 48.7895 16.1136H48.8406V17H49.8463V12.6875C49.8463 10.608 48.2611 10.3693 47.4258 10.3693C46.4372 10.3693 45.3122 10.7102 44.8008 11.9034L45.7554 12.2443C45.977 11.767 46.5011 11.2557 47.4599 11.2557C48.3846 11.2557 48.8406 11.7457 48.8406 12.5852V12.6193C48.8406 13.1051 48.3463 13.0625 47.1531 13.2159C45.9386 13.3736 44.6133 13.642 44.6133 15.142C44.6133 16.4205 45.602 17.1534 46.8463 17.1534ZM46.9997 16.25C46.1986 16.25 45.619 15.892 45.619 15.1932C45.619 14.4261 46.3179 14.1875 47.102 14.0852C47.5281 14.0341 48.6702 13.9148 48.8406 13.7102V14.6307C48.8406 15.4489 48.1929 16.25 46.9997 16.25ZM56.7998 10.4545H55.7089L53.902 15.6705H53.8339L52.027 10.4545H50.9361L53.3566 17H54.3793L56.7998 10.4545ZM59.8541 17.1534C60.9961 17.1534 61.5927 16.5398 61.7973 16.1136H61.8484V17H62.8541V12.6875C62.8541 10.608 61.2689 10.3693 60.4336 10.3693C59.445 10.3693 58.32 10.7102 57.8086 11.9034L58.7632 12.2443C58.9848 11.767 59.5089 11.2557 60.4677 11.2557C61.3925 11.2557 61.8484 11.7457 61.8484 12.5852V12.6193C61.8484 13.1051 61.3541 13.0625 60.1609 13.2159C58.9464 13.3736 57.6211 13.642 57.6211 15.142C57.6211 16.4205 58.6098 17.1534 59.8541 17.1534ZM60.0075 16.25C59.2064 16.25 58.6268 15.892 58.6268 15.1932C58.6268 14.4261 59.3257 14.1875 60.1098 14.0852C60.5359 14.0341 61.678 13.9148 61.8484 13.7102V14.6307C61.8484 15.4489 61.2007 16.25 60.0075 16.25ZM64.6897 17H65.6954V10.4545H64.6897V17ZM65.201 9.36364C65.5931 9.36364 65.917 9.05682 65.917 8.68182C65.917 8.30682 65.5931 8 65.201 8C64.809 8 64.4851 8.30682 64.4851 8.68182C64.4851 9.05682 64.809 9.36364 65.201 9.36364ZM68.543 8.27273H67.5373V17H68.543V8.27273ZM72.3111 17.1534C73.4532 17.1534 74.0498 16.5398 74.2543 16.1136H74.3055V17H75.3111V12.6875C75.3111 10.608 73.7259 10.3693 72.8907 10.3693C71.902 10.3693 70.777 10.7102 70.2657 11.9034L71.2202 12.2443C71.4418 11.767 71.966 11.2557 72.9248 11.2557C73.8495 11.2557 74.3055 11.7457 74.3055 12.5852V12.6193C74.3055 13.1051 73.8111 13.0625 72.618 13.2159C71.4035 13.3736 70.0782 13.642 70.0782 15.142C70.0782 16.4205 71.0668 17.1534 72.3111 17.1534ZM72.4645 16.25C71.6634 16.25 71.0839 15.892 71.0839 15.1932C71.0839 14.4261 71.7827 14.1875 72.5668 14.0852C72.993 14.0341 74.135 13.9148 74.3055 13.7102V14.6307C74.3055 15.4489 73.6577 16.25 72.4645 16.25ZM77.2831 17H78.2547V15.9943H78.374C78.5956 16.3523 79.0217 17.1364 80.2831 17.1364C81.9194 17.1364 83.0615 15.8239 83.0615 13.7443C83.0615 11.6818 81.9194 10.3693 80.266 10.3693C78.9876 10.3693 78.5956 11.1534 78.374 11.4943H78.2888V8.27273H77.2831V17ZM78.2717 13.7273C78.2717 12.2614 78.9194 11.2727 80.1467 11.2727C81.4251 11.2727 82.0558 12.3466 82.0558 13.7273C82.0558 15.125 81.4081 16.233 80.1467 16.233C78.9365 16.233 78.2717 15.2102 78.2717 13.7273ZM85.6055 8.27273H84.5998V17H85.6055V8.27273ZM90.1918 17.1364C91.5214 17.1364 92.493 16.4716 92.7998 15.483L91.8282 15.2102C91.5725 15.892 90.9802 16.233 90.1918 16.233C89.0114 16.233 88.1975 15.4702 88.1506 14.0682H92.902V13.642C92.902 11.2045 91.4532 10.3693 90.0895 10.3693C88.3168 10.3693 87.1407 11.767 87.1407 13.7784C87.1407 15.7898 88.2998 17.1364 90.1918 17.1364ZM88.1506 13.1989C88.2188 12.1804 88.939 11.2727 90.0895 11.2727C91.1805 11.2727 91.8793 12.0909 91.8793 13.1989H88.1506ZM100.466 17.1364C102.239 17.1364 103.432 15.7898 103.432 13.7614C103.432 11.7159 102.239 10.3693 100.466 10.3693C98.6932 10.3693 97.5001 11.7159 97.5001 13.7614C97.5001 15.7898 98.6932 17.1364 100.466 17.1364ZM100.466 16.233C99.1194 16.233 98.5057 15.0739 98.5057 13.7614C98.5057 12.4489 99.1194 11.2727 100.466 11.2727C101.813 11.2727 102.426 12.4489 102.426 13.7614C102.426 15.0739 101.813 16.233 100.466 16.233ZM105.973 13.0625C105.973 11.9205 106.68 11.2727 107.643 11.2727C108.577 11.2727 109.143 11.8821 109.143 12.9091V17H110.149V12.8409C110.149 11.1705 109.259 10.3693 107.933 10.3693C106.945 10.3693 106.331 10.8125 106.024 11.4773H105.939V10.4545H104.967V17H105.973V13.0625Z" fill="white"/>
</g>
<defs>
<clipPath id="clip0_3212_12975">
<rect width="137" height="44" fill="white"/>
</clipPath>
</defs>
</svg>
