<svg width="137" height="44" viewBox="0 0 137 44" fill="none" xmlns="http://www.w3.org/2000/svg">
<g clip-path="url(#clip0_3212_12966)">
<path d="M115 0H22C9.84974 0 0 9.84974 0 22C0 34.1503 9.84974 44 22 44H115C127.15 44 137 34.1503 137 22C137 9.84974 127.15 0 115 0Z" fill="#57636C"/>
<path d="M51.0087 29.0355H52.5847C52.2417 27.0518 50.5464 25.6797 48.3489 25.6797C45.714 25.6797 43.79 27.6633 43.79 30.9148C43.79 34.1364 45.6593 36.1399 48.4185 36.1399C50.8894 36.1399 52.6543 34.5192 52.6543 31.9489V30.7905H48.6522V32.0582H51.1678C51.133 33.6989 50.0492 34.7379 48.4185 34.7379C46.6238 34.7379 45.3163 33.3807 45.3163 30.9048C45.3163 28.4389 46.6337 27.0817 48.3589 27.0817C49.7111 27.0817 50.6259 27.8274 51.0087 29.0355ZM57.7017 36.1548C59.8544 36.1548 61.2614 34.5788 61.2614 32.2173C61.2614 29.8409 59.8544 28.2649 57.7017 28.2649C55.549 28.2649 54.1421 29.8409 54.1421 32.2173C54.1421 34.5788 55.549 36.1548 57.7017 36.1548ZM57.7067 34.9069C56.2997 34.9069 55.6435 33.679 55.6435 32.2123C55.6435 30.7507 56.2997 29.5078 57.7067 29.5078C59.1037 29.5078 59.76 30.7507 59.76 32.2123C59.76 33.679 59.1037 34.9069 57.7067 34.9069ZM66.1373 36.1548C68.29 36.1548 69.6969 34.5788 69.6969 32.2173C69.6969 29.8409 68.29 28.2649 66.1373 28.2649C63.9846 28.2649 62.5776 29.8409 62.5776 32.2173C62.5776 34.5788 63.9846 36.1548 66.1373 36.1548ZM66.1423 34.9069C64.7353 34.9069 64.079 33.679 64.079 32.2123C64.079 30.7507 64.7353 29.5078 66.1423 29.5078C67.5393 29.5078 68.1955 30.7507 68.1955 32.2123C68.1955 33.679 67.5393 34.9069 66.1423 34.9069ZM74.5579 39.0234C76.5018 39.0234 78.0032 38.1335 78.0032 36.1697V28.3643H76.5466V29.6023H76.4372C76.1737 29.13 75.6467 28.2649 74.2248 28.2649C72.3804 28.2649 71.0231 29.7216 71.0231 32.1527C71.0231 34.5888 72.4102 35.8864 74.2149 35.8864C75.6169 35.8864 76.1588 35.0959 76.4272 34.6087H76.5217V36.1101C76.5217 37.3082 75.7014 37.8253 74.5728 37.8253C73.3349 37.8253 72.8527 37.2038 72.5892 36.7663L71.3115 37.2933C71.7142 38.228 72.7333 39.0234 74.5579 39.0234ZM74.543 34.6534C73.2156 34.6534 72.5245 33.6342 72.5245 32.1328C72.5245 30.6662 73.2007 29.5277 74.543 29.5277C75.8406 29.5277 76.5366 30.5866 76.5366 32.1328C76.5366 33.7088 75.8257 34.6534 74.543 34.6534ZM81.4833 25.8189H79.9968V36.0007H81.4833V25.8189ZM86.7744 36.1548C88.4398 36.1548 89.6181 35.3345 89.9562 34.0916L88.5492 33.8381C88.2807 34.5589 87.6344 34.9268 86.7893 34.9268C85.5165 34.9268 84.6614 34.1016 84.6217 32.63H90.0506V32.103C90.0506 29.3437 88.4001 28.2649 86.67 28.2649C84.5421 28.2649 83.1401 29.8856 83.1401 32.2322C83.1401 34.6037 84.5222 36.1548 86.7744 36.1548ZM84.6266 31.5163C84.6863 30.4325 85.4718 29.4929 86.6799 29.4929C87.8333 29.4929 88.589 30.348 88.594 31.5163H84.6266ZM95.5244 36.0007H97.0606V32.4212H99.1486C101.511 32.4212 102.679 30.9943 102.679 29.115C102.679 27.2408 101.521 25.8189 99.1536 25.8189H95.5244V36.0007ZM97.0606 31.1186V27.1364H98.9896C100.511 27.1364 101.133 27.9616 101.133 29.115C101.133 30.2685 100.511 31.1186 99.0094 31.1186H97.0606ZM105.847 25.8189H104.361V36.0007H105.847V25.8189ZM110.069 36.1697C111.332 36.1697 112.043 35.5284 112.326 34.9567H112.386V36.0007H113.838V30.9297C113.838 28.7074 112.088 28.2649 110.875 28.2649C109.493 28.2649 108.22 28.8217 107.723 30.2138L109.12 30.5319C109.338 29.99 109.895 29.468 110.895 29.468C111.854 29.468 112.346 29.9702 112.346 30.8352V30.87C112.346 31.4119 111.789 31.402 110.417 31.5611C108.971 31.7301 107.489 32.1079 107.489 33.843C107.489 35.3445 108.618 36.1697 110.069 36.1697ZM110.392 34.9766C109.552 34.9766 108.946 34.5987 108.946 33.8629C108.946 33.0675 109.652 32.7841 110.512 32.6697C110.994 32.6051 112.137 32.4758 112.351 32.2621V33.2464C112.351 34.1513 111.63 34.9766 110.392 34.9766ZM116.484 38.8643C117.712 38.8643 118.487 38.223 118.93 37.0199L122.077 28.3643H120.481L118.547 34.2905H118.468L116.534 28.3643H114.943L117.737 36.1001L117.553 36.6072C117.175 37.6214 116.643 37.706 115.828 37.4822L115.47 38.7003C115.649 38.7798 116.036 38.8643 116.484 38.8643Z" fill="white"/>
<path d="M45.8463 17.1534C46.9883 17.1534 47.5849 16.5398 47.7895 16.1136H47.8406V17H48.8463V12.6875C48.8463 10.608 47.2611 10.3693 46.4258 10.3693C45.4372 10.3693 44.3122 10.7102 43.8008 11.9034L44.7554 12.2443C44.977 11.767 45.5011 11.2557 46.4599 11.2557C47.3846 11.2557 47.8406 11.7457 47.8406 12.5852V12.6193C47.8406 13.1051 47.3463 13.0625 46.1531 13.2159C44.9386 13.3736 43.6133 13.642 43.6133 15.142C43.6133 16.4205 44.602 17.1534 45.8463 17.1534ZM45.9997 16.25C45.1986 16.25 44.619 15.892 44.619 15.1932C44.619 14.4261 45.3179 14.1875 46.102 14.0852C46.5281 14.0341 47.6702 13.9148 47.8406 13.7102V14.6307C47.8406 15.4489 47.1929 16.25 45.9997 16.25ZM55.7998 10.4545H54.7089L52.902 15.6705H52.8339L51.027 10.4545H49.9361L52.3566 17H53.3793L55.7998 10.4545ZM58.8541 17.1534C59.9961 17.1534 60.5927 16.5398 60.7973 16.1136H60.8484V17H61.8541V12.6875C61.8541 10.608 60.2689 10.3693 59.4336 10.3693C58.445 10.3693 57.32 10.7102 56.8086 11.9034L57.7632 12.2443C57.9848 11.767 58.5089 11.2557 59.4677 11.2557C60.3925 11.2557 60.8484 11.7457 60.8484 12.5852V12.6193C60.8484 13.1051 60.3541 13.0625 59.1609 13.2159C57.9464 13.3736 56.6211 13.642 56.6211 15.142C56.6211 16.4205 57.6098 17.1534 58.8541 17.1534ZM59.0075 16.25C58.2064 16.25 57.6268 15.892 57.6268 15.1932C57.6268 14.4261 58.3257 14.1875 59.1098 14.0852C59.5359 14.0341 60.678 13.9148 60.8484 13.7102V14.6307C60.8484 15.4489 60.2007 16.25 59.0075 16.25ZM63.6897 17H64.6954V10.4545H63.6897V17ZM64.201 9.36364C64.5931 9.36364 64.917 9.05682 64.917 8.68182C64.917 8.30682 64.5931 8 64.201 8C63.809 8 63.4851 8.30682 63.4851 8.68182C63.4851 9.05682 63.809 9.36364 64.201 9.36364ZM67.543 8.27273H66.5373V17H67.543V8.27273ZM71.3111 17.1534C72.4532 17.1534 73.0498 16.5398 73.2543 16.1136H73.3055V17H74.3111V12.6875C74.3111 10.608 72.7259 10.3693 71.8907 10.3693C70.902 10.3693 69.777 10.7102 69.2657 11.9034L70.2202 12.2443C70.4418 11.767 70.966 11.2557 71.9248 11.2557C72.8495 11.2557 73.3055 11.7457 73.3055 12.5852V12.6193C73.3055 13.1051 72.8111 13.0625 71.618 13.2159C70.4035 13.3736 69.0782 13.642 69.0782 15.142C69.0782 16.4205 70.0668 17.1534 71.3111 17.1534ZM71.4645 16.25C70.6634 16.25 70.0839 15.892 70.0839 15.1932C70.0839 14.4261 70.7827 14.1875 71.5668 14.0852C71.993 14.0341 73.135 13.9148 73.3055 13.7102V14.6307C73.3055 15.4489 72.6577 16.25 71.4645 16.25ZM76.2831 17H77.2547V15.9943H77.374C77.5956 16.3523 78.0217 17.1364 79.2831 17.1364C80.9194 17.1364 82.0615 15.8239 82.0615 13.7443C82.0615 11.6818 80.9194 10.3693 79.266 10.3693C77.9876 10.3693 77.5956 11.1534 77.374 11.4943H77.2888V8.27273H76.2831V17ZM77.2717 13.7273C77.2717 12.2614 77.9194 11.2727 79.1467 11.2727C80.4251 11.2727 81.0558 12.3466 81.0558 13.7273C81.0558 15.125 80.4081 16.233 79.1467 16.233C77.9365 16.233 77.2717 15.2102 77.2717 13.7273ZM84.6055 8.27273H83.5998V17H84.6055V8.27273ZM89.1918 17.1364C90.5214 17.1364 91.493 16.4716 91.7998 15.483L90.8282 15.2102C90.5725 15.892 89.9802 16.233 89.1918 16.233C88.0114 16.233 87.1975 15.4702 87.1506 14.0682H91.902V13.642C91.902 11.2045 90.4532 10.3693 89.0895 10.3693C87.3168 10.3693 86.1407 11.767 86.1407 13.7784C86.1407 15.7898 87.2998 17.1364 89.1918 17.1364ZM87.1506 13.1989C87.2188 12.1804 87.939 11.2727 89.0895 11.2727C90.1805 11.2727 90.8793 12.0909 90.8793 13.1989H87.1506ZM99.466 17.1364C101.239 17.1364 102.432 15.7898 102.432 13.7614C102.432 11.7159 101.239 10.3693 99.466 10.3693C97.6932 10.3693 96.5001 11.7159 96.5001 13.7614C96.5001 15.7898 97.6932 17.1364 99.466 17.1364ZM99.466 16.233C98.1194 16.233 97.5057 15.0739 97.5057 13.7614C97.5057 12.4489 98.1194 11.2727 99.466 11.2727C100.813 11.2727 101.426 12.4489 101.426 13.7614C101.426 15.0739 100.813 16.233 99.466 16.233ZM104.973 13.0625C104.973 11.9205 105.68 11.2727 106.643 11.2727C107.577 11.2727 108.143 11.8821 108.143 12.9091V17H109.149V12.8409C109.149 11.1705 108.259 10.3693 106.933 10.3693C105.945 10.3693 105.331 10.8125 105.024 11.4773H104.939V10.4545H103.967V17H104.973V13.0625Z" fill="white"/>
<mask id="mask0_3212_12966" style="mask-type:luminance" maskUnits="userSpaceOnUse" x="11" y="9" width="24" height="24">
<path d="M35 9H11V33H35V9Z" fill="white"/>
</mask>
<g mask="url(#mask0_3212_12966)">
<path d="M14.609 10.8145L24.792 21.0005L14.61 31.1865C14.4289 31.1103 14.2744 30.9824 14.1659 30.8187C14.0574 30.655 13.9996 30.4629 14 30.2665V11.7345C14.0001 11.5383 14.0579 11.3465 14.1661 11.1829C14.2744 11.0193 14.4284 10.8912 14.609 10.8145ZM25.499 21.7075L27.801 24.0095L16.864 30.3425L25.499 21.7075ZM28.698 18.5095L31.505 20.1355C31.6565 20.2234 31.7823 20.3495 31.8698 20.5014C31.9572 20.6532 32.0032 20.8253 32.0032 21.0005C32.0032 21.1757 31.9572 21.3478 31.8698 21.4996C31.7823 21.6514 31.6565 21.7776 31.505 21.8655L28.697 23.4915L26.206 21.0005L28.698 18.5095ZM16.864 11.6585L27.802 17.9905L25.499 20.2935L16.864 11.6585Z" fill="white"/>
</g>
</g>
<defs>
<clipPath id="clip0_3212_12966">
<rect width="137" height="44" fill="white"/>
</clipPath>
</defs>
</svg>
