<svg width="105" height="115" viewBox="0 0 105 115" fill="none" xmlns="http://www.w3.org/2000/svg">
<rect width="105" height="115" rx="8" fill="#EFFFF5"/>
<path d="M67.2883 17L69.8549 18.4831L65.9051 42.4431L63.3385 40.96L67.2883 17Z" fill="#ED7C00"/>
<path d="M78.6766 35.0738L76.11 33.583L68.2104 38.1476L70.7847 39.6307L78.6766 35.0738Z" fill="#ED7C00"/>
<path d="M74.7268 59.0337L72.1602 57.5506L68.2104 38.1475L70.7847 39.6306L74.7268 59.0337Z" fill="#ED7C00"/>
<path d="M69.8548 18.4832L65.905 42.4432L73.8046 37.8863L69.8548 18.4832Z" fill="#FFB702"/>
<path d="M74.727 59.0338L78.6768 35.0737L70.7849 39.6306L74.727 59.0338Z" fill="#FFB702"/>
<g style="mix-blend-mode:multiply">
<path d="M48.6844 77.0001L26 63.8982L43.605 53.7317L66.2971 66.8336L48.6844 77.0001Z" fill="#CDD2D6"/>
</g>
<path d="M49.983 69.9766L27.9749 57.2666V62.6764L49.983 75.3788V69.9766Z" fill="#B0B0B0"/>
<path d="M48.7305 62.5842L26.7223 49.8818V55.2917L48.7305 67.994V62.5842Z" fill="#B0B0B0"/>
<path d="M49.9831 70.4378L27.9749 57.7354L26.7223 55.2917L48.7305 67.9941L49.9831 70.4378Z" fill="#A4A4A4"/>
<path d="M65.5672 58.2731V52.8633L48.7306 62.5841V67.9939L49.9832 70.4376V75.3786L64.3146 67.1025V62.1614L65.5672 58.2731Z" fill="#C7C7C7"/>
<path d="M57.8442 60.7014L54.9471 69.1466L60.7335 65.8039L57.8442 60.7014Z" fill="#FFB702"/>
<path d="M57.9363 62.7302L57.0757 65.2353L58.0362 64.6821L57.9363 62.7302Z" fill="#5E3B00"/>
<path d="M57.752 66.8489L58.6127 64.3438L57.6521 64.897L57.752 66.8489Z" fill="#5E3B00"/>
<path d="M48.7228 60.2326L26.7223 47.5303V49.8817L48.7305 62.5841L48.7228 60.2326Z" fill="#B0B0B0"/>
<path d="M65.5669 52.8632L65.5592 50.5117L48.7227 60.2325L48.7303 62.5839L65.5669 52.8632Z" fill="#C7C7C7"/>
<path d="M48.6844 60.5939V58.4961L66.2972 48.3296V50.4274L48.6844 60.5939Z" fill="#2A2F35"/>
<path d="M48.6844 60.594V58.4961L26 45.4019V47.4997L48.6844 60.594Z" fill="#20252B"/>
<path d="M48.6844 58.496L26 45.4017L43.605 35.2275L66.2971 48.3295L48.6844 58.496Z" fill="#363B41"/>
<path d="M41.292 37.2563V38.5243C41.292 39.0852 42.0835 39.5463 43.0594 39.5463C44.0353 39.5463 44.8191 39.0929 44.8191 38.532V37.264H41.292V37.2563Z" fill="url(#paint0_linear_4701_123966)"/>
<path d="M47.1322 40.6299V41.8978C47.1322 42.4588 47.9237 42.9198 48.8996 42.9198C49.8755 42.9198 50.6594 42.4665 50.6594 41.9055V40.6376H47.1322V40.6299Z" fill="url(#paint1_linear_4701_123966)"/>
<path d="M52.98 44.0032V45.2711C52.98 45.8321 53.7715 46.2931 54.7474 46.2931C55.7233 46.2931 56.5071 45.8398 56.5071 45.2788V44.0109H52.98V44.0032Z" fill="url(#paint2_linear_4701_123966)"/>
<path d="M44.8191 37.2637C44.8191 37.8247 44.0353 38.2781 43.0594 38.2781C42.0835 38.2781 41.292 37.817 41.292 37.256C41.292 36.6951 42.0758 36.2417 43.0517 36.2417C44.0276 36.2417 44.8191 36.7028 44.8191 37.2637Z" fill="#3E4349"/>
<path d="M50.6594 40.6373C50.6594 41.1982 49.8755 41.6516 48.8996 41.6516C47.9237 41.6516 47.1322 41.1905 47.1322 40.6296C47.1322 40.0686 47.916 39.6152 48.8919 39.6152C49.8679 39.6152 50.6594 40.0763 50.6594 40.6373Z" fill="#3E4349"/>
<path d="M55.9924 44.7255C55.3085 45.1251 54.1866 45.1174 53.5026 44.7255C52.8187 44.3336 52.811 43.6804 53.4949 43.2885C54.1789 42.8889 55.3008 42.8966 55.9847 43.2885C56.6686 43.6804 56.6763 44.3336 55.9924 44.7255Z" fill="#3E4349"/>
<path d="M58.8201 47.3767V48.6446C58.8201 49.2056 59.6116 49.6667 60.5875 49.6667C61.5634 49.6667 62.3472 49.2133 62.3472 48.6523V47.3844H58.8201V47.3767Z" fill="url(#paint3_linear_4701_123966)"/>
<path d="M62.3472 47.3843C62.3472 47.9453 61.5634 48.3987 60.5875 48.3987C59.6116 48.3987 58.8201 47.9376 58.8201 47.3766C58.8201 46.8157 59.6039 46.3623 60.5798 46.3623C61.5557 46.3623 62.3472 46.8234 62.3472 47.3843Z" fill="#C7C7C7"/>
<path d="M61.6557 47.1922C61.6557 47.538 61.1792 47.8146 60.5875 47.8069C59.9958 47.8069 59.5117 47.5303 59.5117 47.1845C59.5117 46.8387 59.9882 46.5621 60.5799 46.5697C61.1716 46.5697 61.6557 46.8464 61.6557 47.1922Z" fill="#E4E1E0"/>
<path d="M53.9945 55.43L31.3101 42.3281V39.9536L60.9796 49.0212V51.3957L53.9945 55.43Z" fill="#2A2F35"/>
<path d="M53.9945 53.0553L31.3101 39.9534L38.2952 35.9268L60.9796 49.021L53.9945 53.0553Z" fill="#3E4349"/>
<path d="M53.9945 53.0556L31.3101 39.9536V42.3281L53.9945 55.43V53.0556Z" fill="#282D33"/>
<path d="M29.2888 44.1875V45.4554C29.2888 46.0164 30.0803 46.4775 31.0562 46.4775C32.0322 46.4775 32.816 46.0241 32.816 45.4631V44.1952H29.2888V44.1875Z" fill="url(#paint4_linear_4701_123966)"/>
<path d="M35.129 47.561V48.829C35.129 49.3899 35.9205 49.851 36.8964 49.851C37.8724 49.851 38.6562 49.3976 38.6562 48.8366V47.5687H35.129V47.561Z" fill="url(#paint5_linear_4701_123966)"/>
<path d="M40.9692 50.9346V52.2025C40.9692 52.7635 41.7607 53.2245 42.7367 53.2245C43.7126 53.2245 44.4964 52.7711 44.4964 52.2102V50.9423H40.9692V50.9346Z" fill="url(#paint6_linear_4701_123966)"/>
<path d="M46.8096 54.3081V55.576C46.8096 56.137 47.6011 56.5981 48.577 56.5981C49.5529 56.5981 50.3367 56.1447 50.3367 55.5837V54.3158H46.8096V54.3081Z" fill="url(#paint7_linear_4701_123966)"/>
<path d="M32.8084 44.1954C32.8084 44.7563 32.0246 45.2097 31.0487 45.2097C30.0727 45.2097 29.2812 44.7486 29.2812 44.1877C29.2812 43.6267 30.0651 43.1733 31.041 43.1733C32.0169 43.1733 32.8084 43.6344 32.8084 44.1954Z" fill="#3E4349"/>
<path d="M38.6487 47.5689C38.6487 48.1299 37.8649 48.5832 36.889 48.5832C35.9131 48.5832 35.1216 48.1222 35.1216 47.5612C35.1216 47.0003 35.9054 46.5469 36.8813 46.5469C37.8572 46.5469 38.6487 47.0079 38.6487 47.5689Z" fill="#3E4349"/>
<path d="M44.4964 50.9422C44.4964 51.5032 43.7126 51.9565 42.7367 51.9565C41.7607 51.9565 40.9692 51.4955 40.9692 50.9345C40.9692 50.3735 41.7531 49.9202 42.729 49.9202C43.7049 49.9202 44.4964 50.3812 44.4964 50.9422Z" fill="#3E4349"/>
<path d="M50.3367 54.3157C50.3367 54.8767 49.5529 55.3301 48.577 55.3301C47.6011 55.3301 46.8096 54.869 46.8096 54.308C46.8096 53.7471 47.5934 53.2937 48.5693 53.2937C49.5452 53.2937 50.3367 53.7548 50.3367 54.3157Z" fill="#C7C7C7"/>
<path d="M49.6449 54.1236C49.6449 54.4694 49.1685 54.746 48.5768 54.7383C47.9851 54.7383 47.501 54.4617 47.501 54.1159C47.501 53.7701 47.9774 53.4934 48.5691 53.5011C49.1608 53.5011 49.6449 53.7778 49.6449 54.1236Z" fill="#E4E1E0"/>
<defs>
<linearGradient id="paint0_linear_4701_123966" x1="41.292" y1="38.4013" x2="44.8191" y2="38.4013" gradientUnits="userSpaceOnUse">
<stop offset="0.29" stop-color="#20262C"/>
<stop offset="0.71" stop-color="#2A2F35"/>
</linearGradient>
<linearGradient id="paint1_linear_4701_123966" x1="47.1322" y1="41.7749" x2="50.6594" y2="41.7749" gradientUnits="userSpaceOnUse">
<stop offset="0.29" stop-color="#20262C"/>
<stop offset="0.71" stop-color="#2A2F35"/>
</linearGradient>
<linearGradient id="paint2_linear_4701_123966" x1="52.98" y1="45.1482" x2="56.4994" y2="45.1482" gradientUnits="userSpaceOnUse">
<stop offset="0.29" stop-color="#20262C"/>
<stop offset="0.71" stop-color="#2A2F35"/>
</linearGradient>
<linearGradient id="paint3_linear_4701_123966" x1="58.8201" y1="48.5217" x2="62.3472" y2="48.5217" gradientUnits="userSpaceOnUse">
<stop offset="0.29" stop-color="#878787"/>
<stop offset="0.71" stop-color="#C7C7C7"/>
</linearGradient>
<linearGradient id="paint4_linear_4701_123966" x1="29.2888" y1="45.3325" x2="32.8083" y2="45.3325" gradientUnits="userSpaceOnUse">
<stop offset="0.29" stop-color="#20262C"/>
<stop offset="0.71" stop-color="#2A2F35"/>
</linearGradient>
<linearGradient id="paint5_linear_4701_123966" x1="35.129" y1="48.706" x2="38.6485" y2="48.706" gradientUnits="userSpaceOnUse">
<stop offset="0.29" stop-color="#20262C"/>
<stop offset="0.71" stop-color="#2A2F35"/>
</linearGradient>
<linearGradient id="paint6_linear_4701_123966" x1="40.9692" y1="52.0795" x2="44.4964" y2="52.0795" gradientUnits="userSpaceOnUse">
<stop offset="0.29" stop-color="#20262C"/>
<stop offset="0.71" stop-color="#2A2F35"/>
</linearGradient>
<linearGradient id="paint7_linear_4701_123966" x1="46.8096" y1="55.4531" x2="50.3367" y2="55.4531" gradientUnits="userSpaceOnUse">
<stop offset="0.29" stop-color="#878787"/>
<stop offset="0.71" stop-color="#C7C7C7"/>
</linearGradient>
</defs>
</svg>
