<svg width="105" height="115" viewBox="0 0 105 115" fill="none" xmlns="http://www.w3.org/2000/svg">
<rect width="105" height="115" rx="8" fill="#FFFBEE"/>
<g style="mix-blend-mode:multiply">
<path d="M44.8758 77L35 71.2557L60.1847 56.7202L70.0605 62.4552L44.8758 77Z" fill="#CDD2D6"/>
</g>
<path d="M43.6961 74.5946L36.0181 70.1331C35.4333 69.7935 35.0654 69.0672 35.0654 68.0391L42.7435 72.5006C42.7435 73.5288 43.1113 74.2551 43.6961 74.5946Z" fill="#343249"/>
<mask id="mask0_4701_127874" style="mask-type:luminance" maskUnits="userSpaceOnUse" x="35" y="68" width="9" height="7">
<path d="M43.6961 74.5946L36.0181 70.1331C35.4333 69.7935 35.0654 69.0672 35.0654 68.0391L42.7435 72.5006C42.7435 73.5288 43.1113 74.2551 43.6961 74.5946Z" fill="white"/>
</mask>
<g mask="url(#mask0_4701_127874)">
<path d="M43.6961 74.5946L36.0181 70.1331C35.4333 69.7935 35.0654 69.0672 35.0654 68.0391L42.7435 72.5006C42.7435 73.5288 43.1113 74.2551 43.6961 74.5946Z" fill="#232C33"/>
</g>
<path d="M42.7346 72.5006L35.0566 68.039L35 46.6367L42.678 51.1077L42.7346 72.5006Z" fill="#232C33"/>
<path d="M51.0915 30.9034L44.2812 26.9512L61.156 29.1018L67.9568 33.0634L51.0915 30.9034Z" fill="#323A49"/>
<path d="M42.678 51.1078L35 46.6368L36.2828 31.5637L43.0931 35.5159L42.678 51.1078Z" fill="#28323D"/>
<path d="M43.093 35.5159L36.2827 31.5637L44.2815 26.9512L51.0917 30.9034L43.093 35.5159Z" fill="#323A49"/>
<path d="M51.0914 30.9033L67.9661 33.0634L70.0129 37.3269L70.0695 56.72C70.0695 58.7952 68.6169 61.3231 66.8153 62.3606L46.0261 74.3588C44.2245 75.4058 42.753 74.5663 42.7436 72.4911L42.687 51.0983L43.102 35.5158L51.0914 30.9033Z" fill="#28323D"/>
<path d="M42.6777 51.1075L46.6865 51.6263L47.0355 38.185L43.0928 35.5156L42.6777 51.1075Z" fill="#2F3842"/>
<path d="M46.687 52.3997L47.0266 38.1849L53.186 34.6289L67.8535 36.506L69.2023 39.0339L69.2589 57.9649C69.2589 59.1816 68.2591 60.9078 67.2027 61.5209L48.2056 72.4909C47.5548 72.8682 46.7436 72.3966 46.7436 71.6514L46.687 52.4091V52.3997Z" fill="#232C33"/>
<path d="M49.026 52.4284L49.3184 40.4208C49.3279 39.8832 49.6203 39.3927 50.0919 39.1191L53.1103 37.3741C53.4782 37.1572 53.9121 37.0723 54.3271 37.1289L65.8819 38.6098C66.1837 38.6475 66.4384 38.8267 66.5799 39.0908L66.8629 39.619L66.91 56.5503C66.91 58.0501 66.1177 59.4367 64.816 60.1913L50.1674 68.6522C49.6769 68.9352 49.0732 68.5862 49.0638 68.0202L49.0166 52.4284H49.026Z" fill="url(#paint0_linear_4701_127874)"/>
<path d="M63.2882 31.5353L59.751 29.4791L59.3643 22.7065L62.9014 24.7628L63.2882 31.5353Z" fill="#1A2326"/>
<path d="M55.0346 19.0563L51.5068 17L62.6183 18.6129L66.146 20.6692L55.0346 19.0563Z" fill="#28323D"/>
<path d="M48.1298 30.2337L44.6021 28.1868L47.9034 19.0845L51.4312 21.1408L48.1298 30.2337Z" fill="#2D3640"/>
<path d="M51.4316 21.1409L47.9038 19.0846L51.507 17L55.0348 19.0563L51.4316 21.1409Z" fill="#38404A"/>
<path d="M55.0349 19.0562L66.1464 20.6691L66.7689 32.3654L65.9106 31.8749L63.2884 31.5353L62.9016 24.7628L55.3179 23.6686L53.0447 24.9703L51.2337 29.9978L49.0359 29.7149L48.1304 30.2336L51.4317 21.1407L55.0349 19.0562Z" fill="#28323D"/>
<path d="M52.9504 22.1971L50.347 29.3657L50.1678 29.8562L49.0359 29.7147L48.1304 30.2335L51.4317 21.1406L52.9504 22.1971Z" fill="#2F3842"/>
<path d="M64.9202 31.224L64.524 24.4704L55.9404 23.2253L53.139 24.8477L51.2336 29.9978L50.1206 29.8563L52.9503 22.1971L56.0159 20.4238L66.1181 21.8859L66.6274 31.4504L64.9202 31.224Z" fill="#232C33"/>
<path d="M51.4321 21.1407L52.9508 22.1972L56.0163 20.4239L55.0353 19.0562L51.4321 21.1407Z" fill="#38404A"/>
<path d="M66.1178 21.8859L66.1461 20.6691L55.0347 19.0562L56.0156 20.4239L66.1178 21.8859Z" fill="#2F3842"/>
<path d="M48.1679 31.5923C48.1679 30.8283 47.6774 30.0642 46.687 29.47V27.376C47.668 27.9702 48.1585 28.7343 48.1585 29.4983C48.1585 30.1303 48.1585 30.9698 48.1585 31.5923H48.1679Z" fill="#343249"/>
<path d="M46.6865 29.4699C48.7239 30.6961 48.6485 32.6487 46.5262 33.8277C44.4039 35.0068 41.0365 34.9785 38.999 33.7523C36.9616 32.526 37.0371 30.5735 39.1594 29.3945C41.2817 28.2154 44.6491 28.2437 46.6865 29.4699Z" fill="#343249"/>
<path d="M37.5088 29.5264C37.5088 28.7152 38.0559 27.9041 39.15 27.2909C41.2723 26.1119 44.6397 26.1402 46.6772 27.3664V29.4604C44.6492 28.2342 41.2818 28.2059 39.1595 29.3849C38.0653 29.9981 37.5182 30.8093 37.5182 31.6205C37.5182 30.9885 37.5182 30.149 37.5182 29.5264H37.5088Z" fill="#343249"/>
<path d="M46.6772 27.3759L45.5076 27.3099C44.0927 26.461 41.744 26.4327 40.2726 27.2533C38.8011 28.0739 38.7445 29.4322 40.1688 30.2811C41.5837 31.1301 43.9324 31.1583 45.4039 30.3377C46.8753 29.5171 46.9319 28.1588 45.5076 27.3099L46.6772 27.3759C48.7146 28.6021 48.6392 30.5547 46.5169 31.7337C44.3946 32.9128 41.0272 32.8845 38.9898 31.6583C36.9523 30.432 37.0278 28.4795 39.1501 27.3005C41.2724 26.1214 44.6398 26.1497 46.6772 27.3759Z" fill="#38404A"/>
<path d="M46.536 28.7812C46.536 28.253 46.1964 27.7154 45.5078 27.3003V26.9419C46.1964 27.3569 46.536 27.8851 46.536 28.4228C46.536 28.5266 46.536 28.668 46.536 28.7812Z" fill="#343249"/>
<path d="M39.1313 28.4512C39.1313 27.8853 39.5086 27.3193 40.2727 26.8948C41.7441 26.0742 44.0928 26.0931 45.5077 26.9515V27.3099C44.0928 26.461 41.7536 26.4327 40.2727 27.2533C39.5181 27.6777 39.1313 28.2437 39.1313 28.8097C39.1313 28.7059 39.1313 28.5644 39.1313 28.4512Z" fill="#343249"/>
<path d="M39.1313 28.8094V28.451C39.1313 28.9792 39.4709 29.5169 40.1595 29.9319C41.5744 30.7808 43.923 30.8091 45.3945 29.9885C46.1585 29.564 46.5358 28.9981 46.5358 28.4321V28.7906C46.5358 29.3565 46.1585 29.9225 45.3945 30.3469C43.923 31.1675 41.5744 31.1487 40.1595 30.2903C39.4709 29.8753 39.1313 29.3471 39.1313 28.8094Z" fill="#343249"/>
<path d="M46.2437 26.5364C48.0547 27.6212 47.9887 29.3567 46.1022 30.4132C44.2157 31.4602 41.2256 31.4319 39.4146 30.3471C37.6035 29.2624 37.6696 27.5268 39.5561 26.4704C41.4426 25.4234 44.4327 25.4517 46.2437 26.5364ZM45.508 26.9515C44.0931 26.1025 41.7444 26.0742 40.2729 26.8948C38.8015 27.7155 38.7449 29.0738 40.1692 29.9227C41.584 30.7716 43.9327 30.7999 45.4042 29.9793C46.8757 29.1586 46.9323 27.8004 45.508 26.9515Z" fill="#343249"/>
<path d="M47.5642 28.4229C47.5642 27.7438 47.1209 27.0646 46.2437 26.5364V23.0747C47.1114 23.6029 47.5453 24.2821 47.5548 24.9612C47.5548 25.9988 47.5548 27.3853 47.5642 28.4229Z" fill="#343249"/>
<path d="M38.0942 24.9893C38.0942 24.263 38.5753 23.5461 39.5468 23.0085C41.4333 21.9615 44.4234 21.9898 46.2345 23.0745V26.5362C44.4329 25.4515 41.4428 25.4138 39.5563 26.4702C38.5847 27.0078 38.1037 27.7342 38.1037 28.451C38.1037 27.4134 38.1037 26.0269 38.0942 24.9893Z" fill="#343249"/>
<path d="M37.5186 31.6298V29.5358C37.5186 30.2998 38.009 31.0638 38.99 31.6581C41.0274 32.8843 44.3948 32.9126 46.5171 31.7335C47.6113 31.1204 48.1584 30.3092 48.1584 29.498V31.5921C48.1584 32.4033 47.6207 33.2144 46.5266 33.8276C44.4043 35.0066 41.0369 34.9783 38.9995 33.7521C38.009 33.1578 37.5186 32.3938 37.5186 31.6298Z" fill="url(#paint1_linear_4701_127874)"/>
<path d="M44.6871 22.886C45.6775 23.4802 45.6398 24.4329 44.6117 24.9988C43.5835 25.5648 41.9423 25.5554 40.9613 24.9611C39.9803 24.3669 40.0086 23.4142 41.0368 22.8482C42.0649 22.2728 43.7062 22.2917 44.6871 22.886Z" fill="#003F88"/>
<path d="M46.2342 23.0747C44.4232 21.99 41.4331 21.9522 39.5466 23.0087C37.6601 24.0651 37.6035 25.7913 39.4051 26.8854C41.2161 27.9702 44.2062 28.0079 46.0927 26.9515C47.9792 25.9045 48.0358 24.1689 46.2342 23.0747ZM44.6118 25.0084C43.5837 25.5837 41.9424 25.5649 40.9614 24.9706C39.9805 24.3764 40.0088 23.4237 41.0369 22.8578C42.065 22.2824 43.7063 22.3012 44.6873 22.8955C45.6683 23.4897 45.64 24.4424 44.6118 25.0084Z" fill="url(#paint2_linear_4701_127874)"/>
<path d="M38.103 28.451V24.9892C38.103 25.6684 38.5275 26.3475 39.4141 26.8757C41.2252 27.9605 44.2153 27.9982 46.1018 26.9417C47.0733 26.4041 47.5544 25.6778 47.5544 24.9609V28.4227C47.5638 29.1395 47.0827 29.8658 46.1112 30.4035C44.2247 31.4505 41.2346 31.4222 39.4236 30.3374C38.5464 29.8092 38.1125 29.1301 38.103 28.451Z" fill="url(#paint3_linear_4701_127874)"/>
<path d="M43.0933 35.5158L47.036 38.1852L53.1954 34.6292L51.092 30.9033L43.0933 35.5158Z" fill="#38404A"/>
<path d="M67.9576 33.0634L67.8632 36.5062L53.1957 34.6292L51.0923 30.9033L67.9576 33.0634Z" fill="#2F3842"/>
<path d="M41.5179 34.6011C40.5841 34.4691 39.7069 34.1861 38.9995 33.7522C38.009 33.1579 37.5186 32.3939 37.5186 31.6299C37.5186 31.6299 38.0185 48.6649 39.0089 49.2592C39.7163 49.6837 41.5274 34.6011 41.5274 34.6011H41.5179Z" fill="url(#paint4_linear_4701_127874)"/>
<path d="M57.4776 41.5718C57.4776 41.5718 54.2705 47.967 54.2705 51.7871C54.2705 53.9849 55.7042 54.9376 57.4776 53.9189V41.5718Z" fill="#FFB702"/>
<path d="M57.4775 41.5718C57.4775 41.5718 60.6846 44.2695 60.6846 48.0896C60.6846 50.2874 59.2508 52.9002 57.4775 53.9189V41.5718Z" fill="#FFB702"/>
<path d="M56.7984 48.6176C56.5815 49.4571 56.0721 50.1928 55.6665 50.2589C55.2609 50.3249 55.11 49.7023 55.3364 48.8629C55.5628 48.0234 56.0627 47.2876 56.4683 47.2216C56.8739 47.1556 57.0248 47.7781 56.7984 48.6176Z" fill="#FF9B00" fill-opacity="0.75"/>
<defs>
<linearGradient id="paint0_linear_4701_127874" x1="49.6301" y1="37.1118" x2="72.0888" y2="41.0878" gradientUnits="userSpaceOnUse">
<stop stop-color="#003F88"/>
<stop offset="1" stop-color="#295EEC"/>
</linearGradient>
<linearGradient id="paint1_linear_4701_127874" x1="36.962" y1="32.092" x2="47.8471" y2="32.092" gradientUnits="userSpaceOnUse">
<stop offset="0.21" stop-color="#232C33"/>
<stop offset="0.69" stop-color="#2F3842"/>
</linearGradient>
<linearGradient id="paint2_linear_4701_127874" x1="38.416" y1="22.2383" x2="47.8943" y2="27.3547" gradientUnits="userSpaceOnUse">
<stop stop-color="#295EEC"/>
<stop offset="1" stop-color="#003F88"/>
</linearGradient>
<linearGradient id="paint3_linear_4701_127874" x1="38.4271" y1="24.9609" x2="48.3979" y2="29.712" gradientUnits="userSpaceOnUse">
<stop stop-color="#003F88"/>
<stop offset="1" stop-color="#295EEC"/>
</linearGradient>
<linearGradient id="paint4_linear_4701_127874" x1="36.962" y1="40.4493" x2="47.8471" y2="40.4493" gradientUnits="userSpaceOnUse">
<stop offset="0.21" stop-color="#232C33"/>
<stop offset="0.69" stop-color="#2F3842"/>
</linearGradient>
</defs>
</svg>
