<svg width="105" height="115" viewBox="0 0 105 115" fill="none" xmlns="http://www.w3.org/2000/svg">
<rect width="105" height="115" rx="8" fill="#FFF6EE"/>
<g clip-path="url(#clip0_4701_127875)">
<path d="M92.0554 39.5051C91.8546 36.1252 90.599 33.7259 88.7228 32.6179L88.7232 32.6166L87.518 31.9191C87.289 31.7872 84.0349 29.946 81.0583 30.056C79.3117 30.1206 77.5553 31.0042 76.0918 32.0232C73.7229 33.6726 71.8277 35.9129 70.5204 38.4901C68.8315 41.8194 67.7935 45.6131 67.7935 49.1304C67.7935 51.9326 68.4543 54.1445 69.5762 55.6247L73.7854 61.8791C74.5737 63.0504 75.6173 64.0266 76.8374 64.734L79.9109 66.516C80.0134 66.5915 80.1208 66.6536 80.2327 66.7025L80.2363 66.7047L80.2364 66.7041C81.7463 67.3604 84.0324 65.6518 85.1487 62.7007L90.3023 49.0764C91.5606 45.9599 92.239 42.5941 92.0554 39.5051Z" fill="url(#paint0_linear_4701_127875)"/>
<path d="M90.3022 49.0764C91.5604 45.9599 92.2389 42.5941 92.0552 39.5051C91.6852 33.2775 87.7392 30.3685 82.9145 32.7608C77.222 35.5833 72.4951 44.3496 72.4951 51.8558C72.4951 54.658 73.1561 56.8699 74.2779 58.3501L79.4314 66.0094C80.7733 68.0036 83.8066 66.2481 85.1485 62.7008L90.3022 49.0764Z" fill="url(#paint1_linear_4701_127875)"/>
<path d="M88.5567 42.5661C88.5567 47.1916 85.751 52.5652 82.2901 54.5682C78.8291 56.5711 76.0234 54.445 76.0234 49.8194C76.0234 45.1938 78.8291 39.8202 82.2901 37.8173C85.751 35.8143 88.5567 37.9404 88.5567 42.5661Z" fill="url(#paint2_linear_4701_127875)"/>
</g>
<path d="M19.5594 58.6503C20.6595 57.8999 23.0523 57.8818 24.2908 58.2336C25.6347 58.6154 26.2139 59.3203 26.7336 60.2285C27.1923 61.0305 27.478 63.3571 27.5383 63.8906L17.2983 63.6974H17.3761C17.5546 61.3451 17.8569 59.8116 19.5594 58.6503Z" fill="black"/>
<path d="M68.5795 59.1994C69.1608 58.0432 70.2079 57.6545 70.6878 57.5282C71.1674 57.4021 72.5147 57.3923 73.3032 57.3923C74.0918 57.3923 75.2582 57.4116 76.1233 57.6643C76.9886 57.9169 77.8553 58.9663 78.2433 60.0739C78.5849 61.0493 78.7533 63.319 78.7883 63.8479L67.6206 63.9072C67.6512 62.3209 68.04 60.2715 68.5795 59.1994Z" fill="black"/>
<path d="M17.8569 63.1725C17.8569 60.6367 19.9079 58.5813 22.4374 58.5813C24.9671 58.5813 27.0177 60.6367 27.0177 63.1725C27.0177 65.7082 24.9671 67.7639 22.4374 67.7639C19.9079 67.7637 17.8569 65.708 17.8569 63.1725Z" fill="url(#paint3_linear_4701_127875)"/>
<path d="M18.1416 63.1723C18.1416 60.7941 20.0651 58.8662 22.4376 58.8662C24.8101 58.8662 26.7336 60.7941 26.7336 63.1723C26.7336 65.5506 24.8101 67.4785 22.4376 67.4785C20.0651 67.4783 18.1416 65.5506 18.1416 63.1723Z" fill="#3B4447"/>
<path d="M19.2896 63.1725C19.2896 61.4298 20.6991 60.0171 22.4376 60.0171C24.1762 60.0171 25.5857 61.4298 25.5857 63.1725C25.5857 64.9154 24.1762 66.3282 22.4376 66.3282C20.6991 66.328 19.2896 64.9154 19.2896 63.1725Z" fill="url(#paint4_linear_4701_127875)"/>
<path d="M19.7817 63.1723C19.7817 61.7022 20.9704 60.5103 22.4373 60.5103C23.9041 60.5103 25.093 61.7022 25.093 63.1723C25.093 64.6427 23.9041 65.8346 22.4373 65.8346C20.9706 65.8346 19.7817 64.6427 19.7817 63.1723Z" fill="url(#paint5_linear_4701_127875)"/>
<path d="M20.1499 63.1722C20.1499 61.906 21.1743 60.8794 22.4375 60.8794C23.7009 60.8794 24.7251 61.906 24.7251 63.1722C24.7251 64.4387 23.7009 65.4651 22.4375 65.4651C21.1743 65.4651 20.1499 64.4385 20.1499 63.1722Z" fill="url(#paint6_linear_4701_127875)"/>
<path d="M20.8457 63.1725C20.8457 62.2911 21.5585 61.5767 22.4378 61.5767C23.3171 61.5767 24.03 62.2911 24.03 63.1725C24.03 64.0541 23.3171 64.7686 22.4378 64.7686C21.5583 64.7686 20.8457 64.0539 20.8457 63.1725Z" fill="url(#paint7_linear_4701_127875)"/>
<path d="M21.0425 63.1725C21.0425 62.4003 21.6671 61.7744 22.4372 61.7744C23.2073 61.7744 23.8319 62.4003 23.8319 63.1725C23.8319 63.9446 23.2073 64.5707 22.4372 64.5707C21.6671 64.5705 21.0425 63.9446 21.0425 63.1725Z" fill="url(#paint8_linear_4701_127875)"/>
<path d="M21.1318 63.1722C21.1318 62.4494 21.7163 61.8635 22.4374 61.8635C23.1583 61.8635 23.743 62.4494 23.743 63.1722C23.743 63.8952 23.1583 64.4811 22.4374 64.4811C21.7163 64.4811 21.1318 63.895 21.1318 63.1722Z" fill="url(#paint9_linear_4701_127875)"/>
<path d="M22.0483 63.1724C22.0483 62.9571 22.2228 62.7825 22.4375 62.7825C22.6527 62.7825 22.8267 62.9569 22.8267 63.1724C22.8267 63.3879 22.6527 63.5625 22.4375 63.5625C22.2228 63.5625 22.0483 63.3877 22.0483 63.1724Z" fill="url(#paint10_linear_4701_127875)"/>
<path d="M22.1997 61.2273C22.1997 61.13 22.3061 61.051 22.4376 61.051C22.5691 61.051 22.6756 61.13 22.6756 61.2273C22.6756 61.3248 22.5691 61.4038 22.4376 61.4038C22.3061 61.4038 22.1997 61.3248 22.1997 61.2273Z" fill="#393B3D"/>
<path d="M22.1997 65.1338C22.1997 65.0365 22.3061 64.9575 22.4376 64.9575C22.5691 64.9575 22.6756 65.0365 22.6756 65.1338C22.6756 65.2311 22.5691 65.3101 22.4376 65.3101C22.3061 65.3103 22.1997 65.2313 22.1997 65.1338Z" fill="#393B3D"/>
<path d="M23.3905 61.4602C23.4474 61.3814 23.5799 61.3804 23.6867 61.4577C23.7928 61.5353 23.8325 61.6618 23.7754 61.7406C23.7187 61.8194 23.586 61.8205 23.4796 61.7429C23.373 61.6655 23.3331 61.5388 23.3905 61.4602Z" fill="#393B3D"/>
<path d="M21.0998 64.6206C21.1567 64.5418 21.2892 64.5407 21.3956 64.6183C21.5022 64.6959 21.5419 64.8224 21.4852 64.9012C21.428 64.98 21.2955 64.981 21.1889 64.9037C21.0826 64.8259 21.0427 64.6994 21.0998 64.6206Z" fill="#393B3D"/>
<path d="M24.2173 62.3502C24.3097 62.3202 24.4172 62.3974 24.458 62.5227C24.4987 62.6482 24.4566 62.7739 24.3644 62.8041C24.2718 62.834 24.1642 62.757 24.1235 62.6315C24.0827 62.5062 24.1247 62.3803 24.2173 62.3502Z" fill="#393B3D"/>
<path d="M20.5112 63.5578C20.6036 63.5276 20.7114 63.6047 20.7519 63.7301C20.7928 63.8558 20.7507 63.9815 20.6583 64.0117C20.5661 64.042 20.4583 63.9646 20.4174 63.8393C20.3767 63.7136 20.4188 63.5877 20.5112 63.5578Z" fill="#393B3D"/>
<path d="M24.3644 63.5578C24.4566 63.5877 24.4987 63.7138 24.458 63.8391C24.4172 63.9644 24.3097 64.0416 24.2173 64.0117C24.1247 63.9815 24.0827 63.8556 24.1235 63.7301C24.1642 63.6047 24.2718 63.5276 24.3644 63.5578Z" fill="#393B3D"/>
<path d="M20.6583 62.3502C20.7507 62.3801 20.7928 62.5064 20.7519 62.6315C20.7116 62.757 20.6036 62.8342 20.511 62.8041C20.4188 62.7741 20.3767 62.648 20.4174 62.5227C20.4581 62.3974 20.5659 62.3202 20.6583 62.3502Z" fill="#393B3D"/>
<path d="M23.7754 64.621C23.8323 64.6994 23.7926 64.8259 23.6866 64.9037C23.5801 64.9813 23.4473 64.98 23.3904 64.9014C23.3331 64.8224 23.3732 64.6959 23.4796 64.6185C23.5859 64.541 23.7186 64.542 23.7754 64.621Z" fill="#393B3D"/>
<path d="M21.4854 61.4603C21.5421 61.5391 21.5024 61.6658 21.3959 61.7432C21.2895 61.8208 21.157 61.8198 21.0997 61.741C21.0427 61.6622 21.0826 61.5357 21.1892 61.4581C21.2956 61.3805 21.4279 61.3817 21.4854 61.4603Z" fill="#393B3D"/>
<path d="M22.192 62.4553C22.192 62.5686 22.1004 62.6602 21.9871 62.6602C21.8739 62.6602 21.7827 62.5686 21.7827 62.4553C21.7827 62.3422 21.8741 62.25 21.9871 62.25C22.1004 62.25 22.192 62.3422 22.192 62.4553Z" fill="url(#paint11_linear_4701_127875)"/>
<path d="M22.1582 62.4553C22.1582 62.5501 22.0814 62.6269 21.9868 62.6269C21.8922 62.6269 21.8154 62.5503 21.8154 62.4553C21.8154 62.3607 21.8922 62.2837 21.9868 62.2837C22.0814 62.2837 22.1582 62.3607 22.1582 62.4553Z" fill="#5B686C"/>
<path d="M22.1413 62.455C22.1413 62.5405 22.0722 62.6098 21.9869 62.6098C21.9018 62.6098 21.8325 62.5403 21.8325 62.455C21.8325 62.3697 21.9018 62.3003 21.9869 62.3003C22.0722 62.3005 22.1413 62.3697 22.1413 62.455Z" fill="url(#paint12_linear_4701_127875)"/>
<path d="M23.1749 62.4553C23.1749 62.5686 23.0831 62.6602 22.9701 62.6602C22.8572 62.6602 22.7656 62.5686 22.7656 62.4553C22.7656 62.3422 22.8572 62.25 22.9701 62.25C23.0831 62.25 23.1749 62.3422 23.1749 62.4553Z" fill="url(#paint13_linear_4701_127875)"/>
<path d="M23.1419 62.4553C23.1419 62.5501 23.0653 62.6269 22.9705 62.6269C22.8761 62.6269 22.7993 62.5503 22.7993 62.4553C22.7993 62.3607 22.8761 62.2837 22.9705 62.2837C23.0653 62.2837 23.1419 62.3607 23.1419 62.4553Z" fill="#5B686C"/>
<path d="M23.1242 62.455C23.1242 62.5405 23.0553 62.6098 22.9698 62.6098C22.8849 62.6098 22.8154 62.5403 22.8154 62.455C22.8154 62.3697 22.8849 62.3003 22.9698 62.3003C23.0553 62.3005 23.1242 62.3697 23.1242 62.455Z" fill="url(#paint14_linear_4701_127875)"/>
<path d="M22.6422 64.0017C22.6422 64.1149 22.5504 64.2067 22.4373 64.2067C22.3241 64.2067 22.2329 64.1147 22.2329 64.0017C22.2329 63.8882 22.3243 63.7966 22.4373 63.7966C22.5504 63.7966 22.6422 63.8882 22.6422 64.0017Z" fill="url(#paint15_linear_4701_127875)"/>
<path d="M22.6089 64.0019C22.6089 64.0965 22.5321 64.1735 22.4375 64.1735C22.3429 64.1735 22.2661 64.0967 22.2661 64.0019C22.2661 63.9068 22.3429 63.8301 22.4375 63.8301C22.5321 63.8301 22.6089 63.9068 22.6089 64.0019Z" fill="#5B686C"/>
<path d="M22.5913 64.0017C22.5913 64.087 22.5222 64.1562 22.4371 64.1562C22.3518 64.1562 22.2827 64.087 22.2827 64.0017C22.2827 63.916 22.3518 63.8469 22.4371 63.8469C22.5222 63.8467 22.5913 63.916 22.5913 64.0017Z" fill="url(#paint16_linear_4701_127875)"/>
<path d="M23.4786 63.3917C23.4786 63.5052 23.3872 63.597 23.2742 63.597C23.1609 63.597 23.0693 63.505 23.0693 63.3917C23.0693 63.2786 23.1609 63.1868 23.2742 63.1868C23.3872 63.1866 23.4786 63.2786 23.4786 63.3917Z" fill="url(#paint17_linear_4701_127875)"/>
<path d="M23.4451 63.3916C23.4451 63.4865 23.3686 63.5634 23.2739 63.5634C23.1791 63.5634 23.1025 63.4865 23.1025 63.3916C23.1025 63.297 23.1791 63.2202 23.2739 63.2202C23.3688 63.2202 23.4451 63.2968 23.4451 63.3916Z" fill="#5B686C"/>
<path d="M23.4281 63.3916C23.4281 63.4771 23.3588 63.5466 23.2737 63.5466C23.1882 63.5466 23.1191 63.4771 23.1191 63.3916C23.1191 63.3065 23.188 63.2371 23.2737 63.2371C23.359 63.2371 23.4281 63.3063 23.4281 63.3916Z" fill="url(#paint18_linear_4701_127875)"/>
<path d="M21.8737 63.3917C21.8737 63.5052 21.7823 63.597 21.6693 63.597C21.5564 63.597 21.4648 63.505 21.4648 63.3917C21.4648 63.2786 21.5564 63.1868 21.6693 63.1868C21.7823 63.1866 21.8737 63.2786 21.8737 63.3917Z" fill="url(#paint19_linear_4701_127875)"/>
<path d="M21.8409 63.3916C21.8409 63.4865 21.7641 63.5634 21.6694 63.5634C21.5748 63.5634 21.498 63.4865 21.498 63.3916C21.498 63.297 21.5748 63.2202 21.6694 63.2202C21.7641 63.2202 21.8409 63.2968 21.8409 63.3916Z" fill="#5B686C"/>
<path d="M21.8234 63.3916C21.8234 63.4771 21.7545 63.5466 21.669 63.5466C21.5839 63.5466 21.5146 63.4771 21.5146 63.3916C21.5146 63.3065 21.5839 63.2371 21.669 63.2371C21.7545 63.2371 21.8234 63.3063 21.8234 63.3916Z" fill="url(#paint20_linear_4701_127875)"/>
<path d="M68.395 63.1725C68.395 60.6367 70.4456 58.5813 72.9751 58.5813C75.5048 58.5813 77.5558 60.6367 77.5558 63.1725C77.5558 65.7082 75.5048 67.7639 72.9751 67.7639C70.4456 67.7637 68.395 65.708 68.395 63.1725Z" fill="url(#paint21_linear_4701_127875)"/>
<path d="M68.6797 63.1723C68.6797 60.7941 70.6032 58.8662 72.9755 58.8662C75.3482 58.8662 77.2717 60.7941 77.2717 63.1723C77.2717 65.5506 75.3482 67.4785 72.9755 67.4785C70.603 67.4783 68.6797 65.5506 68.6797 63.1723Z" fill="#3B4447"/>
<path d="M69.8271 63.1725C69.8271 61.4298 71.2367 60.0171 72.975 60.0171C74.7138 60.0171 76.1233 61.4298 76.1233 63.1725C76.1233 64.9154 74.7138 66.3282 72.975 66.3282C71.2367 66.328 69.8271 64.9154 69.8271 63.1725Z" fill="url(#paint22_linear_4701_127875)"/>
<path d="M70.3193 63.1723C70.3193 61.7022 71.5082 60.5103 72.9749 60.5103C74.4419 60.5103 75.6306 61.7022 75.6306 63.1723C75.6306 64.6427 74.4419 65.8346 72.9749 65.8346C71.5084 65.8346 70.3193 64.6427 70.3193 63.1723Z" fill="url(#paint23_linear_4701_127875)"/>
<path d="M70.688 63.1722C70.688 61.906 71.7119 60.8794 72.9752 60.8794C74.2386 60.8794 75.263 61.906 75.263 63.1722C75.263 64.4387 74.2386 65.4651 72.9752 65.4651C71.7119 65.4651 70.688 64.4385 70.688 63.1722Z" fill="url(#paint24_linear_4701_127875)"/>
<path d="M71.3833 63.1725C71.3833 62.2911 72.0963 61.5767 72.9754 61.5767C73.8549 61.5767 74.5676 62.2911 74.5676 63.1725C74.5676 64.0541 73.8549 64.7686 72.9754 64.7686C72.0963 64.7686 71.3833 64.0539 71.3833 63.1725Z" fill="url(#paint25_linear_4701_127875)"/>
<path d="M71.5806 63.1725C71.5806 62.4003 72.205 61.7744 72.9751 61.7744C73.7458 61.7744 74.3698 62.4003 74.3698 63.1725C74.3698 63.9446 73.7458 64.5707 72.9751 64.5707C72.205 64.5705 71.5806 63.9446 71.5806 63.1725Z" fill="url(#paint26_linear_4701_127875)"/>
<path d="M71.6699 63.1722C71.6699 62.4494 72.2544 61.8635 72.9753 61.8635C73.6968 61.8635 74.2813 62.4494 74.2813 63.1722C74.2813 63.8952 73.6968 64.4811 72.9753 64.4811C72.2544 64.4811 71.6699 63.895 71.6699 63.1722Z" fill="url(#paint27_linear_4701_127875)"/>
<path d="M72.5864 63.1724C72.5864 62.9571 72.7607 62.7825 72.9752 62.7825C73.1902 62.7825 73.3646 62.9569 73.3646 63.1724C73.3646 63.3879 73.1902 63.5625 72.9752 63.5625C72.7607 63.5625 72.5864 63.3877 72.5864 63.1724Z" fill="url(#paint28_linear_4701_127875)"/>
<path d="M72.7373 61.2273C72.7373 61.13 72.8439 61.051 72.9752 61.051C73.1069 61.051 73.2132 61.13 73.2132 61.2273C73.2132 61.3248 73.1069 61.4038 72.9752 61.4038C72.8439 61.4038 72.7373 61.3248 72.7373 61.2273Z" fill="#393B3D"/>
<path d="M72.7373 65.1338C72.7373 65.0365 72.8439 64.9575 72.9752 64.9575C73.1069 64.9575 73.2132 65.0365 73.2132 65.1338C73.2132 65.2311 73.1069 65.3101 72.9752 65.3101C72.8439 65.3103 72.7373 65.2313 72.7373 65.1338Z" fill="#393B3D"/>
<path d="M73.9277 61.4602C73.9852 61.3814 74.1173 61.3804 74.2241 61.4577C74.3305 61.5353 74.3704 61.6618 74.3134 61.7406C74.2563 61.8194 74.1238 61.8205 74.0172 61.7429C73.9107 61.6655 73.871 61.5388 73.9277 61.4602Z" fill="#393B3D"/>
<path d="M71.6372 64.6206C71.6941 64.5418 71.8268 64.5407 71.9334 64.6183C72.0398 64.6959 72.0797 64.8224 72.0227 64.9012C71.9658 64.98 71.8331 64.981 71.7263 64.9037C71.6202 64.8259 71.5804 64.6994 71.6372 64.6206Z" fill="#393B3D"/>
<path d="M74.7548 62.3502C74.8469 62.3202 74.9547 62.3974 74.9957 62.5227C75.036 62.6482 74.9938 62.7739 74.9021 62.8041C74.8095 62.834 74.7013 62.757 74.661 62.6315C74.6204 62.5062 74.6624 62.3803 74.7548 62.3502Z" fill="#393B3D"/>
<path d="M71.0489 63.5578C71.1409 63.5276 71.249 63.6047 71.2892 63.7301C71.3301 63.8558 71.2881 63.9815 71.1958 64.0117C71.1034 64.042 70.9958 63.9646 70.9549 63.8393C70.9143 63.7136 70.9565 63.5877 71.0489 63.5578Z" fill="#393B3D"/>
<path d="M74.9027 63.5578C74.9944 63.5877 75.0366 63.7138 74.9963 63.8391C74.9553 63.9644 74.8475 64.0416 74.7554 64.0117C74.6628 63.9815 74.6208 63.8556 74.6616 63.7301C74.7019 63.6047 74.8101 63.5276 74.9027 63.5578Z" fill="#393B3D"/>
<path d="M71.1959 62.3502C71.2883 62.3801 71.3302 62.5064 71.2893 62.6315C71.249 62.757 71.141 62.8342 71.0486 62.8041C70.9564 62.7741 70.9143 62.648 70.955 62.5227C70.9959 62.3974 71.1033 62.3202 71.1959 62.3502Z" fill="#393B3D"/>
<path d="M74.3132 64.621C74.37 64.6994 74.3305 64.8259 74.2241 64.9037C74.1175 64.9813 73.9852 64.98 73.9277 64.9014C73.871 64.8224 73.9107 64.6959 74.0172 64.6185C74.1238 64.541 74.2563 64.542 74.3132 64.621Z" fill="#393B3D"/>
<path d="M72.0229 61.4603C72.0798 61.5391 72.0399 61.6658 71.9336 61.7432C71.827 61.8208 71.6945 61.8198 71.6374 61.741C71.5802 61.6622 71.6203 61.5357 71.7265 61.4581C71.8331 61.3805 71.9656 61.3817 72.0229 61.4603Z" fill="#393B3D"/>
<path d="M72.7294 62.4553C72.7294 62.5686 72.6378 62.6602 72.5245 62.6602C72.4119 62.6602 72.3203 62.5686 72.3203 62.4553C72.3203 62.3422 72.4119 62.25 72.5245 62.25C72.6378 62.25 72.7294 62.3422 72.7294 62.4553Z" fill="url(#paint29_linear_4701_127875)"/>
<path d="M72.696 62.4553C72.696 62.5501 72.6193 62.6269 72.5244 62.6269C72.4302 62.6269 72.353 62.5503 72.353 62.4553C72.353 62.3607 72.4304 62.2837 72.5244 62.2837C72.6193 62.2837 72.696 62.3607 72.696 62.4553Z" fill="#5B686C"/>
<path d="M72.6791 62.455C72.6791 62.5405 72.6098 62.6098 72.5245 62.6098C72.4394 62.6098 72.3701 62.5403 72.3701 62.455C72.3701 62.3697 72.4394 62.3003 72.5245 62.3003C72.6098 62.3005 72.6791 62.3697 72.6791 62.455Z" fill="url(#paint30_linear_4701_127875)"/>
<path d="M73.7129 62.4553C73.7129 62.5686 73.6207 62.6602 73.5081 62.6602C73.3948 62.6602 73.3032 62.5686 73.3032 62.4553C73.3032 62.3422 73.3948 62.25 73.5081 62.25C73.6207 62.25 73.7129 62.3422 73.7129 62.4553Z" fill="url(#paint31_linear_4701_127875)"/>
<path d="M73.679 62.4553C73.679 62.5501 73.6024 62.6269 73.5078 62.6269C73.413 62.6269 73.3364 62.5503 73.3364 62.4553C73.3364 62.3607 73.413 62.2837 73.5078 62.2837C73.6024 62.2837 73.679 62.3607 73.679 62.4553Z" fill="#5B686C"/>
<path d="M73.6621 62.455C73.6621 62.5405 73.593 62.6098 73.5081 62.6098C73.4228 62.6098 73.3535 62.5403 73.3535 62.455C73.3535 62.3697 73.4228 62.3003 73.5081 62.3003C73.5932 62.3005 73.6621 62.3697 73.6621 62.455Z" fill="url(#paint32_linear_4701_127875)"/>
<path d="M73.1798 64.0017C73.1798 64.1149 73.0882 64.2067 72.9749 64.2067C72.8621 64.2067 72.7705 64.1147 72.7705 64.0017C72.7705 63.8882 72.8621 63.7966 72.9749 63.7966C73.0882 63.7966 73.1798 63.8882 73.1798 64.0017Z" fill="url(#paint33_linear_4701_127875)"/>
<path d="M73.1461 64.0019C73.1461 64.0965 73.0697 64.1735 72.9749 64.1735C72.8803 64.1735 72.8037 64.0967 72.8037 64.0019C72.8037 63.9068 72.8803 63.8301 72.9749 63.8301C73.0697 63.8301 73.1461 63.9068 73.1461 64.0019Z" fill="#5B686C"/>
<path d="M73.1291 64.0017C73.1291 64.087 73.06 64.1562 72.9747 64.1562C72.8898 64.1562 72.8203 64.087 72.8203 64.0017C72.8203 63.916 72.8898 63.8469 72.9747 63.8469C73.06 63.8467 73.1291 63.916 73.1291 64.0017Z" fill="url(#paint34_linear_4701_127875)"/>
<path d="M74.0158 63.3917C74.0158 63.5052 73.9242 63.597 73.8114 63.597C73.6987 63.597 73.6069 63.505 73.6069 63.3917C73.6069 63.2786 73.6987 63.1868 73.8114 63.1868C73.9242 63.1866 74.0158 63.2786 74.0158 63.3917Z" fill="url(#paint35_linear_4701_127875)"/>
<path d="M73.9823 63.3916C73.9823 63.4865 73.9057 63.5634 73.8111 63.5634C73.7164 63.5634 73.6396 63.4865 73.6396 63.3916C73.6396 63.297 73.7164 63.2202 73.8111 63.2202C73.9057 63.2202 73.9823 63.2968 73.9823 63.3916Z" fill="#5B686C"/>
<path d="M73.9655 63.3916C73.9655 63.4771 73.896 63.5466 73.8109 63.5466C73.7256 63.5466 73.6567 63.4771 73.6567 63.3916C73.6567 63.3065 73.7254 63.2371 73.8109 63.2371C73.896 63.2371 73.9655 63.3063 73.9655 63.3916Z" fill="url(#paint36_linear_4701_127875)"/>
<path d="M72.4116 63.3917C72.4116 63.5052 72.3198 63.597 72.2068 63.597C72.0939 63.597 72.002 63.505 72.002 63.3917C72.002 63.2786 72.0937 63.1868 72.2068 63.1868C72.3198 63.1866 72.4116 63.2786 72.4116 63.3917Z" fill="url(#paint37_linear_4701_127875)"/>
<path d="M72.3784 63.3916C72.3784 63.4865 72.3017 63.5634 72.207 63.5634C72.1122 63.5634 72.0356 63.4865 72.0356 63.3916C72.0356 63.297 72.1122 63.2202 72.207 63.2202C72.3017 63.2202 72.3784 63.2968 72.3784 63.3916Z" fill="#5B686C"/>
<path d="M72.361 63.3916C72.361 63.4771 72.2917 63.5466 72.2066 63.5466C72.1215 63.5466 72.0522 63.4771 72.0522 63.3916C72.0522 63.3065 72.1215 63.2371 72.2066 63.2371C72.2919 63.2371 72.361 63.3063 72.361 63.3916Z" fill="url(#paint38_linear_4701_127875)"/>
<path d="M27.5505 64.0017C27.5505 64.0017 27.2534 61.1366 26.7336 60.2284C26.2139 59.3201 25.6346 58.615 24.2908 58.2334C23.0523 57.8817 20.6595 57.8998 19.5594 58.6502C17.8569 59.8114 17.5546 61.3449 17.3761 63.6975H8.21193L8.06342 63.3914L5.92453 63.1725L5.79102 62.3126H6.31069L5.99889 58.2483L6.25133 57.3102H6.54835C6.54835 57.3102 6.37026 54.3922 6.37026 52.9629C6.37026 51.5336 6.48919 49.6278 6.48919 49.6278C6.48919 49.6278 6.94971 43.1365 6.9645 42.5411C6.97908 41.9454 7.15717 38.0003 7.1278 37.5535C7.09822 37.1067 7.09822 36.5707 8.01885 36.4515C8.93948 36.3325 24.3866 36.3622 24.3866 36.3622L58.8303 36.4515C58.8303 36.4515 60.3012 36.6152 61.3555 37.3896C62.4101 38.1638 67.5048 42.392 67.5048 42.392L75.3321 49.8957C75.3321 49.8957 75.837 50.1487 76.0451 50.3124C76.2532 50.4761 77.2482 51.2952 77.2482 51.2952C77.2482 51.2952 78.9363 51.8283 79.6069 52.0957C80.2771 52.3636 81.0273 53.2235 81.3513 53.5596C81.6751 53.8957 82.2831 54.9777 82.2831 54.9777V55.65C82.2831 55.65 83.4653 56.2367 83.7094 56.3563C83.9535 56.4759 83.9993 56.7322 83.9993 56.7322C83.9993 56.7322 84.5338 58.402 84.7471 59.4418C84.9605 60.4814 84.9508 62.0943 84.9508 62.0943H84.7374L84.2724 63.1144L84.4761 63.1721C84.4761 63.1721 84.6315 63.2304 84.6071 63.3037C84.5826 63.3768 84.5148 63.4739 84.1948 63.4838C83.8749 63.4934 82.1591 63.7446 81.6749 63.7842C81.1902 63.8236 78.7961 63.9597 78.7961 63.9597C78.7961 63.9597 78.6313 61.181 78.2438 60.0734C77.8558 58.9658 76.989 57.9166 76.1237 57.6638C75.2584 57.4111 74.092 57.3918 73.3037 57.3918C72.5151 57.3918 71.1678 57.4016 70.6883 57.5277C70.2085 57.654 69.1612 58.0427 68.58 59.1989C67.9983 60.3551 67.5909 62.6481 67.62 64.2706L64.8869 64.115C64.8869 64.115 61.0001 64.0178 60.0214 64.0178C59.0416 64.0182 27.5505 64.0017 27.5505 64.0017Z" fill="#3279D2"/>
<path opacity="0.1" d="M7.65869 57.5061L7.92957 63.3778L8.06349 63.3914L8.212 63.6974H16.5607L16.4375 61.5987C16.7501 59.8211 17.1677 58.1853 19.0292 56.9154C20.243 56.0872 21.2469 56.0949 22.4182 56.0949C23.3108 56.0949 24.178 56.1672 24.8612 56.3609C26.9539 56.9554 27.5284 57.9645 28.1782 59.0998C28.5571 59.7622 29.0318 61.4793 29.2084 62.4645L65.9646 62.3506C66.1466 60.9911 66.4841 59.262 66.9904 58.2547C67.5154 57.2113 68.1708 56.4548 68.8019 55.9509H8.84473L9.51758 55.2387L69.8984 55.3037C69.9875 55.2697 70.0742 55.2403 70.1557 55.2188C70.7159 55.0711 71.5982 55.0136 73.3033 55.0136C74.3846 55.0136 75.8389 55.1318 76.9125 55.4454C78.7248 55.9745 79.5099 57.9893 79.9962 59.3792C80.1475 59.8116 80.4988 61.7167 80.5963 63.855C81.07 63.8264 81.4987 63.7992 81.6749 63.7848C82.1594 63.7452 83.875 63.494 84.1949 63.4844C84.5148 63.4745 84.5827 63.3774 84.6072 63.3043C84.6315 63.231 84.4761 63.1727 84.4761 63.1727L84.2725 63.115L84.7375 62.0949H84.9508C84.9508 62.0949 84.9605 60.4822 84.7472 59.4424C84.5339 58.4026 83.9994 56.7328 83.9994 56.7328C83.9994 56.7328 83.9538 56.4765 83.7095 56.3569C83.4653 56.2372 82.2831 55.6505 82.2831 55.6505V54.9783C82.2831 54.9783 81.6751 53.8963 81.3514 53.5602C81.0274 53.224 80.2774 52.364 79.607 52.0963C79.5713 52.0823 79.5324 52.0671 79.4915 52.0516C78.5534 52.0725 76.8686 51.8319 76.168 51.4101C75.2957 50.8847 73.9247 49.7291 73.2638 49.1859C72.6027 48.6424 70.0941 46.1637 68.2696 44.4411C66.4452 42.7186 63.5107 40.2035 61.7902 38.7429C59.7169 36.9824 57.37 37.0841 57.37 37.0841C57.37 37.0841 10.4477 37.0973 9.27122 37.0841C8.0947 37.0709 8.18708 38.1068 8.18708 38.1068C8.18708 38.1068 7.98873 40.7569 7.88338 43.288C7.77762 45.8187 7.65869 57.5061 7.65869 57.5061ZM8.93955 43.1324C8.93955 42.9507 9.08806 42.802 9.26959 42.802H57.355C57.5365 42.802 57.6848 42.9507 57.6848 43.1324V51.1721C57.6848 51.354 57.5365 51.5027 57.355 51.5027H9.26959C9.08826 51.5027 8.93955 51.3542 8.93955 51.1721V43.1324ZM8.93955 42.1022L57.3236 42.0888H58.4128V42.1471H57.3236L8.93955 42.1605V42.1022ZM8.93955 37.777L57.8165 37.7624C57.8165 37.7624 59.4817 37.7216 60.7822 39.0112C59.5151 37.8242 57.8165 37.826 57.8165 37.826L8.93955 37.8404V37.777Z" fill="black"/>
<path opacity="0.1" d="M67.0586 64.2389C67.1461 62.6623 67.4993 60.0518 68.0601 58.9369C68.7258 57.6135 69.8995 57.1328 70.5397 56.9643C70.947 56.8568 71.7993 56.8093 73.3033 56.8093C74.2782 56.8093 75.3947 56.8443 76.286 57.1044C77.2923 57.3983 78.3228 58.5398 78.7922 59.8806C79.0606 60.6475 79.2252 62.8335 79.3084 63.9306C79.0037 63.9482 78.7956 63.9598 78.7956 63.9598C78.7956 63.9598 78.6309 61.1812 78.2433 60.0735C77.8554 58.9659 76.9886 57.9168 76.1233 57.6639C75.258 57.4113 74.0916 57.392 73.3033 57.392C72.5147 57.392 71.1674 57.4017 70.6878 57.5278C70.2081 57.6542 69.1608 58.0429 68.5795 59.1991C67.9979 60.3552 67.5904 62.6483 67.6196 64.2707L67.0586 64.2389Z" fill="black"/>
<path opacity="0.1" d="M19.2325 58.1682C20.1756 57.525 21.6333 57.429 22.4186 57.429C23.1758 57.429 23.8966 57.5155 24.4493 57.6723C25.9283 58.092 26.5534 58.9324 27.2384 59.9381C27.9098 60.9241 28.0075 63.025 28.1175 64.0015C27.7506 64.0013 27.5508 64.0013 27.5508 64.0013C27.5508 64.0013 27.2538 61.1361 26.7339 60.2279C26.2142 59.3197 25.635 58.6146 24.2911 58.233C23.0526 57.8812 20.6598 57.8993 19.5597 58.6497C17.8572 59.811 17.5549 61.3445 17.3764 63.697H16.7368C16.7814 61.4145 17.4773 59.3656 19.2325 58.1682Z" fill="black"/>
<path opacity="0.2" d="M5.99889 58.2484L6.25133 57.3104H6.54835C6.54835 57.3104 6.37026 54.3924 6.37026 52.9631C6.37026 51.5338 6.48919 49.628 6.48919 49.628C6.48919 49.628 6.94971 43.1367 6.9645 42.5413C6.97908 41.9456 7.15717 38.0005 7.1278 37.5537C7.09822 37.1069 7.09822 36.5709 8.01885 36.4517C8.14385 36.4357 8.53832 36.4221 9.12425 36.4109V37.0835C8.1554 37.1091 8.18701 38.1065 8.18701 38.1065C8.18701 38.1065 7.98866 40.7565 7.88331 43.2876C7.77734 45.8185 7.65841 57.5062 7.65841 57.5062L7.9293 63.3778L5.92453 63.1725L5.79102 62.3126H6.31069L5.99889 58.2484Z" fill="url(#paint39_linear_4701_127875)"/>
<path opacity="0.05" d="M8.84473 54.564V55.9506L9.51737 55.2384L8.84473 54.564Z" fill="black"/>
<path opacity="0.1" d="M57.312 54.6088L71.7564 54.6417L82.2827 54.9772L82.2831 54.978V55.6411L77.1627 55.5302L77.1599 55.53C77.0793 55.4987 76.9972 55.4697 76.9123 55.4449C75.8387 55.1313 74.3844 55.0132 73.3031 55.0132C71.598 55.0132 70.7157 55.0706 70.1555 55.2183C70.0821 55.2376 70.0049 55.2636 69.9259 55.2926L69.9225 55.2924L39.9639 55.238H9.51757L8.84473 54.5637L57.312 54.6088Z" fill="black"/>
<path opacity="0.2" d="M75.8003 54.7706C75.978 53.8646 76.2381 52.5439 76.4415 51.5449C77.2408 51.882 78.6594 52.0697 79.4915 52.051C79.5325 52.0667 79.5714 52.0817 79.607 52.0957C80.2772 52.3636 81.0275 53.2234 81.3514 53.5595C81.6742 53.8942 82.2782 54.9688 82.2826 54.9769L75.8003 54.7706Z" fill="url(#paint40_angular_4701_127875)"/>
<path opacity="0.1" d="M19.0848 56.9974C20.2625 56.1941 21.2324 56.1941 22.3554 56.1941H22.4184C23.4083 56.1941 24.2214 56.2825 24.8345 56.4565C26.8846 57.0388 27.443 58.014 28.0925 59.1491C28.4722 59.8132 28.9421 61.538 29.1114 62.4819L29.126 62.5636L66.0516 62.449L66.0629 62.3633C66.1752 61.5258 66.4983 59.4535 67.079 58.2987C68.0067 56.4543 69.3297 55.5382 70.1808 55.314C70.7319 55.169 71.6072 55.1123 73.3032 55.1123C74.3263 55.1123 75.8045 55.2246 76.8844 55.54C78.7364 56.0806 79.495 58.2472 79.9028 59.4115C80.0576 59.8538 80.4002 61.7681 80.4966 63.8605C79.6901 63.909 78.7958 63.9598 78.7958 63.9598C78.7958 63.9598 78.631 61.1812 78.2435 60.0735C77.8555 58.9659 76.9887 57.9167 76.1234 57.6639C75.2581 57.4112 74.0917 57.392 73.3034 57.392C72.5148 57.392 71.1675 57.4017 70.688 57.5278C70.2082 57.6541 69.1609 58.0428 68.5797 59.199C67.998 60.3552 67.5906 62.6483 67.6197 64.2707L64.8866 64.1152C64.8866 64.1152 60.9999 64.0179 60.0211 64.0179C59.0417 64.0179 27.5506 64.0012 27.5506 64.0012C27.5506 64.0012 27.2536 61.1361 26.7337 60.2279C26.214 59.3197 25.6347 58.6145 24.2909 58.2329C23.0524 57.8812 20.6596 57.8993 19.5595 58.6497C17.857 59.8109 17.5547 61.3444 17.3762 63.697H16.6594L16.5366 61.6046C16.8515 59.8193 17.263 58.2402 19.0848 56.9974Z" fill="black"/>
<path opacity="0.05" d="M19.0848 56.9974C20.2625 56.1941 21.2324 56.1941 22.3554 56.1941H22.4184C23.4083 56.1941 24.2214 56.2825 24.8345 56.4565C26.8846 57.0388 27.443 58.014 28.0925 59.1491C28.4722 59.8132 28.9421 61.538 29.1114 62.4819L29.126 62.5636L66.0516 62.449L66.0629 62.3633C66.1752 61.5258 66.4983 59.4535 67.079 58.2987C68.0067 56.4543 69.3297 55.5382 70.1808 55.314C70.7319 55.169 71.6072 55.1123 73.3032 55.1123C74.3263 55.1123 75.8045 55.2246 76.8844 55.54C78.7364 56.0806 79.495 58.2472 79.9028 59.4115C80.0576 59.8538 80.4002 61.7681 80.4966 63.8605C79.6901 63.909 78.7958 63.9598 78.7958 63.9598C78.7958 63.9598 78.631 61.1812 78.2435 60.0735C77.8555 58.9659 76.9887 57.9167 76.1234 57.6639C75.2581 57.4112 74.0917 57.392 73.3034 57.392C72.5148 57.392 71.1675 57.4017 70.688 57.5278C70.2082 57.6541 69.1609 58.0428 68.5797 59.199C67.998 60.3552 67.5906 62.6483 67.6197 64.2707L64.8866 64.1152C64.8866 64.1152 60.9999 64.0179 60.0211 64.0179C59.0417 64.0179 27.5506 64.0012 27.5506 64.0012C27.5506 64.0012 27.2536 61.1361 26.7337 60.2279C26.214 59.3197 25.6347 58.6145 24.2909 58.2329C23.0524 57.8812 20.6596 57.8993 19.5595 58.6497C17.857 59.8109 17.5547 61.3444 17.3762 63.697H16.6594L16.5366 61.6046C16.8515 59.8193 17.263 58.2402 19.0848 56.9974Z" fill="url(#paint41_linear_4701_127875)"/>
<path opacity="0.1" d="M69.8979 55.3039L69.8984 55.3036V55.3035L69.8979 55.3039Z" fill="black"/>
<path opacity="0.12" d="M57.5963 50.8014C57.5963 50.9824 57.4488 51.1307 57.2678 51.1307H9.36358C9.18265 51.1307 9.03516 50.9824 9.03516 50.8014V43.2269C9.03516 43.0458 9.18265 42.8977 9.36358 42.8977H57.2678C57.4488 42.8977 57.5963 43.0458 57.5963 43.2269V50.8014Z" fill="black"/>
<path opacity="0.2" d="M8.93945 43.1324V51.172C8.93945 51.354 9.08796 51.5027 9.26949 51.5027H57.3549C57.5364 51.5027 57.6847 51.3542 57.6847 51.172V43.1324C57.6847 42.9507 57.5364 42.802 57.3549 42.802H9.26949C9.08796 42.802 8.93945 42.9507 8.93945 43.1324ZM9.03488 43.2269C9.03488 43.0457 9.18237 42.8977 9.3633 42.8977H57.2676C57.4485 42.8977 57.596 43.0457 57.596 43.2269V50.8014C57.596 50.9823 57.4485 51.1306 57.2676 51.1306H9.3633C9.18237 51.1306 9.03488 50.9823 9.03488 50.8014V43.2269Z" fill="url(#paint42_linear_4701_127875)"/>
<path d="M72.6689 52.2068C72.9148 52.2068 73.4629 52.2066 73.1888 51.4107C72.9146 50.6146 71.5153 48.8899 69.9366 47.3924C68.3577 45.895 66.1643 43.867 65.7862 43.5733C65.408 43.2795 64.6326 43.0709 63.9332 43.0045C63.2336 42.9381 60.5481 42.8528 60.0096 42.8528C59.4705 42.8528 59.1493 43.0991 59.1775 43.6867C59.2059 44.2742 59.6718 47.127 59.8927 47.9797C60.1133 48.8327 60.5576 50.4815 62.0612 51.1735C63.5643 51.8652 65.5684 51.9692 67.2703 52.0549C68.972 52.1404 72.6689 52.2068 72.6689 52.2068Z" fill="#141C1E"/>
<path d="M64.4277 43.2512C64.9634 43.3517 65.4345 43.5215 65.6796 43.7116C66.053 44.0016 68.2482 46.0319 69.817 47.5197C70.0443 47.7352 70.2668 47.9553 70.4832 48.1763L70.5916 51.9876C69.4578 51.9604 68.119 51.9226 67.2794 51.8804C66.9125 51.8621 66.5253 51.8422 66.129 51.8154L64.4277 43.2512Z" fill="#303E42"/>
<path d="M59.4839 43.1938C59.5885 43.0839 59.7656 43.0281 60.0099 43.0281C60.5308 43.0281 63.2289 43.1138 63.9169 43.1788C64.0271 43.1891 64.1359 43.2031 64.2437 43.22L65.9488 51.8027C64.6323 51.7066 63.2319 51.5202 62.134 51.0149C60.6864 50.3488 60.2648 48.7192 60.062 47.9363C59.8422 47.088 59.3788 44.2352 59.3521 43.6788C59.3417 43.4602 59.3859 43.2972 59.4839 43.1938Z" fill="#303E42"/>
<path d="M75.3324 49.8959C75.3324 49.8959 75.8373 50.1489 76.0454 50.3126C76.2164 50.4472 76.918 51.0234 77.1629 51.2249C77.137 51.2316 77.1094 51.235 77.0786 51.2322C76.423 51.1688 74.8561 50.0953 74.8561 50.0953C74.8561 50.0953 72.3845 47.851 71.5702 47.1513C70.756 46.4519 66.8232 42.6917 66.8232 42.6917L67.4651 42.3589C67.491 42.3802 67.5052 42.392 67.5052 42.392L75.3324 49.8959Z" fill="#141C1E"/>
<path d="M75.3185 49.8827C75.1143 49.9694 74.9642 50.0283 74.9275 50.0035C74.7909 49.8794 72.432 47.7387 71.6451 47.063C70.922 46.4418 67.8106 43.485 67.1489 42.853L67.6591 42.5403L75.3185 49.8827Z" fill="#98A6AA"/>
<path opacity="0.3" d="M65.1202 46.7372L64.4277 43.2512C64.9634 43.3517 65.4345 43.5215 65.6796 43.7116C66.053 44.0016 68.2482 46.0319 69.817 47.5197C70.022 47.7141 70.2222 47.9125 70.4187 48.1117C69.4004 47.7855 67.4852 47.2187 65.1202 46.7372Z" fill="white"/>
<path opacity="0.3" d="M59.6795 45.9661C59.5135 44.986 59.3668 43.9848 59.3521 43.6788C59.3417 43.4602 59.3859 43.297 59.4841 43.1938C59.5887 43.0839 59.7658 43.0281 60.0101 43.0281C60.531 43.0281 63.2291 43.1138 63.9171 43.1788C64.0273 43.1891 64.1361 43.2031 64.2439 43.22L64.9352 46.6995C63.3348 46.38 61.5382 46.1028 59.6795 45.9661Z" fill="white"/>
<g opacity="0.2">
<path d="M60.323 62.2859C60.0926 61.3838 59.0133 55.9984 59.0018 55.9387L58.9284 55.2305L58.7635 54.5577C58.7593 54.5152 58.3494 50.2987 58.2898 49.2484C58.2303 48.1966 58.1436 42.9971 58.1436 42.6265C58.1436 42.3566 58.1436 42.0771 58.6622 42.0771C58.7143 42.0771 58.7712 42.0798 58.8352 42.0853C59.0127 42.0999 59.3675 42.1135 59.8165 42.1304C60.9089 42.1716 62.5591 42.2337 63.3778 42.3881C63.4737 42.4061 63.5693 42.4236 63.6643 42.4411C64.712 42.6334 65.7015 42.815 66.5731 43.5926C67.5022 44.4212 71.7835 48.712 71.8264 48.7553L71.8434 48.7725V57.052L71.7877 57.0544C71.2545 57.0774 70.8875 57.1172 70.6659 57.1754C70.0619 57.3345 68.9549 57.7876 68.3276 59.0349C67.7915 60.1001 67.5245 62.3976 67.4554 63.0763L67.4504 63.1287L61.5054 63.1281C61.5054 63.1281 61.4683 63.1328 61.4063 63.1328C61.1457 63.133 60.5181 63.0506 60.323 62.2859ZM68.2241 58.9823C68.8718 57.6941 70.0133 57.2266 70.6365 57.0625C70.8584 57.004 71.2153 56.9638 71.7273 56.9403V48.8205C71.4293 48.5219 67.3926 44.4793 66.4961 43.6795C65.6488 42.9238 64.6745 42.7451 63.6436 42.5558C63.5482 42.5384 63.4524 42.5207 63.3563 42.5024C62.5461 42.3499 60.9008 42.2877 59.8124 42.2469C59.3618 42.2299 59.0056 42.2163 58.8255 42.2012C58.7653 42.1964 58.711 42.1939 58.6624 42.1939C58.2603 42.1939 58.2603 42.3477 58.2603 42.6265C58.2603 42.9967 58.3468 48.1913 58.4063 49.2419C58.4661 50.2898 58.8754 54.504 58.8782 54.5384L59.0431 55.2106L59.1169 55.9214C59.1276 55.9756 60.2065 61.3582 60.436 62.2571C60.6109 62.9425 61.1731 63.0164 61.4067 63.0164C61.4582 63.0164 61.4896 63.013 61.4989 63.0122H67.3456C67.4228 62.2695 67.6923 60.0392 68.2241 58.9823Z" fill="white"/>
</g>
<path d="M60.0553 60.2364C60.2474 61.1598 60.416 61.9456 60.4915 62.2429C60.4938 62.2523 60.496 62.2628 60.4996 62.2722H64.2681C64.6859 62.2722 64.7718 61.9038 64.7718 61.9038C64.7718 61.9038 65.0114 60.6296 65.0627 60.3286C65.0651 60.3193 65.0665 60.3113 65.0672 60.3028C65.1069 60.0618 64.8966 60.0987 64.8966 60.0987C64.8966 60.0987 62.9716 60.0987 60.0264 60.0987C60.0367 60.1456 60.046 60.1911 60.0553 60.2364Z" fill="url(#paint43_linear_4701_127875)"/>
<path d="M59.789 60.0986H57.457V62.2719H60.2605C60.1788 61.9479 60.0092 61.1551 59.8184 60.2363C59.8089 60.1908 59.7995 60.1453 59.789 60.0986Z" fill="url(#paint44_linear_4701_127875)"/>
<path d="M57.4569 60.0987C52.4122 60.0977 45.5245 60.0977 40.0508 60.0977V62.2719H57.4569V60.0987Z" fill="url(#paint45_linear_4701_127875)"/>
<path d="M29.705 60.2865C29.705 60.2924 29.705 60.2993 29.706 60.305C29.7082 60.318 29.7105 60.3296 29.7141 60.3424C29.7151 60.3436 29.7151 60.3436 29.7151 60.3448C29.7163 60.3529 29.7186 60.3613 29.7222 60.3694C29.7222 60.3694 30.0841 61.5713 30.2121 61.9187C30.3402 62.2662 30.7158 62.2719 30.7158 62.2719C30.7158 62.2719 34.6471 62.2719 40.051 62.2719V60.0977C34.2972 60.0977 30.0354 60.0977 29.9538 60.0987C29.8537 60.0999 29.7877 60.122 29.7477 60.1596C29.7394 60.1665 29.734 60.1746 29.7279 60.183C29.7082 60.2118 29.7001 60.2469 29.705 60.2865Z" fill="url(#paint46_linear_4701_127875)"/>
<path d="M64.8966 60.0987C64.8966 60.0987 62.9716 60.0987 60.0264 60.0987C60.0369 60.1455 60.0462 60.1909 60.0555 60.2362C62.9844 60.2362 64.8966 60.2362 64.8966 60.2362C64.8966 60.2362 65.0291 60.2141 65.0627 60.3284C65.0651 60.3191 65.0665 60.3112 65.0672 60.3026C65.1069 60.0616 64.8966 60.0987 64.8966 60.0987Z" fill="#626B6E"/>
<path d="M59.789 60.0986H57.457V60.2361H59.8182C59.8089 60.1908 59.7995 60.1453 59.789 60.0986Z" fill="#626B6E"/>
<path d="M57.4569 60.0987C52.1797 60.0977 45.5245 60.0977 40.0508 60.0977V60.2354C45.5247 60.2354 52.1799 60.2354 57.4569 60.2364V60.0987Z" fill="#626B6E"/>
<path d="M29.705 60.2867C29.705 60.2926 29.705 60.2995 29.706 60.3052C29.7082 60.3182 29.7105 60.3298 29.7141 60.3426C29.7151 60.3438 29.7151 60.3438 29.7151 60.345C29.7421 60.2798 29.8154 60.2388 29.9538 60.2364C30.0354 60.2354 34.2972 60.2354 40.051 60.2354V60.0977C34.2972 60.0977 30.0354 60.0977 29.9538 60.0987C29.8537 60.0999 29.7877 60.122 29.7477 60.1596C29.7394 60.1665 29.734 60.1746 29.7279 60.183C29.7082 60.212 29.7001 60.2471 29.705 60.2867Z" fill="#626B6E"/>
<path d="M70.5915 47.6663C70.8482 47.6663 71.5097 47.8283 71.5865 48.0521C71.6634 48.2755 71.5865 51.5913 71.5865 51.5913C71.5865 51.5913 71.5563 51.9638 71.1063 52.1746C70.6557 52.3854 69.5248 52.4384 69.2324 51.8027C68.9402 51.1673 69.0863 50.9205 69.0863 50.9205L69.1943 50.7353V49.1778L69.1094 48.9774C69.1094 48.9774 69.3017 48.16 69.5171 47.9132C69.733 47.6663 70.3964 47.6665 70.5915 47.6663Z" fill="url(#paint47_linear_4701_127875)"/>
<path d="M70.0734 50.9641C69.9839 50.1459 70.0728 48.7375 70.2463 48.3405C70.3447 48.3449 70.4402 48.3465 70.5263 48.3443C70.9215 48.3335 71.3608 48.1733 71.5824 48.0441V48.0439C71.5834 48.0468 71.5855 48.0494 71.5863 48.0521C71.6633 48.2755 71.5863 51.5913 71.5863 51.5913C71.5863 51.5913 71.5723 51.7623 71.4232 51.9381C71.1187 51.8959 70.1541 51.704 70.0734 50.9641Z" fill="#212A2D"/>
<path d="M71.2985 48.5195L71.3913 48.7429C71.3913 48.7429 71.1441 48.6879 71.12 49.0147C71.0959 49.3414 71.12 51.0476 71.12 51.0476C71.12 51.0476 71.1381 51.2334 71.5941 51.2334L71.5878 51.523C71.5878 51.523 71.2608 51.5705 71.0548 51.4742C70.849 51.378 70.8421 51.1107 70.8421 50.8625C70.8421 50.6142 70.8421 48.9773 70.8421 48.9773C70.8421 48.9773 70.8153 48.5713 71.2985 48.5195Z" fill="url(#paint48_linear_4701_127875)"/>
<path d="M69.1096 48.9773H70.0021C70.0021 48.9773 70.3805 49.0541 70.4482 49.1855V50.7352C70.4482 50.7352 70.3556 50.8816 70.1327 50.9513C69.9589 51.0053 69.3343 50.9899 69.0654 50.9805C69.0752 50.9401 69.0865 50.9206 69.0865 50.9206L69.1945 50.7354V49.1779L69.1096 48.9773Z" fill="#2E373A"/>
<path d="M70.448 49.1855L69.1943 49.1777L69.1094 48.9773H70.0018C70.0018 48.9773 70.3801 49.0541 70.448 49.1855Z" fill="#212A2D"/>
<path d="M70.1327 50.9515C69.9589 51.0055 69.3343 50.9901 69.0654 50.9807C69.0752 50.9403 69.0865 50.9208 69.0865 50.9208L69.1945 50.7356H70.4482C70.4482 50.7356 70.3554 50.8818 70.1327 50.9515Z" fill="#555E61"/>
<path d="M83.999 56.7326C83.999 56.7326 84.5335 58.4024 84.7468 59.4422C84.9602 60.4818 84.9504 62.0947 84.9504 62.0947H84.7371L84.2721 63.1148L84.4757 63.1725C84.4757 63.1725 84.6311 63.2308 84.6068 63.3041C84.5823 63.3772 84.5144 63.4743 84.1945 63.4842C83.8746 63.4938 82.1588 63.745 81.6745 63.7846C81.1899 63.824 78.7957 63.9601 78.7957 63.9601C78.7957 63.9601 78.631 61.1814 78.2434 60.0738C77.8613 58.9816 77.0126 57.9477 76.1597 57.6768L77.2505 55.3821L82.2832 55.6502C82.2832 55.6502 83.4654 56.2369 83.7095 56.3565C83.9534 56.4763 83.999 56.7326 83.999 56.7326Z" fill="url(#paint49_linear_4701_127875)"/>
<path d="M77.1765 55.5366C78.8022 56.1757 79.5338 58.0588 79.996 59.3788C80.1473 59.8112 80.4986 61.7164 80.5961 63.8547C79.7658 63.905 78.7957 63.9599 78.7957 63.9599C78.7957 63.9599 78.631 61.1812 78.2434 60.0736C77.8613 58.9814 77.0126 57.9475 76.1597 57.6765L77.1765 55.5366Z" fill="url(#paint50_linear_4701_127875)"/>
<path opacity="0.2" d="M76.1592 57.6767L76.4108 57.1475C77.3762 57.4953 78.3418 58.5953 78.7918 59.8806C79.0603 60.6475 79.2248 62.8335 79.3081 63.9306C79.0037 63.948 78.7953 63.9598 78.7953 63.9598C78.7953 63.9598 78.6305 61.1812 78.243 60.0735C77.8608 58.9817 77.0121 57.9476 76.1592 57.6767Z" fill="#555E61"/>
<path d="M6.31069 62.3125L5.99889 58.2481L6.25133 57.3101H6.54835L18.4779 57.3367L19.6058 58.6204C19.5906 58.6301 19.5744 58.6399 19.5594 58.6498C17.8569 59.8111 17.5546 61.3446 17.3761 63.6971H8.21193L8.06342 63.3911L5.92453 63.1722L5.79102 62.3123H6.31069V62.3125Z" fill="url(#paint51_linear_4701_127875)"/>
<path d="M18.4795 57.3385C17.7696 57.9522 17.3318 58.6376 17.02 59.3659C16.9157 59.6096 16.6275 59.6096 16.5254 59.6096C16.4233 59.6096 8.74707 59.5166 8.74707 59.5166L16.5346 59.4421C16.5346 59.4421 16.8038 59.4315 16.9331 59.2217C17.0569 59.0209 17.4329 58.1724 18.3592 57.3367L18.4779 57.3371L18.4795 57.3385Z" fill="url(#paint52_linear_4701_127875)"/>
<path d="M60.8723 52.018C60.7457 51.7059 60.4876 51.7564 60.4876 51.7564H59.8291C59.8291 51.7564 59.5714 51.7059 59.4448 52.018C59.3177 52.3302 59.3131 52.6464 59.3082 53.0978C59.3034 53.5489 59.4543 54.1563 59.4983 54.2615C59.5422 54.3669 59.6247 54.4937 59.8293 54.4977H60.4878C60.6922 54.4937 60.7751 54.3669 60.819 54.2615C60.863 54.1561 61.0137 53.5489 61.0087 53.0978C61.0038 52.6464 60.9994 52.33 60.8723 52.018Z" fill="url(#paint53_linear_4701_127875)"/>
<path d="M60.4 51.8284H59.8931V54.1166H60.4V51.8284Z" fill="#212A2D"/>
<path d="M60.3515 54.0635H59.9414V54.4047H60.3515V54.0635Z" fill="#555E61"/>
<path d="M60.9016 52.9542C60.887 52.6592 60.8284 52.2126 60.6825 52.1297C60.5361 52.0469 60.3513 52.0552 60.3513 52.0552H59.9655C59.9655 52.0552 59.7805 52.0467 59.6341 52.1297C59.488 52.2126 59.4298 52.6592 59.4153 52.9542C59.4005 53.2495 59.486 53.648 59.5686 53.8651C59.6513 54.0822 59.9655 54.0633 59.9655 54.0633H60.3513C60.3513 54.0633 60.6655 54.0824 60.7484 53.8651C60.831 53.648 60.9163 53.2495 60.9016 52.9542Z" fill="url(#paint54_linear_4701_127875)"/>
<path d="M59.9657 53.9584L59.9466 53.9588C59.8818 53.9588 59.7274 53.9466 59.6836 53.8321C59.6004 53.6144 59.523 53.2281 59.5361 52.9586C59.5586 52.5029 59.6462 52.2507 59.7009 52.2171C59.7975 52.1625 59.9266 52.1597 59.9509 52.1597L60.3516 52.1599L60.3664 52.1597C60.3913 52.1597 60.52 52.1625 60.6166 52.2171C60.6711 52.2507 60.7584 52.5027 60.7809 52.9586C60.7945 53.2281 60.7167 53.6144 60.6336 53.8321C60.5901 53.9466 60.4351 53.9588 60.3707 53.9588L59.9657 53.9584Z" fill="#212A2D"/>
<path d="M60.3515 51.8704H59.9414V54.0747H60.3515V51.8704Z" fill="url(#paint55_linear_4701_127875)"/>
<path d="M60.0002 51.8704H59.9414V54.0747H60.0002V51.8704Z" fill="#222B2E"/>
<path d="M8.09204 63.451L8.06327 63.3913L8.0341 63.3884L8.03369 57.3135H8.09164L8.09204 63.451Z" fill="#758286"/>
<path d="M7.59743 63.3438L5.92453 63.1724L5.79102 62.3125H6.31069L5.99889 58.2481L6.25133 57.3101H6.54835L7.55063 57.3125L7.27772 58.3442L7.59743 63.3438Z" fill="url(#paint56_linear_4701_127875)"/>
<path d="M5.99902 58.2481L7.27786 58.3442L7.55077 57.3125L6.25147 57.3101L5.99902 58.2481Z" fill="url(#paint57_linear_4701_127875)"/>
<path d="M77.1768 55.5375L77.2505 55.3823L82.2832 55.6504C82.2832 55.6504 83.4654 56.2371 83.7095 56.3567C83.7796 56.3911 83.8319 56.437 83.8728 56.4845L78.2443 56.227C77.9387 55.9372 77.5858 55.6983 77.1768 55.5375Z" fill="#565F62"/>
<path opacity="0.42" d="M82.2833 55.6501C82.2833 55.6501 83.4655 56.2368 83.7096 56.3565C83.9537 56.4761 83.9995 56.7324 83.9995 56.7324C83.9995 56.7324 84.534 58.4022 84.7473 59.442C84.8217 59.8045 84.8691 60.2366 84.8989 60.6461C84.8989 60.6461 84.4602 60.5388 84.4132 59.9444C84.3668 59.35 83.4853 56.4842 83.4853 56.4842L82.1216 55.6416L82.2833 55.6501Z" fill="#565F62"/>
<path d="M77.1124 55.7517L77.0786 55.7434L77.1767 55.5366C78.8024 56.1757 79.534 58.0588 79.9961 59.3788C80.0395 59.5025 80.0992 59.7474 80.1645 60.0833C79.1304 56.6536 77.1124 55.7517 77.1124 55.7517Z" fill="#2F383B"/>
<path d="M80.3086 59.9263C80.3086 59.9263 80.4472 60.1759 80.5546 60.2285C80.6625 60.2811 83.3087 60.3268 83.75 60.3479C84.1915 60.369 84.3388 60.2074 84.2966 59.9261C84.2547 59.6452 84.0865 59.041 84.0235 58.9777C83.9601 58.9145 83.9532 58.8865 83.7289 58.8654C83.5049 58.8442 82.2218 58.8442 82.2218 58.8442C82.2218 58.8442 82.8178 58.9848 82.8529 58.9986C82.8877 59.0128 83.0348 60.0833 83.0348 60.0833C83.0348 60.0833 82.9931 60.1369 82.9019 60.1369C82.8107 60.1369 81.0445 60.093 80.8763 60.0833C80.7079 60.0739 80.3716 59.9897 80.3086 59.9263Z" fill="url(#paint58_linear_4701_127875)"/>
<path d="M83.2525 60.1579C83.0351 60.1579 82.9433 60.1327 82.9433 60.1327L82.9425 60.1313C83.0043 60.1187 83.0351 60.0833 83.0351 60.0833C83.0351 60.0833 82.888 59.0129 82.8531 58.9987C82.8523 58.9985 82.8509 58.998 82.8501 58.9978L82.874 58.9775C82.874 58.9775 83.0914 59.0129 83.1757 59.0129C83.2598 59.0129 83.3576 59.1814 83.3576 59.2868C83.3576 59.3922 83.4699 59.9402 83.4699 59.9402C83.4699 59.9402 83.4699 60.1579 83.2525 60.1579Z" fill="#222B2E"/>
<path opacity="0.7" d="M83.2525 60.1579C83.0351 60.1579 82.9433 60.1327 82.9433 60.1327L82.9425 60.1313C83.0043 60.1187 83.0351 60.0833 83.0351 60.0833C83.0351 60.0833 82.888 59.0129 82.8531 58.9987C82.8523 58.9985 82.8509 58.998 82.8501 58.9978L82.874 58.9775C82.874 58.9775 83.0914 59.0129 83.1757 59.0129C83.2598 59.0129 83.3576 59.1814 83.3576 59.2868C83.3576 59.3922 83.4699 59.9402 83.4699 59.9402C83.4699 59.9402 83.4699 60.1579 83.2525 60.1579Z" fill="url(#paint59_linear_4701_127875)"/>
<path d="M81.6651 61.6865C81.6651 61.6865 82.8394 61.6865 83.0912 61.6865C83.3435 61.6865 83.4697 62.1425 83.4697 62.1425L83.073 63.0669L84.2722 63.1146L84.4758 63.1723C84.4758 63.1723 84.5887 63.2152 84.6063 63.2732C84.5966 63.2737 82.3345 63.3193 82.0403 63.3072C81.7449 63.2948 81.5914 63.2269 81.5545 63.1221C81.5176 63.0176 81.2166 62.3705 81.281 62.0716C81.3458 61.7726 81.6651 61.6865 81.6651 61.6865Z" fill="url(#paint60_linear_4701_127875)"/>
<path opacity="0.2" d="M84.6834 62.2132L83.47 62.1423L83.0977 63.0676L84.2726 63.1145L84.6834 62.2132Z" fill="black"/>
<path d="M81.5495 63.1091C81.5382 63.0795 81.5161 63.0275 81.4888 62.9591L83.1292 62.9353V62.9355L83.0731 63.0669L83.0974 63.0677L81.5495 63.1091Z" fill="#3D4649"/>
<path d="M60.3627 62.2757C60.1329 61.3748 59.0535 55.9904 59.0425 55.9345L58.9682 55.2207L58.804 54.5538C58.8002 54.5113 58.3905 50.2954 58.331 49.2459C58.2712 48.1947 58.1841 42.9971 58.1841 42.6264C58.1841 42.3537 58.1841 42.1179 58.6624 42.1179C58.7133 42.1179 58.7704 42.1206 58.8318 42.1256C59.0105 42.1407 59.3655 42.1539 59.815 42.1707C60.9063 42.212 62.5546 42.2743 63.3701 42.428C63.4666 42.4461 63.5622 42.4638 63.6572 42.481C64.6992 42.6723 65.6835 42.8529 66.5463 43.623C67.4743 44.4508 71.7547 48.7408 71.7978 48.784L71.8025 48.7891V57.0127L71.7863 57.0135C71.2498 57.0367 70.88 57.0767 70.6556 57.136C70.0449 57.2966 68.9261 57.7548 68.2914 59.0164C67.7522 60.0879 67.4844 62.3915 67.4153 63.0722L67.4135 63.0879L61.5007 63.0877C61.4989 63.0879 61.464 63.0924 61.4063 63.0924C61.1555 63.0924 60.5507 63.0127 60.3627 62.2757ZM68.2604 59.0008C68.901 57.727 70.0305 57.2644 70.6468 57.1021C70.8717 57.0428 71.2382 57.0028 71.7679 56.9792V48.8038C71.5971 48.6323 67.4358 44.4634 66.5233 43.6492C65.6673 42.8858 64.6879 42.7061 63.6509 42.5156C63.5555 42.4983 63.4597 42.4806 63.3638 42.4626C62.5506 42.3092 60.9036 42.2471 59.8136 42.2059C59.3634 42.189 59.0081 42.1756 58.8286 42.1606C58.7684 42.1555 58.7121 42.1531 58.6622 42.1531C58.2193 42.1531 58.2193 42.3517 58.2193 42.6264C58.2193 42.9967 58.3058 48.1929 58.3654 49.244C58.425 50.2928 58.8346 54.5079 58.8383 54.5479L59.0022 55.2148L59.0768 55.9297C59.0879 55.9839 60.1668 61.3673 60.3965 62.2674C60.5785 62.9805 61.1634 63.0576 61.4065 63.0576C61.4618 63.0576 61.496 63.0532 61.4987 63.0532H67.3821C67.4544 62.3517 67.7229 60.0694 68.2604 59.0008Z" fill="#414E52"/>
<path opacity="0.4" d="M75.8548 50.8752C75.8548 50.8752 75.6403 51.4528 76.0473 52.2069C76.4546 52.9609 78.1232 53.9555 78.6216 54.282C79.12 54.6084 80.0753 54.8312 81.5855 54.7794C81.5855 54.7794 81.0304 53.8738 80.4898 53.2802C79.9493 52.6864 79.4233 52.1967 79.231 52.1447C79.0386 52.0928 77.9058 51.7883 77.4319 51.6252C76.958 51.4618 75.9324 50.9532 75.8548 50.8752Z" fill="black"/>
<path d="M75.889 50.9695C75.8978 50.952 75.9067 50.9345 75.9162 50.9175C76.1571 51.0639 77.0113 51.48 77.4323 51.625C77.906 51.7883 79.0389 52.0927 79.2314 52.1445C79.4237 52.1965 79.9496 52.6862 80.4902 53.28C80.9529 53.7887 81.4262 54.5247 81.5522 54.7252C81.4284 54.7272 81.2459 54.7282 81.1598 54.7282C79.713 54.7282 78.9986 54.4589 78.6536 54.2331C78.5936 54.1937 78.5164 54.1443 78.4265 54.0873C77.7848 53.6786 76.4497 52.8289 76.0987 52.1793C75.792 51.6116 75.8501 51.1441 75.889 50.9695Z" fill="url(#paint61_linear_4701_127875)"/>
<path d="M77.1324 52.3105H78.6918L78.8336 53.0687L79.2524 54.4113H79C78.8565 54.3526 78.7423 54.2919 78.6533 54.2336C78.5934 54.1942 78.5162 54.1448 78.4262 54.0878C78.0708 53.8617 77.504 53.5002 77.0088 53.1125L77.1324 52.3105Z" fill="url(#paint62_linear_4701_127875)"/>
<path d="M76.373 52.5442L76.448 52.0576H77.7015L77.8154 52.6671L78.1521 53.7461H77.8978C77.3822 53.4043 76.7586 52.9599 76.373 52.5442Z" fill="url(#paint63_linear_4701_127875)"/>
<path d="M78.7633 53.4296C78.9338 54.009 79.1788 54.4471 79.3101 54.4083C79.4414 54.3691 79.4094 53.8681 79.2386 53.2887C79.068 52.7095 78.823 52.2712 78.6917 52.31C78.5604 52.3494 78.5923 52.8506 78.7633 53.4296Z" fill="white"/>
<path d="M77.7591 52.9575C77.8963 53.4232 78.0934 53.7753 78.1986 53.744C78.3042 53.7128 78.2784 53.3098 78.1417 52.8442C78.0041 52.3785 77.8074 52.0263 77.7018 52.0576C77.5961 52.0889 77.622 52.4918 77.7591 52.9575Z" fill="white"/>
<path d="M75.8887 51.5996H76.5793L76.6569 52.0135L76.8861 52.7469H76.5775C76.3674 52.5515 76.1956 52.3579 76.0988 52.1794C75.9849 51.969 75.9219 51.7726 75.8887 51.5996Z" fill="url(#paint64_linear_4701_127875)"/>
<path d="M76.6183 52.2106C76.7117 52.527 76.8454 52.7664 76.9171 52.7453C76.9888 52.724 76.9712 52.4502 76.8782 52.1338C76.7848 51.8174 76.6511 51.5781 76.5792 51.5995C76.5078 51.6204 76.5249 51.8943 76.6183 52.2106Z" fill="white"/>
<path opacity="0.7" d="M75.889 50.9695C75.8978 50.952 75.9067 50.9345 75.9162 50.9175C76.1571 51.0639 77.0113 51.48 77.4323 51.625C77.906 51.7883 79.0389 52.0927 79.2314 52.1445C79.4237 52.1965 79.9496 52.6862 80.4902 53.28C80.9529 53.7887 81.4262 54.5247 81.5522 54.7252C81.4284 54.7272 81.2459 54.7282 81.1598 54.7282C79.713 54.7282 78.9986 54.4589 78.6536 54.2331C78.5936 54.1937 78.5164 54.1443 78.4265 54.0873C77.7848 53.6786 76.4497 52.8289 76.0987 52.1793C75.792 51.6116 75.8501 51.1441 75.889 50.9695Z" fill="url(#paint65_linear_4701_127875)"/>
<path opacity="0.9" d="M78.1571 52.9008C77.1002 52.4315 76.309 51.7077 75.8584 51.2227C75.8618 51.1124 75.8764 51.0255 75.8888 50.9692C75.8975 50.9518 75.9064 50.9343 75.9159 50.9172C76.1568 51.0637 77.011 51.4798 77.432 51.6248C77.9057 51.7881 79.0387 52.0925 79.2311 52.1443C79.4234 52.1963 79.9494 52.6859 80.4899 53.2797C80.5298 53.3238 80.57 53.3701 80.6101 53.417C80.0484 53.427 79.1621 53.347 78.1571 52.9008Z" fill="white"/>
<path opacity="0.4" d="M6.54869 57.3101C6.54829 57.3054 6.37061 54.3913 6.37061 52.9632C6.37061 51.5956 6.4792 49.793 6.48872 49.6399L7.59778 50.8434C7.59778 50.8434 8.10044 51.5426 8.09274 52.1206C8.08544 52.6988 8.09213 57.3137 8.09213 57.3137L6.54869 57.3101Z" fill="black"/>
<path d="M6.54505 57.245C6.51871 56.8098 6.37061 54.2675 6.37061 52.9633C6.37061 51.742 6.45732 50.1751 6.48224 49.7444L7.54429 50.8823C7.54935 50.8892 8.03378 51.5699 8.02689 52.1199C8.0198 52.654 8.02507 56.679 8.02649 57.2476L6.54505 57.245Z" fill="#B01120"/>
<path d="M7.35931 52.2157C7.34148 52.4347 7.36012 55.7395 7.36012 55.7395C7.36012 55.7395 7.32345 55.9775 7.10484 55.9954C6.99584 56.0043 6.72334 56.0043 6.47596 56.0021C6.42673 55.0409 6.37061 53.7669 6.37061 52.9631C6.37061 52.6467 6.37628 52.3071 6.3854 51.9702H6.99523C6.99523 51.9702 7.37755 51.9966 7.35931 52.2157Z" fill="#E3E3E4"/>
<path d="M7.64192 57.2469L7.60059 50.9661C7.72823 51.1647 8.03254 51.6832 8.02686 52.1198C8.01977 52.6539 8.02504 56.6789 8.02646 57.2475L7.64192 57.2469Z" fill="#CA2A3A"/>
<path opacity="0.5" d="M6.54869 57.3101C6.54829 57.3054 6.37061 54.3913 6.37061 52.9632C6.37061 51.5956 6.4792 49.793 6.48872 49.6399L7.59778 50.8434C7.59778 50.8434 8.10044 51.5426 8.09274 52.1206C8.08544 52.6988 8.09213 57.3137 8.09213 57.3137L6.54869 57.3101Z" fill="url(#paint66_linear_4701_127875)"/>
<path d="M6.37891 53.5972H7.23146V54.5643H6.41011C6.39694 54.23 6.386 53.9002 6.37891 53.5972Z" fill="#C9C9CA"/>
<g opacity="0.49">
<path d="M87.4689 67.7638C87.4689 67.8375 80.007 67.8974 46.21 67.8974C12.1238 67.8974 4.95117 67.8377 4.95117 67.7638C4.95117 67.6898 14.4652 67.6301 46.21 67.6301C80.2065 67.6303 87.4689 67.69 87.4689 67.7638Z" fill="white"/>
<path d="M46.2044 67.8944C68.8412 67.8944 87.1919 67.8361 87.1919 67.7642C87.1919 67.6923 68.8412 67.634 46.2044 67.634C23.5676 67.634 5.2168 67.6923 5.2168 67.7642C5.2168 67.8361 23.5676 67.8944 46.2044 67.8944Z" fill="#EFEFEF"/>
<path d="M86.9151 67.7644C86.9151 67.8343 79.5512 67.8911 46.199 67.8911C12.5611 67.8911 5.48291 67.8345 5.48291 67.7644C5.48291 67.6944 14.8718 67.6377 46.199 67.6377C79.7484 67.6379 86.9151 67.6946 86.9151 67.7644Z" fill="#DFDFDF"/>
<path d="M46.1933 67.8879C68.5304 67.8879 86.6381 67.8327 86.6381 67.7646C86.6381 67.6965 68.5304 67.6414 46.1933 67.6414C23.8563 67.6414 5.74854 67.6965 5.74854 67.7646C5.74854 67.8327 23.8563 67.8879 46.1933 67.8879Z" fill="#CFCFCF"/>
<path d="M86.3612 67.7651C86.3612 67.8313 79.0956 67.8849 46.1877 67.8849C12.9981 67.8849 6.01416 67.8313 6.01416 67.7651C6.01416 67.6989 15.2778 67.6453 46.1877 67.6453C79.2899 67.6453 86.3612 67.6991 86.3612 67.7651Z" fill="#BFBFBF"/>
<path d="M46.1818 67.8819C68.2191 67.8819 86.0838 67.8298 86.0838 67.7655C86.0838 67.7013 68.2191 67.6492 46.1818 67.6492C24.1445 67.6492 6.27979 67.7013 6.27979 67.7655C6.27979 67.8298 24.1445 67.8819 46.1818 67.8819Z" fill="#AFAFAF"/>
<path d="M46.1761 67.8787C68.0636 67.8787 85.8069 67.8281 85.8069 67.7657C85.8069 67.7034 68.0636 67.6528 46.1761 67.6528C24.2887 67.6528 6.54541 67.7034 6.54541 67.7657C6.54541 67.8281 24.2887 67.8787 46.1761 67.8787Z" fill="#9F9F9F"/>
<path d="M85.5304 67.766C85.5304 67.8263 78.4119 67.8754 46.171 67.8754C13.6539 67.8754 6.81152 67.8265 6.81152 67.766C6.81152 67.7054 15.8876 67.6565 46.171 67.6565C78.6024 67.6565 85.5304 67.7054 85.5304 67.766Z" fill="#8F8F8F"/>
<path d="M85.2534 67.7662C85.2534 67.8247 78.184 67.8722 46.1653 67.8722C13.8725 67.8722 7.07715 67.8247 7.07715 67.7662C7.07715 67.7077 16.0906 67.6602 46.1653 67.6602C78.3732 67.6602 85.2534 67.7077 85.2534 67.7662Z" fill="#808080"/>
<path d="M84.9763 67.7664C84.9763 67.823 77.9561 67.8689 46.1594 67.8689C14.0907 67.8689 7.34277 67.823 7.34277 67.7664C7.34277 67.7097 16.2936 67.6638 46.1594 67.6638C78.1439 67.664 84.9763 67.7099 84.9763 67.7664Z" fill="#707070"/>
<path d="M46.1538 67.8659C67.4418 67.8659 84.6992 67.8216 84.6992 67.7668C84.6992 67.7121 67.4418 67.6677 46.1538 67.6677C24.8658 67.6677 7.6084 67.7121 7.6084 67.7668C7.6084 67.8216 24.8658 67.8659 46.1538 67.8659Z" fill="#606060"/>
<path d="M84.4227 67.767C84.4227 67.8198 77.5005 67.8627 46.1486 67.8627C14.5282 67.8627 7.87451 67.8198 7.87451 67.767C7.87451 67.7142 16.7003 67.6714 46.1486 67.6714C77.6857 67.6716 84.4227 67.7142 84.4227 67.767Z" fill="#505050"/>
<path d="M46.1429 67.8597C67.1313 67.8597 84.1457 67.8184 84.1457 67.7675C84.1457 67.7166 67.1313 67.6753 46.1429 67.6753C25.1546 67.6753 8.14014 67.7166 8.14014 67.7675C8.14014 67.8184 25.1546 67.8597 46.1429 67.8597Z" fill="#404040"/>
<path d="M46.1371 67.8565C66.9755 67.8565 83.8684 67.8167 83.8684 67.7677C83.8684 67.7187 66.9755 67.679 46.1371 67.679C25.2986 67.679 8.40576 67.7187 8.40576 67.7677C8.40576 67.8167 25.2986 67.8565 46.1371 67.8565Z" fill="#303030"/>
<path d="M46.1314 67.8532C66.82 67.8532 83.5914 67.815 83.5914 67.7679C83.5914 67.7208 66.82 67.6826 46.1314 67.6826C25.4428 67.6826 8.67139 67.7208 8.67139 67.7679C8.67139 67.815 25.4428 67.8532 46.1314 67.8532Z" fill="#202020"/>
<path d="M83.3143 67.7684C83.3143 67.8137 76.5885 67.8502 46.1256 67.8502C15.4019 67.8502 8.93701 67.8137 8.93701 67.7684C8.93701 67.7231 17.5124 67.6865 46.1256 67.6865C76.7684 67.6865 83.3143 67.7233 83.3143 67.7684Z" fill="#101010"/>
<path d="M83.0373 67.7686C83.0373 67.8118 76.3605 67.847 46.1199 67.847C15.6205 67.847 9.20264 67.8118 9.20264 67.7686C9.20264 67.7253 17.7154 67.6902 46.1199 67.6902C76.5392 67.6902 83.0373 67.7251 83.0373 67.7686Z" fill="black"/>
</g>
<defs>
<linearGradient id="paint0_linear_4701_127875" x1="73.9375" y1="57.4575" x2="87.9987" y2="33.1608" gradientUnits="userSpaceOnUse">
<stop stop-color="#FF8B00"/>
<stop offset="0.5313" stop-color="#FFC900"/>
<stop offset="0.666" stop-color="#FFC900"/>
<stop offset="0.7602" stop-color="#FFC900"/>
<stop offset="0.8419" stop-color="#FFB702"/>
<stop offset="0.9166" stop-color="#FF8B00"/>
<stop offset="0.9859" stop-color="#FF9500"/>
<stop offset="1" stop-color="#D65702"/>
</linearGradient>
<linearGradient id="paint1_linear_4701_127875" x1="82.2901" y1="75.2358" x2="82.2901" y2="16.2679" gradientUnits="userSpaceOnUse">
<stop stop-color="#D65702"/>
<stop offset="1" stop-color="#FFC900"/>
</linearGradient>
<linearGradient id="paint2_linear_4701_127875" x1="82.2901" y1="65.8539" x2="82.2901" y2="43.3682" gradientUnits="userSpaceOnUse">
<stop stop-color="#D7D1EB"/>
<stop offset="1" stop-color="#F2EFFA"/>
</linearGradient>
<linearGradient id="paint3_linear_4701_127875" x1="22.4374" y1="58.1207" x2="22.4374" y2="68.0311" gradientUnits="userSpaceOnUse">
<stop stop-color="#555E61"/>
<stop offset="1" stop-color="#222B2E"/>
</linearGradient>
<linearGradient id="paint4_linear_4701_127875" x1="22.4377" y1="67.1095" x2="22.4377" y2="59.5898" gradientUnits="userSpaceOnUse">
<stop stop-color="#555E61"/>
<stop offset="1" stop-color="#222B2E"/>
</linearGradient>
<linearGradient id="paint5_linear_4701_127875" x1="22.4375" y1="58.6925" x2="22.4375" y2="68.727" gradientUnits="userSpaceOnUse">
<stop stop-color="#F9FCFF"/>
<stop offset="1" stop-color="#76797A"/>
</linearGradient>
<linearGradient id="paint6_linear_4701_127875" x1="22.4376" y1="60.9905" x2="22.4376" y2="65.4436" gradientUnits="userSpaceOnUse">
<stop stop-color="#F9FCFF"/>
<stop offset="1" stop-color="#76797A"/>
</linearGradient>
<linearGradient id="paint7_linear_4701_127875" x1="22.4378" y1="60.8131" x2="22.4378" y2="67.2144" gradientUnits="userSpaceOnUse">
<stop stop-color="#F9FCFF"/>
<stop offset="1" stop-color="#76797A"/>
</linearGradient>
<linearGradient id="paint8_linear_4701_127875" x1="22.4373" y1="64.4374" x2="22.4373" y2="61.7714" gradientUnits="userSpaceOnUse">
<stop stop-color="#F9FCFF"/>
<stop offset="1" stop-color="#76797A"/>
</linearGradient>
<linearGradient id="paint9_linear_4701_127875" x1="22.4375" y1="61.5091" x2="22.4375" y2="66.5814" gradientUnits="userSpaceOnUse">
<stop stop-color="#F9FCFF"/>
<stop offset="1" stop-color="#76797A"/>
</linearGradient>
<linearGradient id="paint10_linear_4701_127875" x1="22.4376" y1="63.715" x2="22.4376" y2="62.4151" gradientUnits="userSpaceOnUse">
<stop stop-color="#EFF2F5"/>
<stop offset="1" stop-color="#A6A9AB"/>
</linearGradient>
<linearGradient id="paint11_linear_4701_127875" x1="21.9873" y1="62.6627" x2="21.9873" y2="62.2361" gradientUnits="userSpaceOnUse">
<stop stop-color="#EFF2F5"/>
<stop offset="1" stop-color="#86898B"/>
</linearGradient>
<linearGradient id="paint12_linear_4701_127875" x1="21.9869" y1="62.3011" x2="21.9869" y2="62.6106" gradientUnits="userSpaceOnUse">
<stop stop-color="#EFF2F5"/>
<stop offset="1" stop-color="#86898B"/>
</linearGradient>
<linearGradient id="paint13_linear_4701_127875" x1="22.9703" y1="62.6627" x2="22.9703" y2="62.2361" gradientUnits="userSpaceOnUse">
<stop stop-color="#EFF2F5"/>
<stop offset="1" stop-color="#86898B"/>
</linearGradient>
<linearGradient id="paint14_linear_4701_127875" x1="22.97" y1="62.3011" x2="22.97" y2="62.6106" gradientUnits="userSpaceOnUse">
<stop stop-color="#EFF2F5"/>
<stop offset="1" stop-color="#86898B"/>
</linearGradient>
<linearGradient id="paint15_linear_4701_127875" x1="22.4375" y1="64.2089" x2="22.4375" y2="63.7827" gradientUnits="userSpaceOnUse">
<stop stop-color="#EFF2F5"/>
<stop offset="1" stop-color="#86898B"/>
</linearGradient>
<linearGradient id="paint16_linear_4701_127875" x1="22.4371" y1="63.8475" x2="22.4371" y2="64.1569" gradientUnits="userSpaceOnUse">
<stop stop-color="#EFF2F5"/>
<stop offset="1" stop-color="#86898B"/>
</linearGradient>
<linearGradient id="paint17_linear_4701_127875" x1="23.274" y1="63.5993" x2="23.274" y2="63.1728" gradientUnits="userSpaceOnUse">
<stop stop-color="#EFF2F5"/>
<stop offset="1" stop-color="#86898B"/>
</linearGradient>
<linearGradient id="paint18_linear_4701_127875" x1="23.2737" y1="63.2377" x2="23.2737" y2="63.5472" gradientUnits="userSpaceOnUse">
<stop stop-color="#EFF2F5"/>
<stop offset="1" stop-color="#86898B"/>
</linearGradient>
<linearGradient id="paint19_linear_4701_127875" x1="21.6692" y1="63.5993" x2="21.6692" y2="63.1728" gradientUnits="userSpaceOnUse">
<stop stop-color="#EFF2F5"/>
<stop offset="1" stop-color="#86898B"/>
</linearGradient>
<linearGradient id="paint20_linear_4701_127875" x1="21.6692" y1="63.2377" x2="21.6692" y2="63.5472" gradientUnits="userSpaceOnUse">
<stop stop-color="#EFF2F5"/>
<stop offset="1" stop-color="#86898B"/>
</linearGradient>
<linearGradient id="paint21_linear_4701_127875" x1="72.9755" y1="58.1207" x2="72.9755" y2="68.0311" gradientUnits="userSpaceOnUse">
<stop stop-color="#555E61"/>
<stop offset="1" stop-color="#222B2E"/>
</linearGradient>
<linearGradient id="paint22_linear_4701_127875" x1="72.9753" y1="67.1095" x2="72.9753" y2="59.5898" gradientUnits="userSpaceOnUse">
<stop stop-color="#555E61"/>
<stop offset="1" stop-color="#222B2E"/>
</linearGradient>
<linearGradient id="paint23_linear_4701_127875" x1="72.975" y1="58.6925" x2="72.975" y2="68.727" gradientUnits="userSpaceOnUse">
<stop stop-color="#F9FCFF"/>
<stop offset="1" stop-color="#76797A"/>
</linearGradient>
<linearGradient id="paint24_linear_4701_127875" x1="72.9756" y1="60.9905" x2="72.9756" y2="65.4436" gradientUnits="userSpaceOnUse">
<stop stop-color="#F9FCFF"/>
<stop offset="1" stop-color="#76797A"/>
</linearGradient>
<linearGradient id="paint25_linear_4701_127875" x1="72.9755" y1="60.8131" x2="72.9755" y2="67.2144" gradientUnits="userSpaceOnUse">
<stop stop-color="#F9FCFF"/>
<stop offset="1" stop-color="#76797A"/>
</linearGradient>
<linearGradient id="paint26_linear_4701_127875" x1="72.9752" y1="64.4374" x2="72.9752" y2="61.7714" gradientUnits="userSpaceOnUse">
<stop stop-color="#F9FCFF"/>
<stop offset="1" stop-color="#76797A"/>
</linearGradient>
<linearGradient id="paint27_linear_4701_127875" x1="72.9756" y1="61.5091" x2="72.9756" y2="66.5814" gradientUnits="userSpaceOnUse">
<stop stop-color="#F9FCFF"/>
<stop offset="1" stop-color="#76797A"/>
</linearGradient>
<linearGradient id="paint28_linear_4701_127875" x1="72.9756" y1="63.715" x2="72.9756" y2="62.4151" gradientUnits="userSpaceOnUse">
<stop stop-color="#EFF2F5"/>
<stop offset="1" stop-color="#A6A9AB"/>
</linearGradient>
<linearGradient id="paint29_linear_4701_127875" x1="72.525" y1="62.6627" x2="72.525" y2="62.2361" gradientUnits="userSpaceOnUse">
<stop stop-color="#EFF2F5"/>
<stop offset="1" stop-color="#86898B"/>
</linearGradient>
<linearGradient id="paint30_linear_4701_127875" x1="72.5246" y1="62.3011" x2="72.5246" y2="62.6106" gradientUnits="userSpaceOnUse">
<stop stop-color="#EFF2F5"/>
<stop offset="1" stop-color="#86898B"/>
</linearGradient>
<linearGradient id="paint31_linear_4701_127875" x1="73.508" y1="62.6627" x2="73.508" y2="62.2361" gradientUnits="userSpaceOnUse">
<stop stop-color="#EFF2F5"/>
<stop offset="1" stop-color="#86898B"/>
</linearGradient>
<linearGradient id="paint32_linear_4701_127875" x1="73.5078" y1="62.3011" x2="73.5078" y2="62.6106" gradientUnits="userSpaceOnUse">
<stop stop-color="#EFF2F5"/>
<stop offset="1" stop-color="#86898B"/>
</linearGradient>
<linearGradient id="paint33_linear_4701_127875" x1="72.9751" y1="64.2089" x2="72.9751" y2="63.7827" gradientUnits="userSpaceOnUse">
<stop stop-color="#EFF2F5"/>
<stop offset="1" stop-color="#86898B"/>
</linearGradient>
<linearGradient id="paint34_linear_4701_127875" x1="72.9747" y1="63.8475" x2="72.9747" y2="64.1569" gradientUnits="userSpaceOnUse">
<stop stop-color="#EFF2F5"/>
<stop offset="1" stop-color="#86898B"/>
</linearGradient>
<linearGradient id="paint35_linear_4701_127875" x1="73.8113" y1="63.5993" x2="73.8113" y2="63.1728" gradientUnits="userSpaceOnUse">
<stop stop-color="#EFF2F5"/>
<stop offset="1" stop-color="#86898B"/>
</linearGradient>
<linearGradient id="paint36_linear_4701_127875" x1="73.8112" y1="63.2377" x2="73.8112" y2="63.5472" gradientUnits="userSpaceOnUse">
<stop stop-color="#EFF2F5"/>
<stop offset="1" stop-color="#86898B"/>
</linearGradient>
<linearGradient id="paint37_linear_4701_127875" x1="72.2069" y1="63.5993" x2="72.2069" y2="63.1728" gradientUnits="userSpaceOnUse">
<stop stop-color="#EFF2F5"/>
<stop offset="1" stop-color="#86898B"/>
</linearGradient>
<linearGradient id="paint38_linear_4701_127875" x1="72.2068" y1="63.2377" x2="72.2068" y2="63.5472" gradientUnits="userSpaceOnUse">
<stop stop-color="#EFF2F5"/>
<stop offset="1" stop-color="#86898B"/>
</linearGradient>
<linearGradient id="paint39_linear_4701_127875" x1="13.8486" y1="40.6918" x2="13.2037" y2="41.6568" gradientUnits="userSpaceOnUse">
<stop stop-color="white"/>
<stop offset="1"/>
</linearGradient>
<radialGradient id="paint40_angular_4701_127875" cx="0" cy="0" r="1" gradientUnits="userSpaceOnUse" gradientTransform="translate(80.2558 53.2612) scale(2.38603 2.39171)">
<stop stop-color="white"/>
<stop offset="1"/>
</radialGradient>
<linearGradient id="paint41_linear_4701_127875" x1="48.5167" y1="39.8937" x2="48.5167" y2="66.4678" gradientUnits="userSpaceOnUse">
<stop stop-color="white"/>
<stop offset="1"/>
</linearGradient>
<linearGradient id="paint42_linear_4701_127875" x1="33.312" y1="49.4523" x2="33.312" y2="42.8331" gradientUnits="userSpaceOnUse">
<stop stop-color="white"/>
<stop offset="1"/>
</linearGradient>
<linearGradient id="paint43_linear_4701_127875" x1="62.549" y1="59.8455" x2="62.549" y2="62.2497" gradientUnits="userSpaceOnUse">
<stop stop-color="#555E61"/>
<stop offset="1" stop-color="#222B2E"/>
</linearGradient>
<linearGradient id="paint44_linear_4701_127875" x1="58.8587" y1="59.8475" x2="58.8587" y2="62.2495" gradientUnits="userSpaceOnUse">
<stop stop-color="#555E61"/>
<stop offset="1" stop-color="#222B2E"/>
</linearGradient>
<linearGradient id="paint45_linear_4701_127875" x1="48.7538" y1="59.8463" x2="48.7538" y2="62.2495" gradientUnits="userSpaceOnUse">
<stop stop-color="#555E61"/>
<stop offset="1" stop-color="#222B2E"/>
</linearGradient>
<linearGradient id="paint46_linear_4701_127875" x1="34.8772" y1="59.8463" x2="34.8772" y2="62.2495" gradientUnits="userSpaceOnUse">
<stop stop-color="#555E61"/>
<stop offset="1" stop-color="#222B2E"/>
</linearGradient>
<linearGradient id="paint47_linear_4701_127875" x1="70.639" y1="48.1507" x2="70.3169" y2="50.5021" gradientUnits="userSpaceOnUse">
<stop stop-color="#555E61"/>
<stop offset="1" stop-color="#222B2E"/>
</linearGradient>
<linearGradient id="paint48_linear_4701_127875" x1="71.3618" y1="48.4508" x2="71.082" y2="51.8361" gradientUnits="userSpaceOnUse">
<stop stop-color="#555E61"/>
<stop offset="0.201" stop-color="#3F484B"/>
<stop offset="0.4243" stop-color="#2F383B"/>
<stop offset="0.6738" stop-color="#252E31"/>
<stop offset="1" stop-color="#222B2E"/>
</linearGradient>
<linearGradient id="paint49_linear_4701_127875" x1="79.8471" y1="55.5767" x2="82.1463" y2="66.8411" gradientUnits="userSpaceOnUse">
<stop offset="0.1021" stop-color="#3B4447"/>
<stop offset="1" stop-color="#081114"/>
</linearGradient>
<linearGradient id="paint50_linear_4701_127875" x1="76.9926" y1="56.0021" x2="80.3368" y2="63.7692" gradientUnits="userSpaceOnUse">
<stop stop-color="#485154"/>
<stop offset="1" stop-color="#151E21"/>
</linearGradient>
<linearGradient id="paint51_linear_4701_127875" x1="12.6985" y1="57.3247" x2="12.6985" y2="63.7118" gradientUnits="userSpaceOnUse">
<stop stop-color="#555E61"/>
<stop offset="1" stop-color="#222B2E"/>
</linearGradient>
<linearGradient id="paint52_linear_4701_127875" x1="14.2021" y1="57.6016" x2="14.441" y2="57.268" gradientUnits="userSpaceOnUse">
<stop stop-color="#555E61"/>
<stop offset="1" stop-color="#222B2E"/>
</linearGradient>
<linearGradient id="paint53_linear_4701_127875" x1="60.1585" y1="51.719" x2="60.1585" y2="54.2868" gradientUnits="userSpaceOnUse">
<stop stop-color="#555E61"/>
<stop offset="1" stop-color="#222B2E"/>
</linearGradient>
<linearGradient id="paint54_linear_4701_127875" x1="60.1585" y1="53.9606" x2="60.1585" y2="52.0804" gradientUnits="userSpaceOnUse">
<stop stop-color="#555E61"/>
<stop offset="1" stop-color="#222B2E"/>
</linearGradient>
<linearGradient id="paint55_linear_4701_127875" x1="60.1465" y1="51.8887" x2="60.1465" y2="54.0845" gradientUnits="userSpaceOnUse">
<stop stop-color="#555E61"/>
<stop offset="1" stop-color="#222B2E"/>
</linearGradient>
<linearGradient id="paint56_linear_4701_127875" x1="7.56811" y1="60.1886" x2="5.80114" y2="60.5665" gradientUnits="userSpaceOnUse">
<stop stop-color="#3C4548"/>
<stop offset="1" stop-color="#091215"/>
</linearGradient>
<linearGradient id="paint57_linear_4701_127875" x1="7.55083" y1="57.8271" x2="5.99898" y2="57.8271" gradientUnits="userSpaceOnUse">
<stop stop-color="#555E61"/>
<stop offset="1" stop-color="#222B2E"/>
</linearGradient>
<linearGradient id="paint58_linear_4701_127875" x1="82.2933" y1="60.103" x2="82.4387" y2="58.7414" gradientUnits="userSpaceOnUse">
<stop offset="0.0054" stop-color="#2F383B"/>
<stop offset="0.0705" stop-color="#555E61"/>
<stop offset="0.1196" stop-color="#727E82"/>
<stop offset="0.2156" stop-color="#4A5255"/>
<stop offset="0.8019" stop-color="#151A1C"/>
</linearGradient>
<linearGradient id="paint59_linear_4701_127875" x1="83.4698" y1="59.5676" x2="82.8503" y2="59.5676" gradientUnits="userSpaceOnUse">
<stop stop-color="white"/>
<stop offset="1"/>
</linearGradient>
<linearGradient id="paint60_linear_4701_127875" x1="82.9391" y1="64.1009" x2="82.9391" y2="61.7626" gradientUnits="userSpaceOnUse">
<stop stop-color="#3B4447"/>
<stop offset="1" stop-color="#081114"/>
</linearGradient>
<linearGradient id="paint61_linear_4701_127875" x1="78.7451" y1="52.8013" x2="78.2852" y2="53.632" gradientUnits="userSpaceOnUse">
<stop stop-color="#474747"/>
<stop offset="0.004" stop-color="#4C4C4C"/>
<stop offset="0.0255" stop-color="#626262"/>
<stop offset="0.0509" stop-color="#737373"/>
<stop offset="0.0823" stop-color="#7E7E7E"/>
<stop offset="0.1264" stop-color="#858585"/>
<stop offset="0.2488" stop-color="#878787"/>
<stop offset="0.3574" stop-color="#D3D3D3"/>
<stop offset="0.4456" stop-color="#F3F3F3"/>
<stop offset="0.483" stop-color="white"/>
<stop offset="0.5577" stop-color="white"/>
<stop offset="0.7206" stop-color="#D3D3D3"/>
<stop offset="0.7706" stop-color="#BFBFBF"/>
<stop offset="0.8699" stop-color="#878787"/>
</linearGradient>
<linearGradient id="paint62_linear_4701_127875" x1="78.1306" y1="54.3731" x2="78.1306" y2="52.3013" gradientUnits="userSpaceOnUse">
<stop stop-color="#474747"/>
<stop offset="0.004" stop-color="#4C4C4C"/>
<stop offset="0.0255" stop-color="#626262"/>
<stop offset="0.0509" stop-color="#737373"/>
<stop offset="0.0823" stop-color="#7E7E7E"/>
<stop offset="0.1264" stop-color="#858585"/>
<stop offset="0.2488" stop-color="#878787"/>
<stop offset="0.3574" stop-color="#D3D3D3"/>
<stop offset="0.4456" stop-color="#F3F3F3"/>
<stop offset="0.483" stop-color="white"/>
<stop offset="0.5577" stop-color="white"/>
<stop offset="0.7206" stop-color="#D3D3D3"/>
<stop offset="0.7706" stop-color="#BFBFBF"/>
<stop offset="0.8699" stop-color="#878787"/>
</linearGradient>
<linearGradient id="paint63_linear_4701_127875" x1="77.2627" y1="52.1163" x2="77.2627" y2="53.9165" gradientUnits="userSpaceOnUse">
<stop stop-color="#474747"/>
<stop offset="0.004" stop-color="#4C4C4C"/>
<stop offset="0.0255" stop-color="#626262"/>
<stop offset="0.0509" stop-color="#737373"/>
<stop offset="0.0823" stop-color="#7E7E7E"/>
<stop offset="0.1264" stop-color="#858585"/>
<stop offset="0.2488" stop-color="#878787"/>
<stop offset="0.3574" stop-color="#D3D3D3"/>
<stop offset="0.4456" stop-color="#F3F3F3"/>
<stop offset="0.483" stop-color="white"/>
<stop offset="0.5577" stop-color="white"/>
<stop offset="0.7206" stop-color="#D3D3D3"/>
<stop offset="0.7706" stop-color="#BFBFBF"/>
<stop offset="0.8699" stop-color="#878787"/>
</linearGradient>
<linearGradient id="paint64_linear_4701_127875" x1="76.3874" y1="51.5704" x2="76.3874" y2="52.8251" gradientUnits="userSpaceOnUse">
<stop stop-color="#474747"/>
<stop offset="0.004" stop-color="#4C4C4C"/>
<stop offset="0.0255" stop-color="#626262"/>
<stop offset="0.0509" stop-color="#737373"/>
<stop offset="0.0823" stop-color="#7E7E7E"/>
<stop offset="0.1264" stop-color="#858585"/>
<stop offset="0.2488" stop-color="#878787"/>
<stop offset="0.3574" stop-color="#D3D3D3"/>
<stop offset="0.4456" stop-color="#F3F3F3"/>
<stop offset="0.483" stop-color="white"/>
<stop offset="0.5577" stop-color="white"/>
<stop offset="0.7206" stop-color="#D3D3D3"/>
<stop offset="0.7706" stop-color="#BFBFBF"/>
<stop offset="0.8699" stop-color="#878787"/>
</linearGradient>
<linearGradient id="paint65_linear_4701_127875" x1="80.4586" y1="52.8229" x2="76.1859" y2="52.8229" gradientUnits="userSpaceOnUse">
<stop stop-color="white"/>
<stop offset="1"/>
</linearGradient>
<linearGradient id="paint66_linear_4701_127875" x1="8.09272" y1="53.4768" x2="6.37061" y2="53.4768" gradientUnits="userSpaceOnUse">
<stop stop-color="white"/>
<stop offset="1"/>
</linearGradient>
<clipPath id="clip0_4701_127875">
<rect width="36.7073" height="36.7949" fill="white" transform="translate(61.5854 30.0513)"/>
</clipPath>
</defs>
</svg>
