<svg width="105" height="115" viewBox="0 0 105 115" fill="none" xmlns="http://www.w3.org/2000/svg">
<rect width="105" height="115" rx="8" fill="#FFF6EE"/>
<g clip-path="url(#clip0_1663_41140)">
<path d="M92.0552 39.5051C91.8544 36.1252 90.5988 33.7259 88.7226 32.6179L88.7229 32.6166L87.5177 31.9191C87.2887 31.7872 84.0346 29.946 81.0581 30.056C79.3114 30.1206 77.5551 31.0042 76.0916 32.0232C73.7227 33.6726 71.8275 35.9129 70.5202 38.4901C68.8313 41.8194 67.7932 45.6131 67.7932 49.1304C67.7932 51.9326 68.4541 54.1445 69.576 55.6247L73.7852 61.8791C74.5735 63.0504 75.6171 64.0266 76.8372 64.734L79.9106 66.516C80.0132 66.5915 80.1206 66.6536 80.2324 66.7025L80.2361 66.7047L80.2362 66.7041C81.7461 67.3604 84.0322 65.6518 85.1485 62.7007L90.302 49.0764C91.5603 45.9599 92.2387 42.5941 92.0552 39.5051Z" fill="url(#paint0_linear_1663_41140)"/>
<path d="M90.3022 49.0763C91.5604 45.9599 92.2389 42.5941 92.0552 39.505C91.6852 33.2774 87.7392 30.3685 82.9145 32.7607C77.222 35.5832 72.4951 44.3495 72.4951 51.8557C72.4951 54.658 73.1561 56.8698 74.2779 58.35L79.4314 66.0093C80.7733 68.0036 83.8066 66.2481 85.1485 62.7007L90.3022 49.0763Z" fill="url(#paint1_linear_1663_41140)"/>
<path d="M88.5567 42.5661C88.5567 47.1917 85.751 52.5653 82.2901 54.5682C78.8291 56.5712 76.0234 54.445 76.0234 49.8194C76.0234 45.1939 78.8291 39.8203 82.2901 37.8173C85.751 35.8144 88.5567 37.9405 88.5567 42.5661Z" fill="url(#paint2_linear_1663_41140)"/>
</g>
<path d="M19.5596 58.6503C20.6598 57.8999 23.0525 57.8818 24.2911 58.2335C25.6349 58.6153 26.2142 59.3203 26.7338 60.2285C27.1925 61.0304 27.4782 63.357 27.5386 63.8905L17.2986 63.6974H17.3764C17.5549 61.345 17.8572 59.8115 19.5596 58.6503Z" fill="black"/>
<path d="M68.5795 59.1993C69.1608 58.0432 70.2079 57.6545 70.6878 57.5281C71.1674 57.402 72.5147 57.3923 73.3032 57.3923C74.0918 57.3923 75.2582 57.4116 76.1233 57.6642C76.9886 57.9168 77.8553 58.9662 78.2433 60.0738C78.5849 61.0493 78.7533 63.319 78.7883 63.8478L67.6206 63.9071C67.6512 62.3208 68.04 60.2714 68.5795 59.1993Z" fill="black"/>
<path d="M17.8572 63.1725C17.8572 60.6368 19.9081 58.5814 22.4376 58.5814C24.9674 58.5814 27.0179 60.6368 27.0179 63.1725C27.0179 65.7083 24.9674 67.7639 22.4376 67.7639C19.9081 67.7637 17.8572 65.7081 17.8572 63.1725Z" fill="url(#paint3_linear_1663_41140)"/>
<path d="M18.1418 63.1725C18.1418 60.7943 20.0654 58.8664 22.4379 58.8664C24.8103 58.8664 26.7339 60.7943 26.7339 63.1725C26.7339 65.5508 24.8103 67.4787 22.4379 67.4787C20.0654 67.4785 18.1418 65.5508 18.1418 63.1725Z" fill="#3B4447"/>
<path d="M19.2896 63.1725C19.2896 61.4298 20.6991 60.0172 22.4376 60.0172C24.1762 60.0172 25.5857 61.4298 25.5857 63.1725C25.5857 64.9154 24.1762 66.3283 22.4376 66.3283C20.6991 66.3281 19.2896 64.9154 19.2896 63.1725Z" fill="url(#paint4_linear_1663_41140)"/>
<path d="M19.7822 63.1725C19.7822 61.7024 20.9709 60.5104 22.4378 60.5104C23.9046 60.5104 25.0935 61.7024 25.0935 63.1725C25.0935 64.6429 23.9046 65.8348 22.4378 65.8348C20.9711 65.8348 19.7822 64.6429 19.7822 63.1725Z" fill="url(#paint5_linear_1663_41140)"/>
<path d="M20.1501 63.1724C20.1501 61.9062 21.1745 60.8796 22.4377 60.8796C23.7012 60.8796 24.7253 61.9062 24.7253 63.1724C24.7253 64.4389 23.7012 65.4653 22.4377 65.4653C21.1745 65.4653 20.1501 64.4387 20.1501 63.1724Z" fill="url(#paint6_linear_1663_41140)"/>
<path d="M20.8457 63.1725C20.8457 62.2911 21.5585 61.5766 22.4378 61.5766C23.3171 61.5766 24.03 62.2911 24.03 63.1725C24.03 64.0541 23.3171 64.7685 22.4378 64.7685C21.5583 64.7685 20.8457 64.0539 20.8457 63.1725Z" fill="url(#paint7_linear_1663_41140)"/>
<path d="M21.043 63.1726C21.043 62.4005 21.6676 61.7745 22.4377 61.7745C23.2078 61.7745 23.8324 62.4005 23.8324 63.1726C23.8324 63.9447 23.2078 64.5708 22.4377 64.5708C21.6676 64.5706 21.043 63.9447 21.043 63.1726Z" fill="url(#paint8_linear_1663_41140)"/>
<path d="M21.1321 63.1724C21.1321 62.4496 21.7166 61.8637 22.4377 61.8637C23.1585 61.8637 23.7432 62.4496 23.7432 63.1724C23.7432 63.8954 23.1585 64.4813 22.4377 64.4813C21.7166 64.4813 21.1321 63.8952 21.1321 63.1724Z" fill="url(#paint9_linear_1663_41140)"/>
<path d="M22.0483 63.1724C22.0483 62.9571 22.2228 62.7825 22.4375 62.7825C22.6527 62.7825 22.8267 62.9569 22.8267 63.1724C22.8267 63.3879 22.6527 63.5625 22.4375 63.5625C22.2228 63.5625 22.0483 63.3877 22.0483 63.1724Z" fill="url(#paint10_linear_1663_41140)"/>
<path d="M22.2 61.2275C22.2 61.1302 22.3063 61.0512 22.4378 61.0512C22.5693 61.0512 22.6759 61.1302 22.6759 61.2275C22.6759 61.325 22.5693 61.404 22.4378 61.404C22.3063 61.404 22.2 61.325 22.2 61.2275Z" fill="#393B3D"/>
<path d="M22.2 65.1339C22.2 65.0366 22.3063 64.9576 22.4378 64.9576C22.5693 64.9576 22.6759 65.0366 22.6759 65.1339C22.6759 65.2312 22.5693 65.3102 22.4378 65.3102C22.3063 65.3104 22.2 65.2314 22.2 65.1339Z" fill="#393B3D"/>
<path d="M23.3907 61.4603C23.4476 61.3815 23.5801 61.3805 23.6869 61.4579C23.7931 61.5354 23.8328 61.662 23.7756 61.7408C23.7189 61.8196 23.5862 61.8206 23.4798 61.743C23.3733 61.6656 23.3334 61.5389 23.3907 61.4603Z" fill="#393B3D"/>
<path d="M21.0998 64.6206C21.1567 64.5418 21.2892 64.5408 21.3956 64.6184C21.5022 64.696 21.5419 64.8225 21.4852 64.9013C21.428 64.9801 21.2955 64.9811 21.1889 64.9037C21.0826 64.8259 21.0427 64.6994 21.0998 64.6206Z" fill="#393B3D"/>
<path d="M24.2173 62.3504C24.3097 62.3203 24.4172 62.3975 24.458 62.5228C24.4987 62.6483 24.4566 62.774 24.3644 62.8043C24.2718 62.8341 24.1642 62.7571 24.1235 62.6316C24.0827 62.5063 24.1247 62.3804 24.2173 62.3504Z" fill="#393B3D"/>
<path d="M20.5112 63.5579C20.6036 63.5276 20.7114 63.6048 20.7519 63.7301C20.7928 63.8558 20.7507 63.9815 20.6583 64.0118C20.5661 64.0421 20.4583 63.9647 20.4174 63.8394C20.3767 63.7137 20.4188 63.5878 20.5112 63.5579Z" fill="#393B3D"/>
<path d="M24.3644 63.5579C24.4566 63.5878 24.4987 63.7139 24.458 63.8392C24.4172 63.9645 24.3097 64.0416 24.2173 64.0118C24.1247 63.9815 24.0827 63.8556 24.1235 63.7301C24.1642 63.6048 24.2718 63.5276 24.3644 63.5579Z" fill="#393B3D"/>
<path d="M20.6583 62.3504C20.7507 62.3802 20.7928 62.5065 20.7519 62.6316C20.7116 62.7571 20.6036 62.8343 20.511 62.8043C20.4188 62.7742 20.3767 62.6481 20.4174 62.5228C20.4581 62.3975 20.5659 62.3203 20.6583 62.3504Z" fill="#393B3D"/>
<path d="M23.7754 64.621C23.8323 64.6994 23.7926 64.8259 23.6866 64.9037C23.5801 64.9813 23.4473 64.98 23.3904 64.9014C23.3331 64.8224 23.3732 64.6959 23.4796 64.6185C23.5859 64.541 23.7186 64.542 23.7754 64.621Z" fill="#393B3D"/>
<path d="M21.4854 61.4604C21.5421 61.5392 21.5024 61.666 21.3959 61.7433C21.2895 61.8209 21.157 61.8199 21.0997 61.7411C21.0427 61.6623 21.0826 61.5358 21.1892 61.4582C21.2956 61.3806 21.4279 61.3819 21.4854 61.4604Z" fill="#393B3D"/>
<path d="M22.1922 62.4554C22.1922 62.5687 22.1006 62.6603 21.9874 62.6603C21.8741 62.6603 21.783 62.5687 21.783 62.4554C21.783 62.3423 21.8743 62.2501 21.9874 62.2501C22.1006 62.2501 22.1922 62.3423 22.1922 62.4554Z" fill="url(#paint11_linear_1663_41140)"/>
<path d="M22.1587 62.4553C22.1587 62.5501 22.0819 62.6269 21.9873 62.6269C21.8927 62.6269 21.8159 62.5503 21.8159 62.4553C21.8159 62.3607 21.8927 62.2837 21.9873 62.2837C22.0819 62.2837 22.1587 62.3607 22.1587 62.4553Z" fill="#5B686C"/>
<path d="M22.1418 62.4552C22.1418 62.5407 22.0727 62.6099 21.9874 62.6099C21.9023 62.6099 21.833 62.5405 21.833 62.4552C21.833 62.3699 21.9023 62.3004 21.9874 62.3004C22.0727 62.3006 22.1418 62.3699 22.1418 62.4552Z" fill="url(#paint12_linear_1663_41140)"/>
<path d="M23.1751 62.4554C23.1751 62.5687 23.0833 62.6603 22.9703 62.6603C22.8574 62.6603 22.7659 62.5687 22.7659 62.4554C22.7659 62.3423 22.8574 62.2501 22.9703 62.2501C23.0833 62.2501 23.1751 62.3423 23.1751 62.4554Z" fill="url(#paint13_linear_1663_41140)"/>
<path d="M23.1419 62.4553C23.1419 62.5501 23.0653 62.6269 22.9705 62.6269C22.8761 62.6269 22.7993 62.5503 22.7993 62.4553C22.7993 62.3607 22.8761 62.2837 22.9705 62.2837C23.0653 62.2837 23.1419 62.3607 23.1419 62.4553Z" fill="#5B686C"/>
<path d="M23.1247 62.4552C23.1247 62.5407 23.0558 62.6099 22.9703 62.6099C22.8854 62.6099 22.8159 62.5405 22.8159 62.4552C22.8159 62.3699 22.8854 62.3004 22.9703 62.3004C23.0558 62.3006 23.1247 62.3699 23.1247 62.4552Z" fill="url(#paint14_linear_1663_41140)"/>
<path d="M22.6427 64.0018C22.6427 64.1149 22.5509 64.2067 22.4378 64.2067C22.3246 64.2067 22.2334 64.1147 22.2334 64.0018C22.2334 63.8883 22.3248 63.7967 22.4378 63.7967C22.5509 63.7967 22.6427 63.8883 22.6427 64.0018Z" fill="url(#paint15_linear_1663_41140)"/>
<path d="M22.6092 64.002C22.6092 64.0966 22.5324 64.1736 22.4378 64.1736C22.3431 64.1736 22.2664 64.0968 22.2664 64.002C22.2664 63.907 22.3431 63.8302 22.4378 63.8302C22.5324 63.8302 22.6092 63.907 22.6092 64.002Z" fill="#5B686C"/>
<path d="M22.592 64.0018C22.592 64.0871 22.5229 64.1564 22.4378 64.1564C22.3525 64.1564 22.2834 64.0871 22.2834 64.0018C22.2834 63.9161 22.3525 63.847 22.4378 63.847C22.5229 63.8468 22.592 63.9161 22.592 64.0018Z" fill="url(#paint16_linear_1663_41140)"/>
<path d="M23.4788 63.3916C23.4788 63.5051 23.3875 63.5969 23.2744 63.5969C23.1612 63.5969 23.0696 63.5049 23.0696 63.3916C23.0696 63.2785 23.1612 63.1867 23.2744 63.1867C23.3875 63.1865 23.4788 63.2785 23.4788 63.3916Z" fill="url(#paint17_linear_1663_41140)"/>
<path d="M23.4454 63.3915C23.4454 63.4863 23.3688 63.5633 23.2742 63.5633C23.1794 63.5633 23.1028 63.4863 23.1028 63.3915C23.1028 63.2969 23.1794 63.2201 23.2742 63.2201C23.369 63.2201 23.4454 63.2967 23.4454 63.3915Z" fill="#5B686C"/>
<path d="M23.4286 63.3916C23.4286 63.4771 23.3593 63.5466 23.2742 63.5466C23.1887 63.5466 23.1196 63.4771 23.1196 63.3916C23.1196 63.3065 23.1885 63.2371 23.2742 63.2371C23.3595 63.2371 23.4286 63.3063 23.4286 63.3916Z" fill="url(#paint18_linear_1663_41140)"/>
<path d="M21.8739 63.3916C21.8739 63.5051 21.7826 63.5969 21.6695 63.5969C21.5567 63.5969 21.4651 63.5049 21.4651 63.3916C21.4651 63.2785 21.5567 63.1867 21.6695 63.1867C21.7826 63.1865 21.8739 63.2785 21.8739 63.3916Z" fill="url(#paint19_linear_1663_41140)"/>
<path d="M21.8409 63.3915C21.8409 63.4863 21.7641 63.5633 21.6694 63.5633C21.5748 63.5633 21.498 63.4863 21.498 63.3915C21.498 63.2969 21.5748 63.2201 21.6694 63.2201C21.7641 63.2201 21.8409 63.2967 21.8409 63.3915Z" fill="#5B686C"/>
<path d="M21.8237 63.3916C21.8237 63.4771 21.7548 63.5466 21.6693 63.5466C21.5842 63.5466 21.5149 63.4771 21.5149 63.3916C21.5149 63.3065 21.5842 63.2371 21.6693 63.2371C21.7548 63.2371 21.8237 63.3063 21.8237 63.3916Z" fill="url(#paint20_linear_1663_41140)"/>
<path d="M68.3948 63.1725C68.3948 60.6368 70.4453 58.5814 72.9748 58.5814C75.5046 58.5814 77.5555 60.6368 77.5555 63.1725C77.5555 65.7083 75.5046 67.7639 72.9748 67.7639C70.4453 67.7637 68.3948 65.7081 68.3948 63.1725Z" fill="url(#paint21_linear_1663_41140)"/>
<path d="M68.6792 63.1725C68.6792 60.7943 70.6027 58.8664 72.975 58.8664C75.3477 58.8664 77.2712 60.7943 77.2712 63.1725C77.2712 65.5508 75.3477 67.4787 72.975 67.4787C70.6025 67.4785 68.6792 65.5508 68.6792 63.1725Z" fill="#3B4447"/>
<path d="M69.8271 63.1725C69.8271 61.4298 71.2367 60.0172 72.975 60.0172C74.7138 60.0172 76.1233 61.4298 76.1233 63.1725C76.1233 64.9154 74.7138 66.3283 72.975 66.3283C71.2367 66.3281 69.8271 64.9154 69.8271 63.1725Z" fill="url(#paint22_linear_1663_41140)"/>
<path d="M70.3193 63.1725C70.3193 61.7024 71.5082 60.5104 72.9749 60.5104C74.4419 60.5104 75.6306 61.7024 75.6306 63.1725C75.6306 64.6429 74.4419 65.8348 72.9749 65.8348C71.5084 65.8348 70.3193 64.6429 70.3193 63.1725Z" fill="url(#paint23_linear_1663_41140)"/>
<path d="M70.6877 63.1724C70.6877 61.9062 71.7117 60.8796 72.9749 60.8796C74.2384 60.8796 75.2627 61.9062 75.2627 63.1724C75.2627 64.4389 74.2384 65.4653 72.9749 65.4653C71.7117 65.4653 70.6877 64.4387 70.6877 63.1724Z" fill="url(#paint24_linear_1663_41140)"/>
<path d="M71.3828 63.1725C71.3828 62.2911 72.0958 61.5766 72.9749 61.5766C73.8544 61.5766 74.5671 62.2911 74.5671 63.1725C74.5671 64.0541 73.8544 64.7685 72.9749 64.7685C72.0958 64.7685 71.3828 64.0539 71.3828 63.1725Z" fill="url(#paint25_linear_1663_41140)"/>
<path d="M71.5803 63.1726C71.5803 62.4005 72.2047 61.7745 72.9748 61.7745C73.7455 61.7745 74.3696 62.4005 74.3696 63.1726C74.3696 63.9447 73.7455 64.5708 72.9748 64.5708C72.2047 64.5706 71.5803 63.9447 71.5803 63.1726Z" fill="url(#paint26_linear_1663_41140)"/>
<path d="M71.6694 63.1724C71.6694 62.4496 72.2539 61.8637 72.9748 61.8637C73.6963 61.8637 74.2808 62.4496 74.2808 63.1724C74.2808 63.8954 73.6963 64.4813 72.9748 64.4813C72.2539 64.4813 71.6694 63.8952 71.6694 63.1724Z" fill="url(#paint27_linear_1663_41140)"/>
<path d="M72.5862 63.1724C72.5862 62.9571 72.7604 62.7825 72.975 62.7825C73.1899 62.7825 73.3644 62.9569 73.3644 63.1724C73.3644 63.3879 73.1899 63.5625 72.975 63.5625C72.7604 63.5625 72.5862 63.3877 72.5862 63.1724Z" fill="url(#paint28_linear_1663_41140)"/>
<path d="M72.7371 61.2275C72.7371 61.1302 72.8436 61.0512 72.9749 61.0512C73.1066 61.0512 73.213 61.1302 73.213 61.2275C73.213 61.325 73.1066 61.404 72.9749 61.404C72.8436 61.404 72.7371 61.325 72.7371 61.2275Z" fill="#393B3D"/>
<path d="M72.7371 65.1339C72.7371 65.0366 72.8436 64.9576 72.9749 64.9576C73.1066 64.9576 73.213 65.0366 73.213 65.1339C73.213 65.2312 73.1066 65.3102 72.9749 65.3102C72.8436 65.3104 72.7371 65.2314 72.7371 65.1339Z" fill="#393B3D"/>
<path d="M73.9277 61.4603C73.9852 61.3815 74.1173 61.3805 74.2241 61.4579C74.3305 61.5354 74.3704 61.662 74.3134 61.7408C74.2563 61.8196 74.1238 61.8206 74.0172 61.743C73.9107 61.6656 73.871 61.5389 73.9277 61.4603Z" fill="#393B3D"/>
<path d="M71.6372 64.6206C71.6941 64.5418 71.8268 64.5408 71.9334 64.6184C72.0398 64.696 72.0797 64.8225 72.0227 64.9013C71.9658 64.9801 71.8331 64.9811 71.7263 64.9037C71.6202 64.8259 71.5804 64.6994 71.6372 64.6206Z" fill="#393B3D"/>
<path d="M74.755 62.3504C74.8472 62.3203 74.955 62.3975 74.9959 62.5228C75.0362 62.6483 74.9941 62.774 74.9023 62.8043C74.8097 62.8341 74.7015 62.7571 74.6612 62.6316C74.6207 62.5063 74.6626 62.3804 74.755 62.3504Z" fill="#393B3D"/>
<path d="M71.0489 63.5579C71.1409 63.5276 71.249 63.6048 71.2892 63.7301C71.3301 63.8558 71.2881 63.9815 71.1958 64.0118C71.1034 64.0421 70.9958 63.9647 70.9549 63.8394C70.9143 63.7137 70.9565 63.5878 71.0489 63.5579Z" fill="#393B3D"/>
<path d="M74.9024 63.5579C74.9942 63.5878 75.0363 63.7139 74.996 63.8392C74.9551 63.9645 74.8473 64.0416 74.7551 64.0118C74.6625 63.9815 74.6206 63.8556 74.6613 63.7301C74.7016 63.6048 74.8098 63.5276 74.9024 63.5579Z" fill="#393B3D"/>
<path d="M71.1956 62.3504C71.288 62.3802 71.33 62.5065 71.289 62.6316C71.2487 62.7571 71.1407 62.8343 71.0483 62.8043C70.9562 62.7742 70.914 62.6481 70.9547 62.5228C70.9957 62.3975 71.1031 62.3203 71.1956 62.3504Z" fill="#393B3D"/>
<path d="M74.313 64.621C74.3697 64.6994 74.3302 64.8259 74.2239 64.9037C74.1173 64.9813 73.985 64.98 73.9274 64.9014C73.8707 64.8224 73.9104 64.6959 74.017 64.6185C74.1236 64.541 74.2561 64.542 74.313 64.621Z" fill="#393B3D"/>
<path d="M72.0227 61.4604C72.0796 61.5392 72.0397 61.666 71.9333 61.7433C71.8267 61.8209 71.6942 61.8199 71.6371 61.7411C71.58 61.6623 71.6201 61.5358 71.7263 61.4582C71.8328 61.3806 71.9653 61.3819 72.0227 61.4604Z" fill="#393B3D"/>
<path d="M72.7291 62.4554C72.7291 62.5687 72.6375 62.6603 72.5243 62.6603C72.4116 62.6603 72.3201 62.5687 72.3201 62.4554C72.3201 62.3423 72.4116 62.2501 72.5243 62.2501C72.6375 62.2501 72.7291 62.3423 72.7291 62.4554Z" fill="url(#paint29_linear_1663_41140)"/>
<path d="M72.696 62.4553C72.696 62.5501 72.6193 62.6269 72.5244 62.6269C72.4302 62.6269 72.353 62.5503 72.353 62.4553C72.353 62.3607 72.4304 62.2837 72.5244 62.2837C72.6193 62.2837 72.696 62.3607 72.696 62.4553Z" fill="#5B686C"/>
<path d="M72.6791 62.4552C72.6791 62.5407 72.6098 62.6099 72.5245 62.6099C72.4394 62.6099 72.3701 62.5405 72.3701 62.4552C72.3701 62.3699 72.4394 62.3004 72.5245 62.3004C72.6098 62.3006 72.6791 62.3699 72.6791 62.4552Z" fill="url(#paint30_linear_1663_41140)"/>
<path d="M73.7126 62.4554C73.7126 62.5687 73.6205 62.6603 73.5078 62.6603C73.3946 62.6603 73.303 62.5687 73.303 62.4554C73.303 62.3423 73.3946 62.2501 73.5078 62.2501C73.6205 62.2501 73.7126 62.3423 73.7126 62.4554Z" fill="url(#paint31_linear_1663_41140)"/>
<path d="M73.679 62.4553C73.679 62.5501 73.6024 62.6269 73.5078 62.6269C73.413 62.6269 73.3364 62.5503 73.3364 62.4553C73.3364 62.3607 73.413 62.2837 73.5078 62.2837C73.6024 62.2837 73.679 62.3607 73.679 62.4553Z" fill="#5B686C"/>
<path d="M73.6618 62.4552C73.6618 62.5407 73.5927 62.6099 73.5079 62.6099C73.4226 62.6099 73.3533 62.5405 73.3533 62.4552C73.3533 62.3699 73.4226 62.3004 73.5079 62.3004C73.593 62.3006 73.6618 62.3699 73.6618 62.4552Z" fill="url(#paint32_linear_1663_41140)"/>
<path d="M73.1795 64.0018C73.1795 64.1149 73.0879 64.2067 72.9747 64.2067C72.8618 64.2067 72.7703 64.1147 72.7703 64.0018C72.7703 63.8883 72.8618 63.7967 72.9747 63.7967C73.0879 63.7967 73.1795 63.8883 73.1795 64.0018Z" fill="url(#paint33_linear_1663_41140)"/>
<path d="M73.1459 64.002C73.1459 64.0966 73.0695 64.1736 72.9747 64.1736C72.8801 64.1736 72.8035 64.0968 72.8035 64.002C72.8035 63.907 72.8801 63.8302 72.9747 63.8302C73.0695 63.8302 73.1459 63.907 73.1459 64.002Z" fill="#5B686C"/>
<path d="M73.1291 64.0018C73.1291 64.0871 73.06 64.1564 72.9747 64.1564C72.8898 64.1564 72.8203 64.0871 72.8203 64.0018C72.8203 63.9161 72.8898 63.847 72.9747 63.847C73.06 63.8468 73.1291 63.9161 73.1291 64.0018Z" fill="url(#paint34_linear_1663_41140)"/>
<path d="M74.0158 63.3916C74.0158 63.5051 73.9242 63.5969 73.8114 63.5969C73.6987 63.5969 73.6069 63.5049 73.6069 63.3916C73.6069 63.2785 73.6987 63.1867 73.8114 63.1867C73.9242 63.1865 74.0158 63.2785 74.0158 63.3916Z" fill="url(#paint35_linear_1663_41140)"/>
<path d="M73.9823 63.3915C73.9823 63.4863 73.9057 63.5633 73.8111 63.5633C73.7164 63.5633 73.6396 63.4863 73.6396 63.3915C73.6396 63.2969 73.7164 63.2201 73.8111 63.2201C73.9057 63.2201 73.9823 63.2967 73.9823 63.3915Z" fill="#5B686C"/>
<path d="M73.9657 63.3916C73.9657 63.4771 73.8963 63.5466 73.8112 63.5466C73.7259 63.5466 73.657 63.4771 73.657 63.3916C73.657 63.3065 73.7257 63.2371 73.8112 63.2371C73.8963 63.2371 73.9657 63.3063 73.9657 63.3916Z" fill="url(#paint36_linear_1663_41140)"/>
<path d="M72.4114 63.3916C72.4114 63.5051 72.3196 63.5969 72.2065 63.5969C72.0937 63.5969 72.0017 63.5049 72.0017 63.3916C72.0017 63.2785 72.0935 63.1867 72.2065 63.1867C72.3196 63.1865 72.4114 63.2785 72.4114 63.3916Z" fill="url(#paint37_linear_1663_41140)"/>
<path d="M72.3782 63.3915C72.3782 63.4863 72.3014 63.5633 72.2068 63.5633C72.112 63.5633 72.0354 63.4863 72.0354 63.3915C72.0354 63.2969 72.112 63.2201 72.2068 63.2201C72.3014 63.2201 72.3782 63.2967 72.3782 63.3915Z" fill="#5B686C"/>
<path d="M72.361 63.3916C72.361 63.4771 72.2917 63.5466 72.2066 63.5466C72.1215 63.5466 72.0522 63.4771 72.0522 63.3916C72.0522 63.3065 72.1215 63.2371 72.2066 63.2371C72.2919 63.2371 72.361 63.3063 72.361 63.3916Z" fill="url(#paint38_linear_1663_41140)"/>
<path d="M27.5505 64.0018C27.5505 64.0018 27.2534 61.1366 26.7336 60.2284C26.2139 59.3202 25.6346 58.6151 24.2908 58.2335C23.0523 57.8817 20.6595 57.8998 19.5594 58.6502C17.8569 59.8115 17.5546 61.345 17.3761 63.6975H8.21193L8.06342 63.3915L5.92453 63.1726L5.79102 62.3127H6.31069L5.99889 58.2483L6.25133 57.3103H6.54835C6.54835 57.3103 6.37026 54.3923 6.37026 52.963C6.37026 51.5336 6.48919 49.6279 6.48919 49.6279C6.48919 49.6279 6.94971 43.1366 6.9645 42.5412C6.97908 41.9455 7.15717 38.0003 7.1278 37.5535C7.09822 37.1067 7.09822 36.5708 8.01885 36.4516C8.93948 36.3326 24.3866 36.3622 24.3866 36.3622L58.8303 36.4516C58.8303 36.4516 60.3012 36.6153 61.3555 37.3896C62.4101 38.1638 67.5048 42.3921 67.5048 42.3921L75.3321 49.8958C75.3321 49.8958 75.837 50.1488 76.0451 50.3125C76.2532 50.4762 77.2482 51.2952 77.2482 51.2952C77.2482 51.2952 78.9363 51.8283 79.6069 52.0958C80.2771 52.3637 81.0273 53.2235 81.3513 53.5596C81.6751 53.8958 82.2831 54.9778 82.2831 54.9778V55.65C82.2831 55.65 83.4653 56.2367 83.7094 56.3564C83.9535 56.476 83.9993 56.7323 83.9993 56.7323C83.9993 56.7323 84.5338 58.4021 84.7471 59.4419C84.9605 60.4815 84.9508 62.0944 84.9508 62.0944H84.7374L84.2724 63.1145L84.4761 63.1722C84.4761 63.1722 84.6315 63.2304 84.6071 63.3038C84.5826 63.3769 84.5148 63.4739 84.1948 63.4839C83.8749 63.4934 82.1591 63.7447 81.6749 63.7843C81.1902 63.8237 78.7961 63.9597 78.7961 63.9597C78.7961 63.9597 78.6313 61.1811 78.2438 60.0735C77.8558 58.9658 76.989 57.9167 76.1237 57.6638C75.2584 57.4112 74.092 57.3919 73.3037 57.3919C72.5151 57.3919 71.1678 57.4016 70.6883 57.5278C70.2085 57.6541 69.1612 58.0428 68.58 59.199C67.9983 60.3551 67.5909 62.6482 67.62 64.2707L64.8869 64.1151C64.8869 64.1151 61.0001 64.0178 60.0214 64.0178C59.0416 64.0182 27.5505 64.0018 27.5505 64.0018Z" fill="#3279D2"/>
<path opacity="0.1" d="M7.65869 57.5062L7.92957 63.3778L8.06349 63.3915L8.212 63.6975H16.5607L16.4375 61.5988C16.7501 59.8212 17.1677 58.1853 19.0292 56.9154C20.243 56.0872 21.2469 56.0949 22.4182 56.0949C23.3108 56.0949 24.178 56.1672 24.8612 56.361C26.9539 56.9554 27.5285 57.9646 28.1782 59.0998C28.5571 59.7623 29.0318 61.4794 29.2084 62.4646L65.9646 62.3506C66.1466 60.9912 66.4841 59.2621 66.9904 58.2548C67.5154 57.2113 68.1708 56.4548 68.8019 55.951H8.84473L9.51758 55.2387L69.8984 55.3037C69.9875 55.2698 70.0742 55.2404 70.1557 55.2188C70.7159 55.0712 71.5982 55.0137 73.3033 55.0137C74.3846 55.0137 75.8389 55.1319 76.9125 55.4455C78.7248 55.9745 79.5099 57.9893 79.9961 59.3793C80.1475 59.8116 80.4988 61.7168 80.5963 63.8551C81.07 63.8265 81.4987 63.7993 81.6749 63.7848C82.1594 63.7452 83.875 63.494 84.1949 63.4845C84.5148 63.4745 84.5827 63.3774 84.6072 63.3043C84.6315 63.231 84.4761 63.1727 84.4761 63.1727L84.2725 63.1151L84.7375 62.095H84.9508C84.9508 62.095 84.9605 60.4822 84.7472 59.4424C84.5339 58.4026 83.9994 56.7328 83.9994 56.7328C83.9994 56.7328 83.9538 56.4765 83.7095 56.3569C83.4653 56.2373 82.2831 55.6506 82.2831 55.6506V54.9784C82.2831 54.9784 81.6751 53.8963 81.3514 53.5602C81.0274 53.2241 80.2774 52.364 79.6069 52.0964C79.5713 52.0823 79.5324 52.0671 79.4915 52.0517C78.5534 52.0726 76.8686 51.8319 76.168 51.4101C75.2957 50.8847 73.9247 49.7292 73.2638 49.1859C72.6027 48.6425 70.0941 46.1638 68.2696 44.4412C66.4452 42.7186 63.5107 40.2036 61.7902 38.743C59.7169 36.9824 57.37 37.0842 57.37 37.0842C57.37 37.0842 10.4477 37.0974 9.27122 37.0842C8.0947 37.071 8.18708 38.1069 8.18708 38.1069C8.18708 38.1069 7.98873 40.757 7.88338 43.2881C7.77762 45.8187 7.65869 57.5062 7.65869 57.5062ZM8.93955 43.1325C8.93955 42.9507 9.08806 42.8021 9.26959 42.8021H57.355C57.5365 42.8021 57.6848 42.9507 57.6848 43.1325V51.1721C57.6848 51.3541 57.5365 51.5027 57.355 51.5027H9.26959C9.08826 51.5027 8.93955 51.3543 8.93955 51.1721V43.1325ZM8.93955 42.1022L57.3236 42.0888H58.4128V42.1471H57.3236L8.93955 42.1605V42.1022ZM8.93955 37.7771L57.8165 37.7625C57.8165 37.7625 59.4817 37.7217 60.7822 39.0113C59.5151 37.8242 57.8165 37.826 57.8165 37.826L8.93955 37.8405V37.7771Z" fill="black"/>
<path opacity="0.1" d="M67.0586 64.2389C67.1461 62.6624 67.4993 60.0519 68.0601 58.9369C68.7258 57.6136 69.8995 57.1329 70.5397 56.9643C70.947 56.8569 71.7993 56.8094 73.3033 56.8094C74.2782 56.8094 75.3947 56.8443 76.286 57.1045C77.2923 57.3983 78.3228 58.5399 78.7922 59.8807C79.0606 60.6475 79.2252 62.8336 79.3084 63.9306C79.0037 63.9483 78.7956 63.9599 78.7956 63.9599C78.7956 63.9599 78.6309 61.1812 78.2433 60.0736C77.8554 58.966 76.9886 57.9168 76.1233 57.664C75.258 57.4113 74.0916 57.392 73.3033 57.392C72.5147 57.392 71.1674 57.4018 70.6878 57.5279C70.2081 57.6542 69.1608 58.0429 68.5795 59.1991C67.9979 60.3553 67.5904 62.6483 67.6196 64.2708L67.0586 64.2389Z" fill="black"/>
<path opacity="0.1" d="M19.2325 58.1682C20.1756 57.5251 21.6333 57.429 22.4186 57.429C23.1758 57.429 23.8966 57.5155 24.4493 57.6723C25.9283 58.0921 26.5534 58.9325 27.2384 59.9382C27.9098 60.9241 28.0075 63.0251 28.1175 64.0015C27.7506 64.0013 27.5508 64.0013 27.5508 64.0013C27.5508 64.0013 27.2538 61.1362 26.7339 60.228C26.2142 59.3198 25.635 58.6146 24.2911 58.233C23.0526 57.8813 20.6598 57.8994 19.5597 58.6498C17.8572 59.811 17.5549 61.3445 17.3764 63.6971H16.7368C16.7814 61.4146 17.4773 59.3657 19.2325 58.1682Z" fill="black"/>
<path opacity="0.2" d="M5.99889 58.2484L6.25133 57.3103H6.54835C6.54835 57.3103 6.37026 54.3924 6.37026 52.963C6.37026 51.5337 6.48919 49.6279 6.48919 49.6279C6.48919 49.6279 6.94971 43.1367 6.9645 42.5412C6.97908 41.9456 7.15717 38.0004 7.1278 37.5536C7.09822 37.1068 7.09822 36.5709 8.01885 36.4516C8.14385 36.4356 8.53832 36.422 9.12425 36.4108V37.0835C8.1554 37.109 8.18701 38.1064 8.18701 38.1064C8.18701 38.1064 7.98866 40.7565 7.88331 43.2876C7.77734 45.8184 7.65841 57.5061 7.65841 57.5061L7.9293 63.3777L5.92453 63.1724L5.79102 62.3126H6.31069L5.99889 58.2484Z" fill="url(#paint39_linear_1663_41140)"/>
<path opacity="0.05" d="M8.84473 54.5641V55.9508L9.51737 55.2385L8.84473 54.5641Z" fill="black"/>
<path opacity="0.1" d="M57.3118 54.6089L71.7562 54.6418L82.2825 54.9773L82.2829 54.9781V55.6412L77.1625 55.5303L77.1597 55.5301C77.079 55.4988 76.997 55.4698 76.9121 55.445C75.8385 55.1314 74.3842 55.0132 73.3029 55.0132C71.5978 55.0132 70.7154 55.0707 70.1552 55.2183C70.0819 55.2376 70.0047 55.2636 69.9257 55.2927L69.9222 55.2925L39.9636 55.238H9.51733L8.84448 54.5638L57.3118 54.6089Z" fill="black"/>
<path opacity="0.2" d="M75.8005 54.7707C75.9782 53.8647 76.2384 52.544 76.4418 51.545C77.2411 51.8822 78.6597 52.0698 79.4918 52.0511C79.5327 52.0668 79.5716 52.0818 79.6073 52.0958C80.2775 52.3637 81.0277 53.2236 81.3517 53.5597C81.6744 53.8944 82.2784 54.9689 82.2829 54.977L75.8005 54.7707Z" fill="url(#paint40_angular_1663_41140)"/>
<path opacity="0.1" d="M19.0848 56.9974C20.2625 56.1941 21.2324 56.1941 22.3554 56.1941H22.4184C23.4083 56.1941 24.2214 56.2825 24.8345 56.4565C26.8846 57.0388 27.443 58.014 28.0925 59.1491C28.4722 59.8132 28.9421 61.538 29.1114 62.4819L29.126 62.5636L66.0516 62.449L66.0629 62.3633C66.1752 61.5258 66.4983 59.4535 67.079 58.2987C68.0067 56.4543 69.3297 55.5382 70.1808 55.314C70.7319 55.169 71.6072 55.1123 73.3032 55.1123C74.3263 55.1123 75.8045 55.2246 76.8844 55.54C78.7364 56.0806 79.495 58.2472 79.9028 59.4114C80.0576 59.8538 80.4002 61.7681 80.4966 63.8605C79.6901 63.909 78.7958 63.9598 78.7958 63.9598C78.7958 63.9598 78.6311 61.1812 78.2435 60.0735C77.8555 58.9659 76.9887 57.9167 76.1234 57.6639C75.2581 57.4112 74.0917 57.392 73.3034 57.392C72.5148 57.392 71.1675 57.4017 70.688 57.5278C70.2082 57.6541 69.1609 58.0428 68.5797 59.199C67.998 60.3552 67.5906 62.6483 67.6197 64.2707L64.8866 64.1152C64.8866 64.1152 60.9999 64.0179 60.0211 64.0179C59.0417 64.0179 27.5506 64.0012 27.5506 64.0012C27.5506 64.0012 27.2536 61.1361 26.7337 60.2279C26.214 59.3197 25.6347 58.6145 24.2909 58.2329C23.0524 57.8812 20.6596 57.8993 19.5595 58.6497C17.857 59.8109 17.5547 61.3444 17.3762 63.697H16.6594L16.5366 61.6046C16.8515 59.8193 17.263 58.2402 19.0848 56.9974Z" fill="black"/>
<path opacity="0.05" d="M19.0848 56.9974C20.2625 56.1941 21.2324 56.1941 22.3554 56.1941H22.4184C23.4083 56.1941 24.2214 56.2825 24.8345 56.4565C26.8846 57.0388 27.443 58.014 28.0925 59.1491C28.4722 59.8132 28.9421 61.538 29.1114 62.4819L29.126 62.5636L66.0516 62.449L66.0629 62.3633C66.1752 61.5258 66.4983 59.4535 67.079 58.2987C68.0067 56.4543 69.3297 55.5382 70.1808 55.314C70.7319 55.169 71.6072 55.1123 73.3032 55.1123C74.3263 55.1123 75.8045 55.2246 76.8844 55.54C78.7364 56.0806 79.495 58.2472 79.9028 59.4114C80.0576 59.8538 80.4002 61.7681 80.4966 63.8605C79.6901 63.909 78.7958 63.9598 78.7958 63.9598C78.7958 63.9598 78.6311 61.1812 78.2435 60.0735C77.8555 58.9659 76.9887 57.9167 76.1234 57.6639C75.2581 57.4112 74.0917 57.392 73.3034 57.392C72.5148 57.392 71.1675 57.4017 70.688 57.5278C70.2082 57.6541 69.1609 58.0428 68.5797 59.199C67.998 60.3552 67.5906 62.6483 67.6197 64.2707L64.8866 64.1152C64.8866 64.1152 60.9999 64.0179 60.0211 64.0179C59.0417 64.0179 27.5506 64.0012 27.5506 64.0012C27.5506 64.0012 27.2536 61.1361 26.7337 60.2279C26.214 59.3197 25.6347 58.6145 24.2909 58.2329C23.0524 57.8812 20.6596 57.8993 19.5595 58.6497C17.857 59.8109 17.5547 61.3444 17.3762 63.697H16.6594L16.5366 61.6046C16.8515 59.8193 17.263 58.2402 19.0848 56.9974Z" fill="url(#paint41_linear_1663_41140)"/>
<path opacity="0.1" d="M69.8977 55.304L69.8982 55.3037V55.3035L69.8977 55.304Z" fill="black"/>
<path opacity="0.12" d="M57.596 50.8015C57.596 50.9825 57.4485 51.1307 57.2676 51.1307H9.36333C9.18241 51.1307 9.03491 50.9825 9.03491 50.8015V43.227C9.03491 43.0458 9.18241 42.8978 9.36333 42.8978H57.2676C57.4485 42.8978 57.596 43.0458 57.596 43.227V50.8015Z" fill="black"/>
<path opacity="0.2" d="M8.93945 43.1325V51.1722C8.93945 51.3541 9.08796 51.5028 9.26949 51.5028H57.3549C57.5364 51.5028 57.6847 51.3543 57.6847 51.1722V43.1325C57.6847 42.9508 57.5364 42.8021 57.3549 42.8021H9.26949C9.08796 42.8021 8.93945 42.9508 8.93945 43.1325ZM9.03488 43.227C9.03488 43.0458 9.18237 42.8978 9.3633 42.8978H57.2676C57.4485 42.8978 57.596 43.0458 57.596 43.227V50.8015C57.596 50.9825 57.4485 51.1307 57.2676 51.1307H9.3633C9.18237 51.1307 9.03488 50.9825 9.03488 50.8015V43.227Z" fill="url(#paint42_linear_1663_41140)"/>
<path d="M72.6689 52.2068C72.9148 52.2068 73.4629 52.2066 73.1888 51.4107C72.9146 50.6146 71.5153 48.8899 69.9366 47.3924C68.3577 45.895 66.1643 43.867 65.7862 43.5733C65.408 43.2795 64.6326 43.0709 63.9332 43.0045C63.2336 42.9381 60.5481 42.8528 60.0096 42.8528C59.4705 42.8528 59.1493 43.0991 59.1775 43.6867C59.2059 44.2742 59.6718 47.127 59.8927 47.9797C60.1133 48.8327 60.5576 50.4815 62.0612 51.1735C63.5643 51.8652 65.5684 51.9692 67.2703 52.0549C68.972 52.1404 72.6689 52.2068 72.6689 52.2068Z" fill="#141C1E"/>
<path d="M64.4275 43.2512C64.9632 43.3517 65.4342 43.5215 65.6794 43.7116C66.0528 44.0016 68.248 46.0318 69.8168 47.5196C70.0441 47.7351 70.2665 47.9553 70.4829 48.1762L70.5913 51.9876C69.4575 51.9603 68.1187 51.9226 67.2791 51.8803C66.9122 51.8621 66.525 51.8421 66.1288 51.8153L64.4275 43.2512Z" fill="#303E42"/>
<path d="M59.4837 43.1938C59.5882 43.0839 59.7653 43.0281 60.0097 43.0281C60.5306 43.0281 63.2286 43.1138 63.9167 43.1788C64.0269 43.1891 64.1357 43.2031 64.2435 43.22L65.9486 51.8027C64.6321 51.7066 63.2317 51.5202 62.1338 51.0149C60.6862 50.3488 60.2645 48.7192 60.0617 47.9363C59.8419 47.088 59.3786 44.2352 59.3518 43.6788C59.3415 43.4602 59.3856 43.2972 59.4837 43.1938Z" fill="#303E42"/>
<path d="M75.3324 49.8959C75.3324 49.8959 75.8373 50.149 76.0454 50.3126C76.2164 50.4473 76.918 51.0235 77.1629 51.2249C77.137 51.2316 77.1094 51.2351 77.0786 51.2322C76.423 51.1689 74.8561 50.0953 74.8561 50.0953C74.8561 50.0953 72.3845 47.851 71.5702 47.1514C70.756 46.452 66.8232 42.6918 66.8232 42.6918L67.4651 42.3589C67.491 42.3803 67.5052 42.392 67.5052 42.392L75.3324 49.8959Z" fill="#141C1E"/>
<path d="M75.3185 49.8826C75.1143 49.9694 74.9642 50.0282 74.9275 50.0035C74.7909 49.8794 72.432 47.7386 71.6451 47.063C70.922 46.4417 67.8106 43.485 67.1489 42.853L67.6591 42.5402L75.3185 49.8826Z" fill="#98A6AA"/>
<path opacity="0.3" d="M65.12 46.7371L64.4275 43.2512C64.9632 43.3517 65.4342 43.5215 65.6794 43.7116C66.0528 44.0016 68.248 46.0318 69.8168 47.5196C70.0218 47.714 70.222 47.9124 70.4185 48.1116C69.4002 47.7855 67.485 47.2187 65.12 46.7371Z" fill="white"/>
<path opacity="0.3" d="M59.6792 45.9663C59.5133 44.9862 59.3666 43.9849 59.3518 43.6789C59.3415 43.4604 59.3856 43.2971 59.4839 43.1939C59.5884 43.084 59.7655 43.0282 60.0099 43.0282C60.5308 43.0282 63.2288 43.1139 63.9169 43.1789C64.0271 43.1892 64.1359 43.2033 64.2437 43.2201L64.935 46.6996C63.3346 46.3802 61.5379 46.1029 59.6792 45.9663Z" fill="white"/>
<g opacity="0.2">
<path d="M60.3232 62.286C60.0928 61.3839 59.0136 55.9984 59.002 55.9387L58.9287 55.2305L58.7638 54.5577C58.7595 54.5153 58.3496 50.2988 58.2901 49.2484C58.2305 48.1966 58.1438 42.9972 58.1438 42.6266C58.1438 42.3567 58.1438 42.0772 58.6625 42.0772C58.7145 42.0772 58.7715 42.0798 58.8355 42.0853C59.013 42.1 59.3677 42.1136 59.8167 42.1304C60.9091 42.1716 62.5593 42.2338 63.3781 42.3881C63.4739 42.4062 63.5695 42.4237 63.6645 42.4411C64.7122 42.6335 65.7017 42.815 66.5733 43.5926C67.5025 44.4212 71.7837 48.7121 71.8266 48.7553L71.8437 48.7726V57.052L71.7879 57.0545C71.2547 57.0774 70.8878 57.1172 70.6661 57.1755C70.0622 57.3345 68.9551 57.7876 68.3279 59.035C67.7918 60.1002 67.5248 62.3977 67.4557 63.0764L67.4506 63.1288L61.5056 63.1282C61.5056 63.1282 61.4685 63.1329 61.4065 63.1329C61.146 63.1331 60.5183 63.0506 60.3232 62.286ZM68.2244 58.9824C68.8721 57.6942 70.0135 57.2267 70.6368 57.0626C70.8586 57.0041 71.2156 56.9639 71.7276 56.9403V48.8205C71.4295 48.522 67.3929 44.4793 66.4963 43.6796C65.6491 42.9239 64.6747 42.7452 63.6439 42.5559C63.5485 42.5384 63.4526 42.5208 63.3566 42.5025C62.5464 42.35 60.901 42.2878 59.8126 42.247C59.3621 42.2299 59.0059 42.2163 58.8258 42.2013C58.7656 42.1964 58.7113 42.194 58.6627 42.194C58.2605 42.194 58.2605 42.3477 58.2605 42.6266C58.2605 42.9968 58.347 48.1914 58.4066 49.2419C58.4663 50.2898 58.8756 54.5041 58.8784 54.5384L59.0434 55.2106L59.1171 55.9215C59.1278 55.9757 60.2067 61.3583 60.4363 62.2572C60.6111 62.9426 61.1733 63.0165 61.4069 63.0165C61.4584 63.0165 61.4898 63.0131 61.4991 63.0122H67.3459C67.4231 62.2695 67.6925 60.0392 68.2244 58.9824Z" fill="white"/>
</g>
<path d="M60.0556 60.2365C60.2477 61.1599 60.4162 61.9457 60.4918 62.243C60.494 62.2523 60.4962 62.2629 60.4999 62.2722H64.2683C64.6861 62.2722 64.772 61.9038 64.772 61.9038C64.772 61.9038 65.0117 60.6296 65.0629 60.3287C65.0654 60.3193 65.0668 60.3114 65.0674 60.3029C65.1071 60.0618 64.8968 60.0988 64.8968 60.0988C64.8968 60.0988 62.9719 60.0988 60.0266 60.0988C60.0369 60.1457 60.0463 60.1912 60.0556 60.2365Z" fill="url(#paint43_linear_1663_41140)"/>
<path d="M59.7888 60.0988H57.4568V62.272H60.2602C60.1786 61.9481 60.009 61.1552 59.8181 60.2364C59.8086 60.191 59.7993 60.1455 59.7888 60.0988Z" fill="url(#paint44_linear_1663_41140)"/>
<path d="M57.4569 60.0987C52.4122 60.0977 45.5245 60.0977 40.0508 60.0977V62.272H57.4569V60.0987Z" fill="url(#paint45_linear_1663_41140)"/>
<path d="M29.7047 60.2866C29.7047 60.2925 29.7047 60.2994 29.7058 60.3051C29.708 60.3181 29.7102 60.3296 29.7139 60.3424C29.7149 60.3437 29.7149 60.3437 29.7149 60.3449C29.7161 60.353 29.7183 60.3613 29.722 60.3695C29.722 60.3695 30.0838 61.5713 30.2119 61.9188C30.3399 62.2663 30.7155 62.272 30.7155 62.272C30.7155 62.272 34.6469 62.272 40.0507 62.272V60.0977C34.297 60.0977 30.0352 60.0977 29.9535 60.0987C29.8535 60.1 29.7874 60.1221 29.7475 60.1597C29.7392 60.1666 29.7337 60.1747 29.7276 60.183C29.708 60.2119 29.6999 60.247 29.7047 60.2866Z" fill="url(#paint46_linear_1663_41140)"/>
<path d="M64.8966 60.0989C64.8966 60.0989 62.9716 60.0989 60.0264 60.0989C60.0369 60.1456 60.0462 60.1911 60.0555 60.2364C62.9844 60.2364 64.8966 60.2364 64.8966 60.2364C64.8966 60.2364 65.0291 60.2143 65.0627 60.3286C65.0651 60.3193 65.0665 60.3114 65.0672 60.3028C65.1069 60.0618 64.8966 60.0989 64.8966 60.0989Z" fill="#626B6E"/>
<path d="M59.7888 60.0988H57.4568V60.2362H59.8179C59.8086 60.191 59.7993 60.1455 59.7888 60.0988Z" fill="#626B6E"/>
<path d="M57.4569 60.0987C52.1797 60.0977 45.5245 60.0977 40.0508 60.0977V60.2354C45.5247 60.2354 52.1799 60.2354 57.4569 60.2364V60.0987Z" fill="#626B6E"/>
<path d="M29.7047 60.2867C29.7047 60.2926 29.7047 60.2995 29.7058 60.3052C29.708 60.3182 29.7102 60.3298 29.7139 60.3426C29.7149 60.3438 29.7149 60.3438 29.7149 60.345C29.7418 60.2798 29.8152 60.2388 29.9535 60.2364C30.0352 60.2354 34.297 60.2354 40.0507 60.2354V60.0977C34.297 60.0977 30.0352 60.0977 29.9535 60.0987C29.8535 60.0999 29.7874 60.122 29.7475 60.1596C29.7392 60.1665 29.7337 60.1746 29.7276 60.183C29.708 60.212 29.6999 60.2471 29.7047 60.2867Z" fill="#626B6E"/>
<path d="M70.5915 47.6664C70.8482 47.6664 71.5097 47.8285 71.5865 48.0523C71.6634 48.2756 71.5865 51.5915 71.5865 51.5915C71.5865 51.5915 71.5563 51.9639 71.1063 52.1747C70.6557 52.3855 69.5248 52.4385 69.2324 51.8029C68.9402 51.1674 69.0863 50.9207 69.0863 50.9207L69.1943 50.7354V49.178L69.1094 48.9775C69.1094 48.9775 69.3017 48.1601 69.5171 47.9133C69.733 47.6664 70.3964 47.6666 70.5915 47.6664Z" fill="url(#paint47_linear_1663_41140)"/>
<path d="M70.0734 50.9643C69.9839 50.146 70.0728 48.7376 70.2463 48.3406C70.3447 48.345 70.4402 48.3467 70.5263 48.3444C70.9215 48.3337 71.3608 48.1734 71.5824 48.0443V48.0441C71.5834 48.0469 71.5855 48.0496 71.5863 48.0522C71.6633 48.2756 71.5863 51.5914 71.5863 51.5914C71.5863 51.5914 71.5723 51.7624 71.4232 51.9383C71.1187 51.896 70.1541 51.7041 70.0734 50.9643Z" fill="#212A2D"/>
<path d="M71.2985 48.5197L71.3913 48.7431C71.3913 48.7431 71.1441 48.6881 71.12 49.0148C71.0959 49.3416 71.12 51.0477 71.12 51.0477C71.12 51.0477 71.1381 51.2336 71.5941 51.2336L71.5878 51.5232C71.5878 51.5232 71.2608 51.5707 71.0548 51.4744C70.849 51.3782 70.8421 51.1109 70.8421 50.8627C70.8421 50.6144 70.8421 48.9775 70.8421 48.9775C70.8421 48.9775 70.8153 48.5715 71.2985 48.5197Z" fill="url(#paint48_linear_1663_41140)"/>
<path d="M69.1096 48.9773H70.0021C70.0021 48.9773 70.3805 49.0541 70.4482 49.1855V50.7352C70.4482 50.7352 70.3556 50.8816 70.1327 50.9513C69.9589 51.0053 69.3343 50.9899 69.0654 50.9805C69.0752 50.9401 69.0865 50.9206 69.0865 50.9206L69.1945 50.7354V49.1779L69.1096 48.9773Z" fill="#2E373A"/>
<path d="M70.4482 49.1855L69.1945 49.1777L69.1096 48.9773H70.0021C70.0021 48.9773 70.3803 49.0541 70.4482 49.1855Z" fill="#212A2D"/>
<path d="M70.1327 50.9515C69.9589 51.0056 69.3343 50.9901 69.0654 50.9808C69.0752 50.9404 69.0865 50.9209 69.0865 50.9209L69.1945 50.7357H70.4482C70.4482 50.7357 70.3554 50.8819 70.1327 50.9515Z" fill="#555E61"/>
<path d="M83.9993 56.7326C83.9993 56.7326 84.5337 58.4023 84.7471 59.4421C84.9604 60.4817 84.9507 62.0947 84.9507 62.0947H84.7373L84.2724 63.1148L84.476 63.1724C84.476 63.1724 84.6314 63.2307 84.6071 63.304C84.5826 63.3772 84.5147 63.4742 84.1948 63.4842C83.8749 63.4937 82.159 63.7449 81.6748 63.7845C81.1902 63.8239 78.796 63.96 78.796 63.96C78.796 63.96 78.6313 61.1814 78.2437 60.0737C77.8616 58.9815 77.0129 57.9476 76.1599 57.6767L77.2507 55.382L82.2834 55.6501C82.2834 55.6501 83.4656 56.2368 83.7097 56.3564C83.9537 56.4763 83.9993 56.7326 83.9993 56.7326Z" fill="url(#paint49_linear_1663_41140)"/>
<path d="M77.1765 55.5366C78.8022 56.1757 79.5338 58.0588 79.996 59.3788C80.1473 59.8112 80.4986 61.7164 80.5961 63.8547C79.7658 63.905 78.7957 63.9599 78.7957 63.9599C78.7957 63.9599 78.631 61.1812 78.2434 60.0736C77.8613 58.9814 77.0126 57.9475 76.1597 57.6765L77.1765 55.5366Z" fill="url(#paint50_linear_1663_41140)"/>
<path opacity="0.2" d="M76.1594 57.6768L76.4111 57.1476C77.3765 57.4955 78.3421 58.5954 78.7921 59.8807C79.0605 60.6476 79.225 62.8336 79.3083 63.9307C79.004 63.9482 78.7955 63.9599 78.7955 63.9599C78.7955 63.9599 78.6308 61.1813 78.2432 60.0737C77.8611 58.9819 77.0124 57.9477 76.1594 57.6768Z" fill="#555E61"/>
<path d="M6.31069 62.3126L5.99889 58.2482L6.25133 57.3102H6.54835L18.4779 57.3368L19.6058 58.6205C19.5906 58.6302 19.5744 58.64 19.5594 58.6499C17.8569 59.8112 17.5546 61.3447 17.3761 63.6973H8.21193L8.06342 63.3912L5.92453 63.1723L5.79102 62.3124H6.31069V62.3126Z" fill="url(#paint51_linear_1663_41140)"/>
<path d="M18.4798 57.3384C17.7699 57.9522 17.332 58.6376 17.0202 59.3659C16.9159 59.6096 16.6278 59.6096 16.5257 59.6096C16.4236 59.6096 8.74731 59.5165 8.74731 59.5165L16.5348 59.442C16.5348 59.442 16.8041 59.4315 16.9333 59.2217C17.0571 59.0208 17.4331 58.1723 18.3594 57.3366L18.4782 57.337L18.4798 57.3384Z" fill="url(#paint52_linear_1663_41140)"/>
<path d="M60.8721 52.0181C60.7455 51.7059 60.4873 51.7565 60.4873 51.7565H59.8289C59.8289 51.7565 59.5712 51.7059 59.4445 52.0181C59.3175 52.3302 59.3128 52.6464 59.308 53.0979C59.3031 53.549 59.4541 54.1564 59.498 54.2616C59.542 54.367 59.6244 54.4937 59.8291 54.4978H60.4875C60.692 54.4937 60.7748 54.367 60.8188 54.2616C60.8628 54.1562 61.0135 53.549 61.0084 53.0979C61.0036 52.6464 60.9991 52.33 60.8721 52.0181Z" fill="url(#paint53_linear_1663_41140)"/>
<path d="M60.3995 51.8284H59.8926V54.1166H60.3995V51.8284Z" fill="#212A2D"/>
<path d="M60.3512 54.0637H59.9412V54.4049H60.3512V54.0637Z" fill="#555E61"/>
<path d="M60.9013 52.9542C60.8867 52.6591 60.8282 52.2125 60.6823 52.1297C60.5358 52.0468 60.351 52.0551 60.351 52.0551H59.9653C59.9653 52.0551 59.7803 52.0466 59.6338 52.1297C59.4877 52.2125 59.4296 52.6591 59.415 52.9542C59.4002 53.2495 59.4857 53.6479 59.5684 53.865C59.651 54.0821 59.9653 54.0632 59.9653 54.0632H60.351C60.351 54.0632 60.6653 54.0823 60.7481 53.865C60.8308 53.6479 60.9161 53.2495 60.9013 52.9542Z" fill="url(#paint54_linear_1663_41140)"/>
<path d="M59.9654 53.9585L59.9464 53.9589C59.8815 53.9589 59.7272 53.9467 59.6834 53.8322C59.6001 53.6144 59.5227 53.2282 59.5359 52.9587C59.5584 52.503 59.6459 52.2507 59.7006 52.2172C59.7973 52.1626 59.9263 52.1597 59.9506 52.1597L60.3514 52.1599L60.3662 52.1597C60.3911 52.1597 60.5197 52.1626 60.6164 52.2172C60.6709 52.2507 60.7582 52.5027 60.7807 52.9587C60.7943 53.2282 60.7165 53.6144 60.6334 53.8322C60.5898 53.9467 60.4348 53.9589 60.3704 53.9589L59.9654 53.9585Z" fill="#212A2D"/>
<path d="M60.3512 51.8705H59.9412V54.0748H60.3512V51.8705Z" fill="url(#paint55_linear_1663_41140)"/>
<path d="M59.9999 51.8705H59.9412V54.0748H59.9999V51.8705Z" fill="#222B2E"/>
<path d="M8.09229 63.4511L8.06352 63.3914L8.03434 63.3885L8.03394 57.3136H8.09188L8.09229 63.4511Z" fill="#758286"/>
<path d="M7.59743 63.3439L5.92453 63.1725L5.79102 62.3126H6.31069L5.99889 58.2482L6.25133 57.3102H6.54835L7.55063 57.3126L7.27772 58.3443L7.59743 63.3439Z" fill="url(#paint56_linear_1663_41140)"/>
<path d="M5.99878 58.2482L7.27761 58.3443L7.55052 57.3126L6.25122 57.3102L5.99878 58.2482Z" fill="url(#paint57_linear_1663_41140)"/>
<path d="M77.1765 55.5374L77.2503 55.3823L82.2829 55.6503C82.2829 55.6503 83.4651 56.2371 83.7093 56.3567C83.7794 56.391 83.8316 56.4369 83.8726 56.4844L78.244 56.2269C77.9385 55.9371 77.5856 55.6983 77.1765 55.5374Z" fill="#565F62"/>
<path opacity="0.42" d="M82.283 55.6503C82.283 55.6503 83.4652 56.237 83.7093 56.3566C83.9535 56.4763 83.9993 56.7326 83.9993 56.7326C83.9993 56.7326 84.5337 58.4023 84.7471 59.4421C84.8214 59.8047 84.8688 60.2368 84.8986 60.6463C84.8986 60.6463 84.46 60.539 84.413 59.9446C84.3666 59.3502 83.4851 56.4844 83.4851 56.4844L82.1213 55.6418L82.283 55.6503Z" fill="#565F62"/>
<path d="M77.1122 55.7517L77.0784 55.7434L77.1764 55.5366C78.8021 56.1757 79.5337 58.0588 79.9959 59.3788C80.0392 59.5025 80.099 59.7474 80.1642 60.0833C79.1301 56.6536 77.1122 55.7517 77.1122 55.7517Z" fill="#2F383B"/>
<path d="M80.3088 59.9262C80.3088 59.9262 80.4474 60.1758 80.5548 60.2284C80.6628 60.281 83.309 60.3267 83.7503 60.3478C84.1917 60.369 84.339 60.2073 84.2969 59.926C84.255 59.6452 84.0868 59.041 84.0238 58.9776C83.9604 58.9144 83.9535 58.8864 83.7292 58.8653C83.5051 58.8442 82.222 58.8442 82.222 58.8442C82.222 58.8442 82.8181 58.9847 82.8531 58.9985C82.888 59.0127 83.0351 60.0832 83.0351 60.0832C83.0351 60.0832 82.9933 60.1368 82.9022 60.1368C82.811 60.1368 81.0447 60.093 80.8765 60.0832C80.7082 60.0739 80.3718 59.9896 80.3088 59.9262Z" fill="url(#paint58_linear_1663_41140)"/>
<path d="M83.2525 60.1581C83.0351 60.1581 82.9433 60.1329 82.9433 60.1329L82.9425 60.1315C83.0043 60.1189 83.0351 60.0835 83.0351 60.0835C83.0351 60.0835 82.888 59.0131 82.8531 58.9988C82.8523 58.9986 82.8509 58.9982 82.8501 58.998L82.874 58.9777C82.874 58.9777 83.0914 59.0131 83.1757 59.0131C83.2598 59.0131 83.3576 59.1816 83.3576 59.287C83.3576 59.3924 83.4699 59.9404 83.4699 59.9404C83.4699 59.9404 83.4699 60.1581 83.2525 60.1581Z" fill="#222B2E"/>
<path opacity="0.7" d="M83.2525 60.1581C83.0351 60.1581 82.9433 60.1329 82.9433 60.1329L82.9425 60.1315C83.0043 60.1189 83.0351 60.0835 83.0351 60.0835C83.0351 60.0835 82.888 59.0131 82.8531 58.9988C82.8523 58.9986 82.8509 58.9982 82.8501 58.998L82.874 58.9777C82.874 58.9777 83.0914 59.0131 83.1757 59.0131C83.2598 59.0131 83.3576 59.1816 83.3576 59.287C83.3576 59.3924 83.4699 59.9404 83.4699 59.9404C83.4699 59.9404 83.4699 60.1581 83.2525 60.1581Z" fill="url(#paint59_linear_1663_41140)"/>
<path d="M81.6651 61.6865C81.6651 61.6865 82.8394 61.6865 83.0912 61.6865C83.3435 61.6865 83.4697 62.1425 83.4697 62.1425L83.073 63.0669L84.2722 63.1146L84.4758 63.1723C84.4758 63.1723 84.5887 63.2152 84.6063 63.2732C84.5966 63.2737 82.3345 63.3193 82.0403 63.3072C81.7449 63.2948 81.5914 63.2269 81.5545 63.1221C81.5176 63.0176 81.2166 62.3705 81.281 62.0716C81.3458 61.7726 81.6651 61.6865 81.6651 61.6865Z" fill="url(#paint60_linear_1663_41140)"/>
<path opacity="0.2" d="M84.6832 62.2133L83.4698 62.1425L83.0974 63.0677L84.2723 63.1146L84.6832 62.2133Z" fill="black"/>
<path d="M81.5495 63.1093C81.5382 63.0797 81.5161 63.0277 81.4888 62.9592L83.1292 62.9355V62.9357L83.0731 63.0671L83.0974 63.0679L81.5495 63.1093Z" fill="#3D4649"/>
<path d="M60.3627 62.2759C60.1329 61.375 59.0535 55.9906 59.0425 55.9347L58.9682 55.2209L58.804 54.5539C58.8002 54.5115 58.3905 50.2956 58.331 49.2461C58.2712 48.1949 58.1841 42.9973 58.1841 42.6266C58.1841 42.3539 58.1841 42.1181 58.6624 42.1181C58.7133 42.1181 58.7704 42.1207 58.8318 42.1258C59.0105 42.1409 59.3655 42.1541 59.815 42.1709C60.9063 42.2121 62.5546 42.2745 63.3701 42.4282C63.4666 42.4463 63.5622 42.464 63.6572 42.4812C64.6992 42.6725 65.6835 42.8531 66.5463 43.6232C67.4743 44.451 71.7547 48.741 71.7978 48.7842L71.8025 48.7893V57.0129L71.7863 57.0137C71.2498 57.0369 70.88 57.0769 70.6556 57.1362C70.0449 57.2968 68.9261 57.755 68.2914 59.0166C67.7522 60.0881 67.4844 62.3917 67.4153 63.0724L67.4135 63.0881L61.5007 63.0879C61.4989 63.0881 61.464 63.0925 61.4063 63.0925C61.1555 63.0925 60.5507 63.0129 60.3627 62.2759ZM68.2604 59.0009C68.901 57.7272 70.0305 57.2645 70.6468 57.1023C70.8717 57.043 71.2382 57.003 71.7679 56.9794V48.8039C71.5971 48.6325 67.4358 44.4636 66.5233 43.6494C65.6673 42.886 64.6879 42.7062 63.6509 42.5157C63.5555 42.4985 63.4597 42.4808 63.3638 42.4627C62.5506 42.3094 60.9036 42.2473 59.8136 42.206C59.3634 42.1892 59.0081 42.1758 58.8286 42.1608C58.7684 42.1557 58.7121 42.1532 58.6622 42.1532C58.2193 42.1532 58.2193 42.3519 58.2193 42.6266C58.2193 42.9969 58.3058 48.193 58.3654 49.2442C58.425 50.293 58.8346 54.508 58.8383 54.5481L59.0022 55.215L59.0768 55.9299C59.0879 55.9841 60.1668 61.3675 60.3965 62.2676C60.5785 62.9806 61.1634 63.0578 61.4065 63.0578C61.4618 63.0578 61.496 63.0533 61.4987 63.0533H67.3821C67.4544 62.3519 67.7229 60.0696 68.2604 59.0009Z" fill="#414E52"/>
<path opacity="0.4" d="M75.8548 50.8752C75.8548 50.8752 75.6403 51.4528 76.0473 52.2068C76.4546 52.9609 78.1232 53.9554 78.6216 54.282C79.12 54.6083 80.0753 54.8311 81.5855 54.7793C81.5855 54.7793 81.0304 53.8738 80.4898 53.2801C79.9493 52.6863 79.4233 52.1967 79.231 52.1447C79.0386 52.0927 77.9058 51.7883 77.4319 51.6252C76.958 51.4617 75.9324 50.9532 75.8548 50.8752Z" fill="black"/>
<path d="M75.889 50.9695C75.8978 50.9521 75.9067 50.9346 75.9162 50.9175C76.1571 51.064 77.0113 51.4801 77.4323 51.6251C77.906 51.7884 79.0389 52.0928 79.2314 52.1446C79.4237 52.1966 79.9496 52.6862 80.4902 53.2801C80.9529 53.7888 81.4262 54.5248 81.5522 54.7252C81.4284 54.7273 81.2459 54.7283 81.1598 54.7283C79.713 54.7283 78.9986 54.459 78.6536 54.2331C78.5936 54.1937 78.5164 54.1444 78.4265 54.0873C77.7848 53.6787 76.4497 52.829 76.0987 52.1793C75.792 51.6117 75.8501 51.1442 75.889 50.9695Z" fill="url(#paint61_linear_1663_41140)"/>
<path d="M77.1321 52.3105H78.6916L78.8334 53.0686L79.2522 54.4112H78.9997C78.8563 54.3525 78.742 54.2918 78.6531 54.2335C78.5931 54.1941 78.5159 54.1448 78.426 54.0877C78.0706 53.8617 77.5037 53.5002 77.0085 53.1125L77.1321 52.3105Z" fill="url(#paint62_linear_1663_41140)"/>
<path d="M76.373 52.5442L76.448 52.0576H77.7015L77.8154 52.6671L78.1521 53.7461H77.8978C77.3822 53.4043 76.7586 52.9599 76.373 52.5442Z" fill="url(#paint63_linear_1663_41140)"/>
<path d="M78.763 53.4297C78.9336 54.0091 79.1785 54.4472 79.3098 54.4084C79.4411 54.3692 79.4091 53.8682 79.2383 53.2887C79.0677 52.7095 78.8228 52.2713 78.6915 52.3101C78.5602 52.3495 78.592 52.8507 78.763 53.4297Z" fill="white"/>
<path d="M77.7591 52.9576C77.8963 53.4233 78.0934 53.7754 78.1986 53.7442C78.3042 53.7129 78.2784 53.31 78.1417 52.8443C78.0041 52.3786 77.8074 52.0264 77.7018 52.0577C77.5961 52.089 77.622 52.4919 77.7591 52.9576Z" fill="white"/>
<path d="M75.8884 51.5995H76.5791L76.6567 52.0134L76.8858 52.7468H76.5773C76.3672 52.5514 76.1954 52.3579 76.0985 52.1794C75.9847 51.969 75.9217 51.7726 75.8884 51.5995Z" fill="url(#paint64_linear_1663_41140)"/>
<path d="M76.618 52.2107C76.7114 52.5271 76.8451 52.7666 76.9169 52.7455C76.9886 52.7241 76.971 52.4504 76.878 52.134C76.7846 51.8176 76.6508 51.5783 76.5789 51.5996C76.5076 51.6206 76.5246 51.8945 76.618 52.2107Z" fill="white"/>
<path opacity="0.7" d="M75.889 50.9695C75.8978 50.9521 75.9067 50.9346 75.9162 50.9175C76.1571 51.064 77.0113 51.4801 77.4323 51.6251C77.906 51.7884 79.0389 52.0928 79.2314 52.1446C79.4237 52.1966 79.9496 52.6862 80.4902 53.2801C80.9529 53.7888 81.4262 54.5248 81.5522 54.7252C81.4284 54.7273 81.2459 54.7283 81.1598 54.7283C79.713 54.7283 78.9986 54.459 78.6536 54.2331C78.5936 54.1937 78.5164 54.1444 78.4265 54.0873C77.7848 53.6787 76.4497 52.829 76.0987 52.1793C75.792 51.6117 75.8501 51.1442 75.889 50.9695Z" fill="url(#paint65_linear_1663_41140)"/>
<path opacity="0.9" d="M78.1574 52.9008C77.1004 52.4315 76.3092 51.7077 75.8586 51.2227C75.8621 51.1125 75.8767 51.0255 75.889 50.9693C75.8977 50.9518 75.9067 50.9344 75.9162 50.9173C76.1571 51.0637 77.0113 51.4798 77.4323 51.6248C77.906 51.7881 79.0389 52.0926 79.2314 52.1443C79.4237 52.1963 79.9496 52.686 80.4902 53.2798C80.5301 53.3239 80.5702 53.3702 80.6103 53.4171C80.0487 53.427 79.1623 53.347 78.1574 52.9008Z" fill="white"/>
<path opacity="0.4" d="M6.54845 57.3101C6.54804 57.3054 6.37036 54.3913 6.37036 52.9632C6.37036 51.5956 6.47896 49.793 6.48848 49.6399L7.59753 50.8434C7.59753 50.8434 8.10019 51.5426 8.09249 52.1206C8.0852 52.6988 8.09189 57.3137 8.09189 57.3137L6.54845 57.3101Z" fill="black"/>
<path d="M6.5448 57.2449C6.51846 56.8097 6.37036 54.2674 6.37036 52.9632C6.37036 51.7418 6.45708 50.175 6.482 49.7443L7.54405 50.8822C7.54911 50.8891 8.03354 51.5698 8.02665 52.1198C8.01956 52.6539 8.02482 56.6789 8.02624 57.2475L6.5448 57.2449Z" fill="#B01120"/>
<path d="M7.35907 52.2159C7.34124 52.4348 7.35988 55.7396 7.35988 55.7396C7.35988 55.7396 7.32321 55.9777 7.1046 55.9955C6.9956 56.0045 6.72309 56.0045 6.47572 56.0022C6.42648 55.041 6.37036 53.7671 6.37036 52.9632C6.37036 52.6468 6.37603 52.3073 6.38515 51.9703H6.99499C6.99499 51.9703 7.3773 51.9967 7.35907 52.2159Z" fill="#E3E3E4"/>
<path d="M7.64167 57.2469L7.60034 50.9661C7.72798 51.1647 8.03229 51.6832 8.02662 52.1198C8.01953 52.6539 8.0248 56.6789 8.02622 57.2475L7.64167 57.2469Z" fill="#CA2A3A"/>
<path opacity="0.5" d="M6.54845 57.3101C6.54804 57.3054 6.37036 54.3913 6.37036 52.9632C6.37036 51.5956 6.47896 49.793 6.48848 49.6399L7.59753 50.8434C7.59753 50.8434 8.10019 51.5426 8.09249 52.1206C8.0852 52.6988 8.09189 57.3137 8.09189 57.3137L6.54845 57.3101Z" fill="url(#paint66_linear_1663_41140)"/>
<path d="M6.37891 53.5971H7.23146V54.5642H6.41011C6.39694 54.2299 6.386 53.9001 6.37891 53.5971Z" fill="#C9C9CA"/>
<g opacity="0.49">
<path d="M87.4689 67.7638C87.4689 67.8375 80.007 67.8974 46.21 67.8974C12.1238 67.8974 4.95117 67.8377 4.95117 67.7638C4.95117 67.6898 14.4652 67.6301 46.21 67.6301C80.2065 67.6303 87.4689 67.69 87.4689 67.7638Z" fill="white"/>
<path d="M46.2044 67.8945C68.8412 67.8945 87.1919 67.8362 87.1919 67.7643C87.1919 67.6924 68.8412 67.6342 46.2044 67.6342C23.5676 67.6342 5.2168 67.6924 5.2168 67.7643C5.2168 67.8362 23.5676 67.8945 46.2044 67.8945Z" fill="#EFEFEF"/>
<path d="M86.9151 67.7644C86.9151 67.8343 79.5512 67.8911 46.199 67.8911C12.5611 67.8911 5.48291 67.8345 5.48291 67.7644C5.48291 67.6944 14.8718 67.6377 46.199 67.6377C79.7484 67.6379 86.9151 67.6946 86.9151 67.7644Z" fill="#DFDFDF"/>
<path d="M46.1933 67.888C68.5304 67.888 86.6381 67.8328 86.6381 67.7647C86.6381 67.6966 68.5304 67.6414 46.1933 67.6414C23.8563 67.6414 5.74854 67.6966 5.74854 67.7647C5.74854 67.8328 23.8563 67.888 46.1933 67.888Z" fill="#CFCFCF"/>
<path d="M86.3612 67.765C86.3612 67.8312 79.0956 67.8849 46.1877 67.8849C12.9981 67.8849 6.01416 67.8312 6.01416 67.765C6.01416 67.6988 15.2778 67.6452 46.1877 67.6452C79.2899 67.6452 86.3612 67.699 86.3612 67.765Z" fill="#BFBFBF"/>
<path d="M46.1818 67.8818C68.2191 67.8818 86.0838 67.8297 86.0838 67.7654C86.0838 67.7011 68.2191 67.649 46.1818 67.649C24.1445 67.649 6.27979 67.7011 6.27979 67.7654C6.27979 67.8297 24.1445 67.8818 46.1818 67.8818Z" fill="#AFAFAF"/>
<path d="M46.1764 67.8787C68.0638 67.8787 85.8071 67.8281 85.8071 67.7657C85.8071 67.7034 68.0638 67.6528 46.1764 67.6528C24.2889 67.6528 6.54565 67.7034 6.54565 67.7657C6.54565 67.8281 24.2889 67.8787 46.1764 67.8787Z" fill="#9F9F9F"/>
<path d="M85.5302 67.766C85.5302 67.8263 78.4117 67.8755 46.1707 67.8755C13.6536 67.8755 6.81128 67.8265 6.81128 67.766C6.81128 67.7055 15.8873 67.6566 46.1707 67.6566C78.6021 67.6566 85.5302 67.7055 85.5302 67.766Z" fill="#8F8F8F"/>
<path d="M85.2532 67.7662C85.2532 67.8247 78.1837 67.8722 46.1651 67.8722C13.8722 67.8722 7.0769 67.8247 7.0769 67.7662C7.0769 67.7077 16.0903 67.6602 46.1651 67.6602C78.373 67.6602 85.2532 67.7077 85.2532 67.7662Z" fill="#808080"/>
<path d="M84.9763 67.7664C84.9763 67.823 77.9561 67.8689 46.1594 67.8689C14.0907 67.8689 7.34277 67.823 7.34277 67.7664C7.34277 67.7097 16.2936 67.6638 46.1594 67.6638C78.1439 67.664 84.9763 67.7099 84.9763 67.7664Z" fill="#707070"/>
<path d="M46.154 67.8659C67.442 67.8659 84.6994 67.8216 84.6994 67.7668C84.6994 67.7121 67.442 67.6677 46.154 67.6677C24.866 67.6677 7.60864 67.7121 7.60864 67.7668C7.60864 67.8216 24.866 67.8659 46.154 67.8659Z" fill="#606060"/>
<path d="M84.4224 67.767C84.4224 67.8198 77.5003 67.8627 46.1484 67.8627C14.528 67.8627 7.87427 67.8198 7.87427 67.767C7.87427 67.7142 16.7001 67.6714 46.1484 67.6714C77.6855 67.6716 84.4224 67.7142 84.4224 67.767Z" fill="#505050"/>
<path d="M46.1429 67.8598C67.1313 67.8598 84.1457 67.8185 84.1457 67.7676C84.1457 67.7166 67.1313 67.6754 46.1429 67.6754C25.1546 67.6754 8.14014 67.7166 8.14014 67.7676C8.14014 67.8185 25.1546 67.8598 46.1429 67.8598Z" fill="#404040"/>
<path d="M46.1371 67.8564C66.9755 67.8564 83.8684 67.8167 83.8684 67.7676C83.8684 67.7186 66.9755 67.6789 46.1371 67.6789C25.2986 67.6789 8.40576 67.7186 8.40576 67.7676C8.40576 67.8167 25.2986 67.8564 46.1371 67.8564Z" fill="#303030"/>
<path d="M46.1314 67.8532C66.82 67.8532 83.5914 67.815 83.5914 67.7679C83.5914 67.7208 66.82 67.6826 46.1314 67.6826C25.4428 67.6826 8.67139 67.7208 8.67139 67.7679C8.67139 67.815 25.4428 67.8532 46.1314 67.8532Z" fill="#202020"/>
<path d="M83.3145 67.7684C83.3145 67.8137 76.5887 67.8502 46.1258 67.8502C15.4021 67.8502 8.93726 67.8137 8.93726 67.7684C8.93726 67.7231 17.5127 67.6865 46.1258 67.6865C76.7686 67.6865 83.3145 67.7233 83.3145 67.7684Z" fill="#101010"/>
<path d="M83.0376 67.7686C83.0376 67.8119 76.3608 67.847 46.1201 67.847C15.6208 67.847 9.20288 67.8119 9.20288 67.7686C9.20288 67.7254 17.7157 67.6902 46.1201 67.6902C76.5395 67.6902 83.0376 67.7252 83.0376 67.7686Z" fill="black"/>
</g>
<defs>
<linearGradient id="paint0_linear_1663_41140" x1="73.9372" y1="57.4575" x2="87.9985" y2="33.1608" gradientUnits="userSpaceOnUse">
<stop stop-color="#FF8B00"/>
<stop offset="0.5313" stop-color="#FFC900"/>
<stop offset="0.666" stop-color="#FFC900"/>
<stop offset="0.7602" stop-color="#FFC900"/>
<stop offset="0.8419" stop-color="#FFB702"/>
<stop offset="0.9166" stop-color="#FF8B00"/>
<stop offset="0.9859" stop-color="#FF9500"/>
<stop offset="1" stop-color="#D65702"/>
</linearGradient>
<linearGradient id="paint1_linear_1663_41140" x1="82.2901" y1="75.2358" x2="82.2901" y2="16.2678" gradientUnits="userSpaceOnUse">
<stop stop-color="#D65702"/>
<stop offset="1" stop-color="#FFC900"/>
</linearGradient>
<linearGradient id="paint2_linear_1663_41140" x1="82.2901" y1="65.854" x2="82.2901" y2="43.3683" gradientUnits="userSpaceOnUse">
<stop stop-color="#D7D1EB"/>
<stop offset="1" stop-color="#F2EFFA"/>
</linearGradient>
<linearGradient id="paint3_linear_1663_41140" x1="22.4376" y1="58.1208" x2="22.4376" y2="68.0312" gradientUnits="userSpaceOnUse">
<stop stop-color="#555E61"/>
<stop offset="1" stop-color="#222B2E"/>
</linearGradient>
<linearGradient id="paint4_linear_1663_41140" x1="22.4377" y1="67.1095" x2="22.4377" y2="59.5899" gradientUnits="userSpaceOnUse">
<stop stop-color="#555E61"/>
<stop offset="1" stop-color="#222B2E"/>
</linearGradient>
<linearGradient id="paint5_linear_1663_41140" x1="22.438" y1="58.6927" x2="22.438" y2="68.7272" gradientUnits="userSpaceOnUse">
<stop stop-color="#F9FCFF"/>
<stop offset="1" stop-color="#76797A"/>
</linearGradient>
<linearGradient id="paint6_linear_1663_41140" x1="22.4378" y1="60.9907" x2="22.4378" y2="65.4438" gradientUnits="userSpaceOnUse">
<stop stop-color="#F9FCFF"/>
<stop offset="1" stop-color="#76797A"/>
</linearGradient>
<linearGradient id="paint7_linear_1663_41140" x1="22.4378" y1="60.813" x2="22.4378" y2="67.2144" gradientUnits="userSpaceOnUse">
<stop stop-color="#F9FCFF"/>
<stop offset="1" stop-color="#76797A"/>
</linearGradient>
<linearGradient id="paint8_linear_1663_41140" x1="22.4378" y1="64.4375" x2="22.4378" y2="61.7715" gradientUnits="userSpaceOnUse">
<stop stop-color="#F9FCFF"/>
<stop offset="1" stop-color="#76797A"/>
</linearGradient>
<linearGradient id="paint9_linear_1663_41140" x1="22.4377" y1="61.5093" x2="22.4377" y2="66.5816" gradientUnits="userSpaceOnUse">
<stop stop-color="#F9FCFF"/>
<stop offset="1" stop-color="#76797A"/>
</linearGradient>
<linearGradient id="paint10_linear_1663_41140" x1="22.4376" y1="63.715" x2="22.4376" y2="62.4151" gradientUnits="userSpaceOnUse">
<stop stop-color="#EFF2F5"/>
<stop offset="1" stop-color="#A6A9AB"/>
</linearGradient>
<linearGradient id="paint11_linear_1663_41140" x1="21.9875" y1="62.6627" x2="21.9875" y2="62.2362" gradientUnits="userSpaceOnUse">
<stop stop-color="#EFF2F5"/>
<stop offset="1" stop-color="#86898B"/>
</linearGradient>
<linearGradient id="paint12_linear_1663_41140" x1="21.9874" y1="62.3012" x2="21.9874" y2="62.6107" gradientUnits="userSpaceOnUse">
<stop stop-color="#EFF2F5"/>
<stop offset="1" stop-color="#86898B"/>
</linearGradient>
<linearGradient id="paint13_linear_1663_41140" x1="22.9706" y1="62.6627" x2="22.9706" y2="62.2362" gradientUnits="userSpaceOnUse">
<stop stop-color="#EFF2F5"/>
<stop offset="1" stop-color="#86898B"/>
</linearGradient>
<linearGradient id="paint14_linear_1663_41140" x1="22.9705" y1="62.3012" x2="22.9705" y2="62.6107" gradientUnits="userSpaceOnUse">
<stop stop-color="#EFF2F5"/>
<stop offset="1" stop-color="#86898B"/>
</linearGradient>
<linearGradient id="paint15_linear_1663_41140" x1="22.438" y1="64.209" x2="22.438" y2="63.7827" gradientUnits="userSpaceOnUse">
<stop stop-color="#EFF2F5"/>
<stop offset="1" stop-color="#86898B"/>
</linearGradient>
<linearGradient id="paint16_linear_1663_41140" x1="22.4378" y1="63.8476" x2="22.4378" y2="64.157" gradientUnits="userSpaceOnUse">
<stop stop-color="#EFF2F5"/>
<stop offset="1" stop-color="#86898B"/>
</linearGradient>
<linearGradient id="paint17_linear_1663_41140" x1="23.2742" y1="63.5992" x2="23.2742" y2="63.1727" gradientUnits="userSpaceOnUse">
<stop stop-color="#EFF2F5"/>
<stop offset="1" stop-color="#86898B"/>
</linearGradient>
<linearGradient id="paint18_linear_1663_41140" x1="23.2742" y1="63.2377" x2="23.2742" y2="63.5472" gradientUnits="userSpaceOnUse">
<stop stop-color="#EFF2F5"/>
<stop offset="1" stop-color="#86898B"/>
</linearGradient>
<linearGradient id="paint19_linear_1663_41140" x1="21.6695" y1="63.5992" x2="21.6695" y2="63.1727" gradientUnits="userSpaceOnUse">
<stop stop-color="#EFF2F5"/>
<stop offset="1" stop-color="#86898B"/>
</linearGradient>
<linearGradient id="paint20_linear_1663_41140" x1="21.6694" y1="63.2377" x2="21.6694" y2="63.5472" gradientUnits="userSpaceOnUse">
<stop stop-color="#EFF2F5"/>
<stop offset="1" stop-color="#86898B"/>
</linearGradient>
<linearGradient id="paint21_linear_1663_41140" x1="72.9752" y1="58.1208" x2="72.9752" y2="68.0312" gradientUnits="userSpaceOnUse">
<stop stop-color="#555E61"/>
<stop offset="1" stop-color="#222B2E"/>
</linearGradient>
<linearGradient id="paint22_linear_1663_41140" x1="72.9753" y1="67.1095" x2="72.9753" y2="59.5899" gradientUnits="userSpaceOnUse">
<stop stop-color="#555E61"/>
<stop offset="1" stop-color="#222B2E"/>
</linearGradient>
<linearGradient id="paint23_linear_1663_41140" x1="72.975" y1="58.6927" x2="72.975" y2="68.7272" gradientUnits="userSpaceOnUse">
<stop stop-color="#F9FCFF"/>
<stop offset="1" stop-color="#76797A"/>
</linearGradient>
<linearGradient id="paint24_linear_1663_41140" x1="72.9753" y1="60.9907" x2="72.9753" y2="65.4438" gradientUnits="userSpaceOnUse">
<stop stop-color="#F9FCFF"/>
<stop offset="1" stop-color="#76797A"/>
</linearGradient>
<linearGradient id="paint25_linear_1663_41140" x1="72.975" y1="60.813" x2="72.975" y2="67.2144" gradientUnits="userSpaceOnUse">
<stop stop-color="#F9FCFF"/>
<stop offset="1" stop-color="#76797A"/>
</linearGradient>
<linearGradient id="paint26_linear_1663_41140" x1="72.975" y1="64.4375" x2="72.975" y2="61.7715" gradientUnits="userSpaceOnUse">
<stop stop-color="#F9FCFF"/>
<stop offset="1" stop-color="#76797A"/>
</linearGradient>
<linearGradient id="paint27_linear_1663_41140" x1="72.9751" y1="61.5093" x2="72.9751" y2="66.5816" gradientUnits="userSpaceOnUse">
<stop stop-color="#F9FCFF"/>
<stop offset="1" stop-color="#76797A"/>
</linearGradient>
<linearGradient id="paint28_linear_1663_41140" x1="72.9754" y1="63.715" x2="72.9754" y2="62.4151" gradientUnits="userSpaceOnUse">
<stop stop-color="#EFF2F5"/>
<stop offset="1" stop-color="#A6A9AB"/>
</linearGradient>
<linearGradient id="paint29_linear_1663_41140" x1="72.5247" y1="62.6627" x2="72.5247" y2="62.2362" gradientUnits="userSpaceOnUse">
<stop stop-color="#EFF2F5"/>
<stop offset="1" stop-color="#86898B"/>
</linearGradient>
<linearGradient id="paint30_linear_1663_41140" x1="72.5246" y1="62.3012" x2="72.5246" y2="62.6107" gradientUnits="userSpaceOnUse">
<stop stop-color="#EFF2F5"/>
<stop offset="1" stop-color="#86898B"/>
</linearGradient>
<linearGradient id="paint31_linear_1663_41140" x1="73.5078" y1="62.6627" x2="73.5078" y2="62.2362" gradientUnits="userSpaceOnUse">
<stop stop-color="#EFF2F5"/>
<stop offset="1" stop-color="#86898B"/>
</linearGradient>
<linearGradient id="paint32_linear_1663_41140" x1="73.5076" y1="62.3012" x2="73.5076" y2="62.6107" gradientUnits="userSpaceOnUse">
<stop stop-color="#EFF2F5"/>
<stop offset="1" stop-color="#86898B"/>
</linearGradient>
<linearGradient id="paint33_linear_1663_41140" x1="72.9749" y1="64.209" x2="72.9749" y2="63.7827" gradientUnits="userSpaceOnUse">
<stop stop-color="#EFF2F5"/>
<stop offset="1" stop-color="#86898B"/>
</linearGradient>
<linearGradient id="paint34_linear_1663_41140" x1="72.9747" y1="63.8476" x2="72.9747" y2="64.157" gradientUnits="userSpaceOnUse">
<stop stop-color="#EFF2F5"/>
<stop offset="1" stop-color="#86898B"/>
</linearGradient>
<linearGradient id="paint35_linear_1663_41140" x1="73.8113" y1="63.5992" x2="73.8113" y2="63.1727" gradientUnits="userSpaceOnUse">
<stop stop-color="#EFF2F5"/>
<stop offset="1" stop-color="#86898B"/>
</linearGradient>
<linearGradient id="paint36_linear_1663_41140" x1="73.8115" y1="63.2377" x2="73.8115" y2="63.5472" gradientUnits="userSpaceOnUse">
<stop stop-color="#EFF2F5"/>
<stop offset="1" stop-color="#86898B"/>
</linearGradient>
<linearGradient id="paint37_linear_1663_41140" x1="72.2067" y1="63.5992" x2="72.2067" y2="63.1727" gradientUnits="userSpaceOnUse">
<stop stop-color="#EFF2F5"/>
<stop offset="1" stop-color="#86898B"/>
</linearGradient>
<linearGradient id="paint38_linear_1663_41140" x1="72.2068" y1="63.2377" x2="72.2068" y2="63.5472" gradientUnits="userSpaceOnUse">
<stop stop-color="#EFF2F5"/>
<stop offset="1" stop-color="#86898B"/>
</linearGradient>
<linearGradient id="paint39_linear_1663_41140" x1="13.8486" y1="40.6917" x2="13.2037" y2="41.6568" gradientUnits="userSpaceOnUse">
<stop stop-color="white"/>
<stop offset="1"/>
</linearGradient>
<radialGradient id="paint40_angular_1663_41140" cx="0" cy="0" r="1" gradientUnits="userSpaceOnUse" gradientTransform="translate(80.256 53.2613) scale(2.38603 2.39171)">
<stop stop-color="white"/>
<stop offset="1"/>
</radialGradient>
<linearGradient id="paint41_linear_1663_41140" x1="48.5167" y1="39.8937" x2="48.5167" y2="66.4678" gradientUnits="userSpaceOnUse">
<stop stop-color="white"/>
<stop offset="1"/>
</linearGradient>
<linearGradient id="paint42_linear_1663_41140" x1="33.312" y1="49.4524" x2="33.312" y2="42.8332" gradientUnits="userSpaceOnUse">
<stop stop-color="white"/>
<stop offset="1"/>
</linearGradient>
<linearGradient id="paint43_linear_1663_41140" x1="62.5493" y1="59.8456" x2="62.5493" y2="62.2498" gradientUnits="userSpaceOnUse">
<stop stop-color="#555E61"/>
<stop offset="1" stop-color="#222B2E"/>
</linearGradient>
<linearGradient id="paint44_linear_1663_41140" x1="58.8584" y1="59.8477" x2="58.8584" y2="62.2496" gradientUnits="userSpaceOnUse">
<stop stop-color="#555E61"/>
<stop offset="1" stop-color="#222B2E"/>
</linearGradient>
<linearGradient id="paint45_linear_1663_41140" x1="48.7538" y1="59.8464" x2="48.7538" y2="62.2495" gradientUnits="userSpaceOnUse">
<stop stop-color="#555E61"/>
<stop offset="1" stop-color="#222B2E"/>
</linearGradient>
<linearGradient id="paint46_linear_1663_41140" x1="34.877" y1="59.8464" x2="34.877" y2="62.2495" gradientUnits="userSpaceOnUse">
<stop stop-color="#555E61"/>
<stop offset="1" stop-color="#222B2E"/>
</linearGradient>
<linearGradient id="paint47_linear_1663_41140" x1="70.639" y1="48.1508" x2="70.3169" y2="50.5023" gradientUnits="userSpaceOnUse">
<stop stop-color="#555E61"/>
<stop offset="1" stop-color="#222B2E"/>
</linearGradient>
<linearGradient id="paint48_linear_1663_41140" x1="71.3618" y1="48.451" x2="71.082" y2="51.8363" gradientUnits="userSpaceOnUse">
<stop stop-color="#555E61"/>
<stop offset="0.201" stop-color="#3F484B"/>
<stop offset="0.4243" stop-color="#2F383B"/>
<stop offset="0.6738" stop-color="#252E31"/>
<stop offset="1" stop-color="#222B2E"/>
</linearGradient>
<linearGradient id="paint49_linear_1663_41140" x1="79.8474" y1="55.5766" x2="82.1466" y2="66.841" gradientUnits="userSpaceOnUse">
<stop offset="0.1021" stop-color="#3B4447"/>
<stop offset="1" stop-color="#081114"/>
</linearGradient>
<linearGradient id="paint50_linear_1663_41140" x1="76.9926" y1="56.0021" x2="80.3368" y2="63.7692" gradientUnits="userSpaceOnUse">
<stop stop-color="#485154"/>
<stop offset="1" stop-color="#151E21"/>
</linearGradient>
<linearGradient id="paint51_linear_1663_41140" x1="12.6985" y1="57.3249" x2="12.6985" y2="63.712" gradientUnits="userSpaceOnUse">
<stop stop-color="#555E61"/>
<stop offset="1" stop-color="#222B2E"/>
</linearGradient>
<linearGradient id="paint52_linear_1663_41140" x1="14.2023" y1="57.6015" x2="14.4412" y2="57.2679" gradientUnits="userSpaceOnUse">
<stop stop-color="#555E61"/>
<stop offset="1" stop-color="#222B2E"/>
</linearGradient>
<linearGradient id="paint53_linear_1663_41140" x1="60.1582" y1="51.719" x2="60.1582" y2="54.2868" gradientUnits="userSpaceOnUse">
<stop stop-color="#555E61"/>
<stop offset="1" stop-color="#222B2E"/>
</linearGradient>
<linearGradient id="paint54_linear_1663_41140" x1="60.1582" y1="53.9605" x2="60.1582" y2="52.0803" gradientUnits="userSpaceOnUse">
<stop stop-color="#555E61"/>
<stop offset="1" stop-color="#222B2E"/>
</linearGradient>
<linearGradient id="paint55_linear_1663_41140" x1="60.1462" y1="51.8888" x2="60.1462" y2="54.0847" gradientUnits="userSpaceOnUse">
<stop stop-color="#555E61"/>
<stop offset="1" stop-color="#222B2E"/>
</linearGradient>
<linearGradient id="paint56_linear_1663_41140" x1="7.56811" y1="60.1887" x2="5.80114" y2="60.5666" gradientUnits="userSpaceOnUse">
<stop stop-color="#3C4548"/>
<stop offset="1" stop-color="#091215"/>
</linearGradient>
<linearGradient id="paint57_linear_1663_41140" x1="7.55058" y1="57.8273" x2="5.99874" y2="57.8273" gradientUnits="userSpaceOnUse">
<stop stop-color="#555E61"/>
<stop offset="1" stop-color="#222B2E"/>
</linearGradient>
<linearGradient id="paint58_linear_1663_41140" x1="82.2935" y1="60.1029" x2="82.4389" y2="58.7413" gradientUnits="userSpaceOnUse">
<stop offset="0.0054" stop-color="#2F383B"/>
<stop offset="0.0705" stop-color="#555E61"/>
<stop offset="0.1196" stop-color="#727E82"/>
<stop offset="0.2156" stop-color="#4A5255"/>
<stop offset="0.8019" stop-color="#151A1C"/>
</linearGradient>
<linearGradient id="paint59_linear_1663_41140" x1="83.4698" y1="59.5678" x2="82.8503" y2="59.5678" gradientUnits="userSpaceOnUse">
<stop stop-color="white"/>
<stop offset="1"/>
</linearGradient>
<linearGradient id="paint60_linear_1663_41140" x1="82.9391" y1="64.1009" x2="82.9391" y2="61.7626" gradientUnits="userSpaceOnUse">
<stop stop-color="#3B4447"/>
<stop offset="1" stop-color="#081114"/>
</linearGradient>
<linearGradient id="paint61_linear_1663_41140" x1="78.7451" y1="52.8013" x2="78.2852" y2="53.6321" gradientUnits="userSpaceOnUse">
<stop stop-color="#474747"/>
<stop offset="0.004" stop-color="#4C4C4C"/>
<stop offset="0.0255" stop-color="#626262"/>
<stop offset="0.0509" stop-color="#737373"/>
<stop offset="0.0823" stop-color="#7E7E7E"/>
<stop offset="0.1264" stop-color="#858585"/>
<stop offset="0.2488" stop-color="#878787"/>
<stop offset="0.3574" stop-color="#D3D3D3"/>
<stop offset="0.4456" stop-color="#F3F3F3"/>
<stop offset="0.483" stop-color="white"/>
<stop offset="0.5577" stop-color="white"/>
<stop offset="0.7206" stop-color="#D3D3D3"/>
<stop offset="0.7706" stop-color="#BFBFBF"/>
<stop offset="0.8699" stop-color="#878787"/>
</linearGradient>
<linearGradient id="paint62_linear_1663_41140" x1="78.1304" y1="54.3731" x2="78.1304" y2="52.3012" gradientUnits="userSpaceOnUse">
<stop stop-color="#474747"/>
<stop offset="0.004" stop-color="#4C4C4C"/>
<stop offset="0.0255" stop-color="#626262"/>
<stop offset="0.0509" stop-color="#737373"/>
<stop offset="0.0823" stop-color="#7E7E7E"/>
<stop offset="0.1264" stop-color="#858585"/>
<stop offset="0.2488" stop-color="#878787"/>
<stop offset="0.3574" stop-color="#D3D3D3"/>
<stop offset="0.4456" stop-color="#F3F3F3"/>
<stop offset="0.483" stop-color="white"/>
<stop offset="0.5577" stop-color="white"/>
<stop offset="0.7206" stop-color="#D3D3D3"/>
<stop offset="0.7706" stop-color="#BFBFBF"/>
<stop offset="0.8699" stop-color="#878787"/>
</linearGradient>
<linearGradient id="paint63_linear_1663_41140" x1="77.2627" y1="52.1163" x2="77.2627" y2="53.9165" gradientUnits="userSpaceOnUse">
<stop stop-color="#474747"/>
<stop offset="0.004" stop-color="#4C4C4C"/>
<stop offset="0.0255" stop-color="#626262"/>
<stop offset="0.0509" stop-color="#737373"/>
<stop offset="0.0823" stop-color="#7E7E7E"/>
<stop offset="0.1264" stop-color="#858585"/>
<stop offset="0.2488" stop-color="#878787"/>
<stop offset="0.3574" stop-color="#D3D3D3"/>
<stop offset="0.4456" stop-color="#F3F3F3"/>
<stop offset="0.483" stop-color="white"/>
<stop offset="0.5577" stop-color="white"/>
<stop offset="0.7206" stop-color="#D3D3D3"/>
<stop offset="0.7706" stop-color="#BFBFBF"/>
<stop offset="0.8699" stop-color="#878787"/>
</linearGradient>
<linearGradient id="paint64_linear_1663_41140" x1="76.3872" y1="51.5703" x2="76.3872" y2="52.825" gradientUnits="userSpaceOnUse">
<stop stop-color="#474747"/>
<stop offset="0.004" stop-color="#4C4C4C"/>
<stop offset="0.0255" stop-color="#626262"/>
<stop offset="0.0509" stop-color="#737373"/>
<stop offset="0.0823" stop-color="#7E7E7E"/>
<stop offset="0.1264" stop-color="#858585"/>
<stop offset="0.2488" stop-color="#878787"/>
<stop offset="0.3574" stop-color="#D3D3D3"/>
<stop offset="0.4456" stop-color="#F3F3F3"/>
<stop offset="0.483" stop-color="white"/>
<stop offset="0.5577" stop-color="white"/>
<stop offset="0.7206" stop-color="#D3D3D3"/>
<stop offset="0.7706" stop-color="#BFBFBF"/>
<stop offset="0.8699" stop-color="#878787"/>
</linearGradient>
<linearGradient id="paint65_linear_1663_41140" x1="80.4586" y1="52.8229" x2="76.1859" y2="52.8229" gradientUnits="userSpaceOnUse">
<stop stop-color="white"/>
<stop offset="1"/>
</linearGradient>
<linearGradient id="paint66_linear_1663_41140" x1="8.09247" y1="53.4768" x2="6.37036" y2="53.4768" gradientUnits="userSpaceOnUse">
<stop stop-color="white"/>
<stop offset="1"/>
</linearGradient>
<clipPath id="clip0_1663_41140">
<rect width="36.7073" height="36.7949" fill="white" transform="translate(61.5854 30.0513)"/>
</clipPath>
</defs>
</svg>
