<svg width="105" height="115" viewBox="0 0 105 115" fill="none" xmlns="http://www.w3.org/2000/svg">
<rect width="105" height="115" rx="8" fill="#F0F4FF"/>
<g style="mix-blend-mode:multiply">
<path d="M39.6362 81.958L34.1827 78.8054C31.5556 77.2835 31.8817 74.6021 34.9255 72.8446L59.5479 58.64C62.5917 56.8826 67.2299 56.6833 69.8571 58.2052L75.3106 61.3577C77.9377 62.8797 77.6116 65.5611 74.5677 67.3186L49.9454 81.5412C46.9015 83.2987 42.2633 83.498 39.6362 81.9761V81.958Z" fill="#CDD2D6"/>
</g>
<path d="M62.6092 36.8261C61.957 35.4673 61.3228 34.0903 60.6706 32.7314C61.4859 34.4527 61.9207 36.6268 61.8845 39.1815C61.7395 48.8202 54.9272 60.3433 46.6835 64.9091L50.4701 64.746C57.6268 60.7782 63.5513 50.777 63.6782 42.4065C63.7144 40.1779 63.3339 38.2937 62.6273 36.808L62.6092 36.8261Z" fill="url(#paint0_linear_4701_123965)"/>
<path d="M50.4881 62.2636C56.467 58.948 61.4132 50.5957 61.5038 43.6021C61.5582 39.9966 60.3262 37.4601 58.2969 36.3005L59.076 36.7535C61.1052 37.913 62.3373 40.4496 62.2829 44.055C62.1742 51.0486 57.2461 59.401 51.2672 62.7166C48.3683 64.3291 45.7412 64.4559 43.8388 63.3507L43.0597 62.8978C44.9802 64.003 47.5892 63.8761 50.4881 62.2636Z" fill="url(#paint1_linear_4701_123965)"/>
<path d="M67.8815 32.3146L65.0913 30.7021C68.2076 32.4958 70.11 36.3912 70.0194 41.9172C69.8564 52.6612 62.2649 65.5068 53.0791 70.598L55.8693 72.2105C65.0732 67.1194 72.6647 54.2737 72.8096 43.5297C72.9002 38.0037 70.9978 34.0902 67.8815 32.3146Z" fill="#141414"/>
<path d="M35.9396 60.6327C35.9759 61.1581 36.0302 61.8467 36.1027 62.354C36.2839 63.749 36.61 64.7818 36.7187 65.1622C36.8999 65.7239 37.1717 66.4486 37.4434 66.956C37.6608 67.3908 37.987 67.9524 38.2587 68.3692C38.3856 68.5866 38.603 68.8583 38.7479 69.0576C39.074 69.4924 39.6176 70.0541 39.9075 70.3077C40.0887 70.4708 40.3242 70.6701 40.5054 70.815C40.8315 71.0506 41.3026 71.3586 41.6468 71.576C44.5819 73.261 48.6041 73.0798 53.0793 70.5976C62.2832 65.5065 69.8747 52.6608 70.0196 41.9168C70.1102 36.3908 68.2078 32.4773 65.0915 30.7018C64.6748 30.4844 64.1131 30.2126 63.6783 30.0314C63.3884 29.9227 63.0079 29.814 62.7181 29.7234C62.247 29.5784 61.3411 29.4154 60.6345 29.3791C60.1996 29.361 59.6199 29.3791 59.1669 29.3791C58.877 29.3791 58.4784 29.4335 58.2067 29.4698C57.6269 29.5604 56.8841 29.7234 56.3224 29.8684C55.9782 29.959 55.5252 30.1039 55.1991 30.2307C54.8548 30.3575 54.4019 30.5206 54.0576 30.6836C53.5322 30.9192 52.8256 31.2634 52.3183 31.5352C50.9232 32.2962 49.6368 33.2745 49.6187 33.2745C49.2564 33.5644 48.7672 33.9268 48.4048 34.2348C48.0062 34.5609 47.4808 35.0138 47.1003 35.3762C46.3937 36.0647 45.4878 37.0069 44.8356 37.7316C44.4732 38.1121 44.0384 38.6737 43.7123 39.0904C43.0781 39.8514 42.0092 41.3914 41.7012 41.8806C41.4294 42.3154 41.0489 42.8952 40.7953 43.3482C40.5416 43.8011 40.1974 44.399 39.9437 44.8519C39.6901 45.3049 39.4002 45.9209 39.1646 46.392C39.1646 46.392 38.4943 47.7508 37.842 49.5445C37.4978 50.4866 37.0992 51.7549 36.8455 52.7152C36.7731 52.9869 36.4107 54.382 36.1752 56.0308C35.9759 57.4621 35.9215 58.5854 35.9215 59.2739C35.9215 59.6906 35.9215 60.2341 35.9396 60.6509V60.6327ZM40.6322 56.0489C40.7409 49.0553 45.669 40.7029 51.6479 37.3873C57.6269 34.0717 62.3919 37.0612 62.3013 44.0548C62.1926 51.0483 57.2645 59.4007 51.2856 62.7163C45.3066 66.0319 40.5416 63.0424 40.6322 56.0489Z" fill="url(#paint2_linear_4701_123965)"/>
<path d="M57.8627 66.5034C63.8416 63.1878 68.7878 54.8354 68.8784 47.8418C68.9328 44.2364 67.7007 41.6998 65.6715 40.5403L66.4687 40.9932C68.4979 42.1528 69.73 44.6893 69.6756 48.2948C69.5669 55.2883 64.6388 63.6408 58.6598 66.9564C55.761 68.5689 53.1338 68.6957 51.2315 67.5905L50.4343 67.1375C52.3548 68.2427 54.9638 68.1159 57.8627 66.5034Z" fill="url(#paint3_linear_4701_123965)"/>
<path d="M45.5421 58.4226C45.5783 58.2233 45.6146 58.024 45.6689 57.8066C45.4153 59.1111 45.2703 60.4156 45.2522 61.6839C45.1254 70.3987 51.0681 74.1128 58.5146 69.9819C65.9792 65.851 72.1212 55.4513 72.248 46.7365C72.3749 38.0218 66.4322 34.3075 58.9856 38.4385C57.6993 39.1451 56.431 40.051 55.2533 41.1018C55.4164 40.9569 55.5613 40.8301 55.7244 40.6851C56.9927 39.5618 58.3153 38.6015 59.6923 37.8587C67.6098 33.4741 73.9149 37.4239 73.7699 46.664C73.625 55.9042 67.1025 66.9562 59.1849 71.3408C51.2674 75.7253 44.9623 71.7756 45.1072 62.5354C45.1254 61.1947 45.2884 59.8177 45.5602 58.4226H45.5421Z" fill="url(#paint4_linear_4701_123965)"/>
<path d="M45.2344 61.7023C45.3612 52.9876 51.5213 42.5697 58.9678 38.4569C66.4324 34.326 72.357 38.0402 72.2302 46.755C72.1034 55.4697 65.9433 65.8876 58.4968 70.0004C51.0321 74.1313 45.1075 70.4171 45.2344 61.7023ZM58.533 68.6053C65.3272 64.8549 70.9257 55.3611 71.0344 47.4254C71.1431 39.4897 65.744 36.1016 58.9497 39.8701C52.1554 43.6387 46.557 53.1144 46.4301 61.0501C46.3033 68.9858 51.7206 72.3738 58.5149 68.6053H58.533Z" fill="url(#paint5_linear_4701_123965)"/>
<path d="M44.4733 63.2784C44.3284 73.1346 51.0502 77.356 59.4931 72.6816C67.9361 68.0071 74.8935 56.2304 75.0384 46.3742C75.1833 36.518 68.4616 32.2965 60.0186 36.971C58.551 37.7863 57.1197 38.819 55.7608 40.0148C55.8333 40.2866 55.8333 40.4859 55.7608 40.6309C55.8333 40.4859 55.8514 40.2685 55.7608 40.0148C50.4885 44.6893 46.3395 51.9003 44.9625 58.8395C45.1256 58.7851 45.2705 58.7307 45.3611 58.6583C45.2705 58.7307 45.1256 58.8032 44.9625 58.8395C44.6726 60.3432 44.4914 61.8289 44.4733 63.2603V63.2784ZM45.0893 62.5536C45.1074 61.1948 45.2705 59.7997 45.5423 58.4046C45.7235 57.6256 45.959 56.5928 46.1764 55.8319C46.3032 55.397 46.4844 54.8353 46.6475 54.4005C46.7924 53.9838 47.0098 53.4222 47.1729 53.0054C47.5715 51.9727 48.4955 50.0341 49.2383 48.7658C49.7094 47.9686 50.3617 46.9178 50.9052 46.1387C51.3582 45.4683 52.0285 44.6168 52.5358 43.9827C53.0975 43.2761 53.478 42.8775 54.4926 41.8447C54.8368 41.5005 55.3079 41.0476 55.6702 40.7214C56.9385 39.5981 58.2792 38.6197 59.6562 37.8588C67.5738 33.4742 73.8789 37.424 73.7339 46.6641C73.589 55.9043 67.0665 66.9563 59.1489 71.3409C51.2313 75.7254 44.9263 71.7757 45.0712 62.5355L45.0893 62.5536Z" fill="url(#paint6_linear_4701_123965)"/>
<path d="M28.022 57.9155C28.2032 45.7039 36.8274 31.137 47.2634 25.3574C52.3545 22.5491 56.9384 22.3317 60.2721 24.2703C63.7689 26.2995 67.2656 28.3287 70.7624 30.3398C67.4287 28.4012 62.8448 28.6186 57.7718 31.4269C47.3539 37.1885 38.7479 51.7372 38.5667 63.9125C38.5123 67.0288 39.0197 69.6741 39.9799 71.812C42.0272 71.5765 44.2558 70.8336 46.593 69.5473L57.1014 75.5262C52.0646 78.3164 47.517 78.5338 44.1833 76.6495C40.6684 74.6565 37.1535 72.6636 33.6386 70.6706C30.0693 68.6414 27.8952 64.2205 28.0039 57.9155H28.022Z" fill="url(#paint7_linear_4701_123965)"/>
<path d="M43.2051 63.9667C43.3682 53.2952 50.9053 40.5221 60.0368 35.4671C69.1683 30.4122 76.4517 34.9598 76.2886 45.6495C76.1256 56.321 68.5885 69.0942 59.457 74.1491C50.3255 79.204 43.0421 74.6564 43.2051 63.9667ZM59.5295 70.5436C66.9579 66.4308 73.0999 56.0492 73.2267 47.3526C73.3535 38.6559 67.4289 34.9598 60.0005 39.0726C52.5722 43.1854 46.4301 53.567 46.3033 62.2636C46.1765 70.9603 52.1011 74.6564 59.5295 70.5436Z" fill="url(#paint8_linear_4701_123965)"/>
<path d="M58.732 75.6892C59.1487 75.4355 59.7285 75.1275 60.1271 74.8557C60.6344 74.5296 61.2866 74.0767 61.7758 73.7143C62.6274 73.0802 63.7145 72.1743 64.4754 71.4677C65.8343 70.1994 66.8489 69.058 67.175 68.6775C68.3164 67.3911 69.1136 66.2859 69.6028 65.6155C69.784 65.38 70.708 64.0937 71.7407 62.3543C72.393 61.231 73.009 60.0895 73.5707 58.93C75.1288 55.6325 75.8535 53.096 76.1978 51.7915C76.3427 51.2661 76.6869 49.8529 76.9406 48.2042C77.2124 46.3742 77.2486 45.0878 77.2486 44.6711C77.2848 43.5116 77.2486 42.4245 77.1218 41.3374C77.0674 40.7939 76.9406 40.0873 76.85 39.5618C76.7775 39.1814 76.6507 38.6922 76.5601 38.3298C76.4333 37.8044 76.1796 37.134 75.9803 36.6267C75.8716 36.3187 75.6723 35.9201 75.5455 35.6302C75.31 35.1229 74.9476 34.4707 74.6215 34.0177C74.2773 33.5467 73.8062 32.9488 73.4438 32.5139C73.2445 32.2784 72.9546 32.0066 72.7372 31.8073C72.5379 31.6261 72.2662 31.3906 72.0487 31.2276C71.6864 30.9558 71.1791 30.6116 70.7805 30.376C67.4468 28.4374 62.8629 28.6548 57.7899 31.4631C47.372 37.2246 38.7659 51.7734 38.5848 63.9487C38.4942 70.2357 40.6683 74.6746 44.2195 76.6857C44.455 76.8125 44.763 76.9755 45.0167 77.1024C45.3247 77.2473 45.7414 77.4104 46.0494 77.5191C46.5748 77.7003 47.2814 77.8634 47.8249 77.9902C48.2598 78.0808 48.8577 78.1532 49.3106 78.1713C49.8179 78.2076 50.4702 78.2076 50.9775 78.1713C51.3036 78.1532 51.7566 78.117 52.0827 78.0626C52.7349 77.9539 53.6046 77.809 54.2387 77.6097C55.0178 77.356 56.0505 77.0118 56.7934 76.6857C57.4094 76.432 58.1885 76.0153 58.7682 75.7073C59.2031 75.4718 59.493 74.9282 59.493 74.1673C50.3615 79.2222 43.078 74.6746 43.2411 63.9849C43.4041 53.3134 50.9412 40.5402 60.0727 35.4853C69.2042 30.4303 76.4877 34.978 76.3246 45.6676C76.1615 56.3392 68.6244 69.1123 59.493 74.1673C59.493 74.9282 59.2031 75.4718 58.7682 75.7073L58.732 75.6892Z" fill="url(#paint9_linear_4701_123965)"/>
<path d="M69.9113 29.8688L69.5852 29.6695L69.6758 29.7238C69.8751 29.8507 70.1469 29.9956 70.3643 30.1224L69.9113 29.8688ZM60.9067 24.6508L61.3596 24.9044C61.1603 24.7776 60.8886 24.6327 60.6711 24.5058L60.5806 24.4515L60.9067 24.6508ZM67.411 28.4193C67.0849 28.2382 66.6501 28.057 66.3058 27.912C66.9037 28.2563 67.4835 28.6005 68.0814 28.9448L68.9873 29.3796L69.1866 29.4521C68.5887 29.1078 68.0089 28.7636 67.411 28.4193ZM69.1504 29.4702L68.2445 29.0353H68.0089L68.3351 29.2165L69.2591 29.6151L69.4765 29.6513L69.1504 29.4521V29.4702ZM66.6501 27.9664C66.3783 27.8033 66.016 27.604 65.7442 27.4409L65.6717 27.4047C65.6717 27.4047 65.7985 27.4772 65.8529 27.5316L66.6682 27.9845L66.6501 27.9664ZM67.2117 28.2925L67.1393 28.2563L66.8494 28.0932L65.871 27.5497C65.871 27.5497 66.0341 27.7127 66.1065 27.7852C66.4327 27.9301 66.8856 28.1294 67.2117 28.2925ZM61.5408 25.0131L60.653 24.5421L60.4356 24.5058C61.0335 24.8501 61.6133 25.1943 62.2112 25.5386C62.5554 25.6654 62.9902 25.9009 63.3164 26.0459C62.7185 25.7016 62.1387 25.3574 61.5408 25.0131ZM60.1457 24.2522L59.2398 23.8173H59.0043L59.3304 23.9985L60.2544 24.3971L60.4718 24.4334L60.1457 24.2341V24.2522ZM65.2188 27.133L65.2912 27.1692C65.0195 27.0061 64.6571 26.8069 64.3853 26.6438L64.2042 26.5532C64.5122 26.7162 64.9108 26.9518 65.2006 27.1148L65.2188 27.133ZM63.9686 26.4445L64.186 26.535L63.8962 26.372L63.4794 26.1365C63.1533 25.9734 62.7185 25.756 62.3742 25.6291C62.8453 25.8647 63.4794 26.2089 63.9686 26.4445ZM65.8529 27.7308C65.5087 27.5859 65.0195 27.5135 64.6571 27.4229L66.4327 28.4556L67.3748 28.7998H67.6285C67.0306 28.4374 66.4508 28.0932 65.8529 27.749V27.7308ZM67.556 28.8904L66.6139 28.5462L66.324 28.6367L66.6501 28.8361L67.6103 29.126L67.8821 29.0716L67.556 28.8723V28.8904ZM65.255 27.1873C64.947 26.988 64.4759 26.8612 64.1317 26.7162C64.1679 26.7706 64.2223 26.8612 64.2585 26.9156C64.639 27.0605 65.1463 27.296 65.5268 27.4591C65.4362 27.3504 65.4181 27.3504 65.255 27.1873ZM65.563 27.4954C65.2369 27.2417 64.6752 27.1149 64.2766 26.9699C64.331 27.0786 64.4035 27.2235 64.4578 27.3322C64.8202 27.4047 65.3094 27.5497 65.6536 27.6403L65.5449 27.4954H65.563ZM60.0008 24.3247L59.0586 23.9442L58.7869 23.9985C59.3848 24.3428 59.9645 24.687 60.5624 25.0313C60.9248 25.1037 61.414 25.2487 61.7582 25.3393L59.9827 24.3066L60.0008 24.3247ZM58.5513 23.6724L57.6092 23.3282L57.3193 23.4188L57.6454 23.6181L58.6057 23.908L58.8775 23.8536L58.5513 23.6543V23.6724ZM64.8021 26.9156C64.1498 26.5532 64.0954 26.5351 62.9721 25.9553C62.8634 25.9553 62.7366 25.9553 62.6279 25.9553C62.9359 26.1003 63.3526 26.2995 63.6787 26.4445C64.023 26.5713 64.4759 26.7706 64.8021 26.9156ZM62.7185 25.8466L61.9394 25.4661C61.577 25.3574 61.0879 25.2487 60.7255 25.1581C61.2147 25.3574 61.8851 25.6473 62.3742 25.8647C62.4829 25.8647 62.6098 25.8647 62.7185 25.8647V25.8466ZM64.1679 27.3322C63.8056 27.2054 63.262 27.2598 62.8634 27.2235C63.4613 27.5678 64.0411 27.912 64.639 28.2563L65.6355 28.4918L65.9435 28.365L64.1679 27.3322ZM65.8167 28.6005L64.8202 28.365L64.494 28.5643L64.8202 28.7636L65.8348 28.9629L66.1428 28.7998L65.8167 28.6005ZM63.6606 26.5713C63.2983 26.4626 62.8091 26.3901 62.4286 26.2996C62.4648 26.3901 62.5011 26.4988 62.5192 26.5713C62.9178 26.68 63.4613 26.8431 63.8599 26.9699C63.7874 26.8069 63.7874 26.8068 63.6606 26.5532V26.5713ZM63.8962 27.0243C63.4976 26.8974 62.954 26.7525 62.5554 26.6257C62.5917 26.7706 62.646 26.9699 62.6822 27.1148C63.0808 27.1148 63.5881 27.1873 63.9867 27.2235L63.9143 27.0243H63.8962ZM58.2977 23.9442L57.3193 23.6724L56.9932 23.8355C57.2106 23.9623 57.5005 24.1254 57.7179 24.2522C58.0259 24.4334 58.4607 24.6689 58.7687 24.8682C59.1673 24.8682 59.6747 24.9407 60.0732 24.9769C59.8558 24.8501 59.5659 24.687 59.3485 24.5602C59.0405 24.379 58.6057 24.1435 58.2977 23.9442ZM56.812 23.3644L55.8155 23.1289L55.4894 23.3282L55.8155 23.5275L56.8301 23.7268L57.1562 23.5637L56.8301 23.3644H56.812ZM63.2077 26.2996C62.5192 25.9916 62.4467 25.9553 61.3053 25.4842C61.1784 25.5205 61.0154 25.5748 60.9067 25.6291C61.2328 25.756 61.6676 25.919 61.9938 26.0277C62.3742 26.0821 62.8453 26.209 63.2258 26.2996H63.2077ZM61.0516 25.3755L60.2363 25.0494C59.8558 24.9951 59.3304 24.9769 58.9318 24.9407C59.4391 25.1038 60.1276 25.3393 60.6349 25.5204C60.7617 25.4661 60.9248 25.4118 61.0516 25.3755ZM62.338 27.2235C61.9394 27.1148 61.3777 27.296 60.961 27.3322C61.5589 27.6765 62.1387 28.0207 62.7366 28.365L63.7693 28.4918L64.1136 28.2563C63.5157 27.912 62.9359 27.5678 62.338 27.2235ZM63.9505 28.6005L62.9178 28.4737L62.5373 28.7817L62.8634 28.981L63.9143 29.0716L64.2766 28.7998L63.9505 28.6005ZM61.9394 26.2271C61.5408 26.1908 61.0154 26.1908 60.6168 26.1727C60.6349 26.2814 60.653 26.4263 60.6711 26.535C61.0879 26.6075 61.6495 26.7163 62.0662 26.7887C62.0119 26.5713 62.0119 26.5532 61.9213 26.2271H61.9394ZM62.1025 26.8612C61.6857 26.7706 61.1241 26.6981 60.6893 26.6257C60.7074 26.8069 60.7436 27.0605 60.7617 27.2417C61.1785 27.1873 61.722 27.1692 62.1387 27.133L62.0844 26.8793L62.1025 26.8612ZM56.4678 23.8355L55.435 23.6724L55.0727 23.9442C55.6706 24.2884 56.2503 24.6327 56.8482 24.9769C57.265 24.9226 57.8085 24.9045 58.2252 24.8682C58.0078 24.7414 57.7179 24.5783 57.5005 24.4515C57.1925 24.2703 56.7577 24.0348 56.4496 23.8355H56.4678ZM54.9458 23.3825L53.9131 23.2557L53.5326 23.5637L53.8588 23.763L54.9096 23.8536L55.272 23.5819L54.9458 23.3825ZM61.4865 25.9734C60.7799 25.7197 60.7255 25.7016 59.5116 25.303C59.3666 25.3755 59.1855 25.5023 59.0405 25.5929C59.3848 25.6835 59.8196 25.8103 60.1638 25.919C60.5624 25.919 61.0879 25.9553 61.4865 25.9734ZM59.2579 25.2125L58.4245 24.9588C58.0078 24.9588 57.4461 25.0313 57.0475 25.0675C57.573 25.1943 58.2796 25.3755 58.805 25.5204C58.9499 25.4299 59.1311 25.3031 59.2761 25.2125H59.2579ZM60.3994 27.4229C59.9645 27.3504 59.3848 27.6584 58.9499 27.749C59.5478 28.0932 60.1276 28.4375 60.7255 28.7817H61.7945L62.1749 28.4556C61.577 28.1114 60.9973 27.7671 60.3994 27.4229ZM61.9756 28.8904H60.9067L60.5081 29.3072L60.8342 29.5064L61.9213 29.4702L62.3199 29.0897L61.9938 28.8904H61.9756ZM60.0914 26.1909C59.6746 26.209 59.113 26.2996 58.6963 26.3539C58.6963 26.4807 58.7144 26.6619 58.7325 26.8069C59.1673 26.825 59.7471 26.8793 60.182 26.9156C60.1638 26.6438 60.1457 26.6257 60.0914 26.2089V26.1909ZM60.182 27.0061C59.7471 26.9699 59.1673 26.9337 58.7325 26.9156C58.7325 27.133 58.7506 27.441 58.7687 27.6584C59.2036 27.5316 59.7834 27.4228 60.2182 27.3322L60.182 27.0061ZM54.5291 24.0167L53.4602 23.9623L53.0616 24.3428C53.6595 24.687 54.2392 25.0313 54.8371 25.3755C55.272 25.2487 55.8517 25.14 56.2866 25.0494C55.6887 24.7052 55.1089 24.3609 54.511 24.0167H54.5291ZM52.971 23.6724H51.902L51.4853 24.0892L51.8114 24.2884L52.8985 24.2522L53.2971 23.8718L52.971 23.6724ZM59.6384 25.9372C58.9137 25.7379 58.8593 25.7197 57.6092 25.4117C57.4461 25.5386 57.2468 25.7198 57.0838 25.8466C57.428 25.9191 57.881 26.0096 58.2252 26.0821C58.6419 26.0096 59.2036 25.9734 59.6203 25.919L59.6384 25.9372ZM57.3374 25.3574L56.4678 25.1581C56.0329 25.2306 55.4532 25.3936 55.0002 25.4842C55.5437 25.5748 56.2685 25.7017 56.812 25.7923C56.957 25.6473 57.1744 25.4843 57.3374 25.3393V25.3574ZM58.3701 27.9302C57.8991 28.0751 57.3012 28.3106 56.8482 28.4918C57.4461 28.8361 58.0259 29.1803 58.6238 29.5246L59.729 29.4159L60.1457 28.9629C59.5478 28.6187 58.968 28.2744 58.3701 27.9302ZM59.9102 29.5064L58.805 29.6151L58.3701 30.1587L58.6963 30.358L59.8196 30.2131L60.2363 29.7238L59.9102 29.5246V29.5064ZM58.1346 26.4626C57.6817 26.5532 57.1019 26.7344 56.6671 26.8431C56.6671 27.0061 56.6671 27.2236 56.6671 27.3685C57.12 27.3504 57.7179 27.3323 58.1709 27.3142C58.1709 26.988 58.1709 26.9518 58.1346 26.4445V26.4626ZM58.1709 27.4409C57.7179 27.4409 57.12 27.4772 56.6671 27.4954C56.6671 27.7671 56.6671 28.1114 56.6671 28.3831C57.12 28.2019 57.736 27.9845 58.189 27.8215V27.4229L58.1709 27.4409ZM52.4999 24.524L51.4128 24.5783L50.978 25.0675C51.5759 25.4117 52.1557 25.756 52.7536 26.1002C53.2065 25.9191 53.8225 25.7198 54.2755 25.5386C53.6776 25.1943 53.0978 24.8501 52.4999 24.5058V24.524ZM50.8874 24.2884L49.7822 24.3971L49.3474 24.9407L49.6735 25.14L50.7968 24.9951L51.2317 24.5058L50.9055 24.3066L50.8874 24.2884ZM57.6817 26.1909C56.9207 26.0459 56.8845 26.0459 55.5981 25.8285C55.4169 26.0097 55.1995 26.2452 55.0364 26.4263C55.3988 26.4626 55.8517 26.5351 56.2141 26.5713C56.6489 26.4445 57.2468 26.2996 57.6817 26.1909ZM55.3263 25.7923L54.4385 25.6654C53.9675 25.8104 53.3696 26.064 52.9166 26.2271C53.4783 26.2814 54.203 26.3358 54.7647 26.4083C54.9277 26.2271 55.1633 25.9915 55.3263 25.8103V25.7923ZM56.2503 28.7454C55.7612 28.9629 55.1451 29.289 54.6741 29.5246C55.272 29.8688 55.8517 30.213 56.4496 30.5572L57.5911 30.3398L58.0259 29.7782C57.428 29.4339 56.8482 29.0897 56.2503 28.7454ZM57.7541 30.4485L56.6127 30.666L56.1598 31.3182L56.4859 31.5175L57.6273 31.2639L58.0803 30.6479L57.7541 30.4485ZM56.0692 27.0243C55.5981 27.1873 55.0002 27.441 54.5291 27.6403C54.5291 27.8215 54.5291 28.0751 54.511 28.2563C54.964 28.1838 55.5981 28.1113 56.051 28.0389C56.051 27.6584 56.051 27.5859 56.051 27.0243H56.0692ZM56.051 28.1838C55.58 28.2381 54.964 28.3288 54.511 28.4013C54.511 28.7093 54.4748 29.1259 54.4748 29.4339C54.9458 29.1803 55.58 28.8723 56.051 28.6367V28.1838ZM50.362 25.3393L49.2387 25.5204L48.7857 26.1365C49.3836 26.4807 49.9634 26.8249 50.5613 27.1692C51.0324 26.9155 51.6665 26.6256 52.1376 26.372C51.5397 26.0277 50.9599 25.6835 50.362 25.3393ZM48.7314 25.2306L47.5899 25.448L47.137 26.1002L47.4631 26.2996L48.6045 26.0459L49.0575 25.4299L48.7314 25.2306ZM55.6162 26.7706C54.8553 26.68 54.8009 26.68 53.4964 26.5713C53.3152 26.7887 53.0797 27.0967 52.8985 27.3322C53.2609 27.3322 53.7319 27.3685 54.0943 27.3866C54.5473 27.1873 55.1633 26.9699 55.6343 26.7706H55.6162ZM53.2065 26.535L52.3006 26.4807C51.8114 26.6981 51.1954 27.0424 50.7244 27.2779C51.286 27.2779 52.0288 27.2779 52.5905 27.3142C52.7717 27.0786 53.0072 26.7706 53.2065 26.5532V26.535ZM54.0399 29.8869C53.5508 30.1768 52.9347 30.5754 52.4637 30.8834C53.0616 31.2277 53.6595 31.5719 54.2392 31.9161L55.3626 31.6081L55.8155 30.9378C55.5981 30.8109 55.3082 30.6479 55.0908 30.521C54.7828 30.3399 54.348 30.1043 54.0399 29.905V29.8869ZM55.5619 31.6806L54.4385 31.9886L54.0037 32.7314L54.3298 32.9308L55.435 32.5865L55.8699 31.8799L55.5437 31.6806H55.5619ZM53.9312 27.912C53.4421 28.1476 52.826 28.4918 52.355 28.7454C52.355 28.9629 52.3369 29.2347 52.3187 29.4521C52.7898 29.3253 53.4058 29.1984 53.8769 29.0897C53.895 28.6367 53.895 28.5824 53.9312 27.912ZM53.8769 29.2709C53.4058 29.3796 52.7898 29.5245 52.3187 29.6513C52.3187 29.9956 52.3006 30.4486 52.2825 30.7928C52.7355 30.4848 53.3877 30.1043 53.8588 29.7963V29.2709H53.8769ZM48.1697 26.4807L47.0464 26.7706L46.6116 27.4772C47.2095 27.8215 47.8073 28.1657 48.3871 28.51C48.8401 28.202 49.4923 27.8214 49.9634 27.5134C49.3655 27.1692 48.7857 26.8249 48.1878 26.4807H48.1697ZM46.521 26.4626L45.3977 26.7887L44.9628 27.5316L45.2889 27.7308L46.3941 27.3866L46.829 26.68L46.5029 26.4807L46.521 26.4626ZM53.4783 27.6584C52.6992 27.6222 52.6086 27.6221 51.3041 27.6221C51.1048 27.8939 50.8693 28.2563 50.67 28.528C51.0324 28.528 51.5215 28.5099 51.8839 28.4918C52.355 28.2201 52.9891 27.9121 53.4602 27.6584H53.4783ZM51.0142 27.6221H50.1083C49.6192 27.912 49.0031 28.3287 48.5321 28.6367C49.0937 28.6005 49.8366 28.5643 50.3982 28.5462C50.5794 28.2744 50.8331 27.912 51.0142 27.6221ZM51.8839 31.3001C51.4128 31.6443 50.8149 32.1154 50.362 32.4597C50.9599 32.8039 51.5578 33.1482 52.1376 33.4924L53.2246 33.0938L53.6414 32.3328C53.0435 31.9886 52.4456 31.6443 51.8658 31.3001H51.8839ZM53.4058 33.1844L52.3187 33.583L51.9201 34.3983L52.2463 34.5976L53.3333 34.1628L53.7501 33.3656L53.4239 33.1662L53.4058 33.1844ZM51.7208 29.126C51.2498 29.4159 50.6338 29.8506 50.1627 30.1587C50.1627 30.3942 50.1627 30.7022 50.1627 30.9378C50.6156 30.7747 51.2317 30.5935 51.7027 30.4485C51.7027 30.1224 51.7148 29.6816 51.739 29.126H51.7208ZM51.6846 30.6297C51.2317 30.7747 50.6156 30.974 50.1627 31.119C50.1627 31.4994 50.1627 31.9886 50.1627 32.3691C50.6156 32.0067 51.2317 31.5538 51.6846 31.2095V30.6297ZM45.9955 27.8939L44.8903 28.2744L44.4736 29.0716C44.691 29.1984 44.9809 29.3615 45.1984 29.4883C45.5064 29.6695 45.9412 29.905 46.2492 30.0862C46.7021 29.7239 47.3182 29.2709 47.7711 28.9266C47.1732 28.5824 46.5753 28.2381 45.9955 27.8939ZM44.383 27.9845L43.2778 28.3831L42.8792 29.1984L43.2054 29.3977L44.2925 28.9629L44.7092 28.1657L44.383 27.9664V27.9845ZM51.2679 28.8723C50.4888 28.8904 50.4345 28.9086 49.1118 28.9629C48.9307 29.2709 48.6951 29.6876 48.514 29.9956C48.8763 29.9594 49.3474 29.9231 49.6916 29.905C50.1446 29.5789 50.7787 29.1803 51.2498 28.8723H51.2679ZM48.8401 28.981L47.9342 29.0535C47.4631 29.3977 46.8652 29.8688 46.4123 30.2131C46.9558 30.1587 47.6986 30.0681 48.2422 30.0137C48.4234 29.7057 48.6589 29.289 48.8401 28.981ZM49.7822 32.9488C49.3293 33.3293 48.7676 33.8729 48.3147 34.2715C48.9125 34.6157 49.5104 34.96 50.0902 35.3042L51.1592 34.8331L51.5578 33.9816C50.9599 33.6373 50.362 33.2931 49.7822 32.9488ZM51.3404 34.9237L50.2714 35.3948L49.909 36.2825L50.2352 36.4819L51.286 35.9746L51.6665 35.1049L51.3404 34.9056V34.9237ZM49.5648 30.5935C49.0937 30.9378 48.514 31.427 48.061 31.7893C48.061 32.043 48.061 32.3691 48.061 32.6227C48.514 32.4415 49.1118 32.206 49.5467 32.0249C49.5467 31.6746 49.5467 31.1914 49.5467 30.5754L49.5648 30.5935ZM49.5648 32.2241C49.1118 32.4053 48.514 32.6408 48.0791 32.8401C48.0791 33.2387 48.1154 33.7823 48.1154 34.1809C48.5502 33.7641 49.13 33.2569 49.5648 32.8583V32.2241ZM43.8939 29.5426L42.8068 29.9956L42.4263 30.8653C43.0242 31.2095 43.6221 31.5538 44.2019 31.898C44.6367 31.4813 45.2165 30.974 45.6694 30.5754C45.0715 30.2311 44.4736 29.8869 43.8939 29.5426ZM42.2995 29.7057L41.2305 30.1768L40.8681 31.0646L41.1943 31.2639L42.2451 30.7566L42.6256 29.8869L42.2995 29.6876V29.7057ZM49.1118 30.3398C48.3509 30.4123 48.2603 30.4123 46.992 30.5572C46.829 30.9015 46.6116 31.3545 46.4304 31.6987C46.7746 31.6443 47.2457 31.59 47.5899 31.5356C48.0248 31.1552 48.6408 30.6841 49.0937 30.3398H49.1118ZM46.7203 30.5935L45.8325 30.7022C45.3795 31.0827 44.8179 31.6263 44.383 32.0249C44.9266 31.9343 45.6332 31.8256 46.1767 31.735C46.3398 31.3907 46.5572 30.9378 46.7203 30.5935ZM47.753 34.7969C47.3182 35.2317 46.7746 35.8115 46.3579 36.2645C46.9558 36.6087 47.5537 36.9529 48.1335 37.2972L49.1662 36.7536L49.5286 35.8296C49.3111 35.7028 49.0213 35.5397 48.8038 35.4129C48.4958 35.2317 48.061 34.9962 47.753 34.815V34.7969ZM49.3655 36.8442L48.3328 37.3878L48.0066 38.348L48.3328 38.5473L49.3474 37.9856L49.6916 37.0435L49.3655 36.8442ZM47.4812 32.2966C47.0283 32.6952 46.4666 33.2388 46.0318 33.6555C46.0318 33.9272 46.068 34.2896 46.068 34.5432C46.5028 34.3258 47.0826 34.0541 47.5175 33.8367C47.4993 33.275 47.4993 33.2569 47.4812 32.2966ZM47.5356 34.0541C47.1007 34.2534 46.521 34.5432 46.0861 34.7606C46.1043 35.1955 46.1405 35.7571 46.1767 36.1738C46.5753 35.7209 47.1551 35.1593 47.5718 34.7244L47.5356 34.0541ZM41.8828 31.4088L40.8319 31.9342L40.4877 32.8764C40.7051 33.0032 40.995 33.1663 41.2124 33.2931C41.5204 33.4743 41.9552 33.7098 42.2632 33.891C42.6618 33.4381 43.2416 32.8764 43.6583 32.4234L41.8828 31.3907V31.4088ZM40.3246 31.6443L39.2919 32.1879L38.9658 33.1482L39.2919 33.3474L40.3065 32.7858L40.6507 31.8437L40.3246 31.6443ZM47.0283 32.0429C46.2673 32.1516 46.1948 32.1698 44.9447 32.3691C44.7816 32.7314 44.5823 33.2387 44.4374 33.6192C44.7816 33.5467 45.2346 33.4743 45.5788 33.4018C45.9955 32.9851 46.5934 32.4597 47.0283 32.0429ZM44.6729 32.4053L43.8033 32.5684C43.3684 33.0032 42.8249 33.583 42.4082 34.0359C42.9336 33.9272 43.6402 33.7823 44.1656 33.6736C44.3106 33.2931 44.5099 32.8039 44.6729 32.4234V32.4053ZM45.8506 36.8623C45.452 37.3334 44.9447 37.9675 44.5461 38.4386C44.7635 38.5654 45.0534 38.7285 45.2708 38.8553C45.5788 39.0365 46.0137 39.272 46.3217 39.4532L47.3 38.8553L47.6262 37.8769C47.0283 37.5327 46.4304 37.1884 45.8506 36.8442V36.8623ZM47.4812 38.964L46.5029 39.5619L46.213 40.5765L46.5391 40.7758L47.5175 40.1598L47.8255 39.1633L47.4993 38.964H47.4812ZM45.4882 34.199C45.0715 34.6338 44.528 35.2317 44.1113 35.6847C44.1294 35.9746 44.1656 36.3369 44.1837 36.6268C44.6005 36.3913 45.1621 36.0833 45.5788 35.8477C45.5547 35.4491 45.5245 34.8996 45.4882 34.199ZM45.597 36.0651C45.1802 36.3007 44.6186 36.6268 44.2019 36.8623C44.2381 37.3153 44.2925 37.9132 44.3287 38.348C44.7092 37.8588 45.2346 37.2428 45.6332 36.7718L45.5788 36.0651H45.597ZM39.9622 33.4743L38.9658 34.0541L38.6578 35.0505C38.8752 35.1774 39.1651 35.3404 39.3825 35.4673C39.6905 35.6485 40.1253 35.884 40.4333 36.0651C40.8138 35.576 41.3392 34.96 41.7378 34.4889L39.9622 33.4561V33.4743ZM38.4403 33.7642L37.462 34.362L37.1721 35.3766L37.4982 35.576L38.4766 34.96L38.7846 33.9634L38.4585 33.7642H38.4403ZM45.0353 33.9454C44.2925 34.0903 44.2562 34.1084 43.0061 34.362C42.8611 34.7606 42.6799 35.2861 42.5531 35.6847C42.8792 35.6122 43.3322 35.5035 43.6583 35.431C44.0569 34.9781 44.6186 34.3802 45.0353 33.9454ZM42.7524 34.4164L41.9009 34.6157C41.5023 35.0868 40.995 35.7209 40.5964 36.192C41.1037 36.0652 41.7922 35.884 42.2995 35.7572C42.4263 35.3586 42.6075 34.815 42.7524 34.4164ZM44.0569 39.0727C43.6764 39.5619 43.2054 40.2504 42.843 40.7577C43.4409 41.1019 44.0388 41.4462 44.6186 41.7904L45.5607 41.1382L45.8325 40.1055C45.2346 39.7612 44.6367 39.417 44.0569 39.0727ZM45.7419 41.2288L44.7998 41.881L44.5642 42.95L44.8903 43.1493L45.8144 42.4789L46.068 41.4281L45.7419 41.2288ZM43.604 36.3007C43.2054 36.7718 42.6981 37.424 42.3176 37.9132C42.3538 38.2031 42.3901 38.6017 42.4263 38.8915C42.8249 38.6198 43.3684 38.2937 43.767 38.0219C43.7127 37.3878 43.6946 37.2972 43.6221 36.3007H43.604ZM43.7851 38.2574C43.3866 38.5111 42.8611 38.8734 42.4625 39.1271C42.5169 39.5982 42.5894 40.2142 42.6618 40.6853C43.0061 40.178 43.5134 39.5076 43.8757 39.0003L43.8033 38.2574H43.7851ZM38.1504 35.6847L37.1902 36.3188L36.9365 37.3696C37.154 37.4965 37.4438 37.6595 37.6613 37.7864C37.9693 37.9676 38.4041 38.2031 38.7121 38.3842C39.0563 37.8769 39.5636 37.2066 39.926 36.6993C39.7086 36.5725 39.4187 36.4094 39.2013 36.2825C38.8933 36.1014 38.4585 35.8659 38.1504 35.6847ZM36.6829 36.0289L35.7407 36.6811L35.5052 37.7501L35.8313 37.9494L36.7554 37.2791L37.009 36.2282L36.6829 36.0289ZM43.151 36.0289C42.4444 36.2101 42.3719 36.2282 41.1762 36.5362C41.0493 36.9529 40.9044 37.5146 40.7776 37.9494C41.1037 37.8588 41.5204 37.732 41.8465 37.6414C42.227 37.1522 42.7524 36.5181 43.1329 36.0289H43.151ZM40.9225 36.6087L40.1072 36.8261C39.7267 37.3153 39.2556 38.0038 38.8933 38.5111C39.3825 38.3661 40.0347 38.1669 40.542 38.0219C40.6507 37.6052 40.8138 37.0254 40.9406 36.6087H40.9225ZM42.3719 41.4281C42.0277 41.9535 41.5929 42.6601 41.2667 43.1855C41.8646 43.5298 42.4625 43.874 43.0423 44.2183L43.9301 43.5298L44.1475 42.4608C43.5496 42.1166 42.9517 41.7723 42.3719 41.4281ZM44.1113 43.6204L43.2235 44.3089L43.0423 45.414L43.3684 45.6134L44.2381 44.9067L44.4374 43.8197L44.1113 43.6204ZM41.8284 38.5473C41.466 39.0546 40.995 39.7431 40.6326 40.2504C40.6688 40.5584 40.7413 40.957 40.7776 41.265C41.158 40.9751 41.6653 40.6128 42.0458 40.341C41.9552 39.6888 41.9552 39.6163 41.8284 38.5473ZM42.0821 40.5765C41.7016 40.8483 41.1943 41.2288 40.8138 41.5187C40.8863 42.0079 40.995 42.642 41.0674 43.1131C41.3936 42.5695 41.8465 41.8811 42.1726 41.3556L42.0639 40.5946L42.0821 40.5765ZM36.4836 38.04L35.5777 38.7285L35.3784 39.8156L37.154 40.8483C37.4801 40.3048 37.933 39.6163 38.2592 39.0727C38.0417 38.9459 37.7518 38.7828 37.5344 38.656C37.2264 38.4748 36.7916 38.2393 36.4836 38.0581V38.04ZM35.0704 38.4205L34.1826 39.109L34.0014 40.2142L34.3275 40.4135L35.1972 39.7069L35.3965 38.6198L35.0704 38.4205ZM41.3755 38.2755C40.9165 38.4084 40.2823 38.6017 39.4731 38.8553C39.3644 39.2902 39.2375 39.8881 39.1469 40.3229C39.4549 40.2142 39.8717 40.0873 40.1797 39.9786C40.5239 39.4532 41.0131 38.7828 41.3755 38.2755ZM39.2194 38.9278L38.4222 39.1814C38.078 39.7069 37.6431 40.4135 37.317 40.957C37.7881 40.794 38.4222 40.5765 38.8933 40.4135C38.9839 39.9786 39.1107 39.3807 39.2194 38.9459V38.9278ZM40.85 43.8921C40.542 44.4357 40.1434 45.1785 39.8535 45.7221L41.6472 46.7367L42.4806 46.0119L42.6437 44.9067C42.4263 44.7799 42.1364 44.6168 41.919 44.49C41.611 44.3088 41.1762 44.0733 40.8681 43.8921H40.85ZM42.6437 46.1207L41.8103 46.8454L41.6835 47.9687L42.0096 48.168L42.8249 47.4252L42.9698 46.3018L42.6437 46.1025V46.1207ZM40.1978 40.9208C39.8535 41.4462 39.4368 42.1709 39.1107 42.7145C39.1651 43.0225 39.2375 43.4573 39.2919 43.7653C39.6542 43.4573 40.1253 43.0768 40.4877 42.7869C40.379 42.1165 40.3608 41.9716 40.1978 40.9389V40.9208ZM40.5239 43.0225C40.1615 43.3123 39.6905 43.711 39.3281 44.0008C39.4187 44.49 39.5455 45.1423 39.6542 45.6496C39.9441 45.0879 40.3608 44.3632 40.6507 43.8197L40.5058 43.0406L40.5239 43.0225ZM34.9617 40.5041L34.1101 41.2288L33.9652 42.3521C34.5631 42.6963 35.161 43.0406 35.7589 43.3667C36.0488 42.805 36.4655 42.0804 36.7554 41.5368C36.5379 41.41 36.2481 41.2469 36.0306 41.1201C35.7226 40.9389 35.2878 40.7033 34.9798 40.5222L34.9617 40.5041ZM33.5847 40.9389L32.7513 41.6636L32.6244 42.7869L32.9506 42.9862L33.7659 42.2434L33.9108 41.1201L33.5847 40.9208V40.9389ZM39.7448 40.6671C39.0745 40.8846 39.0201 40.9208 37.9149 41.3013C37.8424 41.7542 37.7337 42.3702 37.6613 42.8232C37.9511 42.7145 38.3497 42.5695 38.6578 42.4608C38.9658 41.9173 39.4187 41.2107 39.7448 40.6671ZM37.6613 41.3918L36.9003 41.6636C36.5923 42.2071 36.1937 42.95 35.9038 43.4935C36.3568 43.3124 36.9547 43.0768 37.4257 42.9138C37.4982 42.4608 37.5888 41.8448 37.6794 41.3918H37.6613ZM39.4912 46.4468C39.2194 47.0084 38.8752 47.7694 38.6034 48.3311C39.2013 48.6753 39.7992 49.0196 40.3971 49.3457L41.1762 48.6028L41.2849 47.4614C40.687 47.1171 40.0891 46.7729 39.4912 46.4468ZM41.3392 48.7115L40.5601 49.4544L40.4877 50.6139L40.8138 50.8132L41.5566 50.0523L41.6472 48.9108L41.3211 48.7115H41.3392ZM38.694 43.4211C38.386 43.9646 38.0055 44.7075 37.7156 45.2691C37.7881 45.5953 37.8787 46.012 37.9511 46.3381C38.2773 46.0301 38.7302 45.6134 39.0563 45.3235C38.9114 44.635 38.8933 44.5444 38.6759 43.4211H38.694ZM39.1288 45.5771C38.7846 45.8851 38.3497 46.2837 38.0236 46.5917C38.1323 47.099 38.2954 47.7694 38.4222 48.2586C38.6759 47.6788 39.0382 46.936 39.31 46.3743L39.1288 45.5771ZM33.5847 43.0768L32.7875 43.8197L32.6969 44.9611C33.2948 45.3053 33.8927 45.6496 34.4906 45.9757C34.7443 45.3959 35.1066 44.6531 35.3784 44.0914C35.161 43.9646 34.8711 43.8016 34.6537 43.6747C34.3457 43.4936 33.9108 43.258 33.6028 43.0768H33.5847ZM32.2802 43.5298L31.5011 44.2907L31.4287 45.4503L31.7548 45.6496L32.4976 44.8886L32.5882 43.7472L32.2621 43.5479L32.2802 43.5298ZM38.241 43.1674C37.6069 43.403 37.5526 43.4211 36.4836 43.8378C36.4292 44.3089 36.3568 44.9248 36.3205 45.3959C36.6104 45.2691 36.9909 45.1241 37.2627 44.9973C37.5344 44.4357 37.9511 43.711 38.241 43.1493V43.1674ZM36.2662 43.9284L35.5414 44.2183C35.2697 44.7799 34.9254 45.5409 34.6537 46.1025C35.0885 45.9214 35.6683 45.6677 36.085 45.4865C36.1212 45.0155 36.1937 44.3994 36.2481 43.9284H36.2662ZM38.2773 49.092C38.0417 49.6718 37.7518 50.4327 37.5344 51.0125C37.7518 51.1393 38.0417 51.3024 38.2592 51.4292C38.5672 51.6104 39.002 51.8459 39.31 52.0271L40.0166 51.2662L40.0528 50.1066C39.4549 49.7624 38.857 49.4181 38.2592 49.092H38.2773ZM40.1978 51.3568L39.4912 52.1177V53.2773L39.8354 53.4766L40.5058 52.6975V51.5379L40.1978 51.3386V51.3568ZM37.3714 45.9938C37.0996 46.5555 36.7735 47.3164 36.5198 47.8962C36.6104 48.2223 36.7191 48.6572 36.8097 48.9833C37.1177 48.6572 37.5163 48.2405 37.8243 47.9325C37.6431 47.2259 37.6431 47.1715 37.3714 45.9938ZM37.8787 48.1861C37.5707 48.4941 37.1721 48.929 36.8641 49.237C37.009 49.7443 37.1902 50.4146 37.3351 50.9219C37.5525 50.3422 37.8606 49.5812 38.078 49.0014L37.8606 48.1861H37.8787ZM32.3889 45.7039L31.6642 46.4649V47.6244C32.244 47.9687 32.8419 48.3129 33.4216 48.6391C33.6391 48.0593 33.9471 47.2983 34.1645 46.7185L32.3708 45.7039H32.3889ZM31.1388 46.175L30.4322 46.936V48.0955L30.7764 48.2948L31.4649 47.5157V46.3562L31.1569 46.1569L31.1388 46.175ZM36.9184 45.7402C36.3024 45.9938 36.2662 46.0119 35.2516 46.4649C35.2153 46.9359 35.1972 47.5701 35.1791 48.0593C35.4509 47.9324 35.8132 47.7694 36.085 47.6426C36.3205 47.0628 36.6829 46.3199 36.9365 45.7402H36.9184ZM35.0341 46.5555L34.3457 46.8635C34.1101 47.4432 33.8202 48.2043 33.6028 48.784C34.0014 48.5847 34.5631 48.3311 34.9617 48.1499C34.9617 47.6788 35.016 47.0447 35.0341 46.5555ZM37.2627 51.7554C37.0634 52.3351 36.8459 53.1142 36.6648 53.694C37.2627 54.0382 37.8606 54.3825 38.4585 54.7086L39.0926 53.9295V52.77C38.4766 52.4257 37.8787 52.0815 37.2808 51.7554H37.2627ZM39.2556 54.0382L38.6215 54.8173L38.694 55.9768L39.0201 56.1762L39.618 55.3971L39.5637 54.2375L39.2375 54.0382H39.2556ZM36.2118 48.6391C35.9763 49.2188 35.7045 49.9798 35.4871 50.5596C35.5958 50.8857 35.7226 51.3205 35.8313 51.6466C36.1031 51.3205 36.4836 50.9038 36.7554 50.5777C36.5561 49.8711 36.5379 49.8167 36.2118 48.6209V48.6391ZM36.8278 50.8676C36.5561 51.1756 36.1756 51.6104 35.9038 51.9365C36.0669 52.4438 36.3024 53.1323 36.4655 53.6396C36.6285 53.0599 36.8822 52.2808 37.0634 51.701L36.8097 50.8676H36.8278ZM31.3743 48.3854L30.7221 49.1645L30.7764 50.324C31.3743 50.6683 31.9722 51.0125 32.5701 51.3386C32.7332 50.7588 32.9868 49.9798 33.168 49.4C32.5701 49.0558 31.9722 48.7116 31.3743 48.3854ZM30.1966 48.8746L29.5625 49.6537L29.635 50.8313L29.9611 51.0306L30.559 50.2516L30.5046 49.092L30.1785 48.8927L30.1966 48.8746ZM35.7589 48.3854C35.3723 48.5666 34.8469 48.8142 34.1826 49.1282C34.1826 49.6174 34.1826 50.2516 34.1826 50.7407C34.4362 50.6139 34.7805 50.4508 35.0341 50.324C35.2334 49.7442 35.5415 48.9833 35.7589 48.4035V48.3854ZM33.9652 49.2188L33.3129 49.5268C33.1136 50.1066 32.8962 50.8857 32.715 51.4655C33.0955 51.2662 33.6028 51.0125 33.9833 50.8132C33.9833 50.324 33.9833 49.6899 33.9652 49.2007V49.2188ZM36.4655 54.4549C36.3205 55.0347 36.1393 55.8138 36.0125 56.3936C36.6104 56.7378 37.2083 57.082 37.8062 57.4082L38.3679 56.6291L38.2592 55.4695C38.0417 55.3427 37.7518 55.1797 37.5344 55.0528C37.2264 54.8717 36.7916 54.6361 36.4836 54.4549H36.4655ZM38.5128 56.7378L37.9511 57.5169L38.1142 58.6764L38.4403 58.8757L38.9658 58.0967L38.8389 56.9371L38.5128 56.7378ZM35.2334 51.3205C35.0523 51.9003 34.8348 52.6793 34.6537 53.2591C34.7624 53.5852 34.9254 54.0201 35.0523 54.3462C35.2878 54.0201 35.632 53.6034 35.8857 53.2773C35.6502 52.5707 35.632 52.5163 35.2334 51.3205ZM35.9763 53.549C35.7226 53.8751 35.3965 54.2919 35.161 54.618C35.3603 55.1253 35.6139 55.8138 35.8132 56.3211C35.94 55.7413 36.1393 54.9623 36.2662 54.3825L35.9763 53.549ZM30.559 51.085L29.9792 51.8641L30.106 53.0236C30.7039 53.3679 31.3018 53.7121 31.8997 54.0382C32.0266 53.4585 32.2259 52.6794 32.3527 52.0996C31.7548 51.7554 31.1569 51.4111 30.559 51.085ZM29.4538 51.5742L28.8921 52.3532L29.0552 53.5128L29.3813 53.7121L29.9067 52.933L29.7799 51.7735L29.4538 51.5742ZM34.7805 51.0669C34.237 51.3386 34.1464 51.3749 33.3129 51.8097C33.3492 52.2989 33.3854 52.933 33.4216 53.4222C33.6572 53.2954 33.9652 53.1323 34.2007 53.0055C34.3638 52.4257 34.5993 51.6466 34.7805 51.0669ZM33.1136 51.9184L32.5157 52.2264C32.3708 52.8062 32.1896 53.5852 32.0628 54.165C32.407 53.9657 32.8962 53.7121 33.2405 53.5128C33.2042 53.0236 33.1499 52.3895 33.1136 51.9003V51.9184ZM35.8495 57.1545C35.7407 57.7343 35.6502 58.4953 35.5596 59.075C36.1575 59.4193 36.7554 59.7454 37.3533 60.0897L37.8243 59.3287L37.6431 58.1691C37.0452 57.8249 36.4474 57.4988 35.8495 57.1545ZM38.0055 59.4193L37.5344 60.1802L37.77 61.3217L38.0961 61.521L38.5309 60.76L38.3135 59.6004L37.9874 59.4012L38.0055 59.4193ZM34.4725 54.0201C34.3275 54.5999 34.1826 55.379 34.0558 55.9587C34.2007 56.2849 34.3819 56.7197 34.5087 57.0458C34.7261 56.7197 35.016 56.303 35.2334 55.9768C34.9436 55.2702 34.9254 55.2159 34.4725 54.0201ZM35.3421 56.2486C35.1247 56.5566 34.853 56.9915 34.6355 57.3176C34.853 57.8249 35.161 58.4953 35.3965 59.0026C35.469 58.4228 35.5958 57.6618 35.6864 57.0821L35.3421 56.2667V56.2486ZM29.9611 53.7846L29.4538 54.5455L29.6712 55.7051C30.2691 56.0493 30.867 56.3754 31.4649 56.7197C31.5374 56.1399 31.6642 55.3789 31.7548 54.7992C31.1569 54.4549 30.559 54.1288 29.9611 53.7846ZM28.9465 54.2556L28.4754 55.0166L28.711 56.158L29.0371 56.3573L29.4719 55.5964L29.2545 54.4368L28.9284 54.2375L28.9465 54.2556ZM34.0195 53.7665C33.5122 54.0383 33.4398 54.0744 32.6607 54.5093C32.715 54.9985 32.8237 55.6326 32.8781 56.1037C33.0955 55.9768 33.3854 55.8138 33.6028 55.687C33.7115 55.1072 33.8927 54.3281 34.0195 53.7483V53.7665ZM32.4795 54.618L31.9178 54.926C31.8091 55.5058 31.7185 56.2667 31.628 56.8465C31.9541 56.6472 32.3889 56.3936 32.715 56.2124C32.6426 55.7413 32.552 55.089 32.4795 54.618ZM35.4871 59.8179C35.4327 60.3796 35.3965 61.1405 35.3603 61.7021C35.9582 62.0464 36.5561 62.3725 37.154 62.7167L37.5344 61.9739L37.2627 60.8325L35.469 59.8179H35.4871ZM37.7156 62.0826L37.3351 62.8255L37.6613 63.9488L37.9874 64.1481L38.3316 63.4234L38.0417 62.2819L37.7156 62.0826ZM33.9289 56.7197C33.8384 57.2994 33.7478 58.0604 33.6753 58.6402C33.8384 58.9663 34.0377 59.4011 34.2007 59.7273C34.3819 59.4193 34.6174 59.0026 34.7986 58.6764C34.4725 57.9698 34.4544 57.9336 33.9289 56.7197ZM34.9073 58.9301C34.7261 59.2381 34.4906 59.6548 34.3094 59.9809C34.5631 60.4883 34.9073 61.1405 35.1791 61.6478C35.1791 61.0861 35.2697 60.3252 35.3059 59.7635L34.9254 58.9482L34.9073 58.9301ZM29.5806 56.4479L29.1639 57.2089L29.4538 58.3503C30.0517 58.6946 30.6496 59.0207 31.2475 59.3649C31.2475 58.8033 31.3381 58.0423 31.3743 57.4807L29.5806 56.466V56.4479ZM28.6566 56.919L28.2761 57.6618L28.6022 58.7852L28.9284 58.9844L29.2726 58.2416L28.9827 57.1002L28.6566 56.9009V56.919ZM33.4579 56.466C33.0049 56.7378 32.9506 56.7559 32.2077 57.2089C32.2983 57.68 32.4433 58.3141 32.552 58.7852C32.7513 58.6583 33.0049 58.4953 33.2042 58.3866C33.2586 57.8068 33.3854 57.0458 33.4579 56.466ZM32.0447 57.2995L31.5374 57.6075C31.483 58.1692 31.4468 58.9301 31.4105 59.4917C31.7004 59.3105 32.099 59.0569 32.3889 58.8757C32.2802 58.4047 32.1353 57.7705 32.0447 57.2995ZM35.3603 62.4269C35.3603 62.9704 35.3965 63.677 35.4146 64.2206L37.2083 65.2352L37.4982 64.5467L37.1358 63.4415C36.5379 63.0973 35.94 62.7711 35.3421 62.4269H35.3603ZM37.6794 64.6554L37.3895 65.3439L37.8062 66.3947L38.1323 66.594L38.4041 65.9417L38.0236 64.8728L37.6975 64.6735L37.6794 64.6554ZM33.6028 59.383C33.5666 59.9447 33.5485 60.7057 33.5303 61.2673C33.7115 61.5753 33.9471 62.0101 34.1282 62.3181C34.2732 62.0101 34.4544 61.6115 34.5993 61.3035C34.237 60.615 34.2188 60.5969 33.6028 59.383ZM34.7261 61.5572C34.5812 61.8471 34.4 62.2638 34.2551 62.5537C34.545 63.0247 34.9254 63.677 35.2334 64.1481C35.1972 63.6045 35.1972 62.8979 35.1791 62.3544L34.7443 61.5572H34.7261ZM29.4538 59.075L29.1277 59.7998L29.5081 60.8687L31.3018 61.8833C31.2656 61.3398 31.2656 60.6332 31.2475 60.0897C30.6496 59.7454 30.0517 59.4193 29.4538 59.075ZM28.6204 59.4917L28.3305 60.1802L28.7472 61.2311L29.0733 61.4304L29.3451 60.7781L28.9646 59.7092L28.6385 59.5099L28.6204 59.4917ZM33.1499 59.1113C32.7332 59.3649 32.6607 59.4193 32.0266 59.8179C32.1534 60.289 32.3527 60.9049 32.4976 61.3579C32.6788 61.2492 32.9143 61.0861 33.0774 60.9774C33.0774 60.4158 33.1318 59.6548 33.1499 59.0931V59.1113ZM31.8635 59.9266L31.4105 60.2165C31.4105 60.76 31.4468 61.4666 31.4649 62.0102C31.7185 61.8471 32.0628 61.6297 32.3346 61.4666C32.1896 61.0137 32.0084 60.3977 31.8635 59.9266ZM35.469 64.8909C35.5233 65.3801 35.632 66.0323 35.7045 66.5215C36.3024 66.8658 36.9003 67.1919 37.4982 67.5361L37.7156 66.9383L37.2627 65.9055C36.6648 65.5613 36.0669 65.2352 35.469 64.8909ZM37.8787 67.0288L37.6613 67.6268L38.1686 68.587L38.4947 68.7863L38.6759 68.2065L38.2048 67.21L37.8787 67.0107V67.0288ZM33.5303 61.9739C33.5303 62.4994 33.6028 63.206 33.6391 63.7314C33.8384 64.0213 34.1101 64.4199 34.3094 64.7279C34.4181 64.4561 34.5631 64.0937 34.6718 63.822C34.2551 63.1697 34.2188 63.1154 33.5485 61.9739H33.5303ZM34.7986 64.0575C34.6899 64.3293 34.5631 64.6735 34.4544 64.9453C34.7805 65.3982 35.1972 65.9961 35.5233 66.4491C35.4327 65.9599 35.3603 65.3076 35.2878 64.8184L34.7986 64.0575ZM29.5625 61.5391L29.327 62.1732L29.798 63.1697C30.3959 63.5139 30.9938 63.8401 31.5917 64.1843C31.5011 63.6952 31.4287 63.0429 31.3562 62.5537C30.7583 62.2094 30.1604 61.8833 29.5625 61.5391ZM28.8197 61.8833L28.6022 62.4993L29.1096 63.4596L29.4357 63.6589L29.6169 63.0791L29.1458 62.0826L28.8197 61.8833ZM33.0774 61.7021C32.8237 61.8591 32.4916 62.0705 32.0809 62.3363C32.244 62.7711 32.4976 63.3509 32.6607 63.7676C32.8237 63.677 33.023 63.5502 33.1861 63.4596C33.1318 62.9342 33.1136 62.2276 33.0774 61.7021ZM31.936 62.4269L31.5374 62.6805C31.5917 63.1697 31.7004 63.8219 31.7729 64.3111C32.0084 64.1843 32.2983 64.0031 32.5339 63.8582C32.3527 63.4415 32.1171 62.8617 31.936 62.4269ZM35.8313 67.1195C35.94 67.5724 36.1031 68.1522 36.2299 68.587C36.8278 68.9312 37.4257 69.2574 38.0236 69.6016L38.1504 69.0762L37.625 68.1341C37.0271 67.7898 36.4292 67.4637 35.8313 67.1195ZM38.3316 69.1849L38.2048 69.7103L38.7846 70.5981L39.1107 70.7793L39.2194 70.2901L38.6578 69.3842L38.3316 69.1849ZM33.7115 64.3836C33.7659 64.8728 33.9108 65.5069 33.9833 65.978C34.2007 66.2498 34.4906 66.6303 34.708 66.902C34.7805 66.6665 34.8711 66.3404 34.9436 66.1048C34.4906 65.4888 34.4544 65.4526 33.6934 64.3655L33.7115 64.3836ZM35.1066 66.3403C35.0341 66.5759 34.9436 66.8839 34.8711 67.1195C35.2153 67.5362 35.6864 68.0978 36.0488 68.5145C35.9038 68.0797 35.7589 67.4818 35.6502 67.047L35.1066 66.3403ZM29.9249 63.7676L29.7618 64.3293L30.3235 65.2352C30.9214 65.5794 31.5192 65.9055 32.1171 66.2498C31.9722 65.8149 31.8454 65.217 31.7185 64.7822C31.1207 64.438 30.5228 64.1119 29.9249 63.7676ZM29.2545 64.0394L29.1277 64.5648L29.7074 65.4526L30.0336 65.6338L30.1242 65.1446L29.5625 64.2387L29.2364 64.0394H29.2545ZM33.2405 64.1119C32.9143 64.3112 32.8962 64.3112 32.3527 64.6373C32.552 65.0359 32.8419 65.5613 33.0593 65.9599C33.2042 65.8874 33.3854 65.7787 33.5122 65.7062C33.4035 65.2352 33.3129 64.5829 33.2405 64.1119ZM32.244 64.7097L31.8997 64.909C32.0084 65.362 32.1896 65.9418 32.2983 66.3766C32.4976 66.2679 32.7694 66.1411 32.9687 66.0324C32.7513 65.6338 32.4614 65.1083 32.2621 64.7097H32.244ZM36.4111 69.1305C36.5561 69.5291 36.7916 70.0364 36.9728 70.435L38.7665 71.4496L38.8208 71.0148L38.2229 70.1633C38.0055 70.0364 37.7156 69.8734 37.4982 69.7465C37.1902 69.5653 36.7554 69.3298 36.4474 69.1487L36.4111 69.1305ZM38.9839 71.1054L38.9295 71.5403L39.5818 72.3374L39.9079 72.5186V72.12L39.2919 71.2866L38.9658 71.1054H38.9839ZM34.1101 66.5578C34.2188 66.9926 34.4181 67.5542 34.545 67.9891C34.7805 68.2427 35.1066 68.587 35.3421 68.8406C35.3784 68.6413 35.4327 68.3696 35.469 68.1703C34.9617 67.5905 34.9436 67.5543 34.1101 66.5578ZM35.6502 68.3877C35.6139 68.587 35.5596 68.8587 35.5233 69.058C35.9038 69.4566 36.4111 69.964 36.7916 70.3445C36.6104 69.964 36.393 69.4386 36.2299 69.04L35.632 68.3877H35.6502ZM30.5228 65.7787L30.4503 66.2498L31.0844 67.0832L32.8781 68.0978C32.6969 67.7173 32.4976 67.1919 32.3164 66.7933C31.7185 66.449 31.1207 66.1229 30.5228 65.7787ZM29.9249 65.9599L29.8705 66.3947L30.5228 67.1919L30.8489 67.3731V66.9564L30.2329 66.1229L29.9067 65.9417L29.9249 65.9599ZM33.6572 66.3041C33.3673 66.4672 33.3492 66.4672 32.8962 66.7209C33.1318 67.0832 33.4579 67.5724 33.7115 67.9347C33.8384 67.8804 33.9833 67.8079 34.1101 67.7535C33.9652 67.3368 33.8021 66.7571 33.6753 66.3223L33.6572 66.3041ZM32.7875 66.7571L32.4795 66.902C32.6244 67.3006 32.86 67.8079 33.0412 68.2065C33.2042 68.134 33.4398 68.0435 33.6028 67.9529C33.3492 67.5905 33.023 67.1194 32.7875 66.7571ZM37.2264 70.9061C37.4257 71.2504 37.7156 71.6852 37.933 72.0294C38.5309 72.3737 39.1288 72.6998 39.7267 73.044V72.6998L39.0201 71.9207L37.2264 70.9061ZM39.8535 72.7904V73.1346L40.5964 73.8412L40.9225 74.0224L40.8863 73.6963L40.1797 72.9535L39.8535 72.7723V72.7904ZM34.7443 68.5145C34.9073 68.895 35.161 69.4023 35.3421 69.7828C35.5958 70.0183 35.94 70.3445 36.1937 70.58C36.1937 70.4169 36.1937 70.1995 36.2118 70.0183C35.6683 69.4929 35.6139 69.4385 34.7443 68.5145ZM36.4111 70.2176C36.4111 70.3807 36.4111 70.5981 36.4111 70.7611C36.8097 71.1235 37.3533 71.5946 37.77 71.9389C37.5344 71.6127 37.2808 71.1597 37.0634 70.8155L36.4292 70.1995L36.4111 70.2176ZM31.32 67.5543V67.9347L32.0266 68.6776C32.244 68.8044 32.5339 68.9675 32.7513 69.0943C33.0593 69.2755 33.4941 69.511 33.8021 69.6922C33.5666 69.3661 33.3129 68.9131 33.0955 68.5689C32.4976 68.2246 31.8997 67.8985 31.3018 67.5543H31.32ZM30.8126 67.6448V67.9891L31.5555 68.6957L31.8816 68.8769L31.8273 68.5507L31.1207 67.8079L30.7945 67.6268L30.8126 67.6448ZM34.2913 68.2609C34.0377 68.3696 34.0195 68.3877 33.6209 68.5507C33.8927 68.8769 34.2551 69.3117 34.545 69.6378C34.6537 69.6016 34.7805 69.5472 34.8711 69.511C34.6718 69.1486 34.4544 68.6232 34.2732 68.2428L34.2913 68.2609ZM33.5485 68.587L33.2948 68.6957C33.4941 69.04 33.784 69.4748 34.0014 69.819C34.1464 69.7828 34.3457 69.7285 34.4906 69.6741C34.2007 69.348 33.8384 68.9131 33.5666 68.587H33.5485ZM38.2229 72.428C38.4584 72.7179 38.8027 73.0802 39.0563 73.3701C39.2738 73.497 39.5636 73.66 39.7811 73.7869C40.0891 73.968 40.5239 74.2036 40.8319 74.3847L40.7413 74.1311L39.9985 73.4426C39.4006 73.0984 38.8027 72.7723 38.2048 72.428H38.2229ZM40.9225 74.2217L41.0131 74.4754L41.8103 75.0914L42.1364 75.2726L42.0277 75.0552L41.2486 74.4029L40.9225 74.2217ZM35.5958 70.2358C35.7951 70.58 36.1031 70.9967 36.3205 71.3228C36.5923 71.5402 36.9547 71.8301 37.2264 72.0476C37.1902 71.9207 37.1721 71.7395 37.154 71.6127C36.5742 71.1235 36.5379 71.0873 35.5958 70.2358ZM37.3714 71.7939C37.3714 71.9207 37.4257 72.0838 37.4438 72.2106C37.8787 72.5367 38.4403 72.9716 38.8752 73.2796C38.6034 73.0078 38.2954 72.6273 38.0417 72.3374L37.3714 71.7757V71.7939ZM32.3164 69.0762L32.3889 69.3661L33.168 70.0183C33.7659 70.3625 34.3638 70.6887 34.9617 71.033C34.6899 70.7612 34.3819 70.3807 34.1282 70.0908C33.5304 69.7465 32.9325 69.4204 32.3346 69.0762H32.3164ZM31.8816 69.0762L31.9722 69.3299L32.7694 69.9459L33.0955 70.127L32.9868 69.9096L32.2077 69.2574L31.8816 69.0762ZM35.1429 69.9821C34.9254 70.0545 34.9254 70.0545 34.5812 70.1451C34.8711 70.435 35.2878 70.8155 35.5958 71.1054C35.6864 71.1054 35.7951 71.0691 35.8676 71.051C35.632 70.743 35.3603 70.2901 35.1429 69.9639V69.9821ZM34.5087 70.1633L34.2913 70.2176C34.5268 70.5075 34.8711 70.8698 35.1247 71.1597C35.2516 71.1597 35.4146 71.1598 35.5233 71.1235C35.2153 70.8517 34.8167 70.4532 34.5087 70.1633ZM39.4006 73.6963C39.6724 73.9318 40.071 74.2217 40.3608 74.4391C40.9587 74.7833 41.5566 75.1095 42.1545 75.4537L42.0096 75.2906L41.1943 74.7109C40.5964 74.3667 39.9985 74.0405 39.4006 73.6963ZM42.1726 75.3993L42.3176 75.5625L43.1691 76.0878L43.4953 76.269L43.3322 76.1422L42.4988 75.5987L42.1726 75.4175V75.3993ZM36.6466 71.7033C36.8822 71.9932 37.2445 72.3374 37.5163 72.6092C37.8062 72.8085 38.1867 73.0621 38.4766 73.2614C38.4222 73.1708 38.3679 73.044 38.3135 72.9535C37.6975 72.5186 37.6613 72.4824 36.6648 71.7033H36.6466ZM38.5309 73.1165C38.5672 73.2071 38.6396 73.3158 38.694 73.4064C39.1469 73.6963 39.7448 74.0768 40.1978 74.3667C39.8898 74.1674 39.5274 73.8412 39.2375 73.6238L38.5309 73.1165ZM33.5122 70.3445L33.6391 70.5437L34.4725 71.1054C35.0704 71.4496 35.6683 71.7757 36.2662 72.12C35.9582 71.9207 35.5958 71.5946 35.3059 71.3591C34.708 71.0148 34.1101 70.6887 33.5122 70.3445ZM33.1318 70.2538L33.2767 70.4169L34.1282 70.9423L34.4544 71.1235L34.2732 70.9967L33.4398 70.435L33.1136 70.2538H33.1318ZM36.1937 71.4496C36.0125 71.4677 36.0125 71.4678 35.7226 71.4859C36.0488 71.7396 36.5017 72.0657 36.8278 72.3193C36.9003 72.3193 36.9909 72.3193 37.0634 72.3374C36.7916 72.0838 36.4655 71.7033 36.1937 71.4315V71.4496ZM35.6683 71.4859H35.4871C35.7589 71.7214 36.1575 72.0113 36.4474 72.2287C36.5379 72.2649 36.6829 72.2831 36.7735 72.3193C36.4292 72.0838 35.9944 71.7396 35.6683 71.4859ZM42.9155 75.9429L42.535 75.7255C42.227 75.5443 41.7922 75.3088 41.4842 75.1276C41.2667 75.0008 40.9769 74.8377 40.7594 74.7109L40.9769 74.8377C41.2849 75.0189 41.7197 75.2544 42.0277 75.4356C42.2995 75.5806 42.6437 75.7799 42.8974 75.9429H42.9155ZM39.8173 74.1855L39.618 74.0405C38.549 73.3701 38.4947 73.3339 37.8787 72.9353C38.1686 73.1527 38.549 73.4426 38.8752 73.6419L39.618 74.0768L39.8354 74.2036L39.8173 74.1855ZM40.8138 74.7471L40.5964 74.6203L39.8535 74.1673L40.0347 74.2942C40.2703 74.421 40.5783 74.6022 40.8138 74.7471ZM36.8822 72.5005L36.6648 72.3737C36.0669 72.0294 35.469 71.7033 34.8711 71.3591L34.9436 71.4134L36.8822 72.5186V72.5005ZM38.2592 73.2977L38.4041 73.3701C38.1142 73.1527 37.6975 72.8991 37.4076 72.6636C37.1721 72.6092 37.154 72.6092 37.0271 72.5729L38.0417 73.1709L38.2592 73.2977ZM37.8424 73.0622L36.9909 72.5549L36.8459 72.4824L37.0634 72.6092C37.2989 72.736 37.6069 72.9172 37.8424 73.0622Z" fill="url(#paint10_linear_4701_123965)"/>
<path d="M47.916 66.5758C47.753 66.0504 47.608 65.525 47.4449 64.9814C47.2457 64.2929 47.0282 63.5863 46.8652 62.8979C47.5537 62.6623 48.2784 62.3543 49.0031 61.9376C55.2901 58.4408 60.4537 49.6898 60.5443 42.4064C60.5443 41.3737 60.4537 40.4134 60.2725 39.5618C61.0697 39.4894 61.8488 39.272 62.6279 39.0727C63.0627 38.964 63.4794 38.8552 63.9142 38.7646L64.4397 39.0727C64.8201 39.2901 65.1825 39.58 65.5267 39.888L66.7406 40.5946C68.8061 41.7904 70.0744 44.3813 70.02 48.0411C69.9294 55.2521 64.8201 63.8944 58.6056 67.373C55.5437 69.0761 52.7898 69.2029 50.7968 68.0434C50.4888 67.8622 50.1989 67.6629 49.9452 67.4274C49.3655 67.3005 48.8219 67.1013 48.3327 66.8114C48.2059 66.7389 48.061 66.6483 47.9341 66.5758H47.916Z" fill="url(#paint11_linear_4701_123965)"/>
<path d="M47.1554 62.7892C47.7533 62.5717 48.3693 62.2819 49.0034 61.9376C55.2904 58.4408 60.454 49.6898 60.5446 42.4064C60.5446 41.3918 60.4721 40.4677 60.291 39.6162C60.9613 39.5437 61.6317 39.2901 62.2296 39.1089C62.6644 38.9821 63.0811 38.8734 63.5341 38.7646C65.5633 39.9786 66.7953 42.5514 66.741 46.175C66.6504 53.3859 61.5411 62.0282 55.3266 65.5069C52.2647 67.21 49.5107 67.3368 47.5178 66.1772C47.4272 66.1229 47.3366 66.0686 47.246 65.9961C47.1735 64.9271 47.1192 63.8763 47.1554 62.8073V62.7892Z" fill="#2D6CC3"/>
<path d="M60.7248 49.5086C61.7394 49.7079 63.2613 49.2549 64.6383 48.4759C65.3992 48.0591 66.1058 47.5337 66.7037 47.0083L67.6096 47.5337C67.0299 48.0773 66.3051 48.5846 65.5442 49.0013C63.6418 50.0521 61.522 50.5413 60.7248 49.5086Z" fill="#003F88"/>
<path d="M55.5072 47.3708C57.4095 46.3018 59.0583 42.4246 59.6018 39.5801C59.9098 39.7069 60.2178 39.7975 60.5621 39.8518C60.0729 42.7145 58.3879 46.8092 56.4131 47.8962C55.5072 48.4035 54.6737 48.1862 54.0034 47.5883C54.4744 47.7151 54.9817 47.6788 55.5253 47.3708H55.5072Z" fill="#003F88"/>
<path d="M53.442 67.1375L52.5361 66.6122C53.7319 64.0756 54.4747 59.836 53.4782 58.3503C53.5688 58.3503 53.6594 58.3503 53.75 58.3866C55.6161 58.9301 54.8371 64.1843 53.442 67.1195V67.1375Z" fill="#003F88"/>
<path d="M64.928 54.0201C64.928 54.0201 64.8012 53.8932 64.7287 53.8389C65.1635 54.02 65.544 54.2556 65.8339 54.5455C65.8339 54.5636 64.928 54.0201 64.928 54.0201Z" fill="url(#paint12_linear_4701_123965)"/>
<path d="M46.7196 58.4408C48.7125 57.2088 50.8324 55.1433 51.3397 53.1322C51.7201 51.6103 51.1041 50.3964 50.1258 49.6536C51.5933 50.2877 52.7529 51.7009 52.2456 53.6576C51.702 55.8318 49.2561 58.0785 47.1363 59.2561C46.9732 59.3467 46.8102 59.4373 46.6471 59.5098C46.6833 59.1474 46.7014 58.8032 46.7196 58.4408Z" fill="#003F88"/>
<path d="M46.846 59.4193C46.9366 59.3649 47.0453 59.3106 47.1359 59.2562C49.2557 58.0786 51.7016 55.8319 52.2452 53.6577C52.7706 51.6104 51.4661 50.1429 49.9079 49.5631C50.216 48.8565 50.5964 48.1861 51.0313 47.552C51.5204 46.8272 52.1546 46.2475 52.7706 45.6496C53.4591 47.4433 54.8179 48.7659 56.4123 47.8781C58.7314 46.5918 60.67 41.102 60.7063 38.4205C62.4456 38.2575 63.9494 38.7104 65.1271 39.6888C62.9167 41.7542 59.8185 46.8997 60.507 49.0558C61.0143 50.6502 63.424 50.1791 65.5619 48.9833C66.3229 48.5666 67.0295 48.0412 67.6274 47.5158C67.4643 49.8167 66.8483 52.2264 65.8518 54.5456C64.8191 53.4585 62.3731 53.0961 60.4345 54.165C59.8547 54.4912 59.3112 54.9441 58.8764 55.5602C56.974 58.1873 57.6443 62.6443 58.9851 64.0756C58.2603 64.6735 57.5175 65.2171 56.7566 65.6881C56.7566 65.6881 56.7203 65.7062 56.7022 65.7243C56.666 65.7243 56.6478 65.7606 56.6116 65.7787C56.5754 65.7787 56.5573 65.8149 56.521 65.833C56.521 65.833 56.5029 65.8331 56.4848 65.8512C56.4486 65.8693 56.4123 65.9055 56.358 65.9237C56.358 65.9237 56.3398 65.9237 56.3217 65.9237C56.2855 65.9418 56.2311 65.978 56.1949 65.9962C56.1587 66.0143 56.1043 66.0505 56.0681 66.0686C56.0681 66.0686 56.05 66.0686 56.0318 66.0686C55.9956 66.0867 55.9594 66.1048 55.9231 66.1229C55.9231 66.1229 55.8869 66.123 55.8869 66.1411C55.8688 66.1411 55.8325 66.1592 55.8144 66.1773C55.7782 66.1954 55.7419 66.2135 55.6876 66.2316C55.6876 66.2316 55.6876 66.2316 55.6695 66.2316C54.9085 66.6121 54.1657 66.902 53.4591 67.0832C54.8542 64.1481 55.6332 58.8758 53.7671 58.3503C53.3323 58.2235 52.8068 58.3503 52.227 58.6945C50.3247 59.7635 47.8787 62.7892 46.7735 65.054C46.6105 63.1697 46.7192 61.2673 46.8641 59.365L46.846 59.4193Z" fill="url(#paint13_linear_4701_123965)"/>
<path d="M56.3771 50.3963C55.1813 51.0667 54.1848 52.7335 54.1848 54.1286C54.1848 55.5237 55.127 56.1035 56.3227 55.4331C57.5185 54.7627 58.515 53.0959 58.5331 51.7008C58.5331 50.3057 57.591 49.7259 56.3952 50.3963H56.3771Z" fill="url(#paint14_linear_4701_123965)"/>
<path d="M56.0324 50.9401C56.884 50.4691 57.5725 50.8858 57.5544 51.8642C57.5544 52.8426 56.8477 54.0383 55.9962 54.5094C55.1447 54.9805 54.4562 54.5638 54.4743 53.5854C54.4743 52.607 55.1809 51.4112 56.0324 50.9401Z" fill="url(#paint15_linear_4701_123965)"/>
<path d="M58.1699 39.5256C61.5398 37.6594 64.5655 37.5145 66.7578 38.7827L67.5369 39.2357C65.3446 37.9493 62.3008 38.0943 58.949 39.9785C52.1185 43.7833 46.4838 53.2953 46.3932 61.231C46.3388 65.2532 47.7339 68.0977 49.9987 69.4203L49.2196 68.9674C46.9367 67.6448 45.5597 64.8002 45.6141 60.778C45.7047 52.8605 51.3394 43.3304 58.1699 39.5256Z" fill="url(#paint16_linear_4701_123965)"/>
<path d="M58.9494 39.9603C65.7798 36.1555 71.2515 39.4893 71.1609 47.4069C71.0703 55.3244 65.4356 64.8545 58.6051 68.6593C51.7746 72.4641 46.303 69.1304 46.3936 61.2128C46.4842 53.2952 52.1189 43.7651 58.9494 39.9603ZM47.5169 60.5968C47.4263 67.8078 52.3906 70.8334 58.6232 67.3729C64.8377 63.9124 69.947 55.252 70.0376 48.041C70.1282 40.83 65.1638 37.8043 58.9312 41.2648C52.7168 44.7254 47.6075 53.3858 47.5169 60.5968Z" fill="#0D2743"/>
<defs>
<linearGradient id="paint0_linear_4701_123965" x1="59.7647" y1="59.4012" x2="48.4409" y2="39.7975" gradientUnits="userSpaceOnUse">
<stop stop-color="#2A2A2A"/>
<stop offset="0.02" stop-color="#282828"/>
<stop offset="0.23" stop-color="#202020"/>
<stop offset="0.58" stop-color="#1E1E1E"/>
<stop offset="0.64" stop-color="#1C1C1C"/>
<stop offset="1" stop-color="#1A1A1A"/>
</linearGradient>
<linearGradient id="paint1_linear_4701_123965" x1="47.2268" y1="65.3075" x2="62.5547" y2="38.7646" gradientUnits="userSpaceOnUse">
<stop offset="0.23" stop-color="#383838"/>
<stop offset="0.73" stop-color="#292929"/>
<stop offset="1" stop-color="#262626"/>
</linearGradient>
<linearGradient id="paint2_linear_4701_123965" x1="61.6129" y1="65.6695" x2="44.5094" y2="36.0466" gradientUnits="userSpaceOnUse">
<stop stop-color="#121212"/>
<stop offset="0.43" stop-color="#0D0D0D"/>
</linearGradient>
<linearGradient id="paint3_linear_4701_123965" x1="54.6195" y1="69.5472" x2="69.9474" y2="43.0043" gradientUnits="userSpaceOnUse">
<stop offset="0.23" stop-color="#383838"/>
<stop offset="0.73" stop-color="#292929"/>
<stop offset="1" stop-color="#262626"/>
</linearGradient>
<linearGradient id="paint4_linear_4701_123965" x1="66.6133" y1="67.0649" x2="52.2276" y2="42.1708" gradientUnits="userSpaceOnUse">
<stop stop-color="#2A2A2A"/>
<stop offset="0.02" stop-color="#282828"/>
<stop offset="0.23" stop-color="#202020"/>
<stop offset="0.58" stop-color="#1E1E1E"/>
<stop offset="0.64" stop-color="#1C1C1C"/>
<stop offset="1" stop-color="#1A1A1A"/>
</linearGradient>
<linearGradient id="paint5_linear_4701_123965" x1="65.5084" y1="65.9601" x2="51.9561" y2="42.4973" gradientUnits="userSpaceOnUse">
<stop offset="0.18" stop-color="#1A1A1A"/>
<stop offset="0.65" stop-color="#1D1D1D"/>
<stop offset="0.66" stop-color="#1E1E1E"/>
</linearGradient>
<linearGradient id="paint6_linear_4701_123965" x1="67.4288" y1="68.0977" x2="52.0829" y2="41.5367" gradientUnits="userSpaceOnUse">
<stop offset="0.34" stop-color="#1F1F1F"/>
<stop offset="0.4" stop-color="#1D1D1D"/>
<stop offset="0.82" stop-color="#1A1A1A"/>
</linearGradient>
<linearGradient id="paint7_linear_4701_123965" x1="36.7368" y1="72.4642" x2="63.4971" y2="26.1365" gradientUnits="userSpaceOnUse">
<stop stop-color="#181818"/>
<stop offset="0.27" stop-color="#262626"/>
<stop offset="0.77" stop-color="#2E2E2E"/>
</linearGradient>
<linearGradient id="paint8_linear_4701_123965" x1="68.0631" y1="69.2029" x2="51.4488" y2="40.4315" gradientUnits="userSpaceOnUse">
<stop stop-color="#161616"/>
<stop offset="0.3" stop-color="#1A1A1A"/>
<stop offset="0.79" stop-color="#1D1D1D"/>
<stop offset="0.8" stop-color="#1E1E1E"/>
</linearGradient>
<linearGradient id="paint9_linear_4701_123965" x1="67.5011" y1="70.6342" x2="48.0967" y2="37.0072" gradientUnits="userSpaceOnUse">
<stop stop-color="#141414"/>
<stop offset="0.44" stop-color="#1E1E1E"/>
<stop offset="0.78" stop-color="#202020"/>
<stop offset="0.98" stop-color="#282828"/>
<stop offset="1" stop-color="#2A2A2A"/>
</linearGradient>
<linearGradient id="paint10_linear_4701_123965" x1="32.0084" y1="69.7284" x2="58.7506" y2="23.4007" gradientUnits="userSpaceOnUse">
<stop stop-color="#1C1C1C"/>
<stop offset="0.18" stop-color="#2B2B2B"/>
<stop offset="0.33" stop-color="#333333"/>
<stop offset="0.69" stop-color="#3D3D3D"/>
<stop offset="0.92" stop-color="#343434"/>
<stop offset="1" stop-color="#303030"/>
</linearGradient>
<linearGradient id="paint11_linear_4701_123965" x1="52.1013" y1="68.9855" x2="68.1357" y2="41.1925" gradientUnits="userSpaceOnUse">
<stop stop-color="#3F72D3"/>
<stop offset="0.87" stop-color="#12335C"/>
<stop offset="0.88" stop-color="#124C95"/>
</linearGradient>
<linearGradient id="paint12_linear_4701_123965" x1="65.2541" y1="54.2375" x2="65.3085" y2="54.1288" gradientUnits="userSpaceOnUse">
<stop stop-color="#B3B3B5"/>
<stop offset="0.19" stop-color="#BEBEBE"/>
<stop offset="0.21" stop-color="#B8B8B9"/>
<stop offset="0.28" stop-color="#AAAAAE"/>
<stop offset="0.37" stop-color="#A2A2A7"/>
<stop offset="0.53" stop-color="#A0A0A6"/>
<stop offset="0.87" stop-color="#91929A"/>
<stop offset="0.88" stop-color="#84858F"/>
</linearGradient>
<linearGradient id="paint13_linear_4701_123965" x1="63.279" y1="59.7454" x2="49.4731" y2="45.9395" gradientUnits="userSpaceOnUse">
<stop offset="0.07" stop-color="#0B1D2D"/>
<stop offset="0.08" stop-color="#3070C7"/>
<stop offset="0.16" stop-color="#84ACE5"/>
<stop offset="0.69" stop-color="#3170C7"/>
<stop offset="0.88" stop-color="#134789"/>
<stop offset="0.96" stop-color="#4275DD"/>
</linearGradient>
<linearGradient id="paint14_linear_4701_123965" x1="54.3339" y1="50.1177" x2="59.648" y2="51.4108" gradientUnits="userSpaceOnUse">
<stop stop-color="#295EEC"/>
<stop offset="1" stop-color="#003F88"/>
</linearGradient>
<linearGradient id="paint15_linear_4701_123965" x1="54.5796" y1="50.7461" x2="58.344" y2="51.6635" gradientUnits="userSpaceOnUse">
<stop stop-color="#003F88"/>
<stop offset="1" stop-color="#295EEC"/>
</linearGradient>
<linearGradient id="paint16_linear_4701_123965" x1="46.3642" y1="37.9551" x2="73.4558" y2="43.8644" gradientUnits="userSpaceOnUse">
<stop stop-color="#003F88"/>
<stop offset="1" stop-color="#295EEC"/>
</linearGradient>
</defs>
</svg>
