<svg width="24" height="25" viewBox="0 0 24 25" fill="none" xmlns="http://www.w3.org/2000/svg">
<path d="M3.34997 2.5H12.25C12.99 2.5 13.6 3.11001 13.6 3.85001V5.32999C13.6 5.86999 13.26 6.54 12.93 6.88L10.03 9.44C9.63003 9.78 9.35998 10.45 9.35998 10.99V13.89C9.35998 14.29 9.09 14.83 8.75 15.04L7.81 15.65C6.93 16.19 5.71997 15.58 5.71997 14.5V10.93C5.71997 10.46 5.44999 9.85001 5.17999 9.51001L2.61999 6.81C2.27999 6.47 2.01001 5.86999 2.01001 5.45999V3.91C2.00001 3.11 2.60997 2.5 3.34997 2.5Z" stroke="white" stroke-width="1.5" stroke-miterlimit="10" stroke-linecap="round" stroke-linejoin="round"/>
<path d="M2 12.5002V15.5002C2 20.5002 4 22.5002 9 22.5002H15C20 22.5002 22 20.5002 22 15.5002V9.50024C22 6.38024 21.22 4.42024 19.41 3.40024C18.9 3.11024 17.88 2.89023 16.95 2.74023" stroke="white" stroke-width="1.5" stroke-linecap="round" stroke-linejoin="round"/>
<path d="M13 13.5H18" stroke="white" stroke-width="1.5" stroke-linecap="round" stroke-linejoin="round"/>
<path d="M11 17.5H18" stroke="white" stroke-width="1.5" stroke-linecap="round" stroke-linejoin="round"/>
</svg>
