<svg width="27" height="26" viewBox="0 0 27 26" fill="none" xmlns="http://www.w3.org/2000/svg">
<path d="M11.4266 8.91769C10.3191 8.91769 9.4177 9.81906 9.4177 10.9266C9.4177 12.0341 10.3191 12.9355 11.4266 12.9355C12.5341 12.9355 13.4355 12.0341 13.4355 10.9266C13.4355 9.81906 12.5346 8.91769 11.4266 8.91769ZM11.4266 12.3261C10.6547 12.3261 10.0271 11.6985 10.0271 10.9266C10.0271 10.1547 10.6547 9.52707 11.4266 9.52707C12.1985 9.52707 12.8261 10.1547 12.8261 10.9266C12.8261 11.6985 12.1985 12.3261 11.4266 12.3261ZM25.4001 22.6053L22.0871 18.8404C22.5492 18.2355 22.8681 17.5084 22.9834 16.703C23.1586 15.4832 22.8478 14.268 22.1089 13.2813C21.9145 13.0218 21.6961 12.7867 21.4579 12.5775C21.5463 12.0346 21.592 11.4806 21.592 10.9266C21.5915 5.32187 17.0318 0.761719 11.4266 0.761719C5.82137 0.761719 1.26172 5.32187 1.26172 10.9266C1.26172 16.5313 5.82187 21.0915 11.4266 21.0915C13.0242 21.0915 14.6096 20.7116 16.0243 19.9931C16.5403 20.3069 17.1258 20.5237 17.7605 20.6146C17.982 20.6461 18.2013 20.6619 18.4187 20.6619C18.9925 20.6619 19.5486 20.5537 20.064 20.3557L22.7452 24.5934C22.9514 24.9189 23.2835 25.1382 23.6806 25.2114C23.7776 25.2291 23.8761 25.2378 23.9752 25.2378C24.3494 25.2378 24.7303 25.1134 25.0355 24.8848C25.4219 24.5954 25.6814 24.1434 25.7296 23.6762C25.7718 23.2746 25.6545 22.8942 25.4001 22.6053ZM11.7313 20.477V19.3796C11.7313 19.2116 11.5947 19.075 11.4266 19.075C11.2585 19.075 11.1219 19.2116 11.1219 19.3796V20.4765C9.60508 20.4288 8.17609 20.0261 6.91621 19.3482L7.46414 18.3991C7.54844 18.2533 7.49816 18.067 7.35242 17.9827C7.20668 17.8989 7.02031 17.9486 6.93602 18.0944L6.3891 19.043C5.14242 18.2665 4.08719 17.2113 3.31074 15.9646L4.25883 15.4172C4.40457 15.3329 4.45434 15.1465 4.37055 15.0008C4.28625 14.855 4.09988 14.8053 3.95414 14.8891L3.00453 15.4375C2.32711 14.1771 1.92391 12.7486 1.87617 11.2318H2.97305C3.14113 11.2318 3.27773 11.0952 3.27773 10.9271C3.27773 10.759 3.14113 10.6224 2.97305 10.6224H1.87617C1.92391 9.10558 2.3266 7.6766 3.00453 6.41672L3.95363 6.96465C4.00188 6.99207 4.05418 7.00527 4.10547 7.00527C4.21059 7.00527 4.31316 6.95043 4.36953 6.85293C4.45383 6.70719 4.40355 6.52082 4.25781 6.43652L3.30973 5.8891C4.08617 4.64242 5.14141 3.58719 6.38809 2.81074L6.93551 3.75883C6.99188 3.85633 7.09445 3.91117 7.19957 3.91117C7.25137 3.91117 7.30367 3.89797 7.35141 3.87055C7.49715 3.78625 7.54691 3.59988 7.46312 3.45414L6.9152 2.50504C8.17559 1.82762 9.60406 1.42441 11.1209 1.37668V2.47355C11.1209 2.64164 11.2575 2.77824 11.4256 2.77824C11.5937 2.77824 11.7303 2.64164 11.7303 2.47355V1.37668C13.2471 1.42441 14.6761 1.82711 15.936 2.50504L15.388 3.45414C15.3037 3.59988 15.354 3.78625 15.4998 3.87055C15.548 3.89797 15.6003 3.91117 15.6516 3.91117C15.7567 3.91117 15.8593 3.85633 15.9157 3.75883L16.4631 2.81074C17.7098 3.58719 18.765 4.64242 19.5414 5.8891L18.5934 6.43652C18.4476 6.52082 18.3979 6.70719 18.4816 6.85293C18.538 6.95043 18.6406 7.00527 18.7457 7.00527C18.7975 7.00527 18.8498 6.99207 18.8975 6.96465L19.8466 6.41672C20.5241 7.67711 20.9273 9.10558 20.975 10.6224H19.8781C19.71 10.6224 19.5734 10.759 19.5734 10.9271C19.5734 11.0952 19.71 11.2318 19.8781 11.2318H20.975C20.9654 11.5426 20.9405 11.8529 20.9009 12.1601C20.3529 11.8092 19.7324 11.5761 19.0692 11.4806C18.898 11.4562 18.7279 11.4415 18.5588 11.4364C18.5705 11.2668 18.5776 11.0967 18.5776 10.9271C18.5776 6.98293 15.3688 3.77406 11.4246 3.77406C7.48039 3.77406 4.27406 6.98242 4.27406 10.9266C4.27406 14.8708 7.48293 18.0796 11.4271 18.0796C12.3407 18.0796 13.2263 17.9105 14.0642 17.5774C14.3414 18.362 14.8264 19.0582 15.4622 19.5899C14.2978 20.1317 13.0227 20.4359 11.7313 20.477ZM12.4986 16.4074V14.0898C12.4986 13.9887 12.5524 13.9085 12.6459 13.8699C12.7393 13.8313 12.8337 13.8501 12.9054 13.9217L13.9342 14.9505C13.8991 15.0952 13.8702 15.2425 13.8484 15.3928C13.8199 15.5904 13.8047 15.7864 13.8016 15.9809C13.3837 16.1779 12.948 16.3201 12.4986 16.4074ZM14.1454 14.2995L13.336 13.49C13.0892 13.2432 12.7352 13.1727 12.4123 13.3062C12.0898 13.4398 11.8892 13.7399 11.8892 14.0893V16.4902C11.7364 16.5024 11.582 16.509 11.4266 16.509C11.2707 16.509 11.1168 16.5024 10.964 16.4897V14.0887C10.964 13.7394 10.7634 13.4393 10.4409 13.3057C10.1185 13.1721 9.76453 13.2422 9.51723 13.4895L7.82164 15.1851C7.58602 14.9855 7.36715 14.7667 7.16758 14.5311L8.86316 12.8355C9.11047 12.5887 9.18055 12.2347 9.04699 11.9118C8.91344 11.5893 8.61332 11.3887 8.26395 11.3887H5.86352C5.85082 11.2364 5.84422 11.082 5.84422 10.9261C5.84422 10.7702 5.85082 10.6163 5.86352 10.4635H8.26395C8.61332 10.4635 8.91344 10.2629 9.04699 9.94043C9.18055 9.61746 9.11047 9.26351 8.86316 9.01672L7.16758 7.32113C7.36715 7.08551 7.58602 6.86664 7.82164 6.66707L9.51723 8.36266C9.68125 8.52668 9.89301 8.61301 10.1114 8.61301C10.2216 8.61301 10.3328 8.59117 10.4409 8.54648C10.7634 8.41293 10.964 8.11281 10.964 7.76344V5.36301C11.1163 5.35031 11.2707 5.34371 11.4266 5.34371C11.5825 5.34371 11.7364 5.35031 11.8892 5.36301V7.76344C11.8892 8.11281 12.0898 8.41293 12.4123 8.54648C12.5204 8.59117 12.6321 8.61301 12.7423 8.61301C12.9607 8.61301 13.172 8.52668 13.336 8.36266L15.0316 6.66707C15.2672 6.86664 15.4861 7.08551 15.6856 7.32113L13.99 9.01672C13.7432 9.26402 13.6727 9.61797 13.8062 9.94043C13.9398 10.2629 14.2399 10.4635 14.5893 10.4635H16.9902C17.0029 10.6158 17.0095 10.7702 17.0095 10.9261C17.0095 11.0805 17.0029 11.2348 16.9907 11.3887H14.5898C14.2404 11.3887 13.9403 11.5893 13.8067 11.9118C13.6732 12.2347 13.7432 12.5887 13.9905 12.8355L14.604 13.4489C14.4232 13.7135 14.2688 13.9979 14.1454 14.2995ZM10.3546 16.4059C9.61066 16.2607 8.91852 15.9671 8.31168 15.5579L9.94836 13.9212C10.02 13.8496 10.1144 13.8308 10.2079 13.8694C10.3013 13.908 10.3551 13.9882 10.3551 14.0893V16.4059H10.3546ZM6.79586 7.81168L8.43254 9.44785C8.50414 9.51945 8.52293 9.61391 8.48434 9.70734C8.44574 9.80078 8.36551 9.8541 8.26445 9.8541H5.94832C6.09305 9.11066 6.38605 8.41902 6.79586 7.81168ZM5.9473 11.9986H8.26344C8.36449 11.9986 8.44473 12.0524 8.48332 12.1459C8.52191 12.2393 8.50313 12.3337 8.43152 12.4054L6.79484 14.042C6.38605 13.4347 6.09305 12.7425 5.9473 11.9986ZM8.31168 6.29586C8.91902 5.88605 9.61066 5.59305 10.3546 5.44781V7.76394C10.3546 7.865 10.3008 7.94523 10.2073 7.98383C10.1139 8.02242 10.0195 8.00363 9.94785 7.93203L8.31168 6.29586ZM12.4986 5.4473C13.2425 5.59254 13.9347 5.88605 14.5415 6.29535L12.9048 7.93203C12.8332 8.00363 12.7388 8.02242 12.6454 7.98383C12.5519 7.94523 12.4981 7.865 12.4981 7.76394V5.4473H12.4986ZM16.9059 9.85461H14.5898C14.4887 9.85461 14.4085 9.80078 14.3699 9.70734C14.3313 9.61391 14.3501 9.51945 14.4217 9.44785L16.0584 7.81117C16.4671 8.41902 16.7607 9.11066 16.9059 9.85461ZM14.9828 12.967L14.4212 12.4054C14.3496 12.3337 14.3308 12.2393 14.3694 12.1459C14.408 12.0524 14.4882 11.9986 14.5893 11.9986H16.2066C15.7481 12.25 15.3332 12.5775 14.9828 12.967ZM11.4266 4.73434C8.01207 4.73434 5.23434 7.51207 5.23434 10.9266C5.23434 14.3411 8.01207 17.1189 11.4266 17.1189C12.268 17.1189 13.077 16.9543 13.8387 16.6309C13.8539 16.7507 13.8737 16.8695 13.8981 16.9868C13.1141 17.3073 12.2843 17.4703 11.4266 17.4703C7.81859 17.4703 4.88293 14.5351 4.88293 10.9266C4.88293 7.31809 7.81809 4.38293 11.4266 4.38293C15.0351 4.38293 17.9703 7.31809 17.9703 10.9266C17.9703 11.1033 17.9627 11.2811 17.9484 11.4568C17.8281 11.4689 17.7087 11.4857 17.5909 11.5075C17.6087 11.3146 17.6189 11.1206 17.6189 10.9266C17.6189 7.51207 14.8411 4.73434 11.4266 4.73434ZM17.8474 20.0119C16.7886 19.86 15.8522 19.305 15.2108 18.4488C14.5695 17.5927 14.2998 16.5379 14.4521 15.4791C14.604 14.4204 15.159 13.4839 16.0152 12.8426C16.7155 12.318 17.5483 12.0423 18.4075 12.0423C18.5989 12.0423 18.7919 12.056 18.9849 12.0839C20.0437 12.2357 20.9801 12.7908 21.6214 13.647C22.2628 14.5031 22.5325 15.5579 22.3801 16.6166C22.2283 17.6754 21.6732 18.6118 20.8171 19.2532C19.9604 19.8941 18.9062 20.1637 17.8474 20.0119ZM21.6819 19.303L22.3253 20.0337L21.1421 20.9198L20.6216 20.0972C21.0111 19.8849 21.3686 19.6168 21.6819 19.303ZM25.1238 23.6138C25.0929 23.9149 24.9232 24.2079 24.6704 24.3973C24.4175 24.5868 24.0889 24.667 23.7908 24.6121C23.6293 24.5827 23.4064 24.4984 23.2602 24.2679L21.4686 21.4368L22.729 20.4928L24.9425 23.008C25.1228 23.2131 25.1406 23.4503 25.1238 23.6138ZM21.0517 14.0735C20.5246 13.3697 19.7542 12.9132 18.8838 12.7882C18.0134 12.6633 17.1461 12.8852 16.4418 13.4123C15.7379 13.9395 15.2814 14.7093 15.1565 15.5802C15.0316 16.4511 15.253 17.3179 15.7806 18.0223C16.3077 18.7261 17.078 19.1826 17.9484 19.3075C18.1069 19.3304 18.2658 19.3416 18.4232 19.3416C19.1301 19.3416 19.8146 19.1146 20.3905 18.6834C21.0943 18.1563 21.5509 17.386 21.6758 16.5156C21.8002 15.6447 21.5788 14.7773 21.0517 14.0735ZM21.0725 16.4287C20.9709 17.1382 20.5987 17.7658 20.0249 18.1954C19.4511 18.625 18.7442 18.8058 18.0348 18.7037C17.3254 18.6022 16.6977 18.23 16.2681 17.6561C15.8385 17.0823 15.6577 16.3759 15.7598 15.666C15.8613 14.9566 16.2336 14.3289 16.8074 13.8993C17.2766 13.5479 17.8347 13.3631 18.4105 13.3631C18.539 13.3631 18.668 13.3722 18.7975 13.391C20.262 13.6012 21.2822 14.9637 21.0725 16.4287Z" fill="#888888"/>
</svg>
